%FSLAX24Y24*%
%MOIN*%
G70*
G01*
G75*
G04 Layer_Color=65535*
%ADD10C,0.0100*%
%ADD11R,0.1693X0.1693*%
%ADD12O,0.0827X0.0118*%
%ADD13O,0.0118X0.0827*%
%ADD14R,0.0512X0.0394*%
%ADD15O,0.0984X0.0276*%
%ADD16R,0.0394X0.0512*%
%ADD17R,0.0551X0.0433*%
%ADD18R,0.0433X0.0551*%
%ADD19R,0.0512X0.0591*%
%ADD20R,0.1299X0.1063*%
%ADD21R,0.0394X0.1063*%
%ADD22R,0.0472X0.0551*%
%ADD23R,0.0551X0.0630*%
%ADD24R,0.0500X0.0300*%
%ADD25C,0.0200*%
%ADD26C,0.0300*%
%ADD27C,0.0250*%
%ADD28C,0.0600*%
%ADD29C,0.0400*%
%ADD30C,0.0150*%
%ADD31C,0.0079*%
%ADD32R,0.7165X0.7146*%
%ADD33R,0.0719X0.1122*%
%ADD34R,0.1516X0.1821*%
%ADD35R,0.1349X0.0305*%
%ADD36R,0.0709X0.0778*%
%ADD37R,0.1830X0.1120*%
%ADD38R,0.2080X0.2124*%
%ADD39R,0.0790X0.5280*%
%ADD40R,0.0810X0.1960*%
%ADD41R,0.1310X0.3313*%
%ADD42R,0.1010X0.0210*%
%ADD43R,0.1490X0.1470*%
%ADD44R,0.0370X0.4820*%
%ADD45R,0.0770X0.0910*%
%ADD46R,0.0920X0.5210*%
%ADD47R,0.1260X0.1830*%
%ADD48R,0.1490X0.6150*%
%ADD49R,0.3870X0.4260*%
%ADD50R,0.1270X0.5300*%
%ADD51R,0.1950X0.1110*%
%ADD52R,0.2270X0.0510*%
%ADD53R,0.0780X0.2500*%
%ADD54R,0.1520X0.0820*%
%ADD55R,0.1890X0.1040*%
%ADD56R,0.3710X0.3070*%
%ADD57R,0.1740X0.1110*%
%ADD58R,0.1460X0.3920*%
%ADD59R,0.2270X0.2971*%
%ADD60R,0.0820X0.6210*%
%ADD61R,0.0810X0.5750*%
%ADD62R,0.1610X0.3230*%
%ADD63R,0.0810X0.1040*%
%ADD64R,0.0470X0.5180*%
%ADD65R,0.1430X0.1840*%
%ADD66R,0.1550X0.2090*%
%ADD67R,0.1370X0.4960*%
%ADD68R,0.1512X0.4310*%
%ADD69R,0.4902X0.1473*%
%ADD70R,0.0710X0.2250*%
%ADD71R,0.4912X0.1971*%
%ADD72R,0.1112X1.9075*%
%ADD73R,0.1452X0.7011*%
%ADD74R,0.0640X0.1540*%
%ADD75R,0.1130X0.1610*%
%ADD76R,0.3340X0.1210*%
%ADD77R,0.1110X0.1820*%
%ADD78R,0.1390X0.1590*%
%ADD79R,0.3241X0.0974*%
%ADD80R,0.1470X0.0847*%
%ADD81R,0.1260X0.9560*%
%ADD82R,0.1100X0.3420*%
%ADD83R,0.1180X0.0590*%
%ADD84R,0.0830X0.3230*%
%ADD85R,0.1820X0.0900*%
%ADD86R,0.0850X0.1900*%
%ADD87R,0.1770X0.0950*%
%ADD88C,0.0320*%
%ADD89R,0.0591X0.0591*%
%ADD90C,0.0591*%
%ADD91R,0.0591X0.0591*%
%ADD92C,0.0500*%
%ADD93R,0.0413X0.0551*%
%ADD94R,0.0669X0.0433*%
%ADD95R,0.0433X0.0669*%
%ADD96R,0.5810X0.0400*%
%ADD97R,0.1370X0.1190*%
%ADD98R,0.0260X0.2940*%
%ADD99R,0.0610X0.3620*%
%ADD100R,0.1330X0.0650*%
%ADD101R,0.0400X0.4480*%
%ADD102R,0.2410X0.0450*%
%ADD103R,0.0890X0.3400*%
%ADD104R,0.6880X0.0610*%
%ADD105R,0.1880X0.3480*%
%ADD106R,0.7920X0.0350*%
%ADD107R,0.0310X0.3890*%
%ADD108R,0.0890X0.0960*%
%ADD109R,0.2450X0.2860*%
%ADD110R,0.0960X0.0910*%
%ADD111R,0.2300X0.1250*%
%ADD112R,0.1320X0.0920*%
%ADD113R,0.1430X0.0570*%
%ADD114R,0.0600X0.2880*%
%ADD115R,0.1560X0.1200*%
%ADD116R,0.0510X0.2190*%
%ADD117R,0.0810X0.0450*%
%ADD118R,0.8040X0.0410*%
%ADD119R,0.1080X0.2300*%
%ADD120R,0.0530X0.1260*%
%ADD121R,0.0690X0.1090*%
%ADD122R,0.3970X0.0570*%
%ADD123R,0.0670X0.1760*%
%ADD124R,0.2440X0.1760*%
%ADD125R,0.3080X0.1760*%
%ADD126R,0.3360X0.3810*%
%ADD127R,0.3950X0.2010*%
%ADD128R,0.5290X0.1430*%
%ADD129R,0.1080X0.1370*%
%ADD130R,0.4870X0.0400*%
%ADD131R,0.3310X0.0720*%
%ADD132R,0.0640X0.3170*%
%ADD133R,1.4780X0.0490*%
%ADD134R,0.8680X0.0890*%
%ADD135R,0.2310X0.1210*%
%ADD136R,0.0660X0.7140*%
%ADD137R,0.3910X0.1760*%
%ADD138R,0.1190X0.4160*%
%ADD139R,0.6620X0.0690*%
%ADD140R,0.1720X0.3830*%
%ADD141R,0.0560X0.2760*%
%ADD142R,0.6730X0.0390*%
%ADD143R,0.2390X0.0640*%
%ADD144R,0.4150X0.0630*%
%ADD145R,0.5920X0.0470*%
%ADD146R,0.3050X0.2190*%
%ADD147R,0.0600X0.1180*%
%ADD148R,0.0840X0.2610*%
%ADD149R,0.4730X0.1350*%
%ADD150R,0.1830X1.0120*%
%ADD151R,0.2560X0.0720*%
%ADD152R,0.2990X0.2490*%
%ADD153R,0.1090X0.5830*%
%ADD154R,0.8340X0.8340*%
%ADD155R,0.3240X0.0960*%
%ADD156R,0.2210X0.1000*%
%ADD157R,0.1070X0.0400*%
%ADD158R,0.0610X0.1460*%
%ADD159R,0.0460X0.1390*%
%ADD160R,0.3240X0.0430*%
%ADD161R,0.0570X0.1510*%
%ADD162R,0.1660X0.0570*%
%ADD163R,0.2810X0.2110*%
%ADD164R,0.0630X0.1380*%
%ADD165R,0.1810X0.0340*%
%ADD166R,0.7090X0.0860*%
%ADD167R,0.1020X0.1410*%
%ADD168R,0.3440X0.0470*%
%ADD169R,0.0670X0.1580*%
%ADD170R,0.0560X0.6510*%
%ADD171R,2.0860X0.0750*%
%ADD172R,0.1230X0.1040*%
%ADD173R,0.1030X0.1670*%
%ADD174R,0.1220X0.0770*%
%ADD175R,0.0490X0.1560*%
%ADD176R,0.1062X0.1940*%
%ADD177R,0.0940X0.1560*%
%ADD178C,0.0098*%
%ADD179C,0.0236*%
%ADD180C,0.0080*%
D10*
X11008Y6629D02*
X10958Y6679D01*
X10858D01*
X10808Y6629D01*
Y6429D01*
X10858Y6379D01*
X10958D01*
X11008Y6429D01*
X11108Y6629D02*
X11158Y6679D01*
X11258D01*
X11308Y6629D01*
Y6579D01*
X11258Y6529D01*
X11208D01*
X11258D01*
X11308Y6479D01*
Y6429D01*
X11258Y6379D01*
X11158D01*
X11108Y6429D01*
X11608Y6379D02*
X11408D01*
X11608Y6579D01*
Y6629D01*
X11558Y6679D01*
X11458D01*
X11408Y6629D01*
X21850Y14499D02*
X21800Y14549D01*
X21700D01*
X21650Y14499D01*
Y14299D01*
X21700Y14249D01*
X21800D01*
X21850Y14299D01*
X21950Y14499D02*
X22000Y14549D01*
X22100D01*
X22150Y14499D01*
Y14449D01*
X22100Y14399D01*
X22050D01*
X22100D01*
X22150Y14349D01*
Y14299D01*
X22100Y14249D01*
X22000D01*
X21950Y14299D01*
X22250Y14249D02*
X22350D01*
X22300D01*
Y14549D01*
X22250Y14499D01*
X23130Y15716D02*
Y16016D01*
X23280D01*
X23330Y15966D01*
Y15866D01*
X23280Y15816D01*
X23130D01*
X23230D02*
X23330Y15716D01*
X23430D02*
X23530D01*
X23480D01*
Y16016D01*
X23430Y15966D01*
X23880Y16016D02*
X23780Y15966D01*
X23680Y15866D01*
Y15766D01*
X23730Y15716D01*
X23830D01*
X23880Y15766D01*
Y15816D01*
X23830Y15866D01*
X23680D01*
X23140Y16429D02*
Y16729D01*
X23290D01*
X23340Y16679D01*
Y16579D01*
X23290Y16529D01*
X23140D01*
X23240D02*
X23340Y16429D01*
X23440D02*
X23540D01*
X23490D01*
Y16729D01*
X23440Y16679D01*
X23890Y16729D02*
X23690D01*
Y16579D01*
X23790Y16629D01*
X23840D01*
X23890Y16579D01*
Y16479D01*
X23840Y16429D01*
X23740D01*
X23690Y16479D01*
X25250Y2539D02*
Y2839D01*
X25400D01*
X25450Y2789D01*
Y2689D01*
X25400Y2639D01*
X25250D01*
X25350D02*
X25450Y2539D01*
X25550D02*
X25650D01*
X25600D01*
Y2839D01*
X25550Y2789D01*
X25950Y2539D02*
Y2839D01*
X25800Y2689D01*
X26000D01*
X25240Y3249D02*
Y3549D01*
X25390D01*
X25440Y3499D01*
Y3399D01*
X25390Y3349D01*
X25240D01*
X25340D02*
X25440Y3249D01*
X25540D02*
X25640D01*
X25590D01*
Y3549D01*
X25540Y3499D01*
X25790D02*
X25840Y3549D01*
X25940D01*
X25990Y3499D01*
Y3449D01*
X25940Y3399D01*
X25890D01*
X25940D01*
X25990Y3349D01*
Y3299D01*
X25940Y3249D01*
X25840D01*
X25790Y3299D01*
X26560Y15702D02*
X26860D01*
Y15852D01*
X26810Y15902D01*
X26610D01*
X26560Y15852D01*
Y15702D01*
Y16202D02*
Y16002D01*
X26710D01*
X26660Y16102D01*
Y16152D01*
X26710Y16202D01*
X26810D01*
X26860Y16152D01*
Y16052D01*
X26810Y16002D01*
X26560Y14642D02*
X26860D01*
Y14792D01*
X26810Y14842D01*
X26610D01*
X26560Y14792D01*
Y14642D01*
X26860Y15092D02*
X26560D01*
X26710Y14942D01*
Y15142D01*
X26560Y4285D02*
X26860D01*
Y4435D01*
X26810Y4485D01*
X26610D01*
X26560Y4435D01*
Y4285D01*
X26610Y4585D02*
X26560Y4635D01*
Y4735D01*
X26610Y4785D01*
X26660D01*
X26710Y4735D01*
Y4685D01*
Y4735D01*
X26760Y4785D01*
X26810D01*
X26860Y4735D01*
Y4635D01*
X26810Y4585D01*
X26560Y3171D02*
X26860D01*
Y3321D01*
X26810Y3371D01*
X26610D01*
X26560Y3321D01*
Y3171D01*
X26860Y3671D02*
Y3471D01*
X26660Y3671D01*
X26610D01*
X26560Y3621D01*
Y3521D01*
X26610Y3471D01*
X830Y14944D02*
Y15243D01*
X980D01*
X1030Y15193D01*
Y15093D01*
X980Y15044D01*
X830D01*
X930D02*
X1030Y14944D01*
X1330D02*
X1130D01*
X1330Y15143D01*
Y15193D01*
X1280Y15243D01*
X1180D01*
X1130Y15193D01*
X26520Y2166D02*
X26820D01*
Y2316D01*
X26770Y2366D01*
X26570D01*
X26520Y2316D01*
Y2166D01*
X26820Y2466D02*
Y2566D01*
Y2516D01*
X26520D01*
X26570Y2466D01*
X7650Y5349D02*
X7600Y5399D01*
X7500D01*
X7450Y5349D01*
Y5149D01*
X7500Y5099D01*
X7600D01*
X7650Y5149D01*
X7750Y5349D02*
X7800Y5399D01*
X7900D01*
X7950Y5349D01*
Y5299D01*
X7900Y5249D01*
X7850D01*
X7900D01*
X7950Y5199D01*
Y5149D01*
X7900Y5099D01*
X7800D01*
X7750Y5149D01*
X8050D02*
X8100Y5099D01*
X8200D01*
X8250Y5149D01*
Y5349D01*
X8200Y5399D01*
X8100D01*
X8050Y5349D01*
Y5299D01*
X8100Y5249D01*
X8250D01*
X7700Y15909D02*
X7650Y15959D01*
X7550D01*
X7500Y15909D01*
Y15709D01*
X7550Y15659D01*
X7650D01*
X7700Y15709D01*
X7800Y15909D02*
X7850Y15959D01*
X7950D01*
X8000Y15909D01*
Y15859D01*
X7950Y15809D01*
X7900D01*
X7950D01*
X8000Y15759D01*
Y15709D01*
X7950Y15659D01*
X7850D01*
X7800Y15709D01*
X8100Y15909D02*
X8150Y15959D01*
X8250D01*
X8300Y15909D01*
Y15859D01*
X8250Y15809D01*
X8300Y15759D01*
Y15709D01*
X8250Y15659D01*
X8150D01*
X8100Y15709D01*
Y15759D01*
X8150Y15809D01*
X8100Y15859D01*
Y15909D01*
X8150Y15809D02*
X8250D01*
X4280Y7309D02*
X4230Y7359D01*
X4130D01*
X4080Y7309D01*
Y7109D01*
X4130Y7059D01*
X4230D01*
X4280Y7109D01*
X4580Y7059D02*
X4380D01*
X4580Y7259D01*
Y7309D01*
X4530Y7359D01*
X4430D01*
X4380Y7309D01*
X4270Y6879D02*
X4220Y6929D01*
X4120D01*
X4070Y6879D01*
Y6679D01*
X4120Y6629D01*
X4220D01*
X4270Y6679D01*
X4370Y6879D02*
X4420Y6929D01*
X4520D01*
X4570Y6879D01*
Y6829D01*
X4520Y6779D01*
X4470D01*
X4520D01*
X4570Y6729D01*
Y6679D01*
X4520Y6629D01*
X4420D01*
X4370Y6679D01*
X22460Y5789D02*
X22410Y5839D01*
X22310D01*
X22260Y5789D01*
Y5589D01*
X22310Y5539D01*
X22410D01*
X22460Y5589D01*
X22560Y5539D02*
X22660D01*
X22610D01*
Y5839D01*
X22560Y5789D01*
X22810D02*
X22860Y5839D01*
X22960D01*
X23010Y5789D01*
Y5739D01*
X22960Y5689D01*
X22910D01*
X22960D01*
X23010Y5639D01*
Y5589D01*
X22960Y5539D01*
X22860D01*
X22810Y5589D01*
X21130Y15579D02*
X21080Y15629D01*
X20980D01*
X20930Y15579D01*
Y15379D01*
X20980Y15329D01*
X21080D01*
X21130Y15379D01*
X21230Y15579D02*
X21280Y15629D01*
X21380D01*
X21430Y15579D01*
Y15529D01*
X21380Y15479D01*
X21330D01*
X21380D01*
X21430Y15429D01*
Y15379D01*
X21380Y15329D01*
X21280D01*
X21230Y15379D01*
X21530Y15579D02*
X21580Y15629D01*
X21680D01*
X21730Y15579D01*
Y15529D01*
X21680Y15479D01*
X21630D01*
X21680D01*
X21730Y15429D01*
Y15379D01*
X21680Y15329D01*
X21580D01*
X21530Y15379D01*
X11390Y3969D02*
X11340Y4019D01*
X11240D01*
X11190Y3969D01*
Y3769D01*
X11240Y3719D01*
X11340D01*
X11390Y3769D01*
X11490Y3969D02*
X11540Y4019D01*
X11640D01*
X11690Y3969D01*
Y3919D01*
X11640Y3869D01*
X11590D01*
X11640D01*
X11690Y3819D01*
Y3769D01*
X11640Y3719D01*
X11540D01*
X11490Y3769D01*
X11940Y3719D02*
Y4019D01*
X11790Y3869D01*
X11990D01*
X4060Y13219D02*
X4010Y13269D01*
X3910D01*
X3860Y13219D01*
Y13019D01*
X3910Y12969D01*
X4010D01*
X4060Y13019D01*
X4160Y13219D02*
X4210Y13269D01*
X4310D01*
X4360Y13219D01*
Y13169D01*
X4310Y13119D01*
X4260D01*
X4310D01*
X4360Y13069D01*
Y13019D01*
X4310Y12969D01*
X4210D01*
X4160Y13019D01*
X4660Y13269D02*
X4460D01*
Y13119D01*
X4560Y13169D01*
X4610D01*
X4660Y13119D01*
Y13019D01*
X4610Y12969D01*
X4510D01*
X4460Y13019D01*
X4040Y12709D02*
X3990Y12759D01*
X3890D01*
X3840Y12709D01*
Y12509D01*
X3890Y12459D01*
X3990D01*
X4040Y12509D01*
X4140Y12709D02*
X4190Y12759D01*
X4290D01*
X4340Y12709D01*
Y12659D01*
X4290Y12609D01*
X4240D01*
X4290D01*
X4340Y12559D01*
Y12509D01*
X4290Y12459D01*
X4190D01*
X4140Y12509D01*
X4640Y12759D02*
X4540Y12709D01*
X4440Y12609D01*
Y12509D01*
X4490Y12459D01*
X4590D01*
X4640Y12509D01*
Y12559D01*
X4590Y12609D01*
X4440D01*
X25630Y10939D02*
X25580Y10989D01*
X25480D01*
X25430Y10939D01*
Y10739D01*
X25480Y10689D01*
X25580D01*
X25630Y10739D01*
X25730Y10939D02*
X25780Y10989D01*
X25880D01*
X25930Y10939D01*
Y10889D01*
X25880Y10839D01*
X25830D01*
X25880D01*
X25930Y10789D01*
Y10739D01*
X25880Y10689D01*
X25780D01*
X25730Y10739D01*
X26030Y10989D02*
X26230D01*
Y10939D01*
X26030Y10739D01*
Y10689D01*
X27580Y7369D02*
Y7269D01*
Y7319D01*
X27830D01*
X27880Y7269D01*
Y7219D01*
X27830Y7169D01*
X27580Y7469D02*
Y7669D01*
Y7569D01*
X27880D01*
Y7769D02*
X27680D01*
X27580Y7869D01*
X27680Y7969D01*
X27880D01*
X27730D01*
Y7769D01*
X27630Y8269D02*
X27580Y8219D01*
Y8119D01*
X27630Y8069D01*
X27830D01*
X27880Y8119D01*
Y8219D01*
X27830Y8269D01*
X27730D01*
Y8169D01*
X4330Y15899D02*
X4130D01*
X4330Y16099D01*
Y16149D01*
X4280Y16199D01*
X4180D01*
X4130Y16149D01*
X4430Y16199D02*
Y15999D01*
X4530Y15899D01*
X4630Y15999D01*
Y16199D01*
X4930D02*
X4730D01*
Y16049D01*
X4830Y16099D01*
X4880D01*
X4930Y16049D01*
Y15949D01*
X4880Y15899D01*
X4780D01*
X4730Y15949D01*
X6541Y17075D02*
X6441D01*
X6491D01*
Y16825D01*
X6441Y16775D01*
X6391D01*
X6341Y16825D01*
X6641Y16775D02*
Y17075D01*
X6791D01*
X6841Y17025D01*
Y16925D01*
X6791Y16875D01*
X6641D01*
X6941Y16775D02*
X7041D01*
X6991D01*
Y17075D01*
X6941Y17025D01*
X4195Y4756D02*
X4295D01*
X4245D01*
Y5056D01*
X4195Y5006D01*
X4445Y5056D02*
Y4856D01*
X4545Y4756D01*
X4645Y4856D01*
Y5056D01*
X4945Y4756D02*
X4745D01*
X4945Y4956D01*
Y5006D01*
X4895Y5056D01*
X4795D01*
X4745Y5006D01*
X2861Y2821D02*
X2911Y2871D01*
X3011D01*
X3061Y2821D01*
Y2771D01*
X3011Y2721D01*
X2961D01*
X3011D01*
X3061Y2671D01*
Y2621D01*
X3011Y2571D01*
X2911D01*
X2861Y2621D01*
X3161Y2871D02*
Y2671D01*
X3261Y2571D01*
X3361Y2671D01*
Y2871D01*
X3461Y2821D02*
X3511Y2871D01*
X3611D01*
X3661Y2821D01*
Y2771D01*
X3611Y2721D01*
X3561D01*
X3611D01*
X3661Y2671D01*
Y2621D01*
X3611Y2571D01*
X3511D01*
X3461Y2621D01*
X23107Y2603D02*
X23007D01*
X23057D01*
Y2353D01*
X23007Y2303D01*
X22957D01*
X22907Y2353D01*
X23207Y2303D02*
Y2603D01*
X23357D01*
X23407Y2553D01*
Y2453D01*
X23357Y2403D01*
X23207D01*
X23707Y2303D02*
X23507D01*
X23707Y2503D01*
Y2553D01*
X23657Y2603D01*
X23557D01*
X23507Y2553D01*
X6100Y16109D02*
Y15809D01*
X6300D01*
X6400D02*
X6500D01*
X6450D01*
Y16109D01*
X6400Y16059D01*
X6100Y4902D02*
Y4602D01*
X6300D01*
X6600D02*
X6400D01*
X6600Y4802D01*
Y4852D01*
X6550Y4902D01*
X6450D01*
X6400Y4852D01*
X9500Y9779D02*
Y10079D01*
X9650D01*
X9700Y10029D01*
Y9929D01*
X9650Y9879D01*
X9500D01*
X9600D02*
X9700Y9779D01*
X9800D02*
X9900D01*
X9850D01*
Y10079D01*
X9800Y10029D01*
X23320Y8279D02*
Y8579D01*
X23470D01*
X23520Y8529D01*
Y8429D01*
X23470Y8379D01*
X23320D01*
X23420D02*
X23520Y8279D01*
X23620Y8579D02*
X23820D01*
Y8529D01*
X23620Y8329D01*
Y8279D01*
X27090Y10379D02*
Y10679D01*
X27240D01*
X27290Y10629D01*
Y10529D01*
X27240Y10479D01*
X27090D01*
X27190D02*
X27290Y10379D01*
X27390D02*
X27490D01*
X27440D01*
Y10679D01*
X27390Y10629D01*
X27640D02*
X27690Y10679D01*
X27790D01*
X27840Y10629D01*
Y10429D01*
X27790Y10379D01*
X27690D01*
X27640Y10429D01*
Y10629D01*
X1770Y14613D02*
Y14913D01*
X1920D01*
X1970Y14863D01*
Y14763D01*
X1920Y14713D01*
X1770D01*
X1870D02*
X1970Y14613D01*
X2270Y14913D02*
X2070D01*
Y14613D01*
X2270D01*
X2070Y14763D02*
X2170D01*
X2570Y14863D02*
X2520Y14913D01*
X2420D01*
X2370Y14863D01*
Y14663D01*
X2420Y14613D01*
X2520D01*
X2570Y14663D01*
Y14763D01*
X2470D01*
X2870Y14613D02*
X2670D01*
X2870Y14813D01*
Y14863D01*
X2820Y14913D01*
X2720D01*
X2670Y14863D01*
X2970Y14913D02*
Y14713D01*
X3070Y14613D01*
X3170Y14713D01*
Y14913D01*
X3469D02*
X3270D01*
Y14763D01*
X3369Y14813D01*
X3419D01*
X3469Y14763D01*
Y14663D01*
X3419Y14613D01*
X3320D01*
X3270Y14663D01*
X1850Y8885D02*
Y9185D01*
X2000D01*
X2050Y9135D01*
Y9035D01*
X2000Y8985D01*
X1850D01*
X1950D02*
X2050Y8885D01*
X2350Y9185D02*
X2150D01*
Y8885D01*
X2350D01*
X2150Y9035D02*
X2250D01*
X2650Y9135D02*
X2600Y9185D01*
X2500D01*
X2450Y9135D01*
Y8935D01*
X2500Y8885D01*
X2600D01*
X2650Y8935D01*
Y9035D01*
X2550D01*
X2750Y8885D02*
X2850D01*
X2800D01*
Y9185D01*
X2750Y9135D01*
X3000Y9185D02*
Y8985D01*
X3100Y8885D01*
X3200Y8985D01*
Y9185D01*
X3499Y8885D02*
X3300D01*
X3499Y9085D01*
Y9135D01*
X3449Y9185D01*
X3350D01*
X3300Y9135D01*
X24192Y11419D02*
X24392Y11119D01*
Y11419D02*
X24192Y11119D01*
X24491D02*
X24591D01*
X24541D01*
Y11419D01*
X24491Y11369D01*
X27180Y5999D02*
Y5749D01*
X27230Y5699D01*
X27330D01*
X27380Y5749D01*
Y5999D01*
X27680Y5699D02*
X27480D01*
X27680Y5899D01*
Y5949D01*
X27630Y5999D01*
X27530D01*
X27480Y5949D01*
X26560Y16756D02*
X26860D01*
Y16906D01*
X26810Y16956D01*
X26610D01*
X26560Y16906D01*
Y16756D01*
Y17256D02*
X26610Y17156D01*
X26710Y17056D01*
X26810D01*
X26860Y17106D01*
Y17206D01*
X26810Y17256D01*
X26760D01*
X26710Y17206D01*
Y17056D01*
X26560Y17823D02*
X26860D01*
Y17973D01*
X26810Y18023D01*
X26610D01*
X26560Y17973D01*
Y17823D01*
Y18123D02*
Y18323D01*
X26610D01*
X26810Y18123D01*
X26860D01*
X880Y16940D02*
X1180D01*
Y17090D01*
X1130Y17140D01*
X930D01*
X880Y17090D01*
Y16940D01*
X930Y17240D02*
X880Y17290D01*
Y17390D01*
X930Y17440D01*
X980D01*
X1030Y17390D01*
X1080Y17440D01*
X1130D01*
X1180Y17390D01*
Y17290D01*
X1130Y17240D01*
X1080D01*
X1030Y17290D01*
X980Y17240D01*
X930D01*
X1030Y17290D02*
Y17390D01*
X26560Y1086D02*
X26860D01*
Y1236D01*
X26810Y1286D01*
X26610D01*
X26560Y1236D01*
Y1086D01*
X26610Y1386D02*
X26560Y1436D01*
Y1536D01*
X26610Y1586D01*
X26810D01*
X26860Y1536D01*
Y1436D01*
X26810Y1386D01*
X26610D01*
X25310Y4709D02*
Y5009D01*
X25460D01*
X25510Y4959D01*
Y4859D01*
X25460Y4809D01*
X25310D01*
X25410D02*
X25510Y4709D01*
X25610D02*
X25710D01*
X25660D01*
Y5009D01*
X25610Y4959D01*
X25860Y4709D02*
X25960D01*
X25910D01*
Y5009D01*
X25860Y4959D01*
X25300Y3969D02*
Y4269D01*
X25450D01*
X25500Y4219D01*
Y4119D01*
X25450Y4069D01*
X25300D01*
X25400D02*
X25500Y3969D01*
X25600D02*
X25700D01*
X25650D01*
Y4269D01*
X25600Y4219D01*
X26050Y3969D02*
X25850D01*
X26050Y4169D01*
Y4219D01*
X26000Y4269D01*
X25900D01*
X25850Y4219D01*
X23140Y14989D02*
Y15289D01*
X23290D01*
X23340Y15239D01*
Y15139D01*
X23290Y15089D01*
X23140D01*
X23240D02*
X23340Y14989D01*
X23440D02*
X23540D01*
X23490D01*
Y15289D01*
X23440Y15239D01*
X23690Y15289D02*
X23890D01*
Y15239D01*
X23690Y15039D01*
Y14989D01*
X23050Y14219D02*
Y14519D01*
X23200D01*
X23250Y14469D01*
Y14369D01*
X23200Y14319D01*
X23050D01*
X23150D02*
X23250Y14219D01*
X23350D02*
X23450D01*
X23400D01*
Y14519D01*
X23350Y14469D01*
X23600D02*
X23650Y14519D01*
X23750D01*
X23800Y14469D01*
Y14419D01*
X23750Y14369D01*
X23800Y14319D01*
Y14269D01*
X23750Y14219D01*
X23650D01*
X23600Y14269D01*
Y14319D01*
X23650Y14369D01*
X23600Y14419D01*
Y14469D01*
X23650Y14369D02*
X23750D01*
X25670Y13459D02*
X25620Y13509D01*
X25520D01*
X25470Y13459D01*
Y13259D01*
X25520Y13209D01*
X25620D01*
X25670Y13259D01*
X25920Y13209D02*
Y13509D01*
X25770Y13359D01*
X25970D01*
X26070Y13459D02*
X26120Y13509D01*
X26220D01*
X26270Y13459D01*
Y13259D01*
X26220Y13209D01*
X26120D01*
X26070Y13259D01*
Y13459D01*
X6845Y13812D02*
X6795Y13862D01*
X6695D01*
X6645Y13812D01*
Y13762D01*
X6695Y13712D01*
X6795D01*
X6845Y13662D01*
Y13612D01*
X6795Y13562D01*
X6695D01*
X6645Y13612D01*
X6945Y13862D02*
Y13562D01*
X7045Y13662D01*
X7145Y13562D01*
Y13862D01*
X24110Y13939D02*
X24310Y13639D01*
Y13939D02*
X24110Y13639D01*
X24610D02*
X24410D01*
X24610Y13839D01*
Y13889D01*
X24560Y13939D01*
X24460D01*
X24410Y13889D01*
X11920Y14949D02*
Y14699D01*
X11970Y14649D01*
X12070D01*
X12120Y14699D01*
Y14949D01*
X12220Y14649D02*
X12320D01*
X12270D01*
Y14949D01*
X12220Y14899D01*
X19360Y2469D02*
X19760D01*
X19560Y2669D02*
Y2269D01*
X10380Y2439D02*
X10780D01*
X10580Y2639D02*
Y2239D01*
X19330Y16899D02*
X19730D01*
X19530Y17099D02*
Y16699D01*
X10360Y16899D02*
X10760D01*
X10560Y17099D02*
Y16699D01*
X25465Y9088D02*
X25365D01*
Y9188D01*
X25465D01*
Y9088D01*
X23339Y13454D02*
X23439D01*
Y13354D01*
X23339D01*
Y13454D01*
X805Y3704D02*
X1205D01*
X1005Y3904D02*
Y3504D01*
X2005Y3704D02*
X2404D01*
D31*
X20042Y6057D02*
Y13261D01*
X12838Y6057D02*
Y13261D01*
Y6057D02*
X20042D01*
X12838Y13261D02*
X20042D01*
X27413Y9659D02*
X27847D01*
X25105Y5555D02*
Y7523D01*
X25735Y5555D02*
Y7523D01*
X25105D02*
X25735D01*
X25105Y5555D02*
X25735D01*
X24540Y8263D02*
Y8696D01*
X24550Y14143D02*
Y14576D01*
Y14886D02*
Y15319D01*
Y15629D02*
Y16062D01*
Y16373D02*
Y16806D01*
X9690Y9143D02*
Y9576D01*
X5047Y123D02*
Y2123D01*
X25047Y123D02*
Y2123D01*
X5047Y123D02*
X25047D01*
X5047Y2123D02*
X25047D01*
X28510Y1014D02*
Y1679D01*
X28610Y1079D02*
Y1579D01*
X28445Y914D02*
X28610Y1079D01*
X27055Y914D02*
X28445D01*
X27055Y1749D02*
X28440D01*
X28610Y1579D01*
X27055Y914D02*
Y1749D01*
X2830Y16854D02*
Y17519D01*
X2930Y16919D02*
Y17419D01*
X2765Y16754D02*
X2930Y16919D01*
X1375Y16754D02*
X2765D01*
X1375Y17589D02*
X2760D01*
X2930Y17419D01*
X1375Y16754D02*
Y17589D01*
X28510Y17694D02*
Y18359D01*
X28610Y17759D02*
Y18259D01*
X28445Y17594D02*
X28610Y17759D01*
X27055Y17594D02*
X28445D01*
X27055Y18429D02*
X28440D01*
X28610Y18259D01*
X27055Y17594D02*
Y18429D01*
X28510Y16641D02*
Y17306D01*
X28610Y16706D02*
Y17206D01*
X28445Y16541D02*
X28610Y16706D01*
X27055Y16541D02*
X28445D01*
X27055Y17376D02*
X28440D01*
X28610Y17206D01*
X27055Y16541D02*
Y17376D01*
X3419Y6254D02*
Y7277D01*
X781Y6254D02*
Y7277D01*
X3419D01*
X781Y6254D02*
X3419D01*
X660Y2249D02*
X2660D01*
Y3249D01*
X660D02*
X2660D01*
X660Y2249D02*
Y3249D01*
X3595Y3533D02*
X5595D01*
Y4533D01*
X3595D02*
X5595D01*
X3595Y3533D02*
Y4533D01*
X1330Y15443D02*
Y15876D01*
X28080Y12659D02*
X29080D01*
X28080Y6659D02*
X29080D01*
X28080D02*
Y12659D01*
X29080Y6659D02*
Y12659D01*
X3595Y14782D02*
X5595D01*
Y15782D01*
X3595D02*
X5595D01*
X3595Y14782D02*
Y15782D01*
X3419Y12041D02*
Y13065D01*
X781Y12041D02*
Y13065D01*
X3419D01*
X781Y12041D02*
X3419D01*
X23575Y9049D02*
X25228D01*
Y11017D01*
X23575D02*
X25228D01*
X23575Y9049D02*
Y11017D01*
X8438Y13019D02*
Y13378D01*
X5446Y12992D02*
Y13378D01*
X8438D01*
X5446Y10578D02*
X8478D01*
Y10996D01*
X5446Y10578D02*
Y10980D01*
X25228Y11525D02*
Y13493D01*
X23575Y11525D02*
X25228D01*
X23575D02*
Y13493D01*
X25228D01*
X28510Y3127D02*
Y3792D01*
X28610Y3192D02*
Y3692D01*
X28445Y3027D02*
X28610Y3192D01*
X27055Y3027D02*
X28445D01*
X27055Y3862D02*
X28440D01*
X28610Y3692D01*
X27055Y3027D02*
Y3862D01*
X28510Y4184D02*
Y4849D01*
X28610Y4249D02*
Y4749D01*
X28445Y4084D02*
X28610Y4249D01*
X27055Y4084D02*
X28445D01*
X27055Y4919D02*
X28440D01*
X28610Y4749D01*
X27055Y4084D02*
Y4919D01*
X28510Y14534D02*
Y15199D01*
X28610Y14599D02*
Y15099D01*
X28445Y14434D02*
X28610Y14599D01*
X27055Y14434D02*
X28445D01*
X27055Y15269D02*
X28440D01*
X28610Y15099D01*
X27055Y14434D02*
Y15269D01*
X28510Y15587D02*
Y16252D01*
X28610Y15652D02*
Y16152D01*
X28445Y15487D02*
X28610Y15652D01*
X27055Y15487D02*
X28445D01*
X27055Y16322D02*
X28440D01*
X28610Y16152D01*
X27055Y15487D02*
Y16322D01*
X25051Y17245D02*
Y19245D01*
X5051Y17245D02*
Y19245D01*
X25051D01*
X5051Y17245D02*
X25051D01*
X24530Y2443D02*
Y2876D01*
Y3159D02*
Y3592D01*
Y3876D02*
Y4309D01*
Y4593D02*
Y5026D01*
X28510Y2071D02*
Y2736D01*
X28610Y2136D02*
Y2636D01*
X28445Y1971D02*
X28610Y2136D01*
X27055Y1971D02*
X28445D01*
X27055Y2806D02*
X28440D01*
X28610Y2636D01*
X27055Y1971D02*
Y2806D01*
D178*
X20662Y5939D02*
G03*
X20662Y5939I-49J0D01*
G01*
X24505Y7643D02*
G03*
X24505Y7643I-49J0D01*
G01*
X830Y5604D02*
G03*
X830Y5604I-49J0D01*
G01*
Y11391D02*
G03*
X830Y11391I-49J0D01*
G01*
D179*
X19767Y6450D02*
G03*
X19767Y6450I-118J0D01*
G01*
D180*
X4422Y2073D02*
X4472Y2123D01*
X4572D01*
X4622Y2073D01*
Y2023D01*
X4572Y1973D01*
X4522D01*
X4572D01*
X4622Y1923D01*
Y1873D01*
X4572Y1823D01*
X4472D01*
X4422Y1873D01*
X4722D02*
X4772Y1823D01*
X4872D01*
X4922Y1873D01*
Y2073D01*
X4872Y2123D01*
X4772D01*
X4722Y2073D01*
Y2023D01*
X4772Y1973D01*
X4922D01*
X4522Y173D02*
Y473D01*
X4372Y323D01*
X4572D01*
X4672Y423D02*
X4722Y473D01*
X4822D01*
X4872Y423D01*
Y223D01*
X4822Y173D01*
X4722D01*
X4672Y223D01*
Y423D01*
X25422Y173D02*
X25222D01*
X25422Y373D01*
Y423D01*
X25372Y473D01*
X25272D01*
X25222Y423D01*
X25272Y1823D02*
X25372D01*
X25322D01*
Y2123D01*
X25272Y2073D01*
X25151Y17495D02*
X25201Y17545D01*
X25301D01*
X25351Y17495D01*
Y17445D01*
X25301Y17395D01*
X25251D01*
X25301D01*
X25351Y17345D01*
Y17295D01*
X25301Y17245D01*
X25201D01*
X25151Y17295D01*
X25451D02*
X25501Y17245D01*
X25601D01*
X25651Y17295D01*
Y17495D01*
X25601Y17545D01*
X25501D01*
X25451Y17495D01*
Y17445D01*
X25501Y17395D01*
X25651D01*
X25301Y18895D02*
Y19195D01*
X25151Y19045D01*
X25351D01*
X25451Y19145D02*
X25501Y19195D01*
X25601D01*
X25651Y19145D01*
Y18945D01*
X25601Y18895D01*
X25501D01*
X25451Y18945D01*
Y19145D01*
X4901Y18945D02*
X4701D01*
X4901Y19145D01*
Y19195D01*
X4851Y19245D01*
X4751D01*
X4701Y19195D01*
X4751Y17245D02*
X4851D01*
X4801D01*
Y17545D01*
X4751Y17495D01*
M02*
