M48
;Layer_Color=9474304
;FILE_FORMAT=2:4
INCH,TZ
;TYPE=PLATED
T1F00S00C0.0160
T2F00S00C0.0280
T3F00S00C0.0354
;TYPE=NON_PLATED
%
T01
X4980Y2430
Y2750
X5340
Y2430
X8460Y4010
X8510Y4870
X8840
Y5230
X8510
X8840Y6840
X8150Y7630
X8870Y8410
X8840Y10230
X6710Y9110
X6335
X5960
X11207Y9037
X11180Y7300
Y5920
X11110Y4480
X12260Y4010
X14630Y4150
X14670Y4620
X14630Y3120
X14767Y6247
X13045Y6205
X13036Y8764
X13037Y11323
X13036Y11914
X11420Y11420
X15731Y10359
Y9886
Y9414
Y8941
X16204
X16676
X17149
X17149Y9414
X16676Y9414
X16204
Y9886
X16676
X17149
Y10359
X16676
X16204
X19839Y10339
X19838Y9748
X19843Y11323
X21660Y11230
X22420
X22850
X22860Y10050
X23310Y10120
Y9640
Y9060
X23530Y7760
X22780Y7660
X22380
X21980
X21600Y7180
X21820Y6290
X23530Y6280
Y5270
X23520Y4800
X23500Y4090
X23100
X22700
X22375Y5075
X23140Y7180
X19846Y6796
X19097Y6247
X17326Y6246
X15751Y6251
X15660Y4620
X17230
X18070Y4090
X19190Y4400
X18570Y3010
X21660Y9440
Y10240
X21840Y11860
X23960Y11320
X25660
X26930Y8550
X27420Y6780
X26560Y5090
X27974Y534
X27120Y12720
X26710Y13910
X26320
X25920
X25600Y14390
X22110Y14850
X22170Y13280
X19845Y13095
X19097Y13053
X17720Y13050
X15948Y13052
X16050Y14720
X15020Y15000
Y15940
X18430
Y14850
X17820
X19490
X20630Y15360
X28174Y18714
X14600Y15480
X12530Y15940
Y16350
X11370Y15919
Y15270
X11430Y12020
X14767Y13053
X6440Y14350
X5124
X4600
X4930Y16480
Y16800
X5290
Y16480
X7000Y15919
T02
X7780Y11000
Y11670
Y12350
Y13040
T03
X1160Y2740
X2160
X4095Y4024
X5095
X5550Y1600
X6550
X7550
X8550
X9550
X10550
X11550
X12550
X13550
X14550
Y600
X13550
X12550
X11550
X10550
X9550
X8550
X7550
X6550
X5550
X15550
X16550
X17550
X18550
X19550
X20550
X21550
X22550
X23550
X24550
Y1600
X23550
X22550
X21550
X20550
X19550
X18550
X17550
X16550
X15550
X28580Y7150
Y8150
Y9150
Y10150
Y11150
Y12150
X24550Y17750
X23550
X22550
X21550
X20550
X19550
X18550
X17550
X16550
X15550
Y18750
X16550
X17550
X18550
X19550
X20550
X21550
X22550
X23550
X24550
X14550
X13550
X12550
X11550
X10550
X9550
X8550
X7550
X6550
X5550
Y17750
X6550
X7550
X8550
X9550
X10550
X11550
X12550
X13550
X14550
X5095Y15273
X4095
M30
