%FSLAX24Y24*%
%MOIN*%
G70*
G01*
G75*
G04 Layer_Color=8388736*
%ADD10C,0.0100*%
%ADD11R,0.1693X0.1693*%
%ADD12O,0.0827X0.0118*%
%ADD13O,0.0118X0.0827*%
%ADD14R,0.0512X0.0394*%
%ADD15O,0.0984X0.0276*%
%ADD16R,0.0394X0.0512*%
%ADD17R,0.0551X0.0433*%
%ADD18R,0.0433X0.0551*%
%ADD19R,0.0512X0.0591*%
%ADD20R,0.1299X0.1063*%
%ADD21R,0.0394X0.1063*%
%ADD22R,0.0472X0.0551*%
%ADD23R,0.0551X0.0630*%
%ADD24R,0.0500X0.0300*%
%ADD25C,0.0200*%
%ADD26C,0.0300*%
%ADD27C,0.0250*%
%ADD28C,0.0600*%
%ADD29C,0.0400*%
%ADD30C,0.0150*%
%ADD31C,0.0079*%
%ADD32R,0.7165X0.7146*%
%ADD33R,0.0719X0.1122*%
%ADD34R,0.1516X0.1821*%
%ADD35R,0.1349X0.0305*%
%ADD36R,0.0709X0.0778*%
%ADD37R,0.1830X0.1120*%
%ADD38R,0.2080X0.2124*%
%ADD39R,0.0790X0.5280*%
%ADD40R,0.0810X0.1960*%
%ADD41R,0.1310X0.3313*%
%ADD42R,0.1010X0.0210*%
%ADD43R,0.1490X0.1470*%
%ADD44R,0.0370X0.4820*%
%ADD45R,0.0770X0.0910*%
%ADD46R,0.0920X0.5210*%
%ADD47R,0.1260X0.1830*%
%ADD48R,0.1490X0.6150*%
%ADD49R,0.3870X0.4260*%
%ADD50R,0.1270X0.5300*%
%ADD51R,0.1950X0.1110*%
%ADD52R,0.2270X0.0510*%
%ADD53R,0.0780X0.2500*%
%ADD54R,0.1520X0.0820*%
%ADD55R,0.1890X0.1040*%
%ADD56R,0.3710X0.3070*%
%ADD57R,0.1740X0.1110*%
%ADD58R,0.1460X0.3920*%
%ADD59R,0.2270X0.2971*%
%ADD60R,0.0820X0.6210*%
%ADD61R,0.0810X0.5750*%
%ADD62R,0.1610X0.3230*%
%ADD63R,0.0810X0.1040*%
%ADD64R,0.0470X0.5180*%
%ADD65R,0.1430X0.1840*%
%ADD66R,0.1550X0.2090*%
%ADD67R,0.1370X0.4960*%
%ADD68R,0.1512X0.4310*%
%ADD69R,0.4902X0.1473*%
%ADD70R,0.0710X0.2250*%
%ADD71R,0.4912X0.1971*%
%ADD72R,0.1112X1.9075*%
%ADD73R,0.1452X0.7011*%
%ADD74R,0.0640X0.1540*%
%ADD75R,0.1130X0.1610*%
%ADD76R,0.3340X0.1210*%
%ADD77R,0.1110X0.1820*%
%ADD78R,0.1390X0.1590*%
%ADD79R,0.3241X0.0974*%
%ADD80R,0.1470X0.0847*%
%ADD81R,0.1260X0.9560*%
%ADD82R,0.1100X0.3420*%
%ADD83R,0.1180X0.0590*%
%ADD84R,0.0830X0.3230*%
%ADD85R,0.1820X0.0900*%
%ADD86R,0.0850X0.1900*%
%ADD87R,0.1770X0.0950*%
%ADD88C,0.0320*%
%ADD89R,0.0591X0.0591*%
%ADD90C,0.0591*%
%ADD91R,0.0591X0.0591*%
%ADD92C,0.0500*%
%ADD93R,0.0413X0.0551*%
%ADD94R,0.0669X0.0433*%
%ADD95R,0.0433X0.0669*%
%ADD96R,0.5810X0.0400*%
%ADD97R,0.1370X0.1190*%
%ADD98R,0.0260X0.2940*%
%ADD99R,0.0610X0.3620*%
%ADD100R,0.1330X0.0650*%
%ADD101R,0.0400X0.4480*%
%ADD102R,0.2410X0.0450*%
%ADD103R,0.0890X0.3400*%
%ADD104R,0.6880X0.0610*%
%ADD105R,0.1880X0.3480*%
%ADD106R,0.7920X0.0350*%
%ADD107R,0.0310X0.3890*%
%ADD108R,0.0890X0.0960*%
%ADD109R,0.2450X0.2860*%
%ADD110R,0.0960X0.0910*%
%ADD111R,0.2300X0.1250*%
%ADD112R,0.1320X0.0920*%
%ADD113R,0.1430X0.0570*%
%ADD114R,0.0600X0.2880*%
%ADD115R,0.1560X0.1200*%
%ADD116R,0.0510X0.2190*%
%ADD117R,0.0810X0.0450*%
%ADD118R,0.8040X0.0410*%
%ADD119R,0.1080X0.2300*%
%ADD120R,0.0530X0.1260*%
%ADD121R,0.0690X0.1090*%
%ADD122R,0.3970X0.0570*%
%ADD123R,0.0670X0.1760*%
%ADD124R,0.2440X0.1760*%
%ADD125R,0.3080X0.1760*%
%ADD126R,0.3360X0.3810*%
%ADD127R,0.3950X0.2010*%
%ADD128R,0.5290X0.1430*%
%ADD129R,0.1080X0.1370*%
%ADD130R,0.4870X0.0400*%
%ADD131R,0.3310X0.0720*%
%ADD132R,0.0640X0.3170*%
%ADD133R,1.4780X0.0490*%
%ADD134R,0.8680X0.0890*%
%ADD135R,0.2310X0.1210*%
%ADD136R,0.0660X0.7140*%
%ADD137R,0.3910X0.1760*%
%ADD138R,0.1190X0.4160*%
%ADD139R,0.6620X0.0690*%
%ADD140R,0.1720X0.3830*%
%ADD141R,0.0560X0.2760*%
%ADD142R,0.6730X0.0390*%
%ADD143R,0.2390X0.0640*%
%ADD144R,0.4150X0.0630*%
%ADD145R,0.5920X0.0470*%
%ADD146R,0.3050X0.2190*%
%ADD147R,0.0600X0.1180*%
%ADD148R,0.0840X0.2610*%
%ADD149R,0.4730X0.1350*%
%ADD150R,0.1830X1.0120*%
%ADD151R,0.2560X0.0720*%
%ADD152R,0.2990X0.2490*%
%ADD153R,0.1090X0.5830*%
%ADD154R,0.8340X0.8340*%
%ADD155R,0.3240X0.0960*%
%ADD156R,0.2210X0.1000*%
%ADD157R,0.1070X0.0400*%
%ADD158R,0.0610X0.1460*%
%ADD159R,0.0460X0.1390*%
%ADD160R,0.3240X0.0430*%
%ADD161R,0.0570X0.1510*%
%ADD162R,0.1660X0.0570*%
%ADD163R,0.2810X0.2110*%
%ADD164R,0.0630X0.1380*%
%ADD165R,0.1810X0.0340*%
%ADD166R,0.7090X0.0860*%
%ADD167R,0.1020X0.1410*%
%ADD168R,0.3440X0.0470*%
%ADD169R,0.0670X0.1580*%
%ADD170R,0.0560X0.6510*%
%ADD171R,2.0860X0.0750*%
%ADD172R,0.1230X0.1040*%
%ADD173R,0.1030X0.1670*%
%ADD174R,0.1220X0.0770*%
%ADD175R,0.0490X0.1560*%
%ADD176R,0.1062X0.1940*%
%ADD177R,0.0940X0.1560*%
%ADD178C,0.0098*%
%ADD179C,0.0236*%
%ADD180C,0.0080*%
%ADD181R,0.1773X0.1773*%
%ADD182O,0.0907X0.0198*%
%ADD183O,0.0198X0.0907*%
%ADD184R,0.0592X0.0474*%
%ADD185O,0.1064X0.0356*%
%ADD186R,0.0474X0.0592*%
%ADD187R,0.0631X0.0513*%
%ADD188R,0.0513X0.0631*%
%ADD189R,0.0592X0.0671*%
%ADD190R,0.1379X0.1143*%
%ADD191R,0.0474X0.1143*%
%ADD192R,0.0552X0.0631*%
%ADD193R,0.0631X0.0710*%
%ADD194R,0.0580X0.0380*%
%ADD195C,0.0400*%
%ADD196R,0.0671X0.0671*%
%ADD197C,0.0671*%
%ADD198R,0.0671X0.0671*%
%ADD199C,0.0580*%
D181*
X16440Y9659D02*
D03*
D182*
X20613Y6214D02*
D03*
Y6411D02*
D03*
Y6608D02*
D03*
Y6805D02*
D03*
Y7002D02*
D03*
Y7198D02*
D03*
Y7395D02*
D03*
Y7592D02*
D03*
Y7789D02*
D03*
Y7986D02*
D03*
Y8183D02*
D03*
Y8380D02*
D03*
Y8576D02*
D03*
Y8773D02*
D03*
Y8970D02*
D03*
Y9167D02*
D03*
Y9364D02*
D03*
Y9561D02*
D03*
Y9757D02*
D03*
Y9954D02*
D03*
Y10151D02*
D03*
Y10348D02*
D03*
Y10545D02*
D03*
Y10742D02*
D03*
Y10939D02*
D03*
Y11135D02*
D03*
Y11332D02*
D03*
Y11529D02*
D03*
Y11726D02*
D03*
Y11923D02*
D03*
Y12120D02*
D03*
Y12317D02*
D03*
Y12513D02*
D03*
Y12710D02*
D03*
Y12907D02*
D03*
Y13104D02*
D03*
X12267D02*
D03*
Y12907D02*
D03*
Y12710D02*
D03*
Y12513D02*
D03*
Y12317D02*
D03*
Y12120D02*
D03*
Y11923D02*
D03*
Y11726D02*
D03*
Y11529D02*
D03*
Y11332D02*
D03*
Y11135D02*
D03*
Y10939D02*
D03*
Y10742D02*
D03*
Y10545D02*
D03*
Y10348D02*
D03*
Y10151D02*
D03*
Y9954D02*
D03*
Y9757D02*
D03*
Y9561D02*
D03*
Y9364D02*
D03*
Y9167D02*
D03*
Y8970D02*
D03*
Y8773D02*
D03*
Y8576D02*
D03*
Y8380D02*
D03*
Y8183D02*
D03*
Y7986D02*
D03*
Y7789D02*
D03*
Y7592D02*
D03*
Y7395D02*
D03*
Y7198D02*
D03*
Y7002D02*
D03*
Y6805D02*
D03*
Y6608D02*
D03*
Y6411D02*
D03*
Y6214D02*
D03*
D183*
X19885Y13832D02*
D03*
X19688D02*
D03*
X19491D02*
D03*
X19294D02*
D03*
X19097D02*
D03*
X18901D02*
D03*
X18704D02*
D03*
X18507D02*
D03*
X18310D02*
D03*
X18113D02*
D03*
X17916D02*
D03*
X17720D02*
D03*
X17523D02*
D03*
X17326D02*
D03*
X17129D02*
D03*
X16932D02*
D03*
X16735D02*
D03*
X16538D02*
D03*
X16342D02*
D03*
X16145D02*
D03*
X15948D02*
D03*
X15751D02*
D03*
X15554D02*
D03*
X15357D02*
D03*
X15160D02*
D03*
X14964D02*
D03*
X14767D02*
D03*
X14570D02*
D03*
X14373D02*
D03*
X14176D02*
D03*
X13979D02*
D03*
X13783D02*
D03*
X13586D02*
D03*
X13389D02*
D03*
X13192D02*
D03*
X12995D02*
D03*
Y5486D02*
D03*
X13192D02*
D03*
X13389D02*
D03*
X13586D02*
D03*
X13783D02*
D03*
X13979D02*
D03*
X14176D02*
D03*
X14373D02*
D03*
X14570D02*
D03*
X14767D02*
D03*
X14964D02*
D03*
X15160D02*
D03*
X15357D02*
D03*
X15554D02*
D03*
X15751D02*
D03*
X15948D02*
D03*
X16145D02*
D03*
X16342D02*
D03*
X16538D02*
D03*
X16735D02*
D03*
X16932D02*
D03*
X17129D02*
D03*
X17326D02*
D03*
X17523D02*
D03*
X17720D02*
D03*
X17916D02*
D03*
X18113D02*
D03*
X18310D02*
D03*
X18507D02*
D03*
X18704D02*
D03*
X18901D02*
D03*
X19097D02*
D03*
X19294D02*
D03*
X19491D02*
D03*
X19688D02*
D03*
X19885D02*
D03*
D184*
X27630Y9344D02*
D03*
Y9974D02*
D03*
D185*
X24455Y7289D02*
D03*
Y6789D02*
D03*
Y6289D02*
D03*
Y5789D02*
D03*
X26385Y7289D02*
D03*
Y6789D02*
D03*
Y6289D02*
D03*
Y5789D02*
D03*
D186*
X24225Y8479D02*
D03*
X24855D02*
D03*
X24235Y14359D02*
D03*
X24865D02*
D03*
X24235Y15102D02*
D03*
X24865D02*
D03*
Y15846D02*
D03*
X24235D02*
D03*
X24865Y16589D02*
D03*
X24235D02*
D03*
X10005Y9359D02*
D03*
X9375D02*
D03*
X1645Y15659D02*
D03*
X1015D02*
D03*
X24845Y2659D02*
D03*
X24215D02*
D03*
X24845Y3376D02*
D03*
X24215D02*
D03*
Y4092D02*
D03*
X24845D02*
D03*
X24215Y4809D02*
D03*
X24845D02*
D03*
D187*
X21820Y5084D02*
D03*
Y5674D02*
D03*
X11180Y5934D02*
D03*
Y5344D02*
D03*
X21650Y13294D02*
D03*
Y13884D02*
D03*
X25660Y12203D02*
D03*
Y12794D02*
D03*
X25660Y10318D02*
D03*
Y9727D02*
D03*
X7880Y15214D02*
D03*
Y14624D02*
D03*
X7850Y4104D02*
D03*
Y4694D02*
D03*
D188*
X21226Y14869D02*
D03*
X20635D02*
D03*
X11675Y4539D02*
D03*
X12265D02*
D03*
X4563Y11316D02*
D03*
X3972D02*
D03*
X4565Y12009D02*
D03*
X3975D02*
D03*
X4595Y5519D02*
D03*
X4005D02*
D03*
X4595Y6209D02*
D03*
X4005D02*
D03*
D189*
X28184Y1329D02*
D03*
X27436D02*
D03*
X2504Y17169D02*
D03*
X1756D02*
D03*
X28184Y18009D02*
D03*
X27436D02*
D03*
X28184Y16956D02*
D03*
X27436D02*
D03*
X28184Y3442D02*
D03*
X27436D02*
D03*
X28184Y4499D02*
D03*
X27436D02*
D03*
X28184Y14849D02*
D03*
X27436D02*
D03*
X28184Y15902D02*
D03*
X27436D02*
D03*
X28184Y2386D02*
D03*
X27436D02*
D03*
D190*
X2100Y7927D02*
D03*
Y13714D02*
D03*
D191*
X3006Y5604D02*
D03*
X2100D02*
D03*
X1194D02*
D03*
X3006Y11391D02*
D03*
X2100D02*
D03*
X1194D02*
D03*
D192*
X6965Y4029D02*
D03*
X6335D02*
D03*
X6965Y15282D02*
D03*
X6335D02*
D03*
D193*
X23957Y9532D02*
D03*
X24835Y9521D02*
D03*
X23969Y10545D02*
D03*
X24835D02*
D03*
X23969Y11997D02*
D03*
X24835D02*
D03*
X23969Y13021D02*
D03*
X24846Y13010D02*
D03*
D194*
X5458Y12779D02*
D03*
Y12275D02*
D03*
Y11771D02*
D03*
Y11267D02*
D03*
X8458Y11267D02*
D03*
Y11771D02*
D03*
Y12275D02*
D03*
Y12779D02*
D03*
D195*
X16905Y9222D02*
D03*
X16437D02*
D03*
X15969D02*
D03*
Y9665D02*
D03*
X16437D02*
D03*
X16905D02*
D03*
Y10108D02*
D03*
X16437D02*
D03*
X15969D02*
D03*
X8870Y8419D02*
D03*
X8840Y6849D02*
D03*
X6710Y9119D02*
D03*
X6335D02*
D03*
X5960D02*
D03*
X22420Y11239D02*
D03*
X22850D02*
D03*
X27120Y12729D02*
D03*
X21820Y6299D02*
D03*
X22375Y5084D02*
D03*
X22170Y13289D02*
D03*
X25600Y14399D02*
D03*
X22110Y14859D02*
D03*
X27420Y6789D02*
D03*
X26930Y8559D02*
D03*
X26560Y5099D02*
D03*
X20630Y15369D02*
D03*
X11110Y4489D02*
D03*
X8460Y4019D02*
D03*
X15020Y15949D02*
D03*
X14600Y15489D02*
D03*
X12530Y15949D02*
D03*
X15020Y15009D02*
D03*
X11370Y15928D02*
D03*
Y15279D02*
D03*
X6440Y14359D02*
D03*
X4930Y16809D02*
D03*
Y16489D02*
D03*
X5290Y16809D02*
D03*
X11180Y7309D02*
D03*
X12260Y4019D02*
D03*
X8840Y4879D02*
D03*
Y5239D02*
D03*
Y10239D02*
D03*
X4600Y14359D02*
D03*
X7000Y15928D02*
D03*
X23310Y10129D02*
D03*
Y9649D02*
D03*
Y9069D02*
D03*
X25660Y11329D02*
D03*
X25920Y13919D02*
D03*
X26320D02*
D03*
X26710D02*
D03*
X23960Y11329D02*
D03*
X19190Y4409D02*
D03*
X18570Y3019D02*
D03*
X19490Y14859D02*
D03*
X18430Y15949D02*
D03*
X12530Y16359D02*
D03*
X14630Y4159D02*
D03*
X21840Y11869D02*
D03*
X5124Y14359D02*
D03*
X16050Y14729D02*
D03*
X17820Y14859D02*
D03*
X18430D02*
D03*
X11180Y5929D02*
D03*
X5290Y16489D02*
D03*
X23520Y4809D02*
D03*
X23530Y5279D02*
D03*
X21600Y7189D02*
D03*
X23140D02*
D03*
X22700Y4099D02*
D03*
X23500D02*
D03*
X23100D02*
D03*
X22380Y7669D02*
D03*
X21980D02*
D03*
X21660Y10249D02*
D03*
Y11239D02*
D03*
X22780Y7669D02*
D03*
X23530Y6289D02*
D03*
Y7769D02*
D03*
X17230Y4629D02*
D03*
X15660D02*
D03*
X14670D02*
D03*
X11207Y9046D02*
D03*
X21660Y9449D02*
D03*
X22860Y10059D02*
D03*
X11430Y12029D02*
D03*
X11420Y11429D02*
D03*
X18070Y4099D02*
D03*
X14630Y3129D02*
D03*
X5340Y2759D02*
D03*
Y2439D02*
D03*
X4980D02*
D03*
Y2759D02*
D03*
X8510Y5239D02*
D03*
Y4879D02*
D03*
X28174Y18723D02*
D03*
X27974Y543D02*
D03*
X14767Y6256D02*
D03*
X15751Y6260D02*
D03*
X17326Y6255D02*
D03*
X19097Y6257D02*
D03*
X19846Y6805D02*
D03*
X19838Y9757D02*
D03*
X19839Y10348D02*
D03*
X19843Y11332D02*
D03*
X19845Y13104D02*
D03*
X19097Y13062D02*
D03*
X17720Y13060D02*
D03*
X15948Y13061D02*
D03*
X14767Y13062D02*
D03*
X13036Y11923D02*
D03*
X13037Y11332D02*
D03*
X13036Y8773D02*
D03*
X13045Y6214D02*
D03*
X8150Y7639D02*
D03*
D196*
X24547Y1623D02*
D03*
X2160Y2749D02*
D03*
X5095Y4033D02*
D03*
X5095Y15282D02*
D03*
X5551Y17745D02*
D03*
D197*
X24547Y623D02*
D03*
X23547Y1623D02*
D03*
Y623D02*
D03*
X22547Y1623D02*
D03*
Y623D02*
D03*
X21547Y1623D02*
D03*
Y623D02*
D03*
X20547Y1623D02*
D03*
Y623D02*
D03*
X19547Y1623D02*
D03*
Y623D02*
D03*
X18547Y1623D02*
D03*
Y623D02*
D03*
X17547Y1623D02*
D03*
Y623D02*
D03*
X16547Y1623D02*
D03*
Y623D02*
D03*
X15547Y1623D02*
D03*
Y623D02*
D03*
X14547Y1623D02*
D03*
Y623D02*
D03*
X13547Y1623D02*
D03*
Y623D02*
D03*
X12547Y1623D02*
D03*
Y623D02*
D03*
X11547Y1623D02*
D03*
Y623D02*
D03*
X10547Y1623D02*
D03*
Y623D02*
D03*
X9547Y1623D02*
D03*
Y623D02*
D03*
X8547Y1623D02*
D03*
Y623D02*
D03*
X7547Y1623D02*
D03*
Y623D02*
D03*
X6547Y1623D02*
D03*
Y623D02*
D03*
X5547Y1623D02*
D03*
Y623D02*
D03*
X1160Y2749D02*
D03*
X4095Y4033D02*
D03*
X28580Y8159D02*
D03*
Y9159D02*
D03*
Y10159D02*
D03*
Y11159D02*
D03*
Y12159D02*
D03*
X4095Y15282D02*
D03*
X5551Y18745D02*
D03*
X6551Y17745D02*
D03*
Y18745D02*
D03*
X7551Y17745D02*
D03*
Y18745D02*
D03*
X8551Y17745D02*
D03*
Y18745D02*
D03*
X9551Y17745D02*
D03*
Y18745D02*
D03*
X10551Y17745D02*
D03*
Y18745D02*
D03*
X11551Y17745D02*
D03*
Y18745D02*
D03*
X12551Y17745D02*
D03*
Y18745D02*
D03*
X13551Y17745D02*
D03*
Y18745D02*
D03*
X14551Y17745D02*
D03*
Y18745D02*
D03*
X15551Y17745D02*
D03*
Y18745D02*
D03*
X16551Y17745D02*
D03*
Y18745D02*
D03*
X17551Y17745D02*
D03*
Y18745D02*
D03*
X18551Y17745D02*
D03*
Y18745D02*
D03*
X19551Y17745D02*
D03*
Y18745D02*
D03*
X20551Y17745D02*
D03*
Y18745D02*
D03*
X21551Y17745D02*
D03*
Y18745D02*
D03*
X22551Y17745D02*
D03*
Y18745D02*
D03*
X23551Y17745D02*
D03*
Y18745D02*
D03*
X24551Y17745D02*
D03*
Y18745D02*
D03*
D198*
X28580Y7159D02*
D03*
D199*
X7780Y13049D02*
D03*
Y12359D02*
D03*
Y11679D02*
D03*
Y11009D02*
D03*
M02*
