%FSLAX24Y24*%
%MOIN*%
G70*
G01*
G75*
G04 Layer_Color=128*
%ADD10C,0.0100*%
%ADD11R,0.0512X0.0394*%
%ADD12O,0.0984X0.0276*%
%ADD13R,0.0394X0.0512*%
%ADD14R,0.0551X0.0433*%
%ADD15R,0.0433X0.0551*%
%ADD16R,0.0512X0.0591*%
%ADD17R,0.1299X0.1063*%
%ADD18R,0.0394X0.1063*%
%ADD19R,0.0472X0.0551*%
%ADD20R,0.0551X0.0630*%
%ADD21R,0.0500X0.0300*%
%ADD22O,0.0118X0.0827*%
%ADD23O,0.0827X0.0118*%
%ADD24R,0.1693X0.1693*%
%ADD25C,0.0200*%
%ADD26C,0.0300*%
%ADD27C,0.0250*%
%ADD28C,0.0600*%
%ADD29C,0.0400*%
%ADD30C,0.0150*%
%ADD31C,0.0079*%
%ADD32R,0.1830X0.1120*%
%ADD33R,0.2080X0.2124*%
%ADD34R,0.0790X0.5280*%
%ADD35R,0.0810X0.1960*%
%ADD36R,0.1310X0.3350*%
%ADD37R,0.1010X0.0210*%
%ADD38R,0.1490X0.1470*%
%ADD39R,0.0370X0.4820*%
%ADD40R,0.0770X0.0910*%
%ADD41R,0.0920X0.5210*%
%ADD42R,0.1260X0.1830*%
%ADD43R,0.1490X0.6150*%
%ADD44R,0.3870X0.4260*%
%ADD45R,0.1270X0.5300*%
%ADD46R,0.1950X0.1110*%
%ADD47R,0.2270X0.0510*%
%ADD48R,0.0780X0.2500*%
%ADD49R,0.1520X0.0820*%
%ADD50R,0.1890X0.1040*%
%ADD51R,0.3710X0.3070*%
%ADD52R,0.1740X0.1110*%
%ADD53R,0.1460X0.3920*%
%ADD54R,0.2270X0.3010*%
%ADD55R,0.0820X0.6210*%
%ADD56R,0.0810X0.5750*%
%ADD57R,0.1610X0.3230*%
%ADD58R,0.0810X0.1040*%
%ADD59R,0.0470X0.5180*%
%ADD60R,0.1430X0.1840*%
%ADD61R,0.1550X0.2090*%
%ADD62R,0.1370X0.4960*%
%ADD63R,0.0720X0.4310*%
%ADD64R,0.4940X0.1510*%
%ADD65R,0.0710X0.2250*%
%ADD66R,0.4950X0.2010*%
%ADD67R,0.1150X1.2100*%
%ADD68R,0.1490X0.7050*%
%ADD69R,0.0640X0.1540*%
%ADD70R,0.1130X0.1610*%
%ADD71R,0.3340X0.1210*%
%ADD72R,0.1110X0.1490*%
%ADD73R,0.1390X0.1590*%
%ADD74R,0.3241X0.0974*%
%ADD75R,0.1470X0.0847*%
%ADD76R,0.1260X0.9560*%
%ADD77R,0.1100X0.3420*%
%ADD78R,0.1180X0.0590*%
%ADD79R,0.0830X0.3230*%
%ADD80R,0.1820X0.0900*%
%ADD81R,0.0850X0.1900*%
%ADD82R,0.1770X0.0950*%
%ADD83R,0.0591X0.0591*%
%ADD84C,0.0591*%
%ADD85R,0.0591X0.0591*%
%ADD86C,0.0320*%
%ADD87C,0.0500*%
%ADD88R,0.0413X0.0551*%
%ADD89R,0.0669X0.0433*%
%ADD90R,0.0433X0.0669*%
%ADD91R,0.5810X0.0400*%
%ADD92R,0.1370X0.1190*%
%ADD93R,0.0260X0.2940*%
%ADD94R,0.0610X0.3620*%
%ADD95R,0.1330X0.0650*%
%ADD96R,0.0400X0.4480*%
%ADD97R,0.2410X0.0450*%
%ADD98R,0.0890X0.3400*%
%ADD99R,0.6880X0.0610*%
%ADD100R,0.1880X0.3480*%
%ADD101R,0.7920X0.0350*%
%ADD102R,0.0310X0.3890*%
%ADD103R,0.0890X0.0960*%
%ADD104R,0.2450X0.2860*%
%ADD105R,0.0960X0.0910*%
%ADD106R,0.2300X0.1250*%
%ADD107R,0.1320X0.0920*%
%ADD108R,0.1430X0.0570*%
%ADD109R,0.0600X0.2880*%
%ADD110R,0.1560X0.1200*%
%ADD111R,0.0510X0.2190*%
%ADD112R,0.0810X0.0450*%
%ADD113R,0.8040X0.0410*%
%ADD114R,0.1080X0.2300*%
%ADD115R,0.0530X0.1260*%
%ADD116R,0.0690X0.1090*%
%ADD117R,0.3970X0.0570*%
%ADD118R,0.0670X0.1760*%
%ADD119R,0.2440X0.1760*%
%ADD120R,0.3080X0.1760*%
%ADD121R,0.3360X0.3810*%
%ADD122R,0.3950X0.2010*%
%ADD123R,0.5290X0.1430*%
%ADD124R,0.1080X0.1370*%
%ADD125R,0.4870X0.0400*%
%ADD126R,0.3310X0.0720*%
%ADD127R,0.0640X0.3170*%
%ADD128R,1.4780X0.0490*%
%ADD129R,0.8680X0.0890*%
%ADD130R,0.2310X0.1210*%
%ADD131R,0.0660X0.7140*%
%ADD132R,0.3910X0.1760*%
%ADD133R,0.1190X0.4160*%
%ADD134R,0.6620X0.0690*%
%ADD135R,0.1720X0.3830*%
%ADD136R,0.0560X0.2760*%
%ADD137R,0.6730X0.0390*%
%ADD138R,0.2390X0.0640*%
%ADD139R,0.4150X0.0630*%
%ADD140R,0.5920X0.0470*%
%ADD141R,0.3050X0.2190*%
%ADD142R,0.0600X0.1180*%
%ADD143R,0.0840X0.2610*%
%ADD144R,0.4730X0.1350*%
%ADD145R,0.1830X1.0120*%
%ADD146R,0.2560X0.0720*%
%ADD147R,0.2990X0.2490*%
%ADD148R,0.1090X0.5830*%
%ADD149R,0.8340X0.8340*%
%ADD150R,0.3240X0.0960*%
%ADD151R,0.2210X0.1000*%
%ADD152R,0.1070X0.0400*%
%ADD153R,0.0610X0.1460*%
%ADD154R,0.0460X0.1390*%
%ADD155R,0.3240X0.0430*%
%ADD156R,0.0570X0.1510*%
%ADD157R,0.1660X0.0570*%
%ADD158R,0.2810X0.2110*%
%ADD159R,0.0630X0.1380*%
%ADD160R,0.1810X0.0340*%
%ADD161R,0.7090X0.0860*%
%ADD162R,0.1020X0.1410*%
%ADD163R,0.3440X0.0470*%
%ADD164R,0.0670X0.1580*%
%ADD165R,0.0560X0.6510*%
%ADD166R,2.0860X0.0750*%
%ADD167R,0.1230X0.1040*%
%ADD168R,0.1030X0.1670*%
%ADD169R,0.1220X0.0770*%
%ADD170R,0.0490X0.1560*%
%ADD171R,0.1030X0.1940*%
%ADD172R,0.0940X0.1560*%
%ADD173C,0.0098*%
%ADD174C,0.0236*%
%ADD175C,0.0080*%
%ADD176R,0.0592X0.0474*%
%ADD177O,0.1064X0.0356*%
%ADD178R,0.0474X0.0592*%
%ADD179R,0.0631X0.0513*%
%ADD180R,0.0513X0.0631*%
%ADD181R,0.0592X0.0671*%
%ADD182R,0.1379X0.1143*%
%ADD183R,0.0474X0.1143*%
%ADD184R,0.0552X0.0631*%
%ADD185R,0.0631X0.0710*%
%ADD186R,0.0580X0.0380*%
%ADD187O,0.0198X0.0907*%
%ADD188O,0.0907X0.0198*%
%ADD189R,0.1773X0.1773*%
%ADD190R,0.0671X0.0671*%
%ADD191C,0.0671*%
%ADD192R,0.0671X0.0671*%
%ADD193C,0.0400*%
%ADD194C,0.0580*%
%ADD195R,0.0493X0.0631*%
%ADD196R,0.0749X0.0513*%
%ADD197R,0.0513X0.0749*%
D11*
X21980Y8165D02*
D03*
Y8795D02*
D03*
D13*
X20965Y10170D02*
D03*
X20335D02*
D03*
X6535Y11000D02*
D03*
X7165D02*
D03*
X6525Y11670D02*
D03*
X7155D02*
D03*
X6505Y12350D02*
D03*
X7135D02*
D03*
X6505Y13040D02*
D03*
X7135D02*
D03*
X26045Y17860D02*
D03*
X26675D02*
D03*
X26585Y1570D02*
D03*
X25955D02*
D03*
X26835Y10720D02*
D03*
X27465D02*
D03*
X27465Y9640D02*
D03*
X26835D02*
D03*
X25965Y2320D02*
D03*
X26595D02*
D03*
X26040Y17183D02*
D03*
X26670D02*
D03*
D14*
X19410Y13565D02*
D03*
Y14155D02*
D03*
X18630Y13565D02*
D03*
Y14155D02*
D03*
X17850Y13565D02*
D03*
Y14155D02*
D03*
X16050Y13565D02*
D03*
Y14155D02*
D03*
X15345Y13565D02*
D03*
Y14155D02*
D03*
X14640Y13565D02*
D03*
Y14155D02*
D03*
X19190Y5735D02*
D03*
Y5145D02*
D03*
X18070Y5735D02*
D03*
Y5145D02*
D03*
X17230Y5735D02*
D03*
Y5145D02*
D03*
X15660Y5735D02*
D03*
Y5145D02*
D03*
X14670Y5735D02*
D03*
Y5145D02*
D03*
X14000Y5735D02*
D03*
Y5145D02*
D03*
D15*
X12525Y7386D02*
D03*
X11935D02*
D03*
X12522Y9037D02*
D03*
X11932D02*
D03*
X12528Y11423D02*
D03*
X11937D02*
D03*
X12531Y12123D02*
D03*
X11941D02*
D03*
X20355Y11860D02*
D03*
X20945D02*
D03*
X20355Y11190D02*
D03*
X20945D02*
D03*
X20355Y9440D02*
D03*
X20945D02*
D03*
X26065Y16500D02*
D03*
X26655D02*
D03*
X25975Y3000D02*
D03*
X26565D02*
D03*
D19*
X20005Y15820D02*
D03*
X20635D02*
D03*
D88*
X28488Y17812D02*
D03*
X29059D02*
D03*
X28488Y16394D02*
D03*
X29059D02*
D03*
Y1538D02*
D03*
X28488D02*
D03*
X29059Y2956D02*
D03*
X28488D02*
D03*
D89*
X13000Y4891D02*
D03*
Y3828D02*
D03*
D90*
X3049Y16640D02*
D03*
X4112D02*
D03*
M02*
