%FSLAX24Y24*%
%MOIN*%
G70*
G01*
G75*
G04 Layer_Color=32896*
%ADD10C,0.0100*%
%ADD11R,0.0512X0.0394*%
%ADD12O,0.0984X0.0276*%
%ADD13R,0.0394X0.0512*%
%ADD14R,0.0551X0.0433*%
%ADD15R,0.0433X0.0551*%
%ADD16R,0.0512X0.0591*%
%ADD17R,0.1299X0.1063*%
%ADD18R,0.0394X0.1063*%
%ADD19R,0.0472X0.0551*%
%ADD20R,0.0551X0.0630*%
%ADD21R,0.0500X0.0300*%
%ADD22O,0.0118X0.0827*%
%ADD23O,0.0827X0.0118*%
%ADD24R,0.1693X0.1693*%
%ADD25C,0.0200*%
%ADD26C,0.0300*%
%ADD27C,0.0250*%
%ADD28C,0.0600*%
%ADD29C,0.0400*%
%ADD30C,0.0150*%
%ADD31C,0.0079*%
%ADD32R,0.1830X0.1120*%
%ADD33R,0.2080X0.2124*%
%ADD34R,0.0790X0.5280*%
%ADD35R,0.0810X0.1960*%
%ADD36R,0.1310X0.3350*%
%ADD37R,0.1010X0.0210*%
%ADD38R,0.1490X0.1470*%
%ADD39R,0.0370X0.4820*%
%ADD40R,0.0770X0.0910*%
%ADD41R,0.0920X0.5210*%
%ADD42R,0.1260X0.1830*%
%ADD43R,0.1490X0.6150*%
%ADD44R,0.3870X0.4260*%
%ADD45R,0.1270X0.5300*%
%ADD46R,0.1950X0.1110*%
%ADD47R,0.2270X0.0510*%
%ADD48R,0.0780X0.2500*%
%ADD49R,0.1520X0.0820*%
%ADD50R,0.1890X0.1040*%
%ADD51R,0.3710X0.3070*%
%ADD52R,0.1740X0.1110*%
%ADD53R,0.1460X0.3920*%
%ADD54R,0.2270X0.3010*%
%ADD55R,0.0820X0.6210*%
%ADD56R,0.0810X0.5750*%
%ADD57R,0.1610X0.3230*%
%ADD58R,0.0810X0.1040*%
%ADD59R,0.0470X0.5180*%
%ADD60R,0.1430X0.1840*%
%ADD61R,0.1550X0.2090*%
%ADD62R,0.1370X0.4960*%
%ADD63R,0.0720X0.4310*%
%ADD64R,0.4940X0.1510*%
%ADD65R,0.0710X0.2250*%
%ADD66R,0.4950X0.2010*%
%ADD67R,0.1150X1.2100*%
%ADD68R,0.1490X0.7050*%
%ADD69R,0.0640X0.1540*%
%ADD70R,0.1130X0.1610*%
%ADD71R,0.3340X0.1210*%
%ADD72R,0.1110X0.1490*%
%ADD73R,0.1390X0.1590*%
%ADD74R,0.3241X0.0974*%
%ADD75R,0.1470X0.0847*%
%ADD76R,0.1260X0.9560*%
%ADD77R,0.1100X0.3420*%
%ADD78R,0.1180X0.0590*%
%ADD79R,0.0830X0.3230*%
%ADD80R,0.1820X0.0900*%
%ADD81R,0.0850X0.1900*%
%ADD82R,0.1770X0.0950*%
%ADD83R,0.0591X0.0591*%
%ADD84C,0.0591*%
%ADD85R,0.0591X0.0591*%
%ADD86C,0.0320*%
%ADD87C,0.0500*%
%ADD88R,0.0413X0.0551*%
%ADD89R,0.0669X0.0433*%
%ADD90R,0.0433X0.0669*%
%ADD91R,0.5810X0.0400*%
%ADD92R,0.1370X0.1190*%
%ADD93R,0.0260X0.2940*%
%ADD94R,0.0610X0.3620*%
%ADD95R,0.1330X0.0650*%
%ADD96R,0.0400X0.4480*%
%ADD97R,0.2410X0.0450*%
%ADD98R,0.0890X0.3400*%
%ADD99R,0.6880X0.0610*%
%ADD100R,0.1880X0.3480*%
%ADD101R,0.7920X0.0350*%
%ADD102R,0.0310X0.3890*%
%ADD103R,0.0890X0.0960*%
%ADD104R,0.2450X0.2860*%
%ADD105R,0.0960X0.0910*%
%ADD106R,0.2300X0.1250*%
%ADD107R,0.1320X0.0920*%
%ADD108R,0.1430X0.0570*%
%ADD109R,0.0600X0.2880*%
%ADD110R,0.1560X0.1200*%
%ADD111R,0.0510X0.2190*%
%ADD112R,0.0810X0.0450*%
%ADD113R,0.8040X0.0410*%
%ADD114R,0.1080X0.2300*%
%ADD115R,0.0530X0.1260*%
%ADD116R,0.0690X0.1090*%
%ADD117R,0.3970X0.0570*%
%ADD118R,0.0670X0.1760*%
%ADD119R,0.2440X0.1760*%
%ADD120R,0.3080X0.1760*%
%ADD121R,0.3360X0.3810*%
%ADD122R,0.3950X0.2010*%
%ADD123R,0.5290X0.1430*%
%ADD124R,0.1080X0.1370*%
%ADD125R,0.4870X0.0400*%
%ADD126R,0.3310X0.0720*%
%ADD127R,0.0640X0.3170*%
%ADD128R,1.4780X0.0490*%
%ADD129R,0.8680X0.0890*%
%ADD130R,0.2310X0.1210*%
%ADD131R,0.0660X0.7140*%
%ADD132R,0.3910X0.1760*%
%ADD133R,0.1190X0.4160*%
%ADD134R,0.6620X0.0690*%
%ADD135R,0.1720X0.3830*%
%ADD136R,0.0560X0.2760*%
%ADD137R,0.6730X0.0390*%
%ADD138R,0.2390X0.0640*%
%ADD139R,0.4150X0.0630*%
%ADD140R,0.5920X0.0470*%
%ADD141R,0.3050X0.2190*%
%ADD142R,0.0600X0.1180*%
%ADD143R,0.0840X0.2610*%
%ADD144R,0.4730X0.1350*%
%ADD145R,0.1830X1.0120*%
%ADD146R,0.2560X0.0720*%
%ADD147R,0.2990X0.2490*%
%ADD148R,0.1090X0.5830*%
%ADD149R,0.8340X0.8340*%
%ADD150R,0.3240X0.0960*%
%ADD151R,0.2210X0.1000*%
%ADD152R,0.1070X0.0400*%
%ADD153R,0.0610X0.1460*%
%ADD154R,0.0460X0.1390*%
%ADD155R,0.3240X0.0430*%
%ADD156R,0.0570X0.1510*%
%ADD157R,0.1660X0.0570*%
%ADD158R,0.2810X0.2110*%
%ADD159R,0.0630X0.1380*%
%ADD160R,0.1810X0.0340*%
%ADD161R,0.7090X0.0860*%
%ADD162R,0.1020X0.1410*%
%ADD163R,0.3440X0.0470*%
%ADD164R,0.0670X0.1580*%
%ADD165R,0.0560X0.6510*%
%ADD166R,2.0860X0.0750*%
%ADD167R,0.1230X0.1040*%
%ADD168R,0.1030X0.1670*%
%ADD169R,0.1220X0.0770*%
%ADD170R,0.0490X0.1560*%
%ADD171R,0.1030X0.1940*%
%ADD172R,0.0940X0.1560*%
%ADD173C,0.0098*%
%ADD174C,0.0236*%
%ADD175C,0.0080*%
%ADD176R,0.0592X0.0474*%
%ADD177O,0.1064X0.0356*%
%ADD178R,0.0474X0.0592*%
%ADD179R,0.0631X0.0513*%
%ADD180R,0.0513X0.0631*%
%ADD181R,0.0592X0.0671*%
%ADD182R,0.1379X0.1143*%
%ADD183R,0.0474X0.1143*%
%ADD184R,0.0552X0.0631*%
%ADD185R,0.0631X0.0710*%
%ADD186R,0.0580X0.0380*%
%ADD187O,0.0198X0.0907*%
%ADD188O,0.0907X0.0198*%
%ADD189R,0.1773X0.1773*%
%ADD190R,0.0671X0.0671*%
%ADD191C,0.0671*%
%ADD192R,0.0671X0.0671*%
%ADD193C,0.0400*%
%ADD194C,0.0580*%
%ADD195R,0.0493X0.0631*%
%ADD196R,0.0749X0.0513*%
%ADD197R,0.0513X0.0749*%
%ADD198C,0.0050*%
D10*
X20260Y15280D02*
Y14980D01*
X20060D01*
X19960Y15230D02*
X19910Y15280D01*
X19810D01*
X19760Y15230D01*
Y15180D01*
X19810Y15130D01*
X19860D01*
X19810D01*
X19760Y15080D01*
Y15030D01*
X19810Y14980D01*
X19910D01*
X19960Y15030D01*
X28730Y990D02*
X28780Y1040D01*
X28880D01*
X28930Y990D01*
Y940D01*
X28880Y890D01*
X28780D01*
X28730Y840D01*
Y790D01*
X28780Y740D01*
X28880D01*
X28930Y790D01*
X28630Y740D02*
X28530D01*
X28580D01*
Y1040D01*
X28630Y990D01*
X27780Y1420D02*
Y1720D01*
X27630D01*
X27580Y1670D01*
Y1570D01*
X27630Y1520D01*
X27780D01*
X27680D02*
X27580Y1420D01*
X27280D02*
X27480D01*
X27280Y1620D01*
Y1670D01*
X27330Y1720D01*
X27430D01*
X27480Y1670D01*
X27180D02*
X27130Y1720D01*
X27030D01*
X26980Y1670D01*
Y1470D01*
X27030Y1420D01*
X27130D01*
X27180Y1470D01*
Y1670D01*
X13800Y4460D02*
X13850Y4510D01*
X13950D01*
X14000Y4460D01*
Y4260D01*
X13950Y4210D01*
X13850D01*
X13800Y4260D01*
X13700Y4210D02*
X13600D01*
X13650D01*
Y4510D01*
X13700Y4460D01*
X15430Y12650D02*
X15480Y12600D01*
Y12500D01*
X15430Y12450D01*
X15230D01*
X15180Y12500D01*
Y12600D01*
X15230Y12650D01*
X15180Y12750D02*
Y12850D01*
Y12800D01*
X15480D01*
X15430Y12750D01*
Y13000D02*
X15480Y13050D01*
Y13150D01*
X15430Y13200D01*
X15230D01*
X15180Y13150D01*
Y13050D01*
X15230Y13000D01*
X15430D01*
X18720Y12690D02*
X18770Y12640D01*
Y12540D01*
X18720Y12490D01*
X18520D01*
X18470Y12540D01*
Y12640D01*
X18520Y12690D01*
X18470Y12790D02*
Y12890D01*
Y12840D01*
X18770D01*
X18720Y12790D01*
X18470Y13040D02*
Y13140D01*
Y13090D01*
X18770D01*
X18720Y13040D01*
X20760Y13140D02*
X20810Y13190D01*
X20910D01*
X20960Y13140D01*
Y12940D01*
X20910Y12890D01*
X20810D01*
X20760Y12940D01*
X20660Y12890D02*
X20560D01*
X20610D01*
Y13190D01*
X20660Y13140D01*
X20210Y12890D02*
X20410D01*
X20210Y13090D01*
Y13140D01*
X20260Y13190D01*
X20360D01*
X20410Y13140D01*
X18190Y6360D02*
X18240Y6310D01*
Y6210D01*
X18190Y6160D01*
X17990D01*
X17940Y6210D01*
Y6310D01*
X17990Y6360D01*
X17940Y6460D02*
Y6560D01*
Y6510D01*
X18240D01*
X18190Y6460D01*
X17940Y6860D02*
X18240D01*
X18090Y6710D01*
Y6910D01*
X13850Y6350D02*
X13900Y6300D01*
Y6200D01*
X13850Y6150D01*
X13650D01*
X13600Y6200D01*
Y6300D01*
X13650Y6350D01*
X13600Y6450D02*
Y6550D01*
Y6500D01*
X13900D01*
X13850Y6450D01*
X13900Y6900D02*
Y6700D01*
X13750D01*
X13800Y6800D01*
Y6850D01*
X13750Y6900D01*
X13650D01*
X13600Y6850D01*
Y6750D01*
X13650Y6700D01*
X12430Y8100D02*
X12480Y8150D01*
X12580D01*
X12630Y8100D01*
Y7900D01*
X12580Y7850D01*
X12480D01*
X12430Y7900D01*
X12330Y7850D02*
X12230D01*
X12280D01*
Y8150D01*
X12330Y8100D01*
X11880Y8150D02*
X11980Y8100D01*
X12080Y8000D01*
Y7900D01*
X12030Y7850D01*
X11930D01*
X11880Y7900D01*
Y7950D01*
X11930Y8000D01*
X12080D01*
X12410Y12870D02*
X12460Y12920D01*
X12560D01*
X12610Y12870D01*
Y12670D01*
X12560Y12620D01*
X12460D01*
X12410Y12670D01*
X12310Y12620D02*
X12210D01*
X12260D01*
Y12920D01*
X12310Y12870D01*
X12060Y12920D02*
X11860D01*
Y12870D01*
X12060Y12670D01*
Y12620D01*
X3770Y17350D02*
X3820Y17400D01*
X3920D01*
X3970Y17350D01*
Y17150D01*
X3920Y17100D01*
X3820D01*
X3770Y17150D01*
X3670Y17100D02*
X3570D01*
X3620D01*
Y17400D01*
X3670Y17350D01*
X3420D02*
X3370Y17400D01*
X3270D01*
X3220Y17350D01*
Y17300D01*
X3270Y17250D01*
X3220Y17200D01*
Y17150D01*
X3270Y17100D01*
X3370D01*
X3420Y17150D01*
Y17200D01*
X3370Y17250D01*
X3420Y17300D01*
Y17350D01*
X3370Y17250D02*
X3270D01*
X14090Y13710D02*
X14140Y13660D01*
Y13560D01*
X14090Y13510D01*
X13890D01*
X13840Y13560D01*
Y13660D01*
X13890Y13710D01*
X13840Y13810D02*
Y13910D01*
Y13860D01*
X14140D01*
X14090Y13810D01*
X13890Y14060D02*
X13840Y14110D01*
Y14210D01*
X13890Y14260D01*
X14090D01*
X14140Y14210D01*
Y14110D01*
X14090Y14060D01*
X14040D01*
X13990Y14110D01*
Y14260D01*
X16740Y13760D02*
X16790Y13710D01*
Y13610D01*
X16740Y13560D01*
X16540D01*
X16490Y13610D01*
Y13710D01*
X16540Y13760D01*
X16490Y14060D02*
Y13860D01*
X16690Y14060D01*
X16740D01*
X16790Y14010D01*
Y13910D01*
X16740Y13860D01*
Y14160D02*
X16790Y14210D01*
Y14310D01*
X16740Y14360D01*
X16540D01*
X16490Y14310D01*
Y14210D01*
X16540Y14160D01*
X16740D01*
X17430Y13770D02*
X17480Y13720D01*
Y13620D01*
X17430Y13570D01*
X17230D01*
X17180Y13620D01*
Y13720D01*
X17230Y13770D01*
X17180Y14070D02*
Y13870D01*
X17380Y14070D01*
X17430D01*
X17480Y14020D01*
Y13920D01*
X17430Y13870D01*
X17180Y14170D02*
Y14270D01*
Y14220D01*
X17480D01*
X17430Y14170D01*
X20080Y13670D02*
X20130Y13620D01*
Y13520D01*
X20080Y13470D01*
X19880D01*
X19830Y13520D01*
Y13620D01*
X19880Y13670D01*
X19830Y13970D02*
Y13770D01*
X20030Y13970D01*
X20080D01*
X20130Y13920D01*
Y13820D01*
X20080Y13770D01*
X19830Y14270D02*
Y14070D01*
X20030Y14270D01*
X20080D01*
X20130Y14220D01*
Y14120D01*
X20080Y14070D01*
X20800Y12610D02*
X20850Y12660D01*
X20950D01*
X21000Y12610D01*
Y12410D01*
X20950Y12360D01*
X20850D01*
X20800Y12410D01*
X20500Y12360D02*
X20700D01*
X20500Y12560D01*
Y12610D01*
X20550Y12660D01*
X20650D01*
X20700Y12610D01*
X20400D02*
X20350Y12660D01*
X20250D01*
X20200Y12610D01*
Y12560D01*
X20250Y12510D01*
X20300D01*
X20250D01*
X20200Y12460D01*
Y12410D01*
X20250Y12360D01*
X20350D01*
X20400Y12410D01*
X20630Y8490D02*
X20680Y8540D01*
X20780D01*
X20830Y8490D01*
Y8290D01*
X20780Y8240D01*
X20680D01*
X20630Y8290D01*
X20330Y8240D02*
X20530D01*
X20330Y8440D01*
Y8490D01*
X20380Y8540D01*
X20480D01*
X20530Y8490D01*
X20080Y8240D02*
Y8540D01*
X20230Y8390D01*
X20030D01*
X19860Y5220D02*
X19910Y5170D01*
Y5070D01*
X19860Y5020D01*
X19660D01*
X19610Y5070D01*
Y5170D01*
X19660Y5220D01*
X19610Y5520D02*
Y5320D01*
X19810Y5520D01*
X19860D01*
X19910Y5470D01*
Y5370D01*
X19860Y5320D01*
X19910Y5820D02*
Y5620D01*
X19760D01*
X19810Y5720D01*
Y5770D01*
X19760Y5820D01*
X19660D01*
X19610Y5770D01*
Y5670D01*
X19660Y5620D01*
X16980Y6300D02*
X17030Y6250D01*
Y6150D01*
X16980Y6100D01*
X16780D01*
X16730Y6150D01*
Y6250D01*
X16780Y6300D01*
X16730Y6600D02*
Y6400D01*
X16930Y6600D01*
X16980D01*
X17030Y6550D01*
Y6450D01*
X16980Y6400D01*
X17030Y6900D02*
X16980Y6800D01*
X16880Y6700D01*
X16780D01*
X16730Y6750D01*
Y6850D01*
X16780Y6900D01*
X16830D01*
X16880Y6850D01*
Y6700D01*
X15380Y6380D02*
X15430Y6330D01*
Y6230D01*
X15380Y6180D01*
X15180D01*
X15130Y6230D01*
Y6330D01*
X15180Y6380D01*
X15130Y6680D02*
Y6480D01*
X15330Y6680D01*
X15380D01*
X15430Y6630D01*
Y6530D01*
X15380Y6480D01*
X15430Y6780D02*
Y6980D01*
X15380D01*
X15180Y6780D01*
X15130D01*
X14410Y6350D02*
X14460Y6300D01*
Y6200D01*
X14410Y6150D01*
X14210D01*
X14160Y6200D01*
Y6300D01*
X14210Y6350D01*
X14160Y6650D02*
Y6450D01*
X14360Y6650D01*
X14410D01*
X14460Y6600D01*
Y6500D01*
X14410Y6450D01*
Y6750D02*
X14460Y6800D01*
Y6900D01*
X14410Y6950D01*
X14360D01*
X14310Y6900D01*
X14260Y6950D01*
X14210D01*
X14160Y6900D01*
Y6800D01*
X14210Y6750D01*
X14260D01*
X14310Y6800D01*
X14360Y6750D01*
X14410D01*
X14310Y6800D02*
Y6900D01*
X12440Y9780D02*
X12490Y9830D01*
X12590D01*
X12640Y9780D01*
Y9580D01*
X12590Y9530D01*
X12490D01*
X12440Y9580D01*
X12140Y9530D02*
X12340D01*
X12140Y9730D01*
Y9780D01*
X12190Y9830D01*
X12290D01*
X12340Y9780D01*
X12040Y9580D02*
X11990Y9530D01*
X11890D01*
X11840Y9580D01*
Y9780D01*
X11890Y9830D01*
X11990D01*
X12040Y9780D01*
Y9730D01*
X11990Y9680D01*
X11840D01*
X12430Y10930D02*
X12480Y10980D01*
X12580D01*
X12630Y10930D01*
Y10730D01*
X12580Y10680D01*
X12480D01*
X12430Y10730D01*
X12330Y10930D02*
X12280Y10980D01*
X12180D01*
X12130Y10930D01*
Y10880D01*
X12180Y10830D01*
X12230D01*
X12180D01*
X12130Y10780D01*
Y10730D01*
X12180Y10680D01*
X12280D01*
X12330Y10730D01*
X12030Y10930D02*
X11980Y10980D01*
X11880D01*
X11830Y10930D01*
Y10730D01*
X11880Y10680D01*
X11980D01*
X12030Y10730D01*
Y10930D01*
X22490Y8260D02*
X22790D01*
Y8410D01*
X22740Y8460D01*
X22640D01*
X22590Y8410D01*
Y8260D01*
Y8360D02*
X22490Y8460D01*
X22790Y8760D02*
X22740Y8660D01*
X22640Y8560D01*
X22540D01*
X22490Y8610D01*
Y8710D01*
X22540Y8760D01*
X22590D01*
X22640Y8710D01*
Y8560D01*
X20820Y8730D02*
Y9030D01*
X20670D01*
X20620Y8980D01*
Y8880D01*
X20670Y8830D01*
X20820D01*
X20720D02*
X20620Y8730D01*
X20520Y8980D02*
X20470Y9030D01*
X20370D01*
X20320Y8980D01*
Y8930D01*
X20370Y8880D01*
X20320Y8830D01*
Y8780D01*
X20370Y8730D01*
X20470D01*
X20520Y8780D01*
Y8830D01*
X20470Y8880D01*
X20520Y8930D01*
Y8980D01*
X20470Y8880D02*
X20370D01*
X27340Y11200D02*
Y11500D01*
X27190D01*
X27140Y11450D01*
Y11350D01*
X27190Y11300D01*
X27340D01*
X27240D02*
X27140Y11200D01*
X27040Y11250D02*
X26990Y11200D01*
X26890D01*
X26840Y11250D01*
Y11450D01*
X26890Y11500D01*
X26990D01*
X27040Y11450D01*
Y11400D01*
X26990Y11350D01*
X26840D01*
X27390Y8900D02*
Y9200D01*
X27240D01*
X27190Y9150D01*
Y9050D01*
X27240Y9000D01*
X27390D01*
X27290D02*
X27190Y8900D01*
X26890Y9200D02*
X27090D01*
Y9050D01*
X26990Y9100D01*
X26940D01*
X26890Y9050D01*
Y8950D01*
X26940Y8900D01*
X27040D01*
X27090Y8950D01*
X27250Y3100D02*
X27300Y3150D01*
X27400D01*
X27450Y3100D01*
Y2900D01*
X27400Y2850D01*
X27300D01*
X27250Y2900D01*
X26950Y3150D02*
X27150D01*
Y3000D01*
X27050Y3050D01*
X27000D01*
X26950Y3000D01*
Y2900D01*
X27000Y2850D01*
X27100D01*
X27150Y2900D01*
X27350Y16600D02*
X27400Y16650D01*
X27500D01*
X27550Y16600D01*
Y16400D01*
X27500Y16350D01*
X27400D01*
X27350Y16400D01*
X27050Y16650D02*
X27150Y16600D01*
X27250Y16500D01*
Y16400D01*
X27200Y16350D01*
X27100D01*
X27050Y16400D01*
Y16450D01*
X27100Y16500D01*
X27250D01*
X27740Y17740D02*
Y18040D01*
X27590D01*
X27540Y17990D01*
Y17890D01*
X27590Y17840D01*
X27740D01*
X27640D02*
X27540Y17740D01*
X27240D02*
X27440D01*
X27240Y17940D01*
Y17990D01*
X27290Y18040D01*
X27390D01*
X27440Y17990D01*
X27140Y17740D02*
X27040D01*
X27090D01*
Y18040D01*
X27140Y17990D01*
X28830Y18560D02*
X28880Y18610D01*
X28980D01*
X29030Y18560D01*
Y18510D01*
X28980Y18460D01*
X28880D01*
X28830Y18410D01*
Y18360D01*
X28880Y18310D01*
X28980D01*
X29030Y18360D01*
X28530Y18310D02*
X28730D01*
X28530Y18510D01*
Y18560D01*
X28580Y18610D01*
X28680D01*
X28730Y18560D01*
X27720Y2160D02*
Y2460D01*
X27570D01*
X27520Y2410D01*
Y2310D01*
X27570Y2260D01*
X27720D01*
X27620D02*
X27520Y2160D01*
X27220D02*
X27420D01*
X27220Y2360D01*
Y2410D01*
X27270Y2460D01*
X27370D01*
X27420Y2410D01*
X26970Y2160D02*
Y2460D01*
X27120Y2310D01*
X26920D01*
X27820Y16980D02*
Y17280D01*
X27670D01*
X27620Y17230D01*
Y17130D01*
X27670Y17080D01*
X27820D01*
X27720D02*
X27620Y16980D01*
X27320D02*
X27520D01*
X27320Y17180D01*
Y17230D01*
X27370Y17280D01*
X27470D01*
X27520Y17230D01*
X27020Y17280D02*
X27220D01*
Y17130D01*
X27120Y17180D01*
X27070D01*
X27020Y17130D01*
Y17030D01*
X27070Y16980D01*
X27170D01*
X27220Y17030D01*
X6110Y10870D02*
Y11170D01*
X5960D01*
X5910Y11120D01*
Y11020D01*
X5960Y10970D01*
X6110D01*
X6010D02*
X5910Y10870D01*
X5610D02*
X5810D01*
X5610Y11070D01*
Y11120D01*
X5660Y11170D01*
X5760D01*
X5810Y11120D01*
X5510D02*
X5460Y11170D01*
X5360D01*
X5310Y11120D01*
Y11070D01*
X5360Y11020D01*
X5310Y10970D01*
Y10920D01*
X5360Y10870D01*
X5460D01*
X5510Y10920D01*
Y10970D01*
X5460Y11020D01*
X5510Y11070D01*
Y11120D01*
X5460Y11020D02*
X5360D01*
X6120Y11530D02*
Y11830D01*
X5970D01*
X5920Y11780D01*
Y11680D01*
X5970Y11630D01*
X6120D01*
X6020D02*
X5920Y11530D01*
X5620D02*
X5820D01*
X5620Y11730D01*
Y11780D01*
X5670Y11830D01*
X5770D01*
X5820Y11780D01*
X5520Y11580D02*
X5470Y11530D01*
X5370D01*
X5320Y11580D01*
Y11780D01*
X5370Y11830D01*
X5470D01*
X5520Y11780D01*
Y11730D01*
X5470Y11680D01*
X5320D01*
X6140Y12190D02*
Y12490D01*
X5990D01*
X5940Y12440D01*
Y12340D01*
X5990Y12290D01*
X6140D01*
X6040D02*
X5940Y12190D01*
X5840Y12440D02*
X5790Y12490D01*
X5690D01*
X5640Y12440D01*
Y12390D01*
X5690Y12340D01*
X5740D01*
X5690D01*
X5640Y12290D01*
Y12240D01*
X5690Y12190D01*
X5790D01*
X5840Y12240D01*
X5540Y12440D02*
X5490Y12490D01*
X5390D01*
X5340Y12440D01*
Y12240D01*
X5390Y12190D01*
X5490D01*
X5540Y12240D01*
Y12440D01*
X6110Y12900D02*
Y13200D01*
X5960D01*
X5910Y13150D01*
Y13050D01*
X5960Y13000D01*
X6110D01*
X6010D02*
X5910Y12900D01*
X5810Y13150D02*
X5760Y13200D01*
X5660D01*
X5610Y13150D01*
Y13100D01*
X5660Y13050D01*
X5710D01*
X5660D01*
X5610Y13000D01*
Y12950D01*
X5660Y12900D01*
X5760D01*
X5810Y12950D01*
X5510Y12900D02*
X5410D01*
X5460D01*
Y13200D01*
X5510Y13150D01*
X2360Y10440D02*
Y10173D01*
X1960D01*
Y10440D01*
X2160Y10173D02*
Y10306D01*
X1960Y10573D02*
X2227D01*
Y10773D01*
X2160Y10839D01*
X1960D01*
X1827Y11106D02*
Y11173D01*
X1893Y11239D01*
X2227D01*
Y11039D01*
X2160Y10973D01*
X2027D01*
X1960Y11039D01*
Y11239D01*
Y11373D02*
Y11506D01*
Y11439D01*
X2227D01*
Y11373D01*
X1960Y11706D02*
X2227D01*
Y11906D01*
X2160Y11972D01*
X1960D01*
Y12306D02*
Y12172D01*
X2027Y12106D01*
X2160D01*
X2227Y12172D01*
Y12306D01*
X2160Y12372D01*
X2093D01*
Y12106D01*
X1960Y12706D02*
Y12572D01*
X2027Y12506D01*
X2160D01*
X2227Y12572D01*
Y12706D01*
X2160Y12772D01*
X2093D01*
Y12506D01*
X2227Y12905D02*
X1960D01*
X2093D01*
X2160Y12972D01*
X2227Y13039D01*
Y13105D01*
X1652Y10420D02*
Y10286D01*
Y10353D01*
X1319D01*
X1252Y10286D01*
Y10220D01*
X1319Y10153D01*
X1252Y10620D02*
Y10753D01*
X1319Y10819D01*
X1452D01*
X1519Y10753D01*
Y10620D01*
X1452Y10553D01*
X1319D01*
X1252Y10620D01*
Y10953D02*
Y11153D01*
X1319Y11219D01*
X1385Y11153D01*
Y11019D01*
X1452Y10953D01*
X1519Y11019D01*
Y11219D01*
X1252Y11553D02*
Y11419D01*
X1319Y11353D01*
X1452D01*
X1519Y11419D01*
Y11553D01*
X1452Y11619D01*
X1385D01*
Y11353D01*
X1252Y12152D02*
X1652D01*
Y12352D01*
X1585Y12419D01*
X1452D01*
X1385Y12352D01*
Y12152D01*
X1252Y12552D02*
Y12686D01*
Y12619D01*
X1519D01*
Y12552D01*
X1252Y12885D02*
X1519D01*
Y13085D01*
X1452Y13152D01*
X1252D01*
Y13285D02*
Y13419D01*
Y13352D01*
X1519D01*
Y13285D01*
X1252Y13619D02*
Y13752D01*
Y13685D01*
X1652D01*
Y13619D01*
X1252Y13952D02*
Y14085D01*
Y14018D01*
X1652D01*
Y13952D01*
X1519Y14352D02*
Y14485D01*
X1452Y14552D01*
X1252D01*
Y14352D01*
X1319Y14285D01*
X1385Y14352D01*
Y14552D01*
D31*
X20650Y9953D02*
Y10387D01*
X6850Y10783D02*
Y11217D01*
X6840Y11453D02*
Y11887D01*
X6820Y12133D02*
Y12567D01*
Y12823D02*
Y13257D01*
X26360Y17643D02*
Y18077D01*
X26270Y1353D02*
Y1787D01*
X27150Y10503D02*
Y10937D01*
X27150Y9423D02*
Y9857D01*
X26280Y2103D02*
Y2537D01*
X26355Y16966D02*
Y17400D01*
X29484Y17414D02*
X29764D01*
Y16753D02*
Y17414D01*
X29484Y16753D02*
X29764D01*
X28039Y16375D02*
Y17823D01*
X29484Y16375D02*
Y17823D01*
X28039Y16375D02*
X28193D01*
X29346D02*
X29484D01*
X29339Y17823D02*
X29484D01*
X28039D02*
X28201D01*
X28039Y2968D02*
X28201D01*
X29339D02*
X29484D01*
X29346Y1519D02*
X29484D01*
X28039D02*
X28193D01*
X29484D02*
Y2968D01*
X28039Y1519D02*
Y2968D01*
X29484Y1897D02*
X29764D01*
Y2558D01*
X29484D02*
X29764D01*
X21763Y8480D02*
X22197D01*
X12705Y4203D02*
Y4517D01*
X13295Y4203D02*
Y4517D01*
X3423Y16345D02*
X3737D01*
X3423Y16935D02*
X3737D01*
D198*
X2343Y8120D02*
G03*
X1673Y8827I-688J19D01*
G01*
X1627Y8544D02*
G03*
X1249Y8147I9J-387D01*
G01*
X2019Y8167D02*
G03*
X1627Y8544I-384J-7D01*
G01*
X1673Y8827D02*
G03*
X963Y8358I-39J-712D01*
G01*
X2346Y7742D02*
X2455D01*
X2346Y7982D02*
X2455D01*
Y8379D01*
X2343Y7633D02*
Y7698D01*
X922Y7111D02*
X1140Y7417D01*
X922Y7111D02*
Y7608D01*
Y7701D01*
Y8154D01*
X928Y6109D02*
X1205Y6362D01*
X928Y6109D02*
Y6593D01*
X1402Y6837D01*
X1598Y7389D02*
X2037Y7165D01*
X1598Y6937D02*
Y7389D01*
X1212Y7982D02*
X2022D01*
X1218Y7742D02*
X2022D01*
X922Y7299D02*
X1218Y7742D01*
X922Y7299D02*
Y7780D01*
Y7982D01*
Y8413D01*
X1212Y7982D01*
X2019Y7745D02*
Y8167D01*
X1619Y7741D02*
X2770Y7165D01*
X1140Y7417D02*
X1398D01*
X1598Y6937D02*
X2037Y7165D01*
X1402Y6837D02*
Y7489D01*
X1149Y7639D02*
X1402Y7489D01*
X2343Y8120D02*
X2343Y7378D01*
X2692Y7204D02*
Y8675D01*
X2455Y7323D02*
Y7742D01*
X1249Y7982D02*
Y8147D01*
X1205Y6362D02*
X2770Y7165D01*
X2186Y8675D02*
X2692D01*
X2186D02*
X2455Y8407D01*
Y8379D02*
Y8407D01*
M02*
