%FSLAX24Y24*%
%MOIN*%
G70*
G01*
G75*
G04 Layer_Physical_Order=1*
G04 Layer_Color=255*
%ADD10C,0.0100*%
%ADD11R,0.1693X0.1693*%
%ADD12O,0.0827X0.0118*%
%ADD13O,0.0118X0.0827*%
%ADD14R,0.0512X0.0394*%
%ADD15O,0.0984X0.0276*%
%ADD16R,0.0394X0.0512*%
%ADD17R,0.0551X0.0433*%
%ADD18R,0.0433X0.0551*%
%ADD19R,0.0512X0.0591*%
%ADD20R,0.1299X0.1063*%
%ADD21R,0.0394X0.1063*%
%ADD22R,0.0472X0.0551*%
%ADD23R,0.0551X0.0630*%
%ADD24R,0.0500X0.0300*%
%ADD25C,0.0200*%
%ADD26C,0.0300*%
%ADD27C,0.0250*%
%ADD28C,0.0600*%
%ADD29C,0.0400*%
%ADD30C,0.0150*%
%ADD31C,0.0079*%
%ADD32R,0.7165X0.7146*%
%ADD33R,0.0719X0.1122*%
%ADD34R,0.1516X0.1821*%
%ADD35R,0.1349X0.0305*%
%ADD36R,0.0709X0.0778*%
%ADD37R,0.1830X0.1120*%
%ADD38R,0.2080X0.2124*%
%ADD39R,0.0790X0.5280*%
%ADD40R,0.0810X0.1960*%
%ADD41R,0.1310X0.3313*%
%ADD42R,0.1010X0.0210*%
%ADD43R,0.1490X0.1470*%
%ADD44R,0.0370X0.4820*%
%ADD45R,0.0770X0.0910*%
%ADD46R,0.0920X0.5210*%
%ADD47R,0.1260X0.1830*%
%ADD48R,0.1490X0.6150*%
%ADD49R,0.3870X0.4260*%
%ADD50R,0.1270X0.5300*%
%ADD51R,0.1950X0.1110*%
%ADD52R,0.2270X0.0510*%
%ADD53R,0.0780X0.2500*%
%ADD54R,0.1520X0.0820*%
%ADD55R,0.1890X0.1040*%
%ADD56R,0.3710X0.3070*%
%ADD57R,0.1740X0.1110*%
%ADD58R,0.1460X0.3920*%
%ADD59R,0.2270X0.2971*%
%ADD60R,0.0820X0.6210*%
%ADD61R,0.0810X0.5750*%
%ADD62R,0.1610X0.3230*%
%ADD63R,0.0810X0.1040*%
%ADD64R,0.0470X0.5180*%
%ADD65R,0.1430X0.1840*%
%ADD66R,0.1550X0.2090*%
%ADD67R,0.1370X0.4960*%
%ADD68R,0.1512X0.4310*%
%ADD69R,0.4902X0.1473*%
%ADD70R,0.0710X0.2250*%
%ADD71R,0.4912X0.1971*%
%ADD72R,0.1112X1.9075*%
%ADD73R,0.1452X0.7011*%
%ADD74R,0.0640X0.1540*%
%ADD75R,0.1130X0.1610*%
%ADD76R,0.3340X0.1210*%
%ADD77R,0.1110X0.1820*%
%ADD78R,0.1390X0.1590*%
%ADD79R,0.3241X0.0974*%
%ADD80R,0.1470X0.0847*%
%ADD81R,0.1260X0.9560*%
%ADD82R,0.1100X0.3420*%
%ADD83R,0.1180X0.0590*%
%ADD84R,0.0830X0.3230*%
%ADD85R,0.1820X0.0900*%
%ADD86R,0.0850X0.1900*%
%ADD87R,0.1770X0.0950*%
%ADD88C,0.0320*%
%ADD89R,0.0591X0.0591*%
%ADD90C,0.0591*%
%ADD91R,0.0591X0.0591*%
%ADD92C,0.0500*%
G36*
X9620Y10313D02*
Y9029D01*
X8650D01*
Y10579D01*
X9354D01*
X9620Y10313D01*
D02*
G37*
G36*
X26010Y12289D02*
X26010Y12289D01*
X26010D01*
Y10063D01*
X24540D01*
Y10907D01*
X24639D01*
X24689Y10917D01*
X24732Y10945D01*
X24927Y11141D01*
X24956Y11183D01*
X24956Y11183D01*
X24956Y11183D01*
X24966Y11234D01*
Y11604D01*
X25189D01*
Y12391D01*
X24540D01*
Y12459D01*
X26010D01*
Y12289D01*
D02*
G37*
G36*
X8210Y15898D02*
X9060Y15049D01*
Y14949D01*
X7570D01*
X7569Y14949D01*
X6690D01*
Y15769D01*
X6690Y15770D01*
Y16159D01*
X6690Y16160D01*
Y16349D01*
X6690Y16349D01*
X7760D01*
X8210Y15898D01*
D02*
G37*
G36*
X27577Y6986D02*
Y5642D01*
X27166Y5230D01*
X26759D01*
X26732Y5271D01*
X26653Y5324D01*
X26560Y5342D01*
X26481Y5327D01*
X26457Y5371D01*
X26477Y5391D01*
X26506Y5433D01*
X26506Y5433D01*
X26506Y5433D01*
X26516Y5484D01*
Y5568D01*
X26739D01*
X26823Y5585D01*
X26895Y5633D01*
X26943Y5705D01*
X26960Y5789D01*
X26943Y5874D01*
X26895Y5945D01*
X26823Y5993D01*
X26739Y6010D01*
X26030D01*
X25946Y5993D01*
X25874Y5945D01*
X25826Y5874D01*
X25809Y5789D01*
X25826Y5705D01*
X25874Y5633D01*
X25946Y5585D01*
X26030Y5568D01*
X26218D01*
X26237Y5522D01*
X26126Y5410D01*
X24540D01*
Y5568D01*
X24810D01*
X24875Y5581D01*
X25180D01*
X25259Y5597D01*
X25327Y5642D01*
X25327Y5642D01*
X25327Y5642D01*
X25497Y5812D01*
X25497Y5812D01*
X25542Y5880D01*
X25558Y5959D01*
Y6074D01*
X25601Y6097D01*
X25680Y6081D01*
X25965D01*
X26030Y6068D01*
X26739D01*
X26823Y6085D01*
X26895Y6133D01*
X26943Y6205D01*
X26960Y6289D01*
X26943Y6374D01*
X26895Y6445D01*
X26823Y6493D01*
X26739Y6510D01*
X26030D01*
X25965Y6497D01*
X25766D01*
X25558Y6705D01*
Y7009D01*
X27050D01*
X27081Y7015D01*
X27107Y7032D01*
X27124Y7058D01*
X27130Y7089D01*
Y7368D01*
X27176Y7387D01*
X27577Y6986D01*
D02*
G37*
G36*
X6828Y3073D02*
X5993Y2238D01*
X5840Y2119D01*
X2780D01*
Y3119D01*
X6809D01*
X6828Y3073D01*
D02*
G37*
G36*
X9090Y3989D02*
X8340Y3239D01*
X6690D01*
Y4349D01*
X9090D01*
Y3989D01*
D02*
G37*
G36*
X13057Y5867D02*
X13051Y5840D01*
Y5131D01*
X13061Y5085D01*
Y3955D01*
X12885Y3780D01*
X12020D01*
Y5599D01*
X12018Y5612D01*
Y5906D01*
X13025D01*
X13057Y5867D01*
D02*
G37*
G36*
X29399Y148D02*
X24540D01*
Y239D01*
X24547Y246D01*
X24645Y258D01*
X24736Y296D01*
X24814Y356D01*
X24874Y434D01*
X24912Y525D01*
X24924Y623D01*
X24912Y720D01*
X24874Y811D01*
X24814Y890D01*
X24736Y949D01*
X24645Y987D01*
X24547Y1000D01*
X24540Y1006D01*
Y1249D01*
X24921D01*
Y1997D01*
X24540D01*
Y2324D01*
X24540D01*
X24569D01*
X24575Y2324D01*
X24575Y2324D01*
Y2324D01*
X24994D01*
X26075Y1243D01*
X26100Y1226D01*
X26118Y1215D01*
X26168Y1205D01*
X27101D01*
Y955D01*
X27771D01*
Y1703D01*
X27101D01*
Y1468D01*
X26222D01*
X25121Y2569D01*
Y2994D01*
D01*
Y2994D01*
X25121Y2994D01*
Y3041D01*
X25121D01*
Y3244D01*
X25469D01*
X26422Y2292D01*
X26464Y2263D01*
X26515Y2253D01*
X27101D01*
Y2012D01*
X27771D01*
Y2760D01*
X27101D01*
Y2516D01*
X26569D01*
X25616Y3469D01*
X25574Y3497D01*
X25523Y3507D01*
X25121D01*
Y3710D01*
D01*
Y3710D01*
X25121Y3710D01*
Y3758D01*
X25121D01*
Y3961D01*
X25782D01*
X26404Y3340D01*
X26446Y3311D01*
X26497Y3301D01*
X27101D01*
Y3068D01*
X27771D01*
Y3816D01*
X27101D01*
Y3564D01*
X26551D01*
X25929Y4185D01*
X25887Y4214D01*
X25837Y4224D01*
X25121D01*
Y4427D01*
D01*
Y4427D01*
X25121Y4427D01*
Y4474D01*
X25121D01*
Y4678D01*
X26036D01*
X26326Y4388D01*
X26368Y4359D01*
X26419Y4349D01*
X27101D01*
Y4125D01*
X27771D01*
Y4873D01*
X27101D01*
Y4612D01*
X26473D01*
X26183Y4902D01*
X26140Y4930D01*
X26090Y4940D01*
X25121D01*
Y5112D01*
X25121Y5112D01*
D01*
D01*
X25121Y5144D01*
D01*
X25125Y5148D01*
X26180D01*
X26230Y5158D01*
X26273Y5186D01*
X26288Y5202D01*
X26332Y5178D01*
X26317Y5099D01*
X26335Y5006D01*
X26388Y4927D01*
X26467Y4874D01*
X26560Y4856D01*
X26653Y4874D01*
X26732Y4927D01*
X26759Y4968D01*
X27220D01*
X27270Y4978D01*
X27313Y5006D01*
X27802Y5495D01*
X27830Y5538D01*
X27840Y5588D01*
Y7040D01*
X27830Y7091D01*
X27802Y7133D01*
X27382Y7553D01*
X27401Y7599D01*
X29080D01*
X29111Y7605D01*
X29137Y7622D01*
X29154Y7648D01*
X29160Y7679D01*
Y8629D01*
X29154Y8660D01*
X29137Y8686D01*
X29111Y8703D01*
X29080Y8709D01*
X28240D01*
Y8910D01*
X28288Y8926D01*
X28313Y8892D01*
X28391Y8832D01*
X28482Y8795D01*
X28580Y8782D01*
X28678Y8795D01*
X28769Y8832D01*
X28847Y8892D01*
X28907Y8970D01*
X28944Y9061D01*
X28957Y9159D01*
X28944Y9257D01*
X28907Y9348D01*
X28847Y9426D01*
X28769Y9486D01*
X28678Y9523D01*
X28580Y9536D01*
X28482Y9523D01*
X28391Y9486D01*
X28313Y9426D01*
X28288Y9392D01*
X28240Y9408D01*
Y9579D01*
X28234Y9610D01*
X28217Y9636D01*
X28215Y9637D01*
X28206Y9686D01*
X28214Y9698D01*
X28220Y9729D01*
Y9936D01*
X28268Y9952D01*
X28313Y9892D01*
X28391Y9832D01*
X28482Y9795D01*
X28580Y9782D01*
X28678Y9795D01*
X28769Y9832D01*
X28847Y9892D01*
X28907Y9970D01*
X28944Y10061D01*
X28957Y10159D01*
X28944Y10257D01*
X28907Y10348D01*
X28847Y10426D01*
X28769Y10486D01*
X28678Y10523D01*
X28580Y10536D01*
X28482Y10523D01*
X28391Y10486D01*
X28313Y10426D01*
X28268Y10366D01*
X28220Y10382D01*
Y10619D01*
X29090D01*
X29121Y10625D01*
X29147Y10642D01*
X29164Y10668D01*
X29170Y10699D01*
Y11599D01*
X29164Y11630D01*
X29147Y11656D01*
X29121Y11673D01*
X29090Y11679D01*
X28220D01*
Y11936D01*
X28268Y11952D01*
X28313Y11892D01*
X28391Y11832D01*
X28482Y11795D01*
X28580Y11782D01*
X28678Y11795D01*
X28769Y11832D01*
X28847Y11892D01*
X28907Y11970D01*
X28944Y12061D01*
X28957Y12159D01*
X28944Y12257D01*
X28907Y12348D01*
X28847Y12426D01*
X28769Y12486D01*
X28678Y12523D01*
X28580Y12536D01*
X28482Y12523D01*
X28391Y12486D01*
X28313Y12426D01*
X28268Y12366D01*
X28220Y12382D01*
Y12959D01*
X28214Y12990D01*
X28197Y13016D01*
X28171Y13033D01*
X28140Y13039D01*
X26960D01*
Y14149D01*
X26954Y14180D01*
X26937Y14206D01*
X26911Y14223D01*
X26880Y14229D01*
X25827D01*
X25803Y14273D01*
X25825Y14306D01*
X25843Y14399D01*
X25825Y14492D01*
X25772Y14571D01*
X25693Y14624D01*
X25651Y14632D01*
X25641Y14666D01*
X25671Y14706D01*
X27101D01*
Y14475D01*
X27771D01*
Y15223D01*
X27101D01*
Y14969D01*
X25609D01*
X25558Y14959D01*
X25516Y14930D01*
X25187Y14601D01*
X25141Y14621D01*
Y14694D01*
X24589D01*
Y14694D01*
X24575D01*
X24540Y14729D01*
Y14768D01*
X24589D01*
Y14768D01*
X25141D01*
Y14971D01*
X25393D01*
X25444Y14981D01*
X25486Y15010D01*
X26229Y15753D01*
X27101D01*
Y15528D01*
X27771D01*
Y16276D01*
X27101D01*
Y16015D01*
X26175D01*
X26125Y16005D01*
X26082Y15977D01*
X25339Y15234D01*
X25141D01*
Y15437D01*
X24589D01*
Y15437D01*
X24575D01*
X24540Y15472D01*
Y15511D01*
X24589D01*
Y15511D01*
X25141D01*
Y15714D01*
X25567D01*
X25617Y15724D01*
X25659Y15753D01*
X26706Y16799D01*
X27101D01*
Y16582D01*
X27771D01*
Y17330D01*
X27101D01*
Y17062D01*
X26651D01*
X26601Y17052D01*
X26559Y17023D01*
X25512Y15977D01*
X25141D01*
Y16180D01*
X24589D01*
Y16180D01*
X24575D01*
X24540Y16216D01*
Y16254D01*
X24589D01*
Y16254D01*
X25141D01*
Y16458D01*
X25470D01*
X25520Y16468D01*
X25563Y16496D01*
X26912Y17846D01*
X27101D01*
Y17635D01*
X27771D01*
Y18383D01*
X27101D01*
Y18108D01*
X26858D01*
X26808Y18098D01*
X26765Y18070D01*
X25416Y16720D01*
X25141D01*
Y16924D01*
X24589D01*
Y16924D01*
X24575D01*
X24540Y16959D01*
Y17358D01*
X24551Y17368D01*
X24649Y17380D01*
X24740Y17418D01*
X24818Y17478D01*
X24878Y17556D01*
X24916Y17647D01*
X24928Y17745D01*
X24916Y17842D01*
X24878Y17933D01*
X24818Y18012D01*
X24740Y18072D01*
X24649Y18109D01*
X24551Y18122D01*
X24540Y18132D01*
Y18358D01*
X24551Y18368D01*
X24649Y18380D01*
X24740Y18418D01*
X24818Y18478D01*
X24878Y18556D01*
X24916Y18647D01*
X24928Y18745D01*
X24916Y18842D01*
X24878Y18933D01*
X24818Y19012D01*
X24740Y19072D01*
X24649Y19109D01*
X24551Y19122D01*
X24540Y19132D01*
Y19222D01*
X29399D01*
Y148D01*
D02*
G37*
G36*
X6610Y16349D02*
Y16160D01*
X6610Y16159D01*
Y15909D01*
X3730D01*
Y17239D01*
X5720D01*
X6610Y16349D01*
D02*
G37*
G36*
X12697Y16427D02*
Y16192D01*
X11978D01*
X11948Y16186D01*
X11922Y16169D01*
X11904Y16143D01*
X11898Y16112D01*
Y15728D01*
X11181D01*
Y17185D01*
X11938D01*
X12697Y16427D01*
D02*
G37*
%LPC*%
G36*
X4670Y16723D02*
Y16539D01*
X4853D01*
X4845Y16582D01*
X4792Y16661D01*
X4713Y16714D01*
X4670Y16723D01*
D02*
G37*
G36*
X4570D02*
X4527Y16714D01*
X4448Y16661D01*
X4395Y16582D01*
X4387Y16539D01*
X4570D01*
Y16723D01*
D02*
G37*
G36*
Y16439D02*
X4387D01*
X4395Y16396D01*
X4448Y16317D01*
X4527Y16264D01*
X4570Y16256D01*
Y16439D01*
D02*
G37*
G36*
X4853D02*
X4670D01*
Y16256D01*
X4713Y16264D01*
X4792Y16317D01*
X4845Y16396D01*
X4853Y16439D01*
D02*
G37*
%LPD*%
D10*
X23880Y10456D02*
G03*
X23665Y10545I-214J-214D01*
G01*
X23809Y10385D02*
G03*
X23424Y10545I-385J-385D01*
G01*
X23665D02*
G03*
X23880Y10634I0J303D01*
G01*
X23424Y10545D02*
G03*
X23809Y10704I0J545D01*
G01*
X20060Y17578D02*
Y18269D01*
X19783Y17302D02*
X20060Y17578D01*
X18322Y17302D02*
X19783D01*
X16924Y15904D02*
X18322Y17302D01*
X22456Y15665D02*
X24550Y17759D01*
X22375Y15844D02*
X24070Y17539D01*
X22234Y16023D02*
X23550Y17339D01*
X22122Y16201D02*
X23050Y17129D01*
X21991Y16380D02*
X22550Y16939D01*
X21770Y16559D02*
X22060Y16849D01*
X21259Y16738D02*
X21550Y17029D01*
X20867Y16916D02*
X21060Y17109D01*
X18442Y16916D02*
X20867D01*
X18516Y16738D02*
X21259D01*
X18590Y16559D02*
X21770D01*
X19166Y16380D02*
X21991D01*
X19240Y16201D02*
X22122D01*
X19314Y16023D02*
X22234D01*
X20062Y15844D02*
X22375D01*
X20136Y15665D02*
X22456D01*
X19980Y15509D02*
X20136Y15665D01*
X19801Y15583D02*
X20062Y15844D01*
X19116Y15825D02*
X19314Y16023D01*
X18937Y15899D02*
X19240Y16201D01*
X18758Y15973D02*
X19166Y16380D01*
X18113Y16082D02*
X18590Y16559D01*
X17523Y15745D02*
X18516Y16738D01*
X17335Y15809D02*
X18442Y16916D01*
X20396Y17095D02*
X20550Y17249D01*
X18368Y17095D02*
X20396D01*
X17129Y15856D02*
X18368Y17095D01*
X14270Y16479D02*
X15550Y17759D01*
X14270Y14981D02*
Y16479D01*
X7757Y2563D02*
X8742D01*
X7060Y1866D02*
X7757Y2563D01*
X7060Y1119D02*
Y1866D01*
X7683Y2742D02*
X8668D01*
X6550Y1609D02*
X7683Y2742D01*
X7164Y2920D02*
X8594D01*
X6060Y1817D02*
X7164Y2920D01*
X6060Y1119D02*
Y1817D01*
X7040Y3099D02*
X8500D01*
X5550Y1609D02*
X7040Y3099D01*
X21389Y4770D02*
X24550Y1609D01*
X21389Y4770D02*
Y6430D01*
X23800Y2659D02*
X24075D01*
X22700Y3759D02*
X23800Y2659D01*
X22700Y3759D02*
Y4099D01*
X17720Y2440D02*
X18550Y1609D01*
X17720Y2440D02*
Y5486D01*
X18050Y1109D02*
Y1791D01*
X17523Y2319D02*
X18050Y1791D01*
X17523Y2319D02*
Y5486D01*
X16932Y2227D02*
X17550Y1609D01*
X16932Y2227D02*
Y5486D01*
X17060Y1119D02*
Y1777D01*
X16735Y2102D02*
X17060Y1777D01*
X16735Y2102D02*
Y5486D01*
X16342Y2078D02*
Y5486D01*
X16070Y1807D02*
X16342Y2078D01*
X16070Y1129D02*
Y1807D01*
X16145Y2204D02*
Y5486D01*
X15550Y1609D02*
X16145Y2204D01*
X15949Y2709D02*
Y5485D01*
X15050Y1811D02*
X15949Y2709D01*
X15050Y1109D02*
Y1811D01*
X15357Y2416D02*
Y5486D01*
X14550Y1609D02*
X15357Y2416D01*
X13979Y3038D02*
Y5486D01*
X12550Y1609D02*
X13979Y3038D01*
X14964Y3023D02*
Y5486D01*
X13550Y1609D02*
X14964Y3023D01*
X15160Y2925D02*
Y5486D01*
X14060Y1824D02*
X15160Y2925D01*
X14060Y1119D02*
Y1824D01*
X14176Y2945D02*
Y5486D01*
X13060Y1828D02*
X14176Y2945D01*
X13060Y1119D02*
Y1828D01*
X13783Y3535D02*
Y5486D01*
X12050Y1803D02*
X13783Y3535D01*
X12050Y1109D02*
Y1803D01*
X13586Y3645D02*
Y5486D01*
X11550Y1609D02*
X13586Y3645D01*
X13389Y3845D02*
Y5486D01*
X12843Y3299D02*
X13389Y3845D01*
X11080Y3299D02*
X12843D01*
X13192Y3901D02*
Y5486D01*
X12769Y3478D02*
X13192Y3901D01*
X10969Y3478D02*
X12769D01*
X9206Y8755D02*
X11556D01*
X8870Y8419D02*
X9206Y8755D01*
X9777Y8576D02*
X12267D01*
X8840Y7639D02*
X9777Y8576D01*
X10600Y7598D02*
X12261D01*
X9866Y6864D02*
X10600Y7598D01*
X9866Y3687D02*
Y6864D01*
X10538Y7789D02*
X12267D01*
X9687Y6938D02*
X10538Y7789D01*
X9687Y3766D02*
Y6938D01*
X10482Y7986D02*
X12267D01*
X9509Y7012D02*
X10482Y7986D01*
X9509Y3840D02*
Y7012D01*
X10426Y8183D02*
X12267D01*
X9330Y7086D02*
X10426Y8183D01*
X9330Y3929D02*
Y7086D01*
X10370Y8380D02*
X12267D01*
X8840Y6849D02*
X10370Y8380D01*
X22130Y11529D02*
X22420Y11239D01*
X20613Y11529D02*
X22130D01*
X20613Y10939D02*
X22550D01*
X22850Y11239D01*
X23359Y11038D02*
X24639D01*
X23063Y10742D02*
X23359Y11038D01*
X20613Y10742D02*
X23063D01*
X23010Y9069D02*
X23310D01*
X22911Y8970D02*
X23010Y9069D01*
X20613Y8970D02*
X22911D01*
X22067Y7139D02*
X23090D01*
X21614Y7592D02*
X22067Y7139D01*
X20613Y7592D02*
X21614D01*
X21790Y7669D02*
X21980D01*
X21670Y7789D02*
X21790Y7669D01*
X20613Y7789D02*
X21670D01*
X25609Y14838D02*
X27426D01*
X25130Y14359D02*
X25609Y14838D01*
X24865Y14359D02*
X25130D01*
X25600Y14019D02*
Y14409D01*
X25510Y13929D02*
X25600Y14019D01*
X23530Y13929D02*
X25510D01*
X26175Y15884D02*
X27426D01*
X25393Y15102D02*
X26175Y15884D01*
X24865Y15102D02*
X25393D01*
X23410Y13809D02*
X23530Y13929D01*
X23410Y12349D02*
Y13809D01*
X21206Y12907D02*
X21650Y13351D01*
X26651Y16930D02*
X27426D01*
X25567Y15846D02*
X26651Y16930D01*
X24865Y15846D02*
X25567D01*
X26858Y17977D02*
X27426D01*
X25470Y16589D02*
X26858Y17977D01*
X24865Y16589D02*
X25470D01*
X22600Y13139D02*
Y15439D01*
X22334Y12873D02*
X22600Y13139D01*
X21424Y12873D02*
X22334D01*
X22475Y12694D02*
X22779Y12998D01*
Y15365D01*
X23259Y15846D01*
X22600Y15439D02*
X23750Y16589D01*
X21498Y12694D02*
X22475D01*
X22980Y12819D02*
Y14499D01*
X22676Y12515D02*
X22980Y12819D01*
X21572Y12515D02*
X22676D01*
X23583Y15102D02*
X24235D01*
X22980Y14499D02*
X23583Y15102D01*
X23180Y12539D02*
Y14049D01*
X22977Y12337D02*
X23180Y12539D01*
X21646Y12337D02*
X22977D01*
X23490Y14359D02*
X24235D01*
X23180Y14049D02*
X23490Y14359D01*
X23219Y12158D02*
X23410Y12349D01*
X21720Y12158D02*
X23219D01*
X26560Y5099D02*
X27220D01*
X20613Y14052D02*
Y14869D01*
X20550Y17249D02*
Y17759D01*
X14964Y13832D02*
Y14540D01*
X14570Y13832D02*
Y14681D01*
X14373Y13832D02*
Y14625D01*
X14176Y13832D02*
Y14569D01*
X13979Y13832D02*
Y14514D01*
X13783Y13832D02*
Y14458D01*
X13586Y13832D02*
Y14402D01*
X13389Y13832D02*
Y14346D01*
X13192Y13832D02*
Y14290D01*
X13014Y14468D02*
X13192Y14290D01*
X13193Y14542D02*
X13389Y14346D01*
X13371Y14616D02*
X13586Y14402D01*
X13550Y14690D02*
X13783Y14458D01*
X13730Y14763D02*
X13979Y14514D01*
X13911Y14834D02*
X14176Y14569D01*
X14090Y14908D02*
X14373Y14625D01*
X14270Y14981D02*
X14570Y14681D01*
X14600Y14904D02*
X14964Y14540D01*
X13550Y14690D02*
Y17759D01*
X13371Y14616D02*
Y16908D01*
X13193Y14542D02*
Y16717D01*
X13014Y14468D02*
Y16585D01*
X14600Y14904D02*
Y15439D01*
X14090Y14908D02*
Y16552D01*
X13911Y14834D02*
Y16626D01*
X13730Y14763D02*
Y16939D01*
X12995Y13832D02*
Y14234D01*
X12835Y14394D02*
X12995Y14234D01*
X12835Y14394D02*
Y16474D01*
X12040Y17559D02*
X13014Y16585D01*
X11609Y17700D02*
X12835Y16474D01*
X14600Y15439D02*
X14690Y15529D01*
X14600Y15489D02*
X14690D01*
X15357Y14986D02*
X15743Y15372D01*
X15357Y13832D02*
Y14986D01*
X15554Y14930D02*
X15921Y15298D01*
X15554Y13832D02*
Y14930D01*
X15751Y14875D02*
X16100Y15223D01*
X15751Y13832D02*
Y14875D01*
X16100Y15223D02*
Y16558D01*
X15921Y15298D02*
Y16632D01*
X15743Y15372D02*
Y16706D01*
X14690Y15489D02*
Y15529D01*
X15160Y13832D02*
Y14599D01*
X15020Y14739D02*
X15160Y14599D01*
X15020Y14739D02*
Y15009D01*
X12550Y17359D02*
X13193Y16717D01*
X12040Y17559D02*
Y18249D01*
X12550Y17359D02*
Y17759D01*
X13730Y16939D02*
X14070Y17279D01*
X13911Y16626D02*
X14550Y17265D01*
X14090Y16552D02*
X15050Y17512D01*
X14070Y18279D02*
X14550Y18759D01*
X14070Y17279D02*
Y18279D01*
X13050Y17229D02*
X13371Y16908D01*
X16050Y17014D02*
Y18259D01*
X15743Y16706D02*
X16050Y17014D01*
X16229Y16940D02*
Y17438D01*
X15921Y16632D02*
X16229Y16940D01*
X16100Y16558D02*
X17050Y17508D01*
X16229Y17438D02*
X16550Y17759D01*
X16342Y13832D02*
Y16080D01*
X17550Y17288D01*
X16538Y13832D02*
Y16024D01*
X18050Y17536D01*
X16726Y13841D02*
Y15959D01*
X18464Y17697D01*
X16924Y13841D02*
Y15904D01*
X17129Y13832D02*
Y15856D01*
X17335Y13841D02*
Y15809D01*
X17523Y13832D02*
Y15745D01*
X16050Y18259D02*
X16550Y18759D01*
X17050Y17508D02*
Y18259D01*
X11450Y7309D02*
X11536Y7395D01*
X11180Y7309D02*
X11450D01*
X12261Y7598D02*
X12267Y7592D01*
X11313Y6919D02*
X11592Y7198D01*
X11386Y6739D02*
X11648Y7002D01*
X12267D01*
X11457Y6558D02*
X11704Y6805D01*
X12267D01*
X11531Y6379D02*
X11760Y6608D01*
X12267D01*
X11700Y5999D02*
Y6289D01*
X11822Y6411D01*
X12267D01*
X10808Y6379D02*
X11531D01*
X10734Y6558D02*
X11457D01*
X10663Y6739D02*
X11386D01*
X10590Y6919D02*
X11313D01*
X8500Y3099D02*
X9330Y3929D01*
X8640Y2971D02*
X9509Y3840D01*
X8640Y2966D02*
Y2971D01*
X8594Y2920D02*
X8640Y2966D01*
X8819Y2897D02*
X9687Y3766D01*
X8819Y2892D02*
Y2897D01*
X8668Y2742D02*
X8819Y2892D01*
X8742Y2563D02*
X9866Y3687D01*
X8816Y2384D02*
X10045Y3613D01*
X8890Y2205D02*
X10224Y3539D01*
X8550Y1609D02*
X10402Y3461D01*
X9070Y1876D02*
X10581Y3387D01*
X9070Y1129D02*
Y1876D01*
X7845Y2384D02*
X8816D01*
X10045Y3613D02*
Y6374D01*
X8296Y2205D02*
X8890D01*
X10224Y3539D02*
Y6300D01*
X10402Y3461D02*
Y6226D01*
X10581Y3387D02*
Y6152D01*
X10808Y6379D01*
X10402Y6226D02*
X10734Y6558D01*
X10224Y6300D02*
X10663Y6739D01*
X10045Y6374D02*
X10590Y6919D01*
X8060Y1969D02*
X8296Y2205D01*
X7550Y2089D02*
X7845Y2384D01*
X7700Y16629D02*
X9263Y15066D01*
X6680Y16629D02*
X7700D01*
X9263Y12869D02*
Y15066D01*
X7774Y16808D02*
X9441Y15140D01*
X7848Y16987D02*
X9620Y15215D01*
X7922Y17165D02*
X9799Y15289D01*
X7581Y17759D02*
X9978Y15363D01*
X8040Y17576D02*
X10156Y15460D01*
X8550Y17319D02*
X10335Y15534D01*
X8550Y17319D02*
Y17759D01*
X9050Y17109D02*
X10514Y15645D01*
X9050Y17109D02*
Y18259D01*
X6771Y16808D02*
X7774D01*
X9441Y12943D02*
Y15140D01*
X6893Y16987D02*
X7848D01*
X9620Y13017D02*
Y15215D01*
X7254Y17165D02*
X7922D01*
X9799Y13091D02*
Y15289D01*
X9978Y13165D02*
Y15363D01*
X10156Y13239D02*
Y15460D01*
X10335Y13313D02*
Y15534D01*
X10514Y13387D02*
Y15645D01*
X9550Y16899D02*
X10693Y15757D01*
X9550Y16899D02*
Y17759D01*
X10040Y16739D02*
X10871Y15908D01*
X10040Y16739D02*
Y18269D01*
X10693Y13461D02*
Y15757D01*
X10871Y13535D02*
Y15908D01*
X22970Y9759D02*
X23210Y9999D01*
X24639Y11038D02*
X24835Y11234D01*
Y11997D01*
X11635Y5934D02*
X11700Y5999D01*
X11180Y5934D02*
X11635D01*
X11592Y7198D02*
X12267D01*
X11536Y7395D02*
X12267D01*
X11771Y8970D02*
X12267D01*
X11556Y8755D02*
X11771Y8970D01*
X11628Y9167D02*
X12267D01*
X11507Y9046D02*
X11628Y9167D01*
X11207Y9046D02*
X11507D01*
X16145Y13832D02*
Y14324D01*
X16050Y14419D02*
X16145Y14324D01*
X16050Y14419D02*
Y14729D01*
X21270Y10249D02*
X21660D01*
X21172Y10151D02*
X21270Y10249D01*
X20613Y10151D02*
X21172D01*
X20613Y10545D02*
X23969D01*
X18895Y4092D02*
Y4685D01*
X18716Y4018D02*
Y4611D01*
X18537Y3944D02*
Y4537D01*
X18359Y3860D02*
Y4463D01*
X18122Y4700D02*
X18359Y4463D01*
X18319Y4755D02*
X18537Y4537D01*
X18516Y4811D02*
X18716Y4611D01*
X18713Y4867D02*
X18895Y4685D01*
X18713Y4867D02*
Y5477D01*
X18516Y4811D02*
Y5477D01*
X18319Y4755D02*
Y5477D01*
X18122Y4700D02*
Y5477D01*
X18070Y4239D02*
Y4499D01*
X17916Y4653D02*
X18070Y4499D01*
X17916Y4653D02*
Y5486D01*
X18910Y4949D02*
Y5477D01*
Y4949D02*
X19190Y4669D01*
X14660Y4629D02*
Y4849D01*
X14570Y4939D02*
X14660Y4849D01*
X14570Y4939D02*
Y5486D01*
X17230Y4629D02*
Y4869D01*
X17129Y4970D02*
X17230Y4869D01*
X17129Y4970D02*
Y5486D01*
X15660Y4639D02*
Y4829D01*
X15554Y4935D02*
X15660Y4829D01*
X15554Y4935D02*
Y5486D01*
X19190Y4409D02*
Y4669D01*
X21820Y5864D02*
Y6259D01*
X19885Y5124D02*
X23050Y1959D01*
X19688Y5011D02*
X22530Y2169D01*
X19491Y4888D02*
X22050Y2329D01*
X21550Y1609D02*
Y2562D01*
X19294Y4818D02*
X21550Y2562D01*
X20613Y5040D02*
X23550Y2104D01*
X21210Y4696D02*
X24047Y1859D01*
X21077Y7002D02*
X21820Y6259D01*
X21550Y6789D02*
X24455D01*
X21141Y7198D02*
X21550Y6789D01*
X21211Y6608D02*
X21389Y6430D01*
X23100Y3759D02*
Y4099D01*
Y3759D02*
X23483Y3376D01*
X19050Y1109D02*
Y3169D01*
X18359Y3860D02*
X19050Y3169D01*
X18537Y3944D02*
X20060Y2422D01*
X18716Y4018D02*
X20550Y2185D01*
X18895Y4092D02*
X21060Y1927D01*
X20060Y1099D02*
Y2422D01*
X20550Y1609D02*
Y2185D01*
X21060Y1099D02*
Y1927D01*
X21687Y11726D02*
X21840Y11879D01*
X19980Y14547D02*
Y15509D01*
X19801Y14621D02*
Y15583D01*
X19491Y14311D02*
X19801Y14621D01*
X22060Y16849D02*
Y18269D01*
X21550Y17029D02*
Y17759D01*
X19885Y13832D02*
X20393D01*
X20613Y14052D01*
X19688Y14255D02*
X19980Y14547D01*
X18758Y14647D02*
Y15973D01*
X18937Y14573D02*
Y15899D01*
X19116Y14499D02*
Y15825D01*
X18402Y17759D02*
X18464Y17697D01*
X18050Y17536D02*
Y18259D01*
X17550Y17288D02*
Y17759D01*
X18113Y13832D02*
Y16082D01*
X11050Y13609D02*
Y18259D01*
Y13609D02*
X11555Y13104D01*
X10871Y13535D02*
X11499Y12907D01*
X10693Y13461D02*
X11434Y12719D01*
X10514Y13387D02*
X11387Y12513D01*
X10335Y13313D02*
X11330Y12318D01*
X10156Y13239D02*
X10952Y12443D01*
X9978Y13165D02*
X10774Y12369D01*
X9799Y13091D02*
X10595Y12295D01*
X9620Y13017D02*
X10416Y12221D01*
X9441Y12943D02*
X10237Y12147D01*
X9263Y12869D02*
X10059Y12073D01*
X21318Y12513D02*
X21498Y12694D01*
X21374Y12317D02*
X21572Y12515D01*
X21430Y12120D02*
X21646Y12337D01*
X21485Y11923D02*
X21720Y12158D01*
X21262Y12710D02*
X21424Y12873D01*
X20613Y12317D02*
X21374D01*
X20613Y12120D02*
X21430D01*
X20613Y11923D02*
X21485D01*
X20613Y12513D02*
X21318D01*
X20613Y11726D02*
X21687D01*
X20613Y12710D02*
X21262D01*
X20613Y12907D02*
X21206D01*
X11555Y13104D02*
X12267D01*
X11499Y12907D02*
X12267D01*
X22831Y9160D02*
X23220Y9549D01*
X20620Y9160D02*
X22831D01*
X21390Y9759D02*
X22970D01*
X22010Y10059D02*
X22860D01*
X21905Y9954D02*
X22010Y10059D01*
X20613Y9954D02*
X21905D01*
X26168Y1336D02*
X27226D01*
X24845Y2659D02*
X26168Y1336D01*
X26515Y2384D02*
X27226D01*
X25523Y3376D02*
X26515Y2384D01*
X24845Y3376D02*
X25523D01*
X26497Y3432D02*
X27226D01*
X25837Y4092D02*
X26497Y3432D01*
X24845Y4092D02*
X25837D01*
X23520Y4809D02*
X24215D01*
X26385Y5484D02*
Y5789D01*
X26180Y5279D02*
X26385Y5484D01*
X23530Y5279D02*
X26180D01*
X23483Y3376D02*
X24075D01*
Y4092D02*
X24215Y4232D01*
X23500Y4092D02*
X24075D01*
Y3376D02*
X24215Y3516D01*
X24075Y2659D02*
X24215Y2799D01*
X21404Y7395D02*
X21540Y7259D01*
X20613Y7395D02*
X21404D01*
X23090Y7139D02*
X23140Y7189D01*
X21210Y4696D02*
Y6269D01*
X20613Y5040D02*
Y6214D01*
Y8183D02*
X22666D01*
X22780Y8069D01*
Y7749D02*
Y8069D01*
X20613Y7986D02*
X22274D01*
X22380Y7880D01*
Y7669D02*
Y7880D01*
X20613Y7002D02*
X21077D01*
X20613Y6608D02*
X21211D01*
X21068Y6411D02*
X21210Y6269D01*
X20613Y6411D02*
X21068D01*
X21660Y9449D02*
X21670D01*
X21333D02*
X21660D01*
X21316Y11135D02*
X21420Y11239D01*
X20613Y11135D02*
X21316D01*
X21420Y11239D02*
X21660D01*
X21192Y9561D02*
X21390Y9759D01*
X23530Y6289D02*
X24455D01*
X20613Y7198D02*
X21141D01*
X20613Y8380D02*
X22998D01*
X20613Y8577D02*
X23054D01*
X23530Y8100D01*
X22998Y8380D02*
X23150Y8227D01*
X23470Y7289D02*
X24455D01*
X23150Y7609D02*
X23470Y7289D01*
X23530Y7769D02*
Y8100D01*
X23150Y7609D02*
Y8227D01*
X20613Y8576D02*
X20613Y8577D01*
X19885Y5124D02*
Y5486D01*
X23050Y1109D02*
Y1959D01*
Y1109D02*
X23550Y609D01*
X22530Y2129D02*
Y2169D01*
Y2129D02*
X22550Y2109D01*
Y1609D02*
Y2109D01*
X22050Y1109D02*
Y2329D01*
Y1109D02*
X22550Y609D01*
X19491Y4888D02*
Y5486D01*
X19294Y4818D02*
Y5486D01*
X19688Y5011D02*
Y5486D01*
X15948D02*
X15949Y5485D01*
X16538Y1621D02*
Y5486D01*
X14371Y4458D02*
X14670Y4159D01*
X14371Y4458D02*
Y5484D01*
X14373Y5486D01*
X18901D02*
X18910Y5477D01*
X18113Y5486D02*
X18122Y5477D01*
X18310Y5486D02*
X18319Y5477D01*
X18507Y5486D02*
X18516Y5477D01*
X18704Y5486D02*
X18713Y5477D01*
X20613Y9167D02*
X20620Y9160D01*
X20613Y9364D02*
X21247D01*
X21333Y9449D01*
X20613Y9561D02*
X21192D01*
X18507Y14396D02*
X18758Y14647D01*
X18704Y14340D02*
X18937Y14573D01*
X18901Y14284D02*
X19116Y14499D01*
X11609Y17700D02*
Y17818D01*
X11624Y17833D01*
X11050Y18259D02*
X11550Y18759D01*
X21060Y17109D02*
Y18269D01*
X22550Y16939D02*
Y17759D01*
X23050Y17129D02*
Y18259D01*
X23550Y17339D02*
Y17759D01*
X12258Y6796D02*
X12267Y6805D01*
X19688Y13832D02*
Y14255D01*
X16538Y1621D02*
X16550Y1609D01*
X24047Y1112D02*
X24550Y609D01*
X23259Y15846D02*
X24235D01*
X23750Y16589D02*
X24235D01*
X17820Y14449D02*
Y14859D01*
Y14449D02*
X17916Y14353D01*
X16924Y13841D02*
X16932Y13832D01*
X19294Y13832D02*
Y14367D01*
X19491Y13832D02*
Y14311D01*
X19294Y14367D02*
X19490Y14563D01*
Y14859D01*
X18430Y14599D02*
Y14859D01*
X18310Y14479D02*
X18430Y14599D01*
X18310Y13832D02*
Y14479D01*
X18901Y13832D02*
Y14284D01*
X18704Y13832D02*
Y14340D01*
X18507Y13832D02*
Y14396D01*
X19294Y13832D02*
X19294Y13832D01*
X17916Y13832D02*
Y14353D01*
X16726Y13841D02*
X16735Y13832D01*
X18402Y17759D02*
X18550D01*
X20434D02*
X20550D01*
X17326Y13832D02*
X17335Y13841D01*
X14550Y17265D02*
Y17759D01*
X15050Y17512D02*
Y18259D01*
X13050Y17229D02*
Y18259D01*
X11213Y11726D02*
X12267D01*
X12266Y12318D02*
X12267Y12317D01*
X12258Y12719D02*
X12267Y12710D01*
X11430Y12029D02*
X11700D01*
X11791Y12120D01*
X11790Y11529D02*
X12267D01*
X11690Y11429D02*
X11790Y11529D01*
X11420Y11429D02*
X11690D01*
X7050Y17369D02*
X7254Y17165D01*
X7050Y17369D02*
Y18259D01*
X6550Y17329D02*
X6893Y16987D01*
X6550Y17329D02*
Y17759D01*
X11791Y12120D02*
X12267D01*
X10005Y9364D02*
X12267D01*
X9550Y18759D02*
X10040Y18269D01*
X8040Y17576D02*
Y18269D01*
X6050Y17529D02*
X6771Y16808D01*
X5550Y17759D02*
X6680Y16629D01*
X6050Y17529D02*
Y18259D01*
X7550Y17759D02*
X7581D01*
X24070Y17539D02*
Y18279D01*
X5550Y18759D02*
X6050Y18259D01*
X6550Y18759D02*
X7050Y18259D01*
X7550Y18759D02*
X8040Y18269D01*
X8550Y18759D02*
X9050Y18259D01*
X13050D02*
X13550Y18759D01*
X15050Y18259D02*
X15550Y18759D01*
X17050Y18259D02*
X17550Y18759D01*
X18050Y18259D02*
X18550Y18759D01*
X20060Y18269D02*
X20550Y18759D01*
X21060Y18269D02*
X21550Y18759D01*
X22060Y18269D02*
X22550Y18759D01*
X23050Y18259D02*
X23550Y18759D01*
X24070Y18279D02*
X24550Y18759D01*
X12040Y18249D02*
X12550Y18759D01*
X7550Y1609D02*
Y2089D01*
Y609D02*
X8060Y1119D01*
Y1969D01*
X8550Y609D02*
X9070Y1129D01*
X9550Y609D02*
X10070Y1129D01*
X11550Y609D02*
X12050Y1109D01*
X5550Y609D02*
X6060Y1119D01*
X6550Y609D02*
X7060Y1119D01*
X12550Y609D02*
X13060Y1119D01*
X13550Y609D02*
X14060Y1119D01*
X14550Y609D02*
X15050Y1109D01*
X15550Y609D02*
X16070Y1129D01*
X16550Y609D02*
X17060Y1119D01*
X17550Y609D02*
X18050Y1109D01*
X18550Y609D02*
X19050Y1109D01*
X20060Y1099D02*
X20550Y609D01*
X21060Y1099D02*
X21550Y609D01*
X24047Y1112D02*
Y1859D01*
X23550Y1609D02*
Y2104D01*
X11434Y12719D02*
X12258D01*
X11387Y12513D02*
X12267D01*
X11330Y12318D02*
X12266D01*
X11185Y11135D02*
X12267D01*
X11129Y10939D02*
X12267D01*
X11073Y10742D02*
X12267D01*
X11017Y10545D02*
X12267D01*
X10961Y10348D02*
X12267D01*
X10868Y10151D02*
X12267D01*
X10952Y11987D02*
Y12443D01*
Y11987D02*
X11213Y11726D01*
X10774Y11546D02*
X11185Y11135D01*
X10774Y11546D02*
Y12369D01*
X10595Y11472D02*
X11129Y10939D01*
X10595Y11472D02*
Y12295D01*
X10416Y11398D02*
X11073Y10742D01*
X10416Y11398D02*
Y12221D01*
X10237Y11324D02*
X11017Y10545D01*
X10237Y11324D02*
Y12147D01*
X10059Y11250D02*
X10961Y10348D01*
X10059Y11250D02*
Y12073D01*
X9880Y11139D02*
X10868Y10151D01*
X10652Y9757D02*
X12267D01*
X9670Y10992D02*
X10707Y9954D01*
X12267D01*
X10558Y9561D02*
X12267D01*
X9280Y10839D02*
X10558Y9561D01*
X8158Y12779D02*
X9090D01*
X9880Y11989D01*
Y11139D02*
Y11989D01*
X8158Y12275D02*
X9314D01*
X9670Y11919D01*
Y10992D02*
Y11919D01*
X9490Y10919D02*
X10652Y9757D01*
X8158Y11771D02*
X9308D01*
X9490Y11589D01*
Y10919D02*
Y11589D01*
X8158Y11267D02*
X9152D01*
X9280Y11139D01*
Y10839D02*
Y11139D01*
X14767Y5486D02*
Y6256D01*
X15751Y5486D02*
Y6260D01*
X17326Y5486D02*
Y6255D01*
X19097Y5486D02*
Y6257D01*
X19846Y6805D02*
X20613D01*
X19838Y9757D02*
X20613D01*
X19839Y10348D02*
X20613D01*
X19843Y11332D02*
X20613D01*
X19845Y13104D02*
X20613D01*
X19097Y13062D02*
Y13832D01*
X17720Y13060D02*
Y13832D01*
X15948Y13061D02*
Y13832D01*
X14767Y13062D02*
Y13832D01*
X27220Y5099D02*
X27709Y5588D01*
X26930Y8559D02*
X27180Y8309D01*
Y7569D02*
Y8309D01*
Y7569D02*
X27709Y7040D01*
Y5588D02*
Y7040D01*
X20613Y8773D02*
X23376D01*
X23670Y8479D01*
X24225D01*
X24845Y4809D02*
X26090D01*
X26419Y4480D01*
X27226D01*
X9550Y1609D02*
Y2059D01*
X10969Y3478D01*
X10070Y1129D02*
Y2289D01*
X11080Y3299D01*
X8150Y7639D02*
X8840D01*
D11*
X16440Y9659D02*
D03*
D12*
X20613Y6214D02*
D03*
Y6411D02*
D03*
Y6608D02*
D03*
Y6805D02*
D03*
Y7002D02*
D03*
Y7198D02*
D03*
Y7395D02*
D03*
Y7592D02*
D03*
Y7789D02*
D03*
Y7986D02*
D03*
Y8183D02*
D03*
Y8380D02*
D03*
Y8576D02*
D03*
Y8773D02*
D03*
Y8970D02*
D03*
Y9167D02*
D03*
Y9364D02*
D03*
Y9561D02*
D03*
Y9757D02*
D03*
Y9954D02*
D03*
Y10151D02*
D03*
Y10348D02*
D03*
Y10545D02*
D03*
Y10742D02*
D03*
Y10939D02*
D03*
Y11135D02*
D03*
Y11332D02*
D03*
Y11529D02*
D03*
Y11726D02*
D03*
Y11923D02*
D03*
Y12120D02*
D03*
Y12317D02*
D03*
Y12513D02*
D03*
Y12710D02*
D03*
Y12907D02*
D03*
Y13104D02*
D03*
X12267D02*
D03*
Y12907D02*
D03*
Y12710D02*
D03*
Y12513D02*
D03*
Y12317D02*
D03*
Y12120D02*
D03*
Y11923D02*
D03*
Y11726D02*
D03*
Y11529D02*
D03*
Y11332D02*
D03*
Y11135D02*
D03*
Y10939D02*
D03*
Y10742D02*
D03*
Y10545D02*
D03*
Y10348D02*
D03*
Y10151D02*
D03*
Y9954D02*
D03*
Y9757D02*
D03*
Y9561D02*
D03*
Y9364D02*
D03*
Y9167D02*
D03*
Y8970D02*
D03*
Y8773D02*
D03*
Y8576D02*
D03*
Y8380D02*
D03*
Y8183D02*
D03*
Y7986D02*
D03*
Y7789D02*
D03*
Y7592D02*
D03*
Y7395D02*
D03*
Y7198D02*
D03*
Y7002D02*
D03*
Y6805D02*
D03*
Y6608D02*
D03*
Y6411D02*
D03*
Y6214D02*
D03*
D13*
X19885Y13832D02*
D03*
X19688D02*
D03*
X19491D02*
D03*
X19294D02*
D03*
X19097D02*
D03*
X18901D02*
D03*
X18704D02*
D03*
X18507D02*
D03*
X18310D02*
D03*
X18113D02*
D03*
X17916D02*
D03*
X17720D02*
D03*
X17523D02*
D03*
X17326D02*
D03*
X17129D02*
D03*
X16932D02*
D03*
X16735D02*
D03*
X16538D02*
D03*
X16342D02*
D03*
X16145D02*
D03*
X15948D02*
D03*
X15751D02*
D03*
X15554D02*
D03*
X15357D02*
D03*
X15160D02*
D03*
X14964D02*
D03*
X14767D02*
D03*
X14570D02*
D03*
X14373D02*
D03*
X14176D02*
D03*
X13979D02*
D03*
X13783D02*
D03*
X13586D02*
D03*
X13389D02*
D03*
X13192D02*
D03*
X12995D02*
D03*
Y5486D02*
D03*
X13192D02*
D03*
X13389D02*
D03*
X13586D02*
D03*
X13783D02*
D03*
X13979D02*
D03*
X14176D02*
D03*
X14373D02*
D03*
X14570D02*
D03*
X14767D02*
D03*
X14964D02*
D03*
X15160D02*
D03*
X15357D02*
D03*
X15554D02*
D03*
X15751D02*
D03*
X15948D02*
D03*
X16145D02*
D03*
X16342D02*
D03*
X16538D02*
D03*
X16735D02*
D03*
X16932D02*
D03*
X17129D02*
D03*
X17326D02*
D03*
X17523D02*
D03*
X17720D02*
D03*
X17916D02*
D03*
X18113D02*
D03*
X18310D02*
D03*
X18507D02*
D03*
X18704D02*
D03*
X18901D02*
D03*
X19097D02*
D03*
X19294D02*
D03*
X19491D02*
D03*
X19688D02*
D03*
X19885D02*
D03*
D14*
X27630Y9344D02*
D03*
Y9974D02*
D03*
D15*
X24455Y7289D02*
D03*
Y6789D02*
D03*
Y6289D02*
D03*
Y5789D02*
D03*
X26385Y7289D02*
D03*
Y6789D02*
D03*
Y6289D02*
D03*
Y5789D02*
D03*
D16*
X24225Y8479D02*
D03*
X24855D02*
D03*
X24235Y14359D02*
D03*
X24865D02*
D03*
X24235Y15102D02*
D03*
X24865D02*
D03*
Y15846D02*
D03*
X24235D02*
D03*
X24865Y16589D02*
D03*
X24235D02*
D03*
X10005Y9359D02*
D03*
X9375D02*
D03*
X1645Y15659D02*
D03*
X1015D02*
D03*
X24845Y2659D02*
D03*
X24215D02*
D03*
X24845Y3376D02*
D03*
X24215D02*
D03*
Y4092D02*
D03*
X24845D02*
D03*
X24215Y4809D02*
D03*
X24845D02*
D03*
D17*
X21820Y5084D02*
D03*
Y5674D02*
D03*
X11180Y5934D02*
D03*
Y5344D02*
D03*
X21650Y13294D02*
D03*
Y13884D02*
D03*
X25660Y12203D02*
D03*
Y12794D02*
D03*
X25660Y10318D02*
D03*
Y9727D02*
D03*
X7880Y15214D02*
D03*
Y14624D02*
D03*
X7850Y4104D02*
D03*
Y4694D02*
D03*
D18*
X21226Y14869D02*
D03*
X20635D02*
D03*
X11675Y4539D02*
D03*
X12265D02*
D03*
X4563Y11316D02*
D03*
X3972D02*
D03*
X4565Y12009D02*
D03*
X3975D02*
D03*
X4595Y5519D02*
D03*
X4005D02*
D03*
X4595Y6209D02*
D03*
X4005D02*
D03*
D19*
X28184Y1329D02*
D03*
X27436D02*
D03*
X2504Y17169D02*
D03*
X1756D02*
D03*
X28184Y18009D02*
D03*
X27436D02*
D03*
X28184Y16956D02*
D03*
X27436D02*
D03*
X28184Y3442D02*
D03*
X27436D02*
D03*
X28184Y4499D02*
D03*
X27436D02*
D03*
X28184Y14849D02*
D03*
X27436D02*
D03*
X28184Y15902D02*
D03*
X27436D02*
D03*
X28184Y2386D02*
D03*
X27436D02*
D03*
D20*
X2100Y7927D02*
D03*
Y13714D02*
D03*
D21*
X3006Y5604D02*
D03*
X2100D02*
D03*
X1194D02*
D03*
X3006Y11391D02*
D03*
X2100D02*
D03*
X1194D02*
D03*
D22*
X6965Y4029D02*
D03*
X6335D02*
D03*
X6965Y15282D02*
D03*
X6335D02*
D03*
D23*
X23957Y9532D02*
D03*
X24835Y9521D02*
D03*
X23969Y10545D02*
D03*
X24835D02*
D03*
X23969Y11997D02*
D03*
X24835D02*
D03*
X23969Y13021D02*
D03*
X24846Y13010D02*
D03*
D24*
X5458Y12779D02*
D03*
Y12275D02*
D03*
Y11771D02*
D03*
Y11267D02*
D03*
X8458Y11267D02*
D03*
Y11771D02*
D03*
Y12275D02*
D03*
Y12779D02*
D03*
D25*
X21820Y5084D02*
X22375D01*
X26385Y6789D02*
X27420D01*
D26*
X21650Y13294D02*
X22165D01*
X15020Y15009D02*
Y15949D01*
X12260Y4452D02*
X12267Y4459D01*
X12260Y4019D02*
Y4452D01*
X12267Y4459D02*
X12317Y4409D01*
X7000Y15317D02*
Y15939D01*
X6965Y15282D02*
X7000Y15317D01*
X23969Y11338D02*
Y11997D01*
X27560Y10849D02*
X27870Y11159D01*
X28174Y16930D02*
Y17977D01*
Y15884D02*
Y16930D01*
Y14838D02*
Y15884D01*
X27974Y3432D02*
Y4480D01*
Y2384D02*
Y3432D01*
Y1336D02*
Y2384D01*
X6965Y15282D02*
X7119Y15129D01*
X6965Y4029D02*
X7845D01*
X6965Y15282D02*
X7878D01*
X14630Y3129D02*
Y4159D01*
X28174Y17977D02*
Y18723D01*
X27974Y543D02*
Y1336D01*
D27*
X20635Y14869D02*
Y15364D01*
X8840Y10239D02*
X8845Y10234D01*
X25180Y5789D02*
X25350Y5959D01*
X25355Y6614D02*
X25680Y6289D01*
X26385D01*
X24455Y5789D02*
X25180D01*
X25660Y9521D02*
Y9727D01*
X18070Y3519D02*
X18570Y3019D01*
X18070Y3519D02*
Y4239D01*
X18430Y14859D02*
Y15949D01*
X25350Y5959D02*
Y7289D01*
X26385D01*
D28*
X24846Y13010D02*
X26129D01*
D29*
X530Y7609D02*
X1194Y6945D01*
Y5604D02*
Y6945D01*
X5458Y12275D02*
Y12779D01*
Y11771D02*
Y12275D01*
Y11267D02*
Y11771D01*
X5095Y4033D02*
X6331D01*
X5095Y15282D02*
X6335D01*
X4005Y5519D02*
Y6209D01*
X4005Y6209D01*
X4595Y5519D02*
Y6209D01*
X4595Y6209D01*
D30*
X7872Y11771D02*
X8458D01*
X7780Y11679D02*
X7872Y11771D01*
X7864Y12275D02*
X8458D01*
X7780Y12359D02*
X7864Y12275D01*
X7780Y13049D02*
X8050Y12779D01*
X7780Y11009D02*
X8038Y11267D01*
X8458D01*
X8050Y12779D02*
X8458D01*
D31*
X12267Y11923D02*
X13036D01*
X12267Y11332D02*
X13037D01*
X12267Y8773D02*
X13036D01*
X12267Y6214D02*
X13045D01*
D32*
X16467Y9656D02*
D03*
D33*
X12338Y15551D02*
D03*
D34*
X11939Y14729D02*
D03*
D35*
X11856Y16353D02*
D03*
D36*
X11535Y16117D02*
D03*
D37*
X26135Y7649D02*
D03*
D38*
X25650Y8921D02*
D03*
D39*
X26485Y11509D02*
D03*
D40*
X8685Y5409D02*
D03*
D41*
X4385Y17566D02*
D03*
D42*
X7715Y13504D02*
D03*
D43*
X8315Y14134D02*
D03*
D44*
X7245Y11199D02*
D03*
D45*
X7085Y14154D02*
D03*
D46*
X6500Y11384D02*
D03*
D47*
X6340Y9694D02*
D03*
D48*
X7805Y7504D02*
D03*
D49*
X6265Y6559D02*
D03*
D50*
X4965Y7809D02*
D03*
D51*
X5615Y3794D02*
D03*
D52*
X5475Y14354D02*
D03*
D53*
X7080Y15099D02*
D03*
D54*
X7450Y15359D02*
D03*
D55*
X5665Y15249D02*
D03*
D56*
X3685Y8924D02*
D03*
D57*
X3640Y3794D02*
D03*
D58*
X3500Y5199D02*
D03*
D59*
X3915Y1633D02*
D03*
D60*
X2230Y5354D02*
D03*
D61*
X2235Y10264D02*
D03*
D62*
X5145Y12374D02*
D03*
D63*
X4135Y15249D02*
D03*
D64*
X3965Y13179D02*
D03*
D65*
X3465Y11509D02*
D03*
D66*
X2165Y14174D02*
D03*
D67*
X2935Y15129D02*
D03*
D68*
X894Y10804D02*
D03*
D69*
X2589Y18486D02*
D03*
D70*
X1745Y16484D02*
D03*
D71*
X2594Y1133D02*
D03*
D72*
X694Y9685D02*
D03*
D73*
X864Y3653D02*
D03*
D74*
X25660Y11679D02*
D03*
D75*
X26315Y13344D02*
D03*
D76*
X25210Y13144D02*
D03*
D77*
X11385Y4689D02*
D03*
D78*
X21665Y14414D02*
D03*
D79*
X25259Y9496D02*
D03*
D80*
X25245Y10486D02*
D03*
D81*
X4970Y9209D02*
D03*
D82*
X26640Y10579D02*
D03*
D83*
X27550Y12664D02*
D03*
D84*
X27725Y11344D02*
D03*
D85*
X28180Y11149D02*
D03*
D86*
X27735Y8629D02*
D03*
D87*
X28195Y8154D02*
D03*
D88*
X16905Y9222D02*
D03*
X16437D02*
D03*
X15969D02*
D03*
Y9665D02*
D03*
X16437D02*
D03*
X16905D02*
D03*
Y10108D02*
D03*
X16437D02*
D03*
X15969D02*
D03*
X8870Y8419D02*
D03*
X8840Y6849D02*
D03*
X6710Y9119D02*
D03*
X6335D02*
D03*
X5960D02*
D03*
X22420Y11239D02*
D03*
X22850D02*
D03*
X27120Y12729D02*
D03*
X21820Y6299D02*
D03*
X22375Y5084D02*
D03*
X22170Y13289D02*
D03*
X25600Y14399D02*
D03*
X22110Y14859D02*
D03*
X27420Y6789D02*
D03*
X26930Y8559D02*
D03*
X26560Y5099D02*
D03*
X20630Y15369D02*
D03*
X11110Y4489D02*
D03*
X8460Y4019D02*
D03*
X15020Y15949D02*
D03*
X14600Y15489D02*
D03*
X12530Y15949D02*
D03*
X15020Y15009D02*
D03*
X11370Y15928D02*
D03*
Y15279D02*
D03*
X6440Y14359D02*
D03*
X4930Y16809D02*
D03*
Y16489D02*
D03*
X5290Y16809D02*
D03*
X11180Y7309D02*
D03*
X12260Y4019D02*
D03*
X8840Y4879D02*
D03*
Y5239D02*
D03*
Y10239D02*
D03*
X4600Y14359D02*
D03*
X7000Y15928D02*
D03*
X23310Y10129D02*
D03*
Y9649D02*
D03*
Y9069D02*
D03*
X25660Y11329D02*
D03*
X25920Y13919D02*
D03*
X26320D02*
D03*
X26710D02*
D03*
X23960Y11329D02*
D03*
X19190Y4409D02*
D03*
X18570Y3019D02*
D03*
X19490Y14859D02*
D03*
X18430Y15949D02*
D03*
X12530Y16359D02*
D03*
X14630Y4159D02*
D03*
X21840Y11869D02*
D03*
X5124Y14359D02*
D03*
X16050Y14729D02*
D03*
X17820Y14859D02*
D03*
X18430D02*
D03*
X11180Y5929D02*
D03*
X5290Y16489D02*
D03*
X23520Y4809D02*
D03*
X23530Y5279D02*
D03*
X21600Y7189D02*
D03*
X23140D02*
D03*
X22700Y4099D02*
D03*
X23500D02*
D03*
X23100D02*
D03*
X22380Y7669D02*
D03*
X21980D02*
D03*
X21660Y10249D02*
D03*
Y11239D02*
D03*
X22780Y7669D02*
D03*
X23530Y6289D02*
D03*
Y7769D02*
D03*
X17230Y4629D02*
D03*
X15660D02*
D03*
X14670D02*
D03*
X11207Y9046D02*
D03*
X21660Y9449D02*
D03*
X22860Y10059D02*
D03*
X11430Y12029D02*
D03*
X11420Y11429D02*
D03*
X18070Y4099D02*
D03*
X14630Y3129D02*
D03*
X5340Y2759D02*
D03*
Y2439D02*
D03*
X4980D02*
D03*
Y2759D02*
D03*
X8510Y5239D02*
D03*
Y4879D02*
D03*
X28174Y18723D02*
D03*
X27974Y543D02*
D03*
X14767Y6256D02*
D03*
X15751Y6260D02*
D03*
X17326Y6255D02*
D03*
X19097Y6257D02*
D03*
X19846Y6805D02*
D03*
X19838Y9757D02*
D03*
X19839Y10348D02*
D03*
X19843Y11332D02*
D03*
X19845Y13104D02*
D03*
X19097Y13062D02*
D03*
X17720Y13060D02*
D03*
X15948Y13061D02*
D03*
X14767Y13062D02*
D03*
X13036Y11923D02*
D03*
X13037Y11332D02*
D03*
X13036Y8773D02*
D03*
X13045Y6214D02*
D03*
X8150Y7639D02*
D03*
D89*
X24547Y1623D02*
D03*
X2160Y2749D02*
D03*
X5095Y4033D02*
D03*
X5095Y15282D02*
D03*
X5551Y17745D02*
D03*
D90*
X24547Y623D02*
D03*
X23547Y1623D02*
D03*
Y623D02*
D03*
X22547Y1623D02*
D03*
Y623D02*
D03*
X21547Y1623D02*
D03*
Y623D02*
D03*
X20547Y1623D02*
D03*
Y623D02*
D03*
X19547Y1623D02*
D03*
Y623D02*
D03*
X18547Y1623D02*
D03*
Y623D02*
D03*
X17547Y1623D02*
D03*
Y623D02*
D03*
X16547Y1623D02*
D03*
Y623D02*
D03*
X15547Y1623D02*
D03*
Y623D02*
D03*
X14547Y1623D02*
D03*
Y623D02*
D03*
X13547Y1623D02*
D03*
Y623D02*
D03*
X12547Y1623D02*
D03*
Y623D02*
D03*
X11547Y1623D02*
D03*
Y623D02*
D03*
X10547Y1623D02*
D03*
Y623D02*
D03*
X9547Y1623D02*
D03*
Y623D02*
D03*
X8547Y1623D02*
D03*
Y623D02*
D03*
X7547Y1623D02*
D03*
Y623D02*
D03*
X6547Y1623D02*
D03*
Y623D02*
D03*
X5547Y1623D02*
D03*
Y623D02*
D03*
X1160Y2749D02*
D03*
X4095Y4033D02*
D03*
X28580Y8159D02*
D03*
Y9159D02*
D03*
Y10159D02*
D03*
Y11159D02*
D03*
Y12159D02*
D03*
X4095Y15282D02*
D03*
X5551Y18745D02*
D03*
X6551Y17745D02*
D03*
Y18745D02*
D03*
X7551Y17745D02*
D03*
Y18745D02*
D03*
X8551Y17745D02*
D03*
Y18745D02*
D03*
X9551Y17745D02*
D03*
Y18745D02*
D03*
X10551Y17745D02*
D03*
Y18745D02*
D03*
X11551Y17745D02*
D03*
Y18745D02*
D03*
X12551Y17745D02*
D03*
Y18745D02*
D03*
X13551Y17745D02*
D03*
Y18745D02*
D03*
X14551Y17745D02*
D03*
Y18745D02*
D03*
X15551Y17745D02*
D03*
Y18745D02*
D03*
X16551Y17745D02*
D03*
Y18745D02*
D03*
X17551Y17745D02*
D03*
Y18745D02*
D03*
X18551Y17745D02*
D03*
Y18745D02*
D03*
X19551Y17745D02*
D03*
Y18745D02*
D03*
X20551Y17745D02*
D03*
Y18745D02*
D03*
X21551Y17745D02*
D03*
Y18745D02*
D03*
X22551Y17745D02*
D03*
Y18745D02*
D03*
X23551Y17745D02*
D03*
Y18745D02*
D03*
X24551Y17745D02*
D03*
Y18745D02*
D03*
D91*
X28580Y7159D02*
D03*
D92*
X7780Y13049D02*
D03*
Y12359D02*
D03*
Y11679D02*
D03*
Y11009D02*
D03*
M02*
