%FSLAX24Y24*%
%MOIN*%
G70*
G01*
G75*
G04 Layer_Physical_Order=2*
G04 Layer_Color=16711680*
%ADD10C,0.0100*%
%ADD11R,0.1693X0.1693*%
%ADD12O,0.0827X0.0118*%
%ADD13O,0.0118X0.0827*%
%ADD14R,0.0512X0.0394*%
%ADD15O,0.0984X0.0276*%
%ADD16R,0.0394X0.0512*%
%ADD17R,0.0551X0.0433*%
%ADD18R,0.0433X0.0551*%
%ADD19R,0.0512X0.0591*%
%ADD20R,0.1299X0.1063*%
%ADD21R,0.0394X0.1063*%
%ADD22R,0.0472X0.0551*%
%ADD23R,0.0551X0.0630*%
%ADD24R,0.0500X0.0300*%
%ADD25C,0.0200*%
%ADD26C,0.0300*%
%ADD27C,0.0250*%
%ADD28C,0.0600*%
%ADD29C,0.0400*%
%ADD30C,0.0150*%
%ADD31C,0.0079*%
%ADD32R,0.7165X0.7146*%
%ADD33R,0.0719X0.1122*%
%ADD34R,0.1516X0.1821*%
%ADD35R,0.1349X0.0305*%
%ADD36R,0.0709X0.0778*%
%ADD37R,0.1830X0.1120*%
%ADD38R,0.2080X0.2124*%
%ADD39R,0.0790X0.5280*%
%ADD40R,0.0810X0.1960*%
%ADD41R,0.1310X0.3313*%
%ADD42R,0.1010X0.0210*%
%ADD43R,0.1490X0.1470*%
%ADD44R,0.0370X0.4820*%
%ADD45R,0.0770X0.0910*%
%ADD46R,0.0920X0.5210*%
%ADD47R,0.1260X0.1830*%
%ADD48R,0.1490X0.6150*%
%ADD49R,0.3870X0.4260*%
%ADD50R,0.1270X0.5300*%
%ADD51R,0.1950X0.1110*%
%ADD52R,0.2270X0.0510*%
%ADD53R,0.0780X0.2500*%
%ADD54R,0.1520X0.0820*%
%ADD55R,0.1890X0.1040*%
%ADD56R,0.3710X0.3070*%
%ADD57R,0.1740X0.1110*%
%ADD58R,0.1460X0.3920*%
%ADD59R,0.2270X0.2971*%
%ADD60R,0.0820X0.6210*%
%ADD61R,0.0810X0.5750*%
%ADD62R,0.1610X0.3230*%
%ADD63R,0.0810X0.1040*%
%ADD64R,0.0470X0.5180*%
%ADD65R,0.1430X0.1840*%
%ADD66R,0.1550X0.2090*%
%ADD67R,0.1370X0.4960*%
%ADD68R,0.1512X0.4310*%
%ADD69R,0.4902X0.1473*%
%ADD70R,0.0710X0.2250*%
%ADD71R,0.4912X0.1971*%
%ADD72R,0.1112X1.9075*%
%ADD73R,0.1452X0.7011*%
%ADD74R,0.0640X0.1540*%
%ADD75R,0.1130X0.1610*%
%ADD76R,0.3340X0.1210*%
%ADD77R,0.1110X0.1820*%
%ADD78R,0.1390X0.1590*%
%ADD79R,0.3241X0.0974*%
%ADD80R,0.1470X0.0847*%
%ADD81R,0.1260X0.9560*%
%ADD82R,0.1100X0.3420*%
%ADD83R,0.1180X0.0590*%
%ADD84R,0.0830X0.3230*%
%ADD85R,0.1820X0.0900*%
%ADD86R,0.0850X0.1900*%
%ADD87R,0.1770X0.0950*%
%ADD88C,0.0320*%
%ADD89R,0.0591X0.0591*%
%ADD90C,0.0591*%
%ADD91R,0.0591X0.0591*%
%ADD92C,0.0500*%
%ADD93R,0.0413X0.0551*%
%ADD94R,0.0669X0.0433*%
%ADD95R,0.0433X0.0669*%
%ADD96R,0.5810X0.0400*%
%ADD97R,0.1370X0.1190*%
%ADD98R,0.0260X0.2940*%
%ADD99R,0.0610X0.3620*%
%ADD100R,0.1330X0.0650*%
%ADD101R,0.0400X0.4480*%
%ADD102R,0.2410X0.0450*%
%ADD103R,0.0890X0.3400*%
%ADD104R,0.6880X0.0610*%
%ADD105R,0.1880X0.3480*%
%ADD106R,0.7920X0.0350*%
%ADD107R,0.0310X0.3890*%
%ADD108R,0.0890X0.0960*%
%ADD109R,0.2450X0.2860*%
%ADD110R,0.0960X0.0910*%
%ADD111R,0.2300X0.1250*%
%ADD112R,0.1320X0.0920*%
%ADD113R,0.1430X0.0570*%
%ADD114R,0.0600X0.2880*%
%ADD115R,0.1560X0.1200*%
%ADD116R,0.0510X0.2190*%
%ADD117R,0.0810X0.0450*%
%ADD118R,0.8040X0.0410*%
%ADD119R,0.1080X0.2300*%
%ADD120R,0.0530X0.1260*%
%ADD121R,0.0690X0.1090*%
%ADD122R,0.3970X0.0570*%
%ADD123R,0.0670X0.1760*%
%ADD124R,0.2440X0.1760*%
%ADD125R,0.3080X0.1760*%
%ADD126R,0.3360X0.3810*%
%ADD127R,0.3950X0.2010*%
%ADD128R,0.5290X0.1430*%
%ADD129R,0.1080X0.1370*%
%ADD130R,0.4870X0.0400*%
%ADD131R,0.3310X0.0720*%
%ADD132R,0.0640X0.3170*%
%ADD133R,1.4780X0.0490*%
%ADD134R,0.8680X0.0890*%
%ADD135R,0.2310X0.1210*%
%ADD136R,0.0660X0.7140*%
%ADD137R,0.3910X0.1760*%
%ADD138R,0.1190X0.4160*%
%ADD139R,0.6620X0.0690*%
%ADD140R,0.1720X0.3830*%
%ADD141R,0.0560X0.2760*%
%ADD142R,0.6730X0.0390*%
%ADD143R,0.2390X0.0640*%
%ADD144R,0.4150X0.0630*%
%ADD145R,0.5920X0.0470*%
%ADD146R,0.3050X0.2190*%
%ADD147R,0.0600X0.1180*%
%ADD148R,0.0840X0.2610*%
%ADD149R,0.4730X0.1350*%
%ADD150R,0.1830X1.0120*%
%ADD151R,0.2560X0.0720*%
%ADD152R,0.2990X0.2490*%
%ADD153R,0.1090X0.5830*%
%ADD154R,0.8340X0.8340*%
%ADD155R,0.3240X0.0960*%
%ADD156R,0.2210X0.1000*%
%ADD157R,0.1070X0.0400*%
%ADD158R,0.0610X0.1460*%
%ADD159R,0.0460X0.1390*%
%ADD160R,0.3240X0.0430*%
%ADD161R,0.0570X0.1510*%
%ADD162R,0.1660X0.0570*%
%ADD163R,0.2810X0.2110*%
%ADD164R,0.0630X0.1380*%
%ADD165R,0.1810X0.0340*%
%ADD166R,0.7090X0.0860*%
%ADD167R,0.1020X0.1410*%
%ADD168R,0.3440X0.0470*%
%ADD169R,0.0670X0.1580*%
%ADD170R,0.0560X0.6510*%
%ADD171R,2.0860X0.0750*%
%ADD172R,0.1230X0.1040*%
%ADD173R,0.1030X0.1670*%
%ADD174R,0.1220X0.0770*%
%ADD175R,0.0490X0.1560*%
%ADD176R,0.1062X0.1940*%
%ADD177R,0.0940X0.1560*%
G36*
X29399Y148D02*
X138D01*
Y19222D01*
X29399D01*
Y148D01*
D02*
G37*
%LPC*%
G36*
X23547Y1000D02*
X23450Y987D01*
X23359Y949D01*
X23280Y890D01*
X23221Y811D01*
X23183Y720D01*
X23170Y623D01*
X23183Y525D01*
X23221Y434D01*
X23280Y356D01*
X23359Y296D01*
X23450Y258D01*
X23547Y246D01*
X23645Y258D01*
X23736Y296D01*
X23814Y356D01*
X23874Y434D01*
X23912Y525D01*
X23924Y623D01*
X23912Y720D01*
X23874Y811D01*
X23814Y890D01*
X23736Y949D01*
X23645Y987D01*
X23547Y1000D01*
D02*
G37*
G36*
X24547D02*
X24450Y987D01*
X24359Y949D01*
X24280Y890D01*
X24221Y811D01*
X24183Y720D01*
X24170Y623D01*
X24183Y525D01*
X24221Y434D01*
X24280Y356D01*
X24359Y296D01*
X24450Y258D01*
X24547Y246D01*
X24645Y258D01*
X24736Y296D01*
X24814Y356D01*
X24874Y434D01*
X24912Y525D01*
X24924Y623D01*
X24912Y720D01*
X24874Y811D01*
X24814Y890D01*
X24736Y949D01*
X24645Y987D01*
X24547Y1000D01*
D02*
G37*
G36*
X1160Y3126D02*
X1062Y3113D01*
X971Y3076D01*
X893Y3016D01*
X833Y2938D01*
X796Y2847D01*
X783Y2749D01*
X796Y2651D01*
X833Y2560D01*
X893Y2482D01*
X971Y2422D01*
X1062Y2385D01*
X1160Y2372D01*
X1258Y2385D01*
X1349Y2422D01*
X1427Y2482D01*
X1487Y2560D01*
X1524Y2651D01*
X1537Y2749D01*
X1524Y2847D01*
X1487Y2938D01*
X1427Y3016D01*
X1349Y3076D01*
X1258Y3113D01*
X1160Y3126D01*
D02*
G37*
G36*
X20547Y1000D02*
X20450Y987D01*
X20359Y949D01*
X20280Y890D01*
X20221Y811D01*
X20183Y720D01*
X20170Y623D01*
X20183Y525D01*
X20221Y434D01*
X20280Y356D01*
X20359Y296D01*
X20450Y258D01*
X20547Y246D01*
X20645Y258D01*
X20736Y296D01*
X20814Y356D01*
X20874Y434D01*
X20912Y525D01*
X20924Y623D01*
X20912Y720D01*
X20874Y811D01*
X20814Y890D01*
X20736Y949D01*
X20645Y987D01*
X20547Y1000D01*
D02*
G37*
G36*
X21547D02*
X21450Y987D01*
X21359Y949D01*
X21280Y890D01*
X21221Y811D01*
X21183Y720D01*
X21170Y623D01*
X21183Y525D01*
X21221Y434D01*
X21280Y356D01*
X21359Y296D01*
X21450Y258D01*
X21547Y246D01*
X21645Y258D01*
X21736Y296D01*
X21814Y356D01*
X21874Y434D01*
X21912Y525D01*
X21924Y623D01*
X21912Y720D01*
X21874Y811D01*
X21814Y890D01*
X21736Y949D01*
X21645Y987D01*
X21547Y1000D01*
D02*
G37*
G36*
X22547D02*
X22450Y987D01*
X22359Y949D01*
X22280Y890D01*
X22221Y811D01*
X22183Y720D01*
X22170Y623D01*
X22183Y525D01*
X22221Y434D01*
X22280Y356D01*
X22359Y296D01*
X22450Y258D01*
X22547Y246D01*
X22645Y258D01*
X22736Y296D01*
X22814Y356D01*
X22874Y434D01*
X22912Y525D01*
X22924Y623D01*
X22912Y720D01*
X22874Y811D01*
X22814Y890D01*
X22736Y949D01*
X22645Y987D01*
X22547Y1000D01*
D02*
G37*
G36*
X4095Y15660D02*
X3998Y15647D01*
X3907Y15609D01*
X3829Y15549D01*
X3769Y15471D01*
X3731Y15380D01*
X3718Y15282D01*
X3731Y15185D01*
X3769Y15094D01*
X3829Y15016D01*
X3907Y14956D01*
X3998Y14918D01*
X4095Y14905D01*
X4193Y14918D01*
X4284Y14956D01*
X4362Y15016D01*
X4422Y15094D01*
X4460Y15185D01*
X4473Y15282D01*
X4460Y15380D01*
X4422Y15471D01*
X4362Y15549D01*
X4284Y15609D01*
X4193Y15647D01*
X4095Y15660D01*
D02*
G37*
G36*
X12551Y18122D02*
X12454Y18109D01*
X12363Y18072D01*
X12284Y18012D01*
X12224Y17933D01*
X12187Y17842D01*
X12174Y17745D01*
X12187Y17647D01*
X12224Y17556D01*
X12284Y17478D01*
X12363Y17418D01*
X12454Y17380D01*
X12551Y17368D01*
X12649Y17380D01*
X12740Y17418D01*
X12818Y17478D01*
X12878Y17556D01*
X12916Y17647D01*
X12928Y17745D01*
X12916Y17842D01*
X12878Y17933D01*
X12818Y18012D01*
X12740Y18072D01*
X12649Y18109D01*
X12551Y18122D01*
D02*
G37*
G36*
X13551D02*
X13454Y18109D01*
X13363Y18072D01*
X13284Y18012D01*
X13224Y17933D01*
X13187Y17842D01*
X13174Y17745D01*
X13187Y17647D01*
X13224Y17556D01*
X13284Y17478D01*
X13363Y17418D01*
X13454Y17380D01*
X13551Y17368D01*
X13649Y17380D01*
X13740Y17418D01*
X13818Y17478D01*
X13878Y17556D01*
X13916Y17647D01*
X13928Y17745D01*
X13916Y17842D01*
X13878Y17933D01*
X13818Y18012D01*
X13740Y18072D01*
X13649Y18109D01*
X13551Y18122D01*
D02*
G37*
G36*
X14551D02*
X14454Y18109D01*
X14363Y18072D01*
X14284Y18012D01*
X14224Y17933D01*
X14187Y17842D01*
X14174Y17745D01*
X14187Y17647D01*
X14224Y17556D01*
X14284Y17478D01*
X14363Y17418D01*
X14454Y17380D01*
X14551Y17368D01*
X14649Y17380D01*
X14740Y17418D01*
X14818Y17478D01*
X14878Y17556D01*
X14916Y17647D01*
X14928Y17745D01*
X14916Y17842D01*
X14878Y17933D01*
X14818Y18012D01*
X14740Y18072D01*
X14649Y18109D01*
X14551Y18122D01*
D02*
G37*
G36*
X6551D02*
X6454Y18109D01*
X6363Y18072D01*
X6284Y18012D01*
X6224Y17933D01*
X6187Y17842D01*
X6174Y17745D01*
X6187Y17647D01*
X6224Y17556D01*
X6284Y17478D01*
X6363Y17418D01*
X6454Y17380D01*
X6551Y17368D01*
X6649Y17380D01*
X6740Y17418D01*
X6818Y17478D01*
X6878Y17556D01*
X6916Y17647D01*
X6928Y17745D01*
X6916Y17842D01*
X6878Y17933D01*
X6818Y18012D01*
X6740Y18072D01*
X6649Y18109D01*
X6551Y18122D01*
D02*
G37*
G36*
X7551D02*
X7454Y18109D01*
X7363Y18072D01*
X7284Y18012D01*
X7224Y17933D01*
X7187Y17842D01*
X7174Y17745D01*
X7187Y17647D01*
X7224Y17556D01*
X7284Y17478D01*
X7363Y17418D01*
X7454Y17380D01*
X7551Y17368D01*
X7649Y17380D01*
X7740Y17418D01*
X7818Y17478D01*
X7878Y17556D01*
X7916Y17647D01*
X7928Y17745D01*
X7916Y17842D01*
X7878Y17933D01*
X7818Y18012D01*
X7740Y18072D01*
X7649Y18109D01*
X7551Y18122D01*
D02*
G37*
G36*
X8551D02*
X8454Y18109D01*
X8363Y18072D01*
X8284Y18012D01*
X8224Y17933D01*
X8187Y17842D01*
X8174Y17745D01*
X8187Y17647D01*
X8224Y17556D01*
X8284Y17478D01*
X8363Y17418D01*
X8454Y17380D01*
X8551Y17368D01*
X8649Y17380D01*
X8740Y17418D01*
X8818Y17478D01*
X8878Y17556D01*
X8916Y17647D01*
X8928Y17745D01*
X8916Y17842D01*
X8878Y17933D01*
X8818Y18012D01*
X8740Y18072D01*
X8649Y18109D01*
X8551Y18122D01*
D02*
G37*
G36*
X8547Y1000D02*
X8450Y987D01*
X8359Y949D01*
X8280Y890D01*
X8221Y811D01*
X8183Y720D01*
X8170Y623D01*
X8183Y525D01*
X8221Y434D01*
X8280Y356D01*
X8359Y296D01*
X8450Y258D01*
X8547Y246D01*
X8645Y258D01*
X8736Y296D01*
X8814Y356D01*
X8874Y434D01*
X8912Y525D01*
X8924Y623D01*
X8912Y720D01*
X8874Y811D01*
X8814Y890D01*
X8736Y949D01*
X8645Y987D01*
X8547Y1000D01*
D02*
G37*
G36*
X9547D02*
X9450Y987D01*
X9359Y949D01*
X9280Y890D01*
X9221Y811D01*
X9183Y720D01*
X9170Y623D01*
X9183Y525D01*
X9221Y434D01*
X9280Y356D01*
X9359Y296D01*
X9450Y258D01*
X9547Y246D01*
X9645Y258D01*
X9736Y296D01*
X9814Y356D01*
X9874Y434D01*
X9912Y525D01*
X9924Y623D01*
X9912Y720D01*
X9874Y811D01*
X9814Y890D01*
X9736Y949D01*
X9645Y987D01*
X9547Y1000D01*
D02*
G37*
G36*
X11547D02*
X11450Y987D01*
X11359Y949D01*
X11280Y890D01*
X11221Y811D01*
X11183Y720D01*
X11170Y623D01*
X11183Y525D01*
X11221Y434D01*
X11280Y356D01*
X11359Y296D01*
X11450Y258D01*
X11547Y246D01*
X11645Y258D01*
X11736Y296D01*
X11814Y356D01*
X11874Y434D01*
X11912Y525D01*
X11924Y623D01*
X11912Y720D01*
X11874Y811D01*
X11814Y890D01*
X11736Y949D01*
X11645Y987D01*
X11547Y1000D01*
D02*
G37*
G36*
X5547D02*
X5450Y987D01*
X5359Y949D01*
X5280Y890D01*
X5221Y811D01*
X5183Y720D01*
X5170Y623D01*
X5183Y525D01*
X5221Y434D01*
X5280Y356D01*
X5359Y296D01*
X5450Y258D01*
X5547Y246D01*
X5645Y258D01*
X5736Y296D01*
X5814Y356D01*
X5874Y434D01*
X5912Y525D01*
X5924Y623D01*
X5912Y720D01*
X5874Y811D01*
X5814Y890D01*
X5736Y949D01*
X5645Y987D01*
X5547Y1000D01*
D02*
G37*
G36*
X6547D02*
X6450Y987D01*
X6359Y949D01*
X6280Y890D01*
X6221Y811D01*
X6183Y720D01*
X6170Y623D01*
X6183Y525D01*
X6221Y434D01*
X6280Y356D01*
X6359Y296D01*
X6450Y258D01*
X6547Y246D01*
X6645Y258D01*
X6736Y296D01*
X6814Y356D01*
X6874Y434D01*
X6912Y525D01*
X6924Y623D01*
X6912Y720D01*
X6874Y811D01*
X6814Y890D01*
X6736Y949D01*
X6645Y987D01*
X6547Y1000D01*
D02*
G37*
G36*
X7547D02*
X7450Y987D01*
X7359Y949D01*
X7280Y890D01*
X7221Y811D01*
X7183Y720D01*
X7170Y623D01*
X7183Y525D01*
X7221Y434D01*
X7280Y356D01*
X7359Y296D01*
X7450Y258D01*
X7547Y246D01*
X7645Y258D01*
X7736Y296D01*
X7814Y356D01*
X7874Y434D01*
X7912Y525D01*
X7924Y623D01*
X7912Y720D01*
X7874Y811D01*
X7814Y890D01*
X7736Y949D01*
X7645Y987D01*
X7547Y1000D01*
D02*
G37*
G36*
X12547D02*
X12450Y987D01*
X12359Y949D01*
X12280Y890D01*
X12221Y811D01*
X12183Y720D01*
X12170Y623D01*
X12183Y525D01*
X12221Y434D01*
X12280Y356D01*
X12359Y296D01*
X12450Y258D01*
X12547Y246D01*
X12645Y258D01*
X12736Y296D01*
X12814Y356D01*
X12874Y434D01*
X12912Y525D01*
X12924Y623D01*
X12912Y720D01*
X12874Y811D01*
X12814Y890D01*
X12736Y949D01*
X12645Y987D01*
X12547Y1000D01*
D02*
G37*
G36*
X16547D02*
X16450Y987D01*
X16359Y949D01*
X16280Y890D01*
X16221Y811D01*
X16183Y720D01*
X16170Y623D01*
X16183Y525D01*
X16221Y434D01*
X16280Y356D01*
X16359Y296D01*
X16450Y258D01*
X16547Y246D01*
X16645Y258D01*
X16736Y296D01*
X16814Y356D01*
X16874Y434D01*
X16912Y525D01*
X16924Y623D01*
X16912Y720D01*
X16874Y811D01*
X16814Y890D01*
X16736Y949D01*
X16645Y987D01*
X16547Y1000D01*
D02*
G37*
G36*
X17547D02*
X17450Y987D01*
X17359Y949D01*
X17280Y890D01*
X17221Y811D01*
X17183Y720D01*
X17170Y623D01*
X17183Y525D01*
X17221Y434D01*
X17280Y356D01*
X17359Y296D01*
X17450Y258D01*
X17547Y246D01*
X17645Y258D01*
X17736Y296D01*
X17814Y356D01*
X17874Y434D01*
X17912Y525D01*
X17924Y623D01*
X17912Y720D01*
X17874Y811D01*
X17814Y890D01*
X17736Y949D01*
X17645Y987D01*
X17547Y1000D01*
D02*
G37*
G36*
X18547D02*
X18450Y987D01*
X18359Y949D01*
X18280Y890D01*
X18221Y811D01*
X18183Y720D01*
X18170Y623D01*
X18183Y525D01*
X18221Y434D01*
X18280Y356D01*
X18359Y296D01*
X18450Y258D01*
X18547Y246D01*
X18645Y258D01*
X18736Y296D01*
X18814Y356D01*
X18874Y434D01*
X18912Y525D01*
X18924Y623D01*
X18912Y720D01*
X18874Y811D01*
X18814Y890D01*
X18736Y949D01*
X18645Y987D01*
X18547Y1000D01*
D02*
G37*
G36*
X13547D02*
X13450Y987D01*
X13359Y949D01*
X13280Y890D01*
X13221Y811D01*
X13183Y720D01*
X13170Y623D01*
X13183Y525D01*
X13221Y434D01*
X13280Y356D01*
X13359Y296D01*
X13450Y258D01*
X13547Y246D01*
X13645Y258D01*
X13736Y296D01*
X13814Y356D01*
X13874Y434D01*
X13912Y525D01*
X13924Y623D01*
X13912Y720D01*
X13874Y811D01*
X13814Y890D01*
X13736Y949D01*
X13645Y987D01*
X13547Y1000D01*
D02*
G37*
G36*
X14547D02*
X14450Y987D01*
X14359Y949D01*
X14280Y890D01*
X14221Y811D01*
X14183Y720D01*
X14170Y623D01*
X14183Y525D01*
X14221Y434D01*
X14280Y356D01*
X14359Y296D01*
X14450Y258D01*
X14547Y246D01*
X14645Y258D01*
X14736Y296D01*
X14814Y356D01*
X14874Y434D01*
X14912Y525D01*
X14924Y623D01*
X14912Y720D01*
X14874Y811D01*
X14814Y890D01*
X14736Y949D01*
X14645Y987D01*
X14547Y1000D01*
D02*
G37*
G36*
X15547D02*
X15450Y987D01*
X15359Y949D01*
X15280Y890D01*
X15221Y811D01*
X15183Y720D01*
X15170Y623D01*
X15183Y525D01*
X15221Y434D01*
X15280Y356D01*
X15359Y296D01*
X15450Y258D01*
X15547Y246D01*
X15645Y258D01*
X15736Y296D01*
X15814Y356D01*
X15874Y434D01*
X15912Y525D01*
X15924Y623D01*
X15912Y720D01*
X15874Y811D01*
X15814Y890D01*
X15736Y949D01*
X15645Y987D01*
X15547Y1000D01*
D02*
G37*
G36*
X15551Y18122D02*
X15454Y18109D01*
X15363Y18072D01*
X15284Y18012D01*
X15224Y17933D01*
X15187Y17842D01*
X15174Y17745D01*
X15187Y17647D01*
X15224Y17556D01*
X15284Y17478D01*
X15363Y17418D01*
X15454Y17380D01*
X15551Y17368D01*
X15649Y17380D01*
X15740Y17418D01*
X15818Y17478D01*
X15878Y17556D01*
X15916Y17647D01*
X15928Y17745D01*
X15916Y17842D01*
X15878Y17933D01*
X15818Y18012D01*
X15740Y18072D01*
X15649Y18109D01*
X15551Y18122D01*
D02*
G37*
G36*
X13551Y19122D02*
X13454Y19109D01*
X13363Y19072D01*
X13284Y19012D01*
X13224Y18933D01*
X13187Y18842D01*
X13174Y18745D01*
X13187Y18647D01*
X13224Y18556D01*
X13284Y18478D01*
X13363Y18418D01*
X13454Y18380D01*
X13551Y18368D01*
X13649Y18380D01*
X13740Y18418D01*
X13818Y18478D01*
X13878Y18556D01*
X13916Y18647D01*
X13928Y18745D01*
X13916Y18842D01*
X13878Y18933D01*
X13818Y19012D01*
X13740Y19072D01*
X13649Y19109D01*
X13551Y19122D01*
D02*
G37*
G36*
X14551D02*
X14454Y19109D01*
X14363Y19072D01*
X14284Y19012D01*
X14224Y18933D01*
X14187Y18842D01*
X14174Y18745D01*
X14187Y18647D01*
X14224Y18556D01*
X14284Y18478D01*
X14363Y18418D01*
X14454Y18380D01*
X14551Y18368D01*
X14649Y18380D01*
X14740Y18418D01*
X14818Y18478D01*
X14878Y18556D01*
X14916Y18647D01*
X14928Y18745D01*
X14916Y18842D01*
X14878Y18933D01*
X14818Y19012D01*
X14740Y19072D01*
X14649Y19109D01*
X14551Y19122D01*
D02*
G37*
G36*
X15551D02*
X15454Y19109D01*
X15363Y19072D01*
X15284Y19012D01*
X15224Y18933D01*
X15187Y18842D01*
X15174Y18745D01*
X15187Y18647D01*
X15224Y18556D01*
X15284Y18478D01*
X15363Y18418D01*
X15454Y18380D01*
X15551Y18368D01*
X15649Y18380D01*
X15740Y18418D01*
X15818Y18478D01*
X15878Y18556D01*
X15916Y18647D01*
X15928Y18745D01*
X15916Y18842D01*
X15878Y18933D01*
X15818Y19012D01*
X15740Y19072D01*
X15649Y19109D01*
X15551Y19122D01*
D02*
G37*
G36*
X12551D02*
X12454Y19109D01*
X12363Y19072D01*
X12284Y19012D01*
X12224Y18933D01*
X12187Y18842D01*
X12174Y18745D01*
X12187Y18647D01*
X12224Y18556D01*
X12284Y18478D01*
X12363Y18418D01*
X12454Y18380D01*
X12551Y18368D01*
X12649Y18380D01*
X12740Y18418D01*
X12818Y18478D01*
X12878Y18556D01*
X12916Y18647D01*
X12928Y18745D01*
X12916Y18842D01*
X12878Y18933D01*
X12818Y19012D01*
X12740Y19072D01*
X12649Y19109D01*
X12551Y19122D01*
D02*
G37*
G36*
X8551D02*
X8454Y19109D01*
X8363Y19072D01*
X8284Y19012D01*
X8224Y18933D01*
X8187Y18842D01*
X8174Y18745D01*
X8187Y18647D01*
X8224Y18556D01*
X8284Y18478D01*
X8363Y18418D01*
X8454Y18380D01*
X8551Y18368D01*
X8649Y18380D01*
X8740Y18418D01*
X8818Y18478D01*
X8878Y18556D01*
X8916Y18647D01*
X8928Y18745D01*
X8916Y18842D01*
X8878Y18933D01*
X8818Y19012D01*
X8740Y19072D01*
X8649Y19109D01*
X8551Y19122D01*
D02*
G37*
G36*
X9551D02*
X9454Y19109D01*
X9363Y19072D01*
X9284Y19012D01*
X9224Y18933D01*
X9187Y18842D01*
X9174Y18745D01*
X9187Y18647D01*
X9224Y18556D01*
X9284Y18478D01*
X9363Y18418D01*
X9454Y18380D01*
X9551Y18368D01*
X9649Y18380D01*
X9740Y18418D01*
X9818Y18478D01*
X9878Y18556D01*
X9916Y18647D01*
X9928Y18745D01*
X9916Y18842D01*
X9878Y18933D01*
X9818Y19012D01*
X9740Y19072D01*
X9649Y19109D01*
X9551Y19122D01*
D02*
G37*
G36*
X11551D02*
X11454Y19109D01*
X11363Y19072D01*
X11284Y19012D01*
X11224Y18933D01*
X11187Y18842D01*
X11174Y18745D01*
X11187Y18647D01*
X11224Y18556D01*
X11284Y18478D01*
X11363Y18418D01*
X11454Y18380D01*
X11551Y18368D01*
X11649Y18380D01*
X11740Y18418D01*
X11818Y18478D01*
X11878Y18556D01*
X11916Y18647D01*
X11928Y18745D01*
X11916Y18842D01*
X11878Y18933D01*
X11818Y19012D01*
X11740Y19072D01*
X11649Y19109D01*
X11551Y19122D01*
D02*
G37*
G36*
X16551D02*
X16454Y19109D01*
X16363Y19072D01*
X16284Y19012D01*
X16224Y18933D01*
X16187Y18842D01*
X16174Y18745D01*
X16187Y18647D01*
X16224Y18556D01*
X16284Y18478D01*
X16363Y18418D01*
X16454Y18380D01*
X16551Y18368D01*
X16649Y18380D01*
X16740Y18418D01*
X16818Y18478D01*
X16878Y18556D01*
X16916Y18647D01*
X16928Y18745D01*
X16916Y18842D01*
X16878Y18933D01*
X16818Y19012D01*
X16740Y19072D01*
X16649Y19109D01*
X16551Y19122D01*
D02*
G37*
G36*
X22551D02*
X22454Y19109D01*
X22363Y19072D01*
X22284Y19012D01*
X22224Y18933D01*
X22187Y18842D01*
X22174Y18745D01*
X22187Y18647D01*
X22224Y18556D01*
X22284Y18478D01*
X22363Y18418D01*
X22454Y18380D01*
X22551Y18368D01*
X22649Y18380D01*
X22740Y18418D01*
X22818Y18478D01*
X22878Y18556D01*
X22916Y18647D01*
X22928Y18745D01*
X22916Y18842D01*
X22878Y18933D01*
X22818Y19012D01*
X22740Y19072D01*
X22649Y19109D01*
X22551Y19122D01*
D02*
G37*
G36*
X23551D02*
X23454Y19109D01*
X23363Y19072D01*
X23284Y19012D01*
X23224Y18933D01*
X23187Y18842D01*
X23174Y18745D01*
X23187Y18647D01*
X23224Y18556D01*
X23284Y18478D01*
X23363Y18418D01*
X23454Y18380D01*
X23551Y18368D01*
X23649Y18380D01*
X23740Y18418D01*
X23818Y18478D01*
X23878Y18556D01*
X23916Y18647D01*
X23928Y18745D01*
X23916Y18842D01*
X23878Y18933D01*
X23818Y19012D01*
X23740Y19072D01*
X23649Y19109D01*
X23551Y19122D01*
D02*
G37*
G36*
X24551D02*
X24454Y19109D01*
X24363Y19072D01*
X24284Y19012D01*
X24224Y18933D01*
X24187Y18842D01*
X24174Y18745D01*
X24187Y18647D01*
X24224Y18556D01*
X24284Y18478D01*
X24363Y18418D01*
X24454Y18380D01*
X24551Y18368D01*
X24649Y18380D01*
X24740Y18418D01*
X24818Y18478D01*
X24878Y18556D01*
X24916Y18647D01*
X24928Y18745D01*
X24916Y18842D01*
X24878Y18933D01*
X24818Y19012D01*
X24740Y19072D01*
X24649Y19109D01*
X24551Y19122D01*
D02*
G37*
G36*
X21551D02*
X21454Y19109D01*
X21363Y19072D01*
X21284Y19012D01*
X21224Y18933D01*
X21187Y18842D01*
X21174Y18745D01*
X21187Y18647D01*
X21224Y18556D01*
X21284Y18478D01*
X21363Y18418D01*
X21454Y18380D01*
X21551Y18368D01*
X21649Y18380D01*
X21740Y18418D01*
X21818Y18478D01*
X21878Y18556D01*
X21916Y18647D01*
X21928Y18745D01*
X21916Y18842D01*
X21878Y18933D01*
X21818Y19012D01*
X21740Y19072D01*
X21649Y19109D01*
X21551Y19122D01*
D02*
G37*
G36*
X17551D02*
X17454Y19109D01*
X17363Y19072D01*
X17284Y19012D01*
X17224Y18933D01*
X17187Y18842D01*
X17174Y18745D01*
X17187Y18647D01*
X17224Y18556D01*
X17284Y18478D01*
X17363Y18418D01*
X17454Y18380D01*
X17551Y18368D01*
X17649Y18380D01*
X17740Y18418D01*
X17818Y18478D01*
X17878Y18556D01*
X17916Y18647D01*
X17928Y18745D01*
X17916Y18842D01*
X17878Y18933D01*
X17818Y19012D01*
X17740Y19072D01*
X17649Y19109D01*
X17551Y19122D01*
D02*
G37*
G36*
X18551D02*
X18454Y19109D01*
X18363Y19072D01*
X18284Y19012D01*
X18224Y18933D01*
X18187Y18842D01*
X18174Y18745D01*
X18187Y18647D01*
X18224Y18556D01*
X18284Y18478D01*
X18363Y18418D01*
X18454Y18380D01*
X18551Y18368D01*
X18649Y18380D01*
X18740Y18418D01*
X18818Y18478D01*
X18878Y18556D01*
X18916Y18647D01*
X18928Y18745D01*
X18916Y18842D01*
X18878Y18933D01*
X18818Y19012D01*
X18740Y19072D01*
X18649Y19109D01*
X18551Y19122D01*
D02*
G37*
G36*
X20551D02*
X20454Y19109D01*
X20363Y19072D01*
X20284Y19012D01*
X20224Y18933D01*
X20187Y18842D01*
X20174Y18745D01*
X20187Y18647D01*
X20224Y18556D01*
X20284Y18478D01*
X20363Y18418D01*
X20454Y18380D01*
X20551Y18368D01*
X20649Y18380D01*
X20740Y18418D01*
X20818Y18478D01*
X20878Y18556D01*
X20916Y18647D01*
X20928Y18745D01*
X20916Y18842D01*
X20878Y18933D01*
X20818Y19012D01*
X20740Y19072D01*
X20649Y19109D01*
X20551Y19122D01*
D02*
G37*
G36*
X7551D02*
X7454Y19109D01*
X7363Y19072D01*
X7284Y19012D01*
X7224Y18933D01*
X7187Y18842D01*
X7174Y18745D01*
X7187Y18647D01*
X7224Y18556D01*
X7284Y18478D01*
X7363Y18418D01*
X7454Y18380D01*
X7551Y18368D01*
X7649Y18380D01*
X7740Y18418D01*
X7818Y18478D01*
X7878Y18556D01*
X7916Y18647D01*
X7928Y18745D01*
X7916Y18842D01*
X7878Y18933D01*
X7818Y19012D01*
X7740Y19072D01*
X7649Y19109D01*
X7551Y19122D01*
D02*
G37*
G36*
X20551Y18122D02*
X20454Y18109D01*
X20363Y18072D01*
X20284Y18012D01*
X20224Y17933D01*
X20187Y17842D01*
X20174Y17745D01*
X20187Y17647D01*
X20224Y17556D01*
X20284Y17478D01*
X20363Y17418D01*
X20454Y17380D01*
X20551Y17368D01*
X20649Y17380D01*
X20740Y17418D01*
X20818Y17478D01*
X20878Y17556D01*
X20916Y17647D01*
X20928Y17745D01*
X20916Y17842D01*
X20878Y17933D01*
X20818Y18012D01*
X20740Y18072D01*
X20649Y18109D01*
X20551Y18122D01*
D02*
G37*
G36*
X18551D02*
X18454Y18109D01*
X18363Y18072D01*
X18284Y18012D01*
X18224Y17933D01*
X18187Y17842D01*
X18174Y17745D01*
X18187Y17647D01*
X18224Y17556D01*
X18284Y17478D01*
X18363Y17418D01*
X18454Y17380D01*
X18551Y17368D01*
X18649Y17380D01*
X18740Y17418D01*
X18818Y17478D01*
X18878Y17556D01*
X18916Y17647D01*
X18928Y17745D01*
X18916Y17842D01*
X18878Y17933D01*
X18818Y18012D01*
X18740Y18072D01*
X18649Y18109D01*
X18551Y18122D01*
D02*
G37*
G36*
X23551D02*
X23454Y18109D01*
X23363Y18072D01*
X23284Y18012D01*
X23224Y17933D01*
X23187Y17842D01*
X23174Y17745D01*
X23187Y17647D01*
X23224Y17556D01*
X23284Y17478D01*
X23363Y17418D01*
X23454Y17380D01*
X23551Y17368D01*
X23649Y17380D01*
X23740Y17418D01*
X23818Y17478D01*
X23878Y17556D01*
X23916Y17647D01*
X23928Y17745D01*
X23916Y17842D01*
X23878Y17933D01*
X23818Y18012D01*
X23740Y18072D01*
X23649Y18109D01*
X23551Y18122D01*
D02*
G37*
G36*
X21551D02*
X21454Y18109D01*
X21363Y18072D01*
X21284Y18012D01*
X21224Y17933D01*
X21187Y17842D01*
X21174Y17745D01*
X21187Y17647D01*
X21224Y17556D01*
X21284Y17478D01*
X21363Y17418D01*
X21454Y17380D01*
X21551Y17368D01*
X21649Y17380D01*
X21740Y17418D01*
X21818Y17478D01*
X21878Y17556D01*
X21916Y17647D01*
X21928Y17745D01*
X21916Y17842D01*
X21878Y17933D01*
X21818Y18012D01*
X21740Y18072D01*
X21649Y18109D01*
X21551Y18122D01*
D02*
G37*
G36*
X22551D02*
X22454Y18109D01*
X22363Y18072D01*
X22284Y18012D01*
X22224Y17933D01*
X22187Y17842D01*
X22174Y17745D01*
X22187Y17647D01*
X22224Y17556D01*
X22284Y17478D01*
X22363Y17418D01*
X22454Y17380D01*
X22551Y17368D01*
X22649Y17380D01*
X22740Y17418D01*
X22818Y17478D01*
X22878Y17556D01*
X22916Y17647D01*
X22928Y17745D01*
X22916Y17842D01*
X22878Y17933D01*
X22818Y18012D01*
X22740Y18072D01*
X22649Y18109D01*
X22551Y18122D01*
D02*
G37*
G36*
X17551D02*
X17454Y18109D01*
X17363Y18072D01*
X17284Y18012D01*
X17224Y17933D01*
X17187Y17842D01*
X17174Y17745D01*
X17187Y17647D01*
X17224Y17556D01*
X17284Y17478D01*
X17363Y17418D01*
X17454Y17380D01*
X17551Y17368D01*
X17649Y17380D01*
X17740Y17418D01*
X17818Y17478D01*
X17878Y17556D01*
X17916Y17647D01*
X17928Y17745D01*
X17916Y17842D01*
X17878Y17933D01*
X17818Y18012D01*
X17740Y18072D01*
X17649Y18109D01*
X17551Y18122D01*
D02*
G37*
G36*
X5551Y19122D02*
X5454Y19109D01*
X5363Y19072D01*
X5284Y19012D01*
X5224Y18933D01*
X5187Y18842D01*
X5174Y18745D01*
X5187Y18647D01*
X5224Y18556D01*
X5284Y18478D01*
X5363Y18418D01*
X5454Y18380D01*
X5551Y18368D01*
X5649Y18380D01*
X5740Y18418D01*
X5818Y18478D01*
X5878Y18556D01*
X5916Y18647D01*
X5928Y18745D01*
X5916Y18842D01*
X5878Y18933D01*
X5818Y19012D01*
X5740Y19072D01*
X5649Y19109D01*
X5551Y19122D01*
D02*
G37*
G36*
X6551D02*
X6454Y19109D01*
X6363Y19072D01*
X6284Y19012D01*
X6224Y18933D01*
X6187Y18842D01*
X6174Y18745D01*
X6187Y18647D01*
X6224Y18556D01*
X6284Y18478D01*
X6363Y18418D01*
X6454Y18380D01*
X6551Y18368D01*
X6649Y18380D01*
X6740Y18418D01*
X6818Y18478D01*
X6878Y18556D01*
X6916Y18647D01*
X6928Y18745D01*
X6916Y18842D01*
X6878Y18933D01*
X6818Y19012D01*
X6740Y19072D01*
X6649Y19109D01*
X6551Y19122D01*
D02*
G37*
G36*
X26290Y18259D02*
X24960D01*
X24929Y18253D01*
X24903Y18236D01*
X24886Y18210D01*
X24880Y18179D01*
Y18009D01*
X24832Y17993D01*
X24818Y18012D01*
X24740Y18072D01*
X24649Y18109D01*
X24551Y18122D01*
X24454Y18109D01*
X24363Y18072D01*
X24284Y18012D01*
X24224Y17933D01*
X24187Y17842D01*
X24174Y17745D01*
X24187Y17647D01*
X24224Y17556D01*
X24284Y17478D01*
X24363Y17418D01*
X24454Y17380D01*
X24551Y17368D01*
X24649Y17380D01*
X24740Y17418D01*
X24818Y17478D01*
X24832Y17497D01*
X24880Y17481D01*
Y17179D01*
X20090D01*
Y18169D01*
X20084Y18200D01*
X20067Y18226D01*
X20041Y18243D01*
X20010Y18249D01*
X19070D01*
X19039Y18243D01*
X19013Y18226D01*
X18996Y18200D01*
X18990Y18169D01*
Y17179D01*
X11183D01*
Y17533D01*
X11230Y17549D01*
X11284Y17478D01*
X11363Y17418D01*
X11454Y17380D01*
X11551Y17368D01*
X11649Y17380D01*
X11740Y17418D01*
X11818Y17478D01*
X11878Y17556D01*
X11916Y17647D01*
X11928Y17745D01*
X11916Y17842D01*
X11878Y17933D01*
X11818Y18012D01*
X11740Y18072D01*
X11649Y18109D01*
X11551Y18122D01*
X11454Y18109D01*
X11363Y18072D01*
X11284Y18012D01*
X11230Y17941D01*
X11183Y17957D01*
Y18149D01*
X11177Y18180D01*
X11159Y18206D01*
X11133Y18223D01*
X11102Y18229D01*
X10040D01*
X10009Y18223D01*
X9983Y18206D01*
X9966Y18180D01*
X9960Y18149D01*
Y17864D01*
X9911Y17854D01*
X9878Y17933D01*
X9818Y18012D01*
X9740Y18072D01*
X9649Y18109D01*
X9551Y18122D01*
X9454Y18109D01*
X9363Y18072D01*
X9284Y18012D01*
X9224Y17933D01*
X9187Y17842D01*
X9174Y17745D01*
X9187Y17647D01*
X9224Y17556D01*
X9284Y17478D01*
X9363Y17418D01*
X9454Y17380D01*
X9551Y17368D01*
X9649Y17380D01*
X9740Y17418D01*
X9818Y17478D01*
X9878Y17556D01*
X9911Y17635D01*
X9960Y17626D01*
Y17179D01*
X3600D01*
X3569Y17173D01*
X3543Y17156D01*
X3526Y17130D01*
X3520Y17099D01*
Y17019D01*
Y16209D01*
Y15809D01*
X3526Y15778D01*
X3543Y15752D01*
X3569Y15735D01*
X3600Y15729D01*
X5450D01*
Y15656D01*
X4721D01*
Y14908D01*
X5450D01*
Y14706D01*
X5430Y14689D01*
X3600D01*
X3569Y14683D01*
X3543Y14666D01*
X3526Y14640D01*
X3520Y14609D01*
Y9869D01*
Y9479D01*
Y5209D01*
Y4489D01*
X3526Y4458D01*
X3543Y4432D01*
X3569Y4415D01*
X3600Y4409D01*
X3886D01*
X3907Y4360D01*
X3829Y4300D01*
X3769Y4222D01*
X3731Y4131D01*
X3718Y4033D01*
X3731Y3935D01*
X3769Y3844D01*
X3829Y3766D01*
X3907Y3706D01*
X3998Y3669D01*
X4095Y3656D01*
X4193Y3669D01*
X4284Y3706D01*
X4362Y3766D01*
X4422Y3844D01*
X4460Y3935D01*
X4470Y4013D01*
X4470D01*
D01*
X4520Y4009D01*
Y3159D01*
X4526Y3128D01*
X4535Y3114D01*
X4526Y3100D01*
X4520Y3069D01*
Y2779D01*
Y2029D01*
X4526Y1998D01*
X4543Y1972D01*
X4569Y1955D01*
X4600Y1949D01*
X5280D01*
X5296Y1901D01*
X5280Y1890D01*
X5221Y1811D01*
X5183Y1720D01*
X5170Y1623D01*
X5183Y1525D01*
X5221Y1434D01*
X5280Y1356D01*
X5359Y1296D01*
X5450Y1258D01*
X5547Y1246D01*
X5645Y1258D01*
X5736Y1296D01*
X5814Y1356D01*
X5874Y1434D01*
X5912Y1525D01*
X5924Y1623D01*
X5912Y1720D01*
X5874Y1811D01*
X5814Y1890D01*
X5798Y1901D01*
X5815Y1949D01*
X6280D01*
X6296Y1901D01*
X6280Y1890D01*
X6221Y1811D01*
X6183Y1720D01*
X6170Y1623D01*
X6183Y1525D01*
X6221Y1434D01*
X6280Y1356D01*
X6359Y1296D01*
X6450Y1258D01*
X6547Y1246D01*
X6645Y1258D01*
X6736Y1296D01*
X6814Y1356D01*
X6874Y1434D01*
X6912Y1525D01*
X6924Y1623D01*
X6912Y1720D01*
X6874Y1811D01*
X6814Y1890D01*
X6798Y1901D01*
X6815Y1949D01*
X7280D01*
X7296Y1901D01*
X7280Y1890D01*
X7221Y1811D01*
X7183Y1720D01*
X7170Y1623D01*
X7183Y1525D01*
X7221Y1434D01*
X7280Y1356D01*
X7359Y1296D01*
X7450Y1258D01*
X7547Y1246D01*
X7645Y1258D01*
X7736Y1296D01*
X7814Y1356D01*
X7874Y1434D01*
X7912Y1525D01*
X7924Y1623D01*
X7912Y1720D01*
X7874Y1811D01*
X7814Y1890D01*
X7798Y1901D01*
X7815Y1949D01*
X8280D01*
X8296Y1901D01*
X8280Y1890D01*
X8221Y1811D01*
X8183Y1720D01*
X8170Y1623D01*
X8183Y1525D01*
X8221Y1434D01*
X8280Y1356D01*
X8359Y1296D01*
X8450Y1258D01*
X8547Y1246D01*
X8645Y1258D01*
X8736Y1296D01*
X8814Y1356D01*
X8874Y1434D01*
X8912Y1525D01*
X8924Y1623D01*
X8912Y1720D01*
X8874Y1811D01*
X8814Y1890D01*
X8798Y1901D01*
X8815Y1949D01*
X9280D01*
X9296Y1901D01*
X9280Y1890D01*
X9221Y1811D01*
X9183Y1720D01*
X9170Y1623D01*
X9183Y1525D01*
X9221Y1434D01*
X9280Y1356D01*
X9359Y1296D01*
X9450Y1258D01*
X9547Y1246D01*
X9645Y1258D01*
X9736Y1296D01*
X9814Y1356D01*
X9874Y1434D01*
X9912Y1525D01*
X9924Y1623D01*
X9912Y1720D01*
X9874Y1811D01*
X9814Y1890D01*
X9798Y1901D01*
X9815Y1949D01*
X9980D01*
Y1109D01*
X9986Y1078D01*
X10003Y1052D01*
X10029Y1035D01*
X10060Y1029D01*
X11090D01*
X11121Y1035D01*
X11147Y1052D01*
X11164Y1078D01*
X11170Y1109D01*
Y1427D01*
X11219Y1437D01*
X11221Y1434D01*
X11280Y1356D01*
X11359Y1296D01*
X11450Y1258D01*
X11547Y1246D01*
X11645Y1258D01*
X11736Y1296D01*
X11814Y1356D01*
X11874Y1434D01*
X11912Y1525D01*
X11924Y1623D01*
X11912Y1720D01*
X11874Y1811D01*
X11814Y1890D01*
X11798Y1901D01*
X11815Y1949D01*
X12280D01*
X12296Y1901D01*
X12280Y1890D01*
X12221Y1811D01*
X12183Y1720D01*
X12170Y1623D01*
X12183Y1525D01*
X12221Y1434D01*
X12280Y1356D01*
X12359Y1296D01*
X12450Y1258D01*
X12547Y1246D01*
X12645Y1258D01*
X12736Y1296D01*
X12814Y1356D01*
X12874Y1434D01*
X12912Y1525D01*
X12924Y1623D01*
X12912Y1720D01*
X12874Y1811D01*
X12814Y1890D01*
X12798Y1901D01*
X12815Y1949D01*
X13280D01*
X13296Y1901D01*
X13280Y1890D01*
X13221Y1811D01*
X13183Y1720D01*
X13170Y1623D01*
X13183Y1525D01*
X13221Y1434D01*
X13280Y1356D01*
X13359Y1296D01*
X13450Y1258D01*
X13547Y1246D01*
X13645Y1258D01*
X13736Y1296D01*
X13814Y1356D01*
X13874Y1434D01*
X13912Y1525D01*
X13924Y1623D01*
X13912Y1720D01*
X13874Y1811D01*
X13814Y1890D01*
X13798Y1901D01*
X13815Y1949D01*
X14280D01*
X14296Y1901D01*
X14280Y1890D01*
X14221Y1811D01*
X14183Y1720D01*
X14170Y1623D01*
X14183Y1525D01*
X14221Y1434D01*
X14280Y1356D01*
X14359Y1296D01*
X14450Y1258D01*
X14547Y1246D01*
X14645Y1258D01*
X14736Y1296D01*
X14814Y1356D01*
X14874Y1434D01*
X14912Y1525D01*
X14924Y1623D01*
X14912Y1720D01*
X14874Y1811D01*
X14814Y1890D01*
X14798Y1901D01*
X14815Y1949D01*
X15280D01*
X15296Y1901D01*
X15280Y1890D01*
X15221Y1811D01*
X15183Y1720D01*
X15170Y1623D01*
X15183Y1525D01*
X15221Y1434D01*
X15280Y1356D01*
X15359Y1296D01*
X15450Y1258D01*
X15547Y1246D01*
X15645Y1258D01*
X15736Y1296D01*
X15814Y1356D01*
X15874Y1434D01*
X15912Y1525D01*
X15924Y1623D01*
X15912Y1720D01*
X15874Y1811D01*
X15814Y1890D01*
X15798Y1901D01*
X15815Y1949D01*
X16280D01*
X16296Y1901D01*
X16280Y1890D01*
X16221Y1811D01*
X16183Y1720D01*
X16170Y1623D01*
X16183Y1525D01*
X16221Y1434D01*
X16280Y1356D01*
X16359Y1296D01*
X16450Y1258D01*
X16547Y1246D01*
X16645Y1258D01*
X16736Y1296D01*
X16814Y1356D01*
X16874Y1434D01*
X16912Y1525D01*
X16924Y1623D01*
X16912Y1720D01*
X16874Y1811D01*
X16814Y1890D01*
X16798Y1901D01*
X16815Y1949D01*
X17280D01*
X17296Y1901D01*
X17280Y1890D01*
X17221Y1811D01*
X17183Y1720D01*
X17170Y1623D01*
X17183Y1525D01*
X17221Y1434D01*
X17280Y1356D01*
X17359Y1296D01*
X17450Y1258D01*
X17547Y1246D01*
X17645Y1258D01*
X17736Y1296D01*
X17814Y1356D01*
X17874Y1434D01*
X17912Y1525D01*
X17924Y1623D01*
X17912Y1720D01*
X17874Y1811D01*
X17814Y1890D01*
X17798Y1901D01*
X17815Y1949D01*
X18280D01*
X18296Y1901D01*
X18280Y1890D01*
X18221Y1811D01*
X18183Y1720D01*
X18170Y1623D01*
X18183Y1525D01*
X18221Y1434D01*
X18280Y1356D01*
X18359Y1296D01*
X18450Y1258D01*
X18547Y1246D01*
X18645Y1258D01*
X18736Y1296D01*
X18814Y1356D01*
X18874Y1434D01*
X18911Y1523D01*
X18960Y1513D01*
Y1109D01*
X18966Y1078D01*
X18983Y1052D01*
X19009Y1035D01*
X19040Y1029D01*
X20070D01*
X20101Y1035D01*
X20127Y1052D01*
X20144Y1078D01*
X20150Y1109D01*
Y1476D01*
X20199Y1485D01*
X20221Y1434D01*
X20280Y1356D01*
X20359Y1296D01*
X20450Y1258D01*
X20547Y1246D01*
X20645Y1258D01*
X20736Y1296D01*
X20814Y1356D01*
X20874Y1434D01*
X20912Y1525D01*
X20924Y1623D01*
X20912Y1720D01*
X20874Y1811D01*
X20814Y1890D01*
X20798Y1901D01*
X20815Y1949D01*
X21280D01*
X21296Y1901D01*
X21280Y1890D01*
X21221Y1811D01*
X21183Y1720D01*
X21170Y1623D01*
X21183Y1525D01*
X21221Y1434D01*
X21280Y1356D01*
X21359Y1296D01*
X21450Y1258D01*
X21547Y1246D01*
X21645Y1258D01*
X21736Y1296D01*
X21814Y1356D01*
X21874Y1434D01*
X21912Y1525D01*
X21924Y1623D01*
X21912Y1720D01*
X21874Y1811D01*
X21814Y1890D01*
X21798Y1901D01*
X21815Y1949D01*
X22280D01*
X22296Y1901D01*
X22280Y1890D01*
X22221Y1811D01*
X22183Y1720D01*
X22170Y1623D01*
X22183Y1525D01*
X22221Y1434D01*
X22280Y1356D01*
X22359Y1296D01*
X22450Y1258D01*
X22547Y1246D01*
X22645Y1258D01*
X22736Y1296D01*
X22814Y1356D01*
X22874Y1434D01*
X22912Y1525D01*
X22924Y1623D01*
X22912Y1720D01*
X22874Y1811D01*
X22814Y1890D01*
X22798Y1901D01*
X22815Y1949D01*
X23280D01*
X23296Y1901D01*
X23280Y1890D01*
X23221Y1811D01*
X23183Y1720D01*
X23170Y1623D01*
X23183Y1525D01*
X23221Y1434D01*
X23280Y1356D01*
X23359Y1296D01*
X23450Y1258D01*
X23547Y1246D01*
X23645Y1258D01*
X23736Y1296D01*
X23814Y1356D01*
X23874Y1434D01*
X23912Y1525D01*
X23924Y1623D01*
X23912Y1720D01*
X23874Y1811D01*
X23814Y1890D01*
X23798Y1901D01*
X23815Y1949D01*
X24173D01*
Y1249D01*
X24890D01*
Y1219D01*
X24896Y1188D01*
X24913Y1162D01*
X24939Y1145D01*
X24970Y1139D01*
X26190D01*
X26221Y1145D01*
X26247Y1162D01*
X26264Y1188D01*
X26270Y1219D01*
Y1244D01*
X26309D01*
Y1244D01*
X26861D01*
Y1314D01*
X28203D01*
Y1193D01*
X28774D01*
Y1902D01*
X28721D01*
Y2610D01*
X28774D01*
Y3319D01*
X28203D01*
Y2610D01*
X28255D01*
Y1902D01*
X28203D01*
Y1781D01*
X26861D01*
Y1914D01*
X26828D01*
Y1994D01*
X26871D01*
Y2664D01*
X26861D01*
Y3363D01*
X26270D01*
Y2664D01*
X26241D01*
D01*
D01*
Y2664D01*
D01*
X25721D01*
Y3525D01*
X25854Y3658D01*
X26440D01*
X26490Y3668D01*
X26533Y3696D01*
X26533Y3696D01*
X26533Y3696D01*
X26653Y3816D01*
X26670Y3842D01*
X26681Y3859D01*
X26691Y3909D01*
Y4900D01*
X26732Y4927D01*
X26785Y5006D01*
X26803Y5099D01*
X26785Y5192D01*
X26732Y5271D01*
X26653Y5324D01*
X26560Y5342D01*
X26467Y5324D01*
X26388Y5271D01*
X26335Y5192D01*
X26317Y5099D01*
X26335Y5006D01*
X26388Y4927D01*
X26429Y4900D01*
Y3963D01*
X26386Y3920D01*
X25800D01*
X25750Y3910D01*
X25707Y3882D01*
X25497Y3672D01*
X25469Y3629D01*
X25459Y3579D01*
Y2859D01*
X22122D01*
X22090Y2898D01*
X22090Y2899D01*
Y6519D01*
X22084Y6550D01*
X22067Y6576D01*
X22041Y6593D01*
X22010Y6599D01*
X21400D01*
X21370Y6624D01*
Y7017D01*
X21418Y7032D01*
X21428Y7017D01*
X21507Y6964D01*
X21600Y6946D01*
X21693Y6964D01*
X21772Y7017D01*
X21799Y7058D01*
X21996D01*
X22569Y6485D01*
Y4298D01*
X22528Y4271D01*
X22475Y4192D01*
X22457Y4099D01*
X22475Y4006D01*
X22528Y3927D01*
X22607Y3874D01*
X22700Y3856D01*
X22793Y3874D01*
X22872Y3927D01*
X22875Y3931D01*
X22925D01*
X22928Y3927D01*
X23007Y3874D01*
X23100Y3856D01*
X23193Y3874D01*
X23272Y3927D01*
X23275Y3931D01*
X23325D01*
X23328Y3927D01*
X23407Y3874D01*
X23500Y3856D01*
X23593Y3874D01*
X23672Y3927D01*
X23725Y4006D01*
X23743Y4099D01*
X23725Y4192D01*
X23672Y4271D01*
X23631Y4298D01*
Y4339D01*
X23621Y4389D01*
X23593Y4432D01*
X23507Y4518D01*
X23521Y4566D01*
X23613Y4584D01*
X23692Y4637D01*
X23745Y4716D01*
X23763Y4809D01*
X23754Y4857D01*
X24073Y5176D01*
X24101Y5219D01*
X24111Y5269D01*
Y8059D01*
X24101Y8109D01*
X24073Y8152D01*
X23843Y8382D01*
X23862Y8428D01*
X26731D01*
X26758Y8387D01*
X26837Y8334D01*
X26930Y8316D01*
X27023Y8334D01*
X27102Y8387D01*
X27155Y8466D01*
X27173Y8559D01*
X27160Y8626D01*
X27204Y8649D01*
X27787Y8066D01*
X27830Y8038D01*
X27880Y8028D01*
X28230D01*
X28253Y7970D01*
X28313Y7892D01*
X28391Y7832D01*
X28482Y7795D01*
X28580Y7782D01*
X28678Y7795D01*
X28769Y7832D01*
X28847Y7892D01*
X28907Y7970D01*
X28944Y8061D01*
X28957Y8159D01*
X28944Y8257D01*
X28907Y8348D01*
X28847Y8426D01*
X28769Y8486D01*
X28678Y8523D01*
X28580Y8536D01*
X28482Y8523D01*
X28391Y8486D01*
X28313Y8426D01*
X28253Y8348D01*
X28230Y8290D01*
X27934D01*
X27243Y8982D01*
X27244Y8983D01*
X27273Y9028D01*
X28230D01*
X28253Y8970D01*
X28313Y8892D01*
X28391Y8832D01*
X28482Y8795D01*
X28580Y8782D01*
X28678Y8795D01*
X28769Y8832D01*
X28847Y8892D01*
X28907Y8970D01*
X28944Y9061D01*
X28957Y9159D01*
X28944Y9257D01*
X28907Y9348D01*
X28847Y9426D01*
X28769Y9486D01*
X28678Y9523D01*
X28580Y9536D01*
X28482Y9523D01*
X28391Y9486D01*
X28313Y9426D01*
X28253Y9348D01*
X28230Y9290D01*
X27111D01*
Y9314D01*
X27111D01*
Y9984D01*
X27111D01*
Y9992D01*
X27146Y10028D01*
X28230D01*
X28253Y9970D01*
X28313Y9892D01*
X28391Y9832D01*
X28482Y9795D01*
X28580Y9782D01*
X28678Y9795D01*
X28769Y9832D01*
X28847Y9892D01*
X28907Y9970D01*
X28944Y10061D01*
X28957Y10159D01*
X28944Y10257D01*
X28907Y10348D01*
X28847Y10426D01*
X28769Y10486D01*
X28678Y10523D01*
X28580Y10536D01*
X28482Y10523D01*
X28391Y10486D01*
X28313Y10426D01*
X28253Y10348D01*
X28230Y10290D01*
X27020D01*
X27005Y10287D01*
X26966Y10319D01*
Y10394D01*
X27111D01*
Y11064D01*
D01*
Y11064D01*
X27145Y11098D01*
X27189D01*
Y11064D01*
X27189D01*
Y10394D01*
X27741D01*
Y10598D01*
X28180D01*
X28230Y10608D01*
X28273Y10636D01*
X28273Y10636D01*
X28273Y10636D01*
X28446Y10810D01*
X28482Y10795D01*
X28580Y10782D01*
X28678Y10795D01*
X28769Y10832D01*
X28847Y10892D01*
X28907Y10970D01*
X28944Y11061D01*
X28957Y11159D01*
X28944Y11257D01*
X28907Y11348D01*
X28847Y11426D01*
X28769Y11486D01*
X28678Y11523D01*
X28580Y11536D01*
X28482Y11523D01*
X28391Y11486D01*
X28336Y11443D01*
X28291Y11465D01*
Y11685D01*
X28425Y11818D01*
X28482Y11795D01*
X28580Y11782D01*
X28678Y11795D01*
X28769Y11832D01*
X28847Y11892D01*
X28907Y11970D01*
X28944Y12061D01*
X28957Y12159D01*
X28944Y12257D01*
X28907Y12348D01*
X28847Y12426D01*
X28769Y12486D01*
X28678Y12523D01*
X28580Y12536D01*
X28482Y12523D01*
X28391Y12486D01*
X28313Y12426D01*
X28253Y12348D01*
X28216Y12257D01*
X28203Y12159D01*
X28216Y12061D01*
X28239Y12004D01*
X28067Y11832D01*
X28039Y11789D01*
X28029Y11739D01*
Y11473D01*
X27916Y11360D01*
X27020D01*
X26970Y11350D01*
X26927Y11322D01*
X26742Y11137D01*
X26714Y11094D01*
X26708Y11064D01*
X26559D01*
Y10394D01*
X26684D01*
X26704Y10348D01*
X26616Y10260D01*
X23509D01*
X23482Y10301D01*
X23403Y10354D01*
X23310Y10372D01*
X23217Y10354D01*
X23138Y10301D01*
X23087Y10224D01*
X23037D01*
X23032Y10231D01*
X22953Y10284D01*
X22870Y10301D01*
X22855Y10348D01*
X22943Y10436D01*
X22971Y10479D01*
X22981Y10529D01*
X22981Y10529D01*
X22981Y10529D01*
Y10529D01*
Y11040D01*
X23022Y11067D01*
X23075Y11146D01*
X23093Y11239D01*
X23075Y11332D01*
X23022Y11411D01*
X22943Y11464D01*
X22850Y11482D01*
X22757Y11464D01*
X22678Y11411D01*
X22660Y11384D01*
X22610D01*
X22592Y11411D01*
X22513Y11464D01*
X22420Y11482D01*
X22327Y11464D01*
X22284Y11436D01*
X22240Y11459D01*
Y11499D01*
X22234Y11530D01*
X22221Y11549D01*
X22234Y11568D01*
X22240Y11599D01*
Y12169D01*
X22234Y12200D01*
X22217Y12226D01*
X22191Y12243D01*
X22160Y12249D01*
X21410D01*
Y12441D01*
X21454Y12465D01*
X21469Y12455D01*
X21500Y12449D01*
X27310D01*
X27341Y12455D01*
X27367Y12472D01*
X27384Y12498D01*
X27390Y12529D01*
Y12929D01*
X27384Y12960D01*
X27367Y12986D01*
X27341Y13003D01*
X27310Y13009D01*
X22470D01*
Y13489D01*
X22464Y13520D01*
X22447Y13546D01*
X22421Y13563D01*
X22390Y13569D01*
X21890D01*
Y16489D01*
X21890Y16490D01*
X21922Y16529D01*
X24390D01*
Y14149D01*
Y13699D01*
X24396Y13668D01*
X24413Y13642D01*
X24439Y13625D01*
X24470Y13619D01*
X26880D01*
X26911Y13625D01*
X26937Y13642D01*
X26954Y13668D01*
X26960Y13699D01*
Y14149D01*
X26954Y14180D01*
X26937Y14206D01*
X26911Y14223D01*
X26880Y14229D01*
X25827D01*
X25803Y14273D01*
X25825Y14306D01*
X25843Y14399D01*
X25825Y14492D01*
X25772Y14571D01*
X25731Y14598D01*
Y16857D01*
X25764D01*
Y16857D01*
X26316D01*
D01*
Y16857D01*
D01*
D01*
X26316D01*
X26325D01*
X26360Y16822D01*
Y16155D01*
X26951D01*
Y16863D01*
X26946D01*
Y17527D01*
X26946D01*
Y17529D01*
X26951Y17534D01*
X26951D01*
Y17587D01*
X28203D01*
Y17466D01*
X28255D01*
Y16758D01*
X28203D01*
Y16049D01*
X28774D01*
Y16758D01*
X28721D01*
Y17466D01*
X28774D01*
Y18175D01*
X28203D01*
Y18054D01*
X26951D01*
Y18204D01*
X26406D01*
X26406Y18204D01*
Y18204D01*
X26399Y18204D01*
X26399D01*
X26365D01*
X26364Y18210D01*
X26347Y18236D01*
X26321Y18253D01*
X26290Y18259D01*
D02*
G37*
G36*
X16551Y18122D02*
X16454Y18109D01*
X16363Y18072D01*
X16284Y18012D01*
X16224Y17933D01*
X16187Y17842D01*
X16174Y17745D01*
X16187Y17647D01*
X16224Y17556D01*
X16284Y17478D01*
X16363Y17418D01*
X16454Y17380D01*
X16551Y17368D01*
X16649Y17380D01*
X16740Y17418D01*
X16818Y17478D01*
X16878Y17556D01*
X16916Y17647D01*
X16928Y17745D01*
X16916Y17842D01*
X16878Y17933D01*
X16818Y18012D01*
X16740Y18072D01*
X16649Y18109D01*
X16551Y18122D01*
D02*
G37*
G36*
X5925Y18119D02*
X5177D01*
Y17371D01*
X5925D01*
Y18119D01*
D02*
G37*
%LPD*%
G36*
X9690Y7749D02*
Y7109D01*
X9690Y7108D01*
Y6539D01*
X5540D01*
Y9379D01*
X9690D01*
Y7749D01*
D02*
G37*
G36*
X18979Y13855D02*
X19010Y13849D01*
X19680D01*
X19711Y13855D01*
X19725Y13864D01*
X19739Y13855D01*
X19770Y13849D01*
X20650D01*
Y12169D01*
Y11599D01*
X20650Y11598D01*
Y11553D01*
X20650D01*
Y11500D01*
X20650Y11499D01*
Y10579D01*
X20656Y10548D01*
X20673Y10522D01*
X20689Y10511D01*
Y9844D01*
X20689D01*
Y9839D01*
X20683Y9832D01*
X20673Y9826D01*
X20667Y9816D01*
X20654Y9803D01*
X20650D01*
Y9770D01*
X20650Y9769D01*
Y5449D01*
X18480D01*
X18449Y5443D01*
X18446Y5441D01*
X18424Y5449D01*
X18424Y5449D01*
X18381D01*
X18380Y5449D01*
X17770D01*
X17769Y5449D01*
X17716D01*
Y5449D01*
X17687Y5426D01*
X17687Y5426D01*
D01*
X17661Y5443D01*
X17630Y5449D01*
X14390D01*
X14389Y5449D01*
X14311D01*
X14310Y5449D01*
X13680D01*
X13679Y5449D01*
X13646D01*
Y5441D01*
X13623Y5426D01*
X13606Y5400D01*
X13600Y5369D01*
Y4409D01*
X12570D01*
X12539Y4403D01*
X12513Y4386D01*
X12496Y4360D01*
X12490Y4329D01*
Y4191D01*
X12442Y4177D01*
X12432Y4191D01*
X12353Y4244D01*
X12260Y4262D01*
X12259Y4262D01*
X8461D01*
X8460Y4262D01*
X8367Y4244D01*
X8319Y4212D01*
X8270Y4222D01*
X8267Y4226D01*
X8241Y4243D01*
X8210Y4249D01*
X7670D01*
Y5649D01*
X7664Y5680D01*
X7647Y5706D01*
X7621Y5723D01*
X7590Y5729D01*
X5510D01*
Y6434D01*
X5540Y6459D01*
X10780D01*
Y5689D01*
X10786Y5658D01*
X10803Y5632D01*
X10829Y5615D01*
X10860Y5609D01*
X11460D01*
X11491Y5615D01*
X11517Y5632D01*
X11534Y5658D01*
X11540Y5689D01*
Y6869D01*
Y7009D01*
X11556Y7029D01*
X12160D01*
X12191Y7035D01*
X12200Y7041D01*
X12230D01*
Y7072D01*
X12234Y7078D01*
X12240Y7109D01*
Y7749D01*
X12234Y7780D01*
X12217Y7806D01*
X12212Y7847D01*
X12217Y7852D01*
X12217Y7852D01*
X12217D01*
X12234Y7878D01*
X12240Y7909D01*
Y11739D01*
X12234Y11770D01*
X12236Y11778D01*
X12236Y11778D01*
X12236D01*
X12236Y11778D01*
Y12486D01*
X12230D01*
Y13829D01*
X12246Y13849D01*
X14950D01*
X14981Y13855D01*
X15002Y13869D01*
X15048D01*
X15069Y13855D01*
X15100Y13849D01*
X15630D01*
X15661Y13855D01*
X15670Y13861D01*
X15679Y13855D01*
X15710Y13849D01*
X18150D01*
X18181Y13855D01*
X18197Y13866D01*
X18199Y13865D01*
X18230Y13859D01*
X18920D01*
X18951Y13865D01*
X18957Y13869D01*
X18958D01*
X18979Y13855D01*
D02*
G37*
%LPC*%
G36*
X8150Y7882D02*
X8057Y7864D01*
X7978Y7811D01*
X7925Y7732D01*
X7907Y7639D01*
X7925Y7546D01*
X7978Y7467D01*
X8057Y7414D01*
X8150Y7396D01*
X8243Y7414D01*
X8322Y7467D01*
X8375Y7546D01*
X8393Y7639D01*
X8375Y7732D01*
X8322Y7811D01*
X8243Y7864D01*
X8150Y7882D01*
D02*
G37*
G36*
X17149Y10611D02*
X17056Y10593D01*
X16977Y10540D01*
X16937Y10481D01*
X16887D01*
X16848Y10540D01*
X16769Y10593D01*
X16676Y10611D01*
X16583Y10593D01*
X16504Y10540D01*
X16465Y10481D01*
X16415D01*
X16376Y10540D01*
X16297Y10593D01*
X16204Y10611D01*
X16111Y10593D01*
X16032Y10540D01*
X15993Y10481D01*
X15943D01*
X15903Y10540D01*
X15824Y10593D01*
X15731Y10611D01*
X15638Y10593D01*
X15559Y10540D01*
X15506Y10461D01*
X15488Y10368D01*
X15506Y10275D01*
X15559Y10196D01*
X15618Y10157D01*
Y10106D01*
X15559Y10067D01*
X15506Y9988D01*
X15488Y9895D01*
X15506Y9802D01*
X15559Y9723D01*
X15618Y9684D01*
Y9634D01*
X15559Y9595D01*
X15506Y9516D01*
X15488Y9423D01*
X15506Y9330D01*
X15559Y9251D01*
X15618Y9212D01*
Y9162D01*
X15559Y9123D01*
X15506Y9044D01*
X15488Y8950D01*
X15506Y8857D01*
X15559Y8778D01*
X15638Y8726D01*
X15731Y8707D01*
X15824Y8726D01*
X15903Y8778D01*
X15943Y8837D01*
X15993D01*
X16032Y8778D01*
X16111Y8726D01*
X16204Y8707D01*
X16297Y8726D01*
X16376Y8778D01*
X16415Y8837D01*
X16465D01*
X16504Y8778D01*
X16583Y8726D01*
X16676Y8707D01*
X16769Y8726D01*
X16848Y8778D01*
X16887Y8837D01*
X16937D01*
X16977Y8778D01*
X17056Y8726D01*
X17149Y8707D01*
X17242Y8726D01*
X17321Y8778D01*
X17374Y8857D01*
X17392Y8950D01*
X17374Y9044D01*
X17321Y9123D01*
X17262Y9162D01*
Y9212D01*
X17321Y9251D01*
X17374Y9330D01*
X17392Y9423D01*
X17374Y9516D01*
X17321Y9595D01*
X17262Y9634D01*
Y9684D01*
X17321Y9723D01*
X17374Y9802D01*
X17392Y9895D01*
X17374Y9988D01*
X17321Y10067D01*
X17262Y10106D01*
Y10157D01*
X17321Y10196D01*
X17374Y10275D01*
X17392Y10368D01*
X17374Y10461D01*
X17321Y10540D01*
X17242Y10593D01*
X17149Y10611D01*
D02*
G37*
%LPD*%
D10*
X23100Y4099D02*
Y4420D01*
X22879Y4641D02*
X23100Y4420D01*
X22879Y4641D02*
Y6613D01*
X22420Y10409D02*
Y11239D01*
X22290Y10279D02*
X22420Y10409D01*
X22850Y10529D02*
Y11239D01*
X22470Y10149D02*
X22850Y10529D01*
X22290Y9149D02*
Y10279D01*
X23310Y10129D02*
X26670D01*
X25600Y14399D02*
Y17159D01*
X25669Y17228D01*
X22050Y7189D02*
X22700Y6539D01*
X21600Y7189D02*
X22050D01*
X22700Y4099D02*
Y6539D01*
X23057Y4782D02*
Y6687D01*
X23236Y5553D02*
Y6761D01*
Y5553D02*
X23510Y5279D01*
X22380Y7112D02*
X22879Y6613D01*
X22780Y6965D02*
X23057Y6687D01*
X23140Y6857D02*
X23236Y6761D01*
X23200Y8559D02*
X26930D01*
X26560Y3909D02*
Y5099D01*
X26440Y3789D02*
X26560Y3909D01*
X25800Y3789D02*
X26440D01*
X25590Y3579D02*
X25800Y3789D01*
X25590Y2429D02*
Y3579D01*
X11787Y7395D02*
X11933Y7249D01*
X27880Y8159D02*
X28580D01*
X27150Y8889D02*
X27880Y8159D01*
X24780Y8889D02*
X27150D01*
X24600Y9069D02*
X24780Y8889D01*
X23310Y9069D02*
X24600D01*
X24983Y9159D02*
X28580D01*
X24784Y9358D02*
X24983Y9159D01*
X26825Y9639D02*
Y9964D01*
X27020Y10159D01*
X28580D01*
X23410Y9639D02*
X26825D01*
X23021Y9358D02*
X24784D01*
X22860Y9519D02*
X23021Y9358D01*
X23080Y8359D02*
X23680D01*
X23980Y8059D01*
Y5269D02*
Y8059D01*
X23520Y4809D02*
X23980Y5269D01*
X20985Y11239D02*
X21660D01*
X21340Y10249D02*
X21660D01*
X21270Y10179D02*
X21340Y10249D01*
X20965Y10179D02*
X21270D01*
X20945Y9449D02*
X20955Y9439D01*
X23140Y6857D02*
Y7189D01*
X23057Y4782D02*
X23500Y4339D01*
Y4099D02*
Y4339D01*
X22380Y7112D02*
Y7669D01*
X22780Y6965D02*
Y7669D01*
X16050Y14164D02*
Y14729D01*
X14640Y14164D02*
Y14499D01*
X25669Y17228D02*
X26040D01*
X18070Y5154D02*
X18070Y5154D01*
X28580Y11159D02*
X28610D01*
X22860Y9519D02*
Y10059D01*
X22470Y9289D02*
X23200Y8559D01*
X22470Y9289D02*
Y10149D01*
X22290Y9149D02*
X23080Y8359D01*
X23310Y9539D02*
X23410Y9639D01*
X21980Y8174D02*
X21980Y8174D01*
X21980Y7669D02*
Y8174D01*
X21660Y9449D02*
X21670D01*
X23530Y6289D02*
Y7769D01*
X19190Y5154D02*
X19190Y5154D01*
X19090Y5154D02*
X19090Y5154D01*
X19490Y14244D02*
Y14859D01*
X18630Y14164D02*
Y14659D01*
X18430Y14859D02*
X18630Y14659D01*
X17820Y14194D02*
Y14859D01*
X11430Y12029D02*
X11533Y12132D01*
X11941D01*
X11420Y11429D02*
X11423Y11432D01*
X11937D01*
X11207Y9046D02*
X11207Y9046D01*
X25690Y2329D02*
X25965D01*
X25590Y2429D02*
X25690Y2329D01*
X28180Y10729D02*
X28610Y11159D01*
X27465Y10729D02*
X28180D01*
X28160Y11419D02*
Y11739D01*
X28580Y12159D01*
X26670Y10129D02*
X26835Y10294D01*
Y11044D01*
X27020Y11229D01*
X27970D01*
X28160Y11419D01*
D14*
X21980Y8174D02*
D03*
Y8804D02*
D03*
D16*
X20965Y10179D02*
D03*
X20335D02*
D03*
X6535Y11009D02*
D03*
X7165D02*
D03*
X6525Y11679D02*
D03*
X7155D02*
D03*
X6505Y12359D02*
D03*
X7135D02*
D03*
X6505Y13049D02*
D03*
X7135D02*
D03*
X26045Y17869D02*
D03*
X26675D02*
D03*
X26585Y1579D02*
D03*
X25955D02*
D03*
X26835Y10729D02*
D03*
X27465D02*
D03*
X27465Y9649D02*
D03*
X26835D02*
D03*
X25965Y2329D02*
D03*
X26595D02*
D03*
X26040Y17192D02*
D03*
X26670D02*
D03*
D17*
X19410Y13574D02*
D03*
Y14164D02*
D03*
X18630Y13574D02*
D03*
Y14164D02*
D03*
X17850Y13574D02*
D03*
Y14164D02*
D03*
X16050Y13574D02*
D03*
Y14164D02*
D03*
X15345Y13574D02*
D03*
Y14164D02*
D03*
X14640Y13574D02*
D03*
Y14164D02*
D03*
X19190Y5744D02*
D03*
Y5154D02*
D03*
X18070Y5744D02*
D03*
Y5154D02*
D03*
X17230Y5744D02*
D03*
Y5154D02*
D03*
X15660Y5744D02*
D03*
Y5154D02*
D03*
X14670Y5744D02*
D03*
Y5154D02*
D03*
X14000Y5744D02*
D03*
Y5154D02*
D03*
D18*
X12525Y7395D02*
D03*
X11935D02*
D03*
X12522Y9046D02*
D03*
X11932D02*
D03*
X12528Y11432D02*
D03*
X11937D02*
D03*
X12531Y12132D02*
D03*
X11941D02*
D03*
X20355Y11869D02*
D03*
X20945D02*
D03*
X20355Y11199D02*
D03*
X20945D02*
D03*
X20355Y9449D02*
D03*
X20945D02*
D03*
X26065Y16509D02*
D03*
X26655D02*
D03*
X25975Y3009D02*
D03*
X26565D02*
D03*
D22*
X20005Y15829D02*
D03*
X20635D02*
D03*
D25*
X21660Y10969D02*
X22040Y10589D01*
X21660Y10969D02*
Y11239D01*
D26*
X22170Y12759D02*
Y13289D01*
X21650D02*
X22170D01*
X21650D02*
Y16359D01*
X12530D02*
X21650D01*
X20635Y15369D02*
Y15829D01*
X18430Y15949D02*
X20005D01*
X15020D02*
X18430D01*
X12580D02*
X15020D01*
X16050Y14729D02*
Y14755D01*
X6440Y14359D02*
X10160D01*
X5150Y9639D02*
X5260Y9749D01*
X5150Y9138D02*
Y9639D01*
X8460Y4029D02*
X12260D01*
X4600Y14359D02*
X5124D01*
X10160D02*
X10550Y14749D01*
X20610Y15804D02*
X20635Y15829D01*
X20005Y14444D02*
X20221Y14228D01*
X14920Y4629D02*
X15261Y4288D01*
X14670Y4629D02*
X14920D01*
X15261Y3770D02*
X16721D01*
X5124Y8769D02*
Y14359D01*
X13840Y14164D02*
X14640D01*
X15261Y3770D02*
X15660Y4169D01*
Y4629D01*
X17230Y5154D02*
X17230Y5154D01*
X17230Y4629D02*
Y5154D01*
X15660D02*
X15660Y5154D01*
X15660Y4629D02*
Y5154D01*
X14670D02*
X14670Y5154D01*
X14670Y4629D02*
Y5154D01*
X26595Y1639D02*
Y2979D01*
X26687Y1547D02*
X28488D01*
Y2965D01*
X26655Y16499D02*
Y17859D01*
X26675Y17821D02*
X28488D01*
Y16403D02*
Y17821D01*
X26675D02*
Y17859D01*
X26655D02*
X26675D01*
X18070Y4099D02*
Y5154D01*
D27*
X21820Y3019D02*
Y6299D01*
X18570Y3019D02*
X21820D01*
D29*
X5990Y13049D02*
X6505D01*
X10280Y2519D02*
X10550Y2249D01*
X20520Y4409D02*
X21090Y4979D01*
X19190Y4409D02*
X20520D01*
X19190D02*
Y5154D01*
Y5154D01*
X6505Y13049D02*
X6549Y13093D01*
X11420Y10565D02*
Y11429D01*
X11207Y9046D02*
X11932D01*
X19190Y4309D02*
Y4409D01*
D30*
X7165Y11009D02*
X7165Y11009D01*
X7780D01*
X7135Y13049D02*
X7135Y13049D01*
X7780D01*
X7135Y12359D02*
X7135Y12359D01*
X7780D01*
X7155Y11679D02*
X7155Y11679D01*
X7780D01*
D88*
X16905Y9222D02*
D03*
X16437D02*
D03*
X15969D02*
D03*
Y9665D02*
D03*
X16437D02*
D03*
X16905D02*
D03*
Y10108D02*
D03*
X16437D02*
D03*
X15969D02*
D03*
X8870Y8419D02*
D03*
X8840Y6849D02*
D03*
X6710Y9119D02*
D03*
X6335D02*
D03*
X5960D02*
D03*
X22420Y11239D02*
D03*
X22850D02*
D03*
X27120Y12729D02*
D03*
X21820Y6299D02*
D03*
X22375Y5084D02*
D03*
X22170Y13289D02*
D03*
X25600Y14399D02*
D03*
X22110Y14859D02*
D03*
X27420Y6789D02*
D03*
X26930Y8559D02*
D03*
X26560Y5099D02*
D03*
X20630Y15369D02*
D03*
X11110Y4489D02*
D03*
X8460Y4019D02*
D03*
X15020Y15949D02*
D03*
X14600Y15489D02*
D03*
X12530Y15949D02*
D03*
X15020Y15009D02*
D03*
X11370Y15928D02*
D03*
Y15279D02*
D03*
X6440Y14359D02*
D03*
X4930Y16809D02*
D03*
Y16489D02*
D03*
X5290Y16809D02*
D03*
X11180Y7309D02*
D03*
X12260Y4019D02*
D03*
X8840Y4879D02*
D03*
Y5239D02*
D03*
Y10239D02*
D03*
X4600Y14359D02*
D03*
X7000Y15928D02*
D03*
X23310Y10129D02*
D03*
Y9649D02*
D03*
Y9069D02*
D03*
X25660Y11329D02*
D03*
X25920Y13919D02*
D03*
X26320D02*
D03*
X26710D02*
D03*
X23960Y11329D02*
D03*
X19190Y4409D02*
D03*
X18570Y3019D02*
D03*
X19490Y14859D02*
D03*
X18430Y15949D02*
D03*
X12530Y16359D02*
D03*
X14630Y4159D02*
D03*
X21840Y11869D02*
D03*
X5124Y14359D02*
D03*
X16050Y14729D02*
D03*
X17820Y14859D02*
D03*
X18430D02*
D03*
X11180Y5929D02*
D03*
X5290Y16489D02*
D03*
X23520Y4809D02*
D03*
X23530Y5279D02*
D03*
X21600Y7189D02*
D03*
X23140D02*
D03*
X22700Y4099D02*
D03*
X23500D02*
D03*
X23100D02*
D03*
X22380Y7669D02*
D03*
X21980D02*
D03*
X21660Y10249D02*
D03*
Y11239D02*
D03*
X22780Y7669D02*
D03*
X23530Y6289D02*
D03*
Y7769D02*
D03*
X17230Y4629D02*
D03*
X15660D02*
D03*
X14670D02*
D03*
X11207Y9046D02*
D03*
X21660Y9449D02*
D03*
X22860Y10059D02*
D03*
X11430Y12029D02*
D03*
X11420Y11429D02*
D03*
X18070Y4099D02*
D03*
X14630Y3129D02*
D03*
X5340Y2759D02*
D03*
Y2439D02*
D03*
X4980D02*
D03*
Y2759D02*
D03*
X8510Y5239D02*
D03*
Y4879D02*
D03*
X28174Y18723D02*
D03*
X27974Y543D02*
D03*
X14767Y6256D02*
D03*
X15751Y6260D02*
D03*
X17326Y6255D02*
D03*
X19097Y6257D02*
D03*
X19846Y6805D02*
D03*
X19838Y9757D02*
D03*
X19839Y10348D02*
D03*
X19843Y11332D02*
D03*
X19845Y13104D02*
D03*
X19097Y13062D02*
D03*
X17720Y13060D02*
D03*
X15948Y13061D02*
D03*
X14767Y13062D02*
D03*
X13036Y11923D02*
D03*
X13037Y11332D02*
D03*
X13036Y8773D02*
D03*
X13045Y6214D02*
D03*
X8150Y7639D02*
D03*
D89*
X24547Y1623D02*
D03*
X2160Y2749D02*
D03*
X5095Y4033D02*
D03*
X5095Y15282D02*
D03*
X5551Y17745D02*
D03*
D90*
X24547Y623D02*
D03*
X23547Y1623D02*
D03*
Y623D02*
D03*
X22547Y1623D02*
D03*
Y623D02*
D03*
X21547Y1623D02*
D03*
Y623D02*
D03*
X20547Y1623D02*
D03*
Y623D02*
D03*
X19547Y1623D02*
D03*
Y623D02*
D03*
X18547Y1623D02*
D03*
Y623D02*
D03*
X17547Y1623D02*
D03*
Y623D02*
D03*
X16547Y1623D02*
D03*
Y623D02*
D03*
X15547Y1623D02*
D03*
Y623D02*
D03*
X14547Y1623D02*
D03*
Y623D02*
D03*
X13547Y1623D02*
D03*
Y623D02*
D03*
X12547Y1623D02*
D03*
Y623D02*
D03*
X11547Y1623D02*
D03*
Y623D02*
D03*
X10547Y1623D02*
D03*
Y623D02*
D03*
X9547Y1623D02*
D03*
Y623D02*
D03*
X8547Y1623D02*
D03*
Y623D02*
D03*
X7547Y1623D02*
D03*
Y623D02*
D03*
X6547Y1623D02*
D03*
Y623D02*
D03*
X5547Y1623D02*
D03*
Y623D02*
D03*
X1160Y2749D02*
D03*
X4095Y4033D02*
D03*
X28580Y8159D02*
D03*
Y9159D02*
D03*
Y10159D02*
D03*
Y11159D02*
D03*
Y12159D02*
D03*
X4095Y15282D02*
D03*
X5551Y18745D02*
D03*
X6551Y17745D02*
D03*
Y18745D02*
D03*
X7551Y17745D02*
D03*
Y18745D02*
D03*
X8551Y17745D02*
D03*
Y18745D02*
D03*
X9551Y17745D02*
D03*
Y18745D02*
D03*
X10551Y17745D02*
D03*
Y18745D02*
D03*
X11551Y17745D02*
D03*
Y18745D02*
D03*
X12551Y17745D02*
D03*
Y18745D02*
D03*
X13551Y17745D02*
D03*
Y18745D02*
D03*
X14551Y17745D02*
D03*
Y18745D02*
D03*
X15551Y17745D02*
D03*
Y18745D02*
D03*
X16551Y17745D02*
D03*
Y18745D02*
D03*
X17551Y17745D02*
D03*
Y18745D02*
D03*
X18551Y17745D02*
D03*
Y18745D02*
D03*
X19551Y17745D02*
D03*
Y18745D02*
D03*
X20551Y17745D02*
D03*
Y18745D02*
D03*
X21551Y17745D02*
D03*
Y18745D02*
D03*
X22551Y17745D02*
D03*
Y18745D02*
D03*
X23551Y17745D02*
D03*
Y18745D02*
D03*
X24551Y17745D02*
D03*
Y18745D02*
D03*
D91*
X28580Y7159D02*
D03*
D92*
X7780Y13049D02*
D03*
Y12359D02*
D03*
Y11679D02*
D03*
Y11009D02*
D03*
D93*
X28488Y17821D02*
D03*
X29059D02*
D03*
X28488Y16403D02*
D03*
X29059D02*
D03*
Y1547D02*
D03*
X28488D02*
D03*
X29059Y2965D02*
D03*
X28488D02*
D03*
D94*
X13000Y4901D02*
D03*
Y3838D02*
D03*
D95*
X3049Y16649D02*
D03*
X4112D02*
D03*
D96*
X24405Y12729D02*
D03*
D97*
X21475Y9154D02*
D03*
D98*
X22030Y10029D02*
D03*
D99*
X21705Y4709D02*
D03*
D100*
X25625Y17854D02*
D03*
D101*
X25160Y15939D02*
D03*
D102*
X25675Y13924D02*
D03*
D103*
X24915Y15399D02*
D03*
D104*
X25910Y13314D02*
D03*
D105*
X23410Y14749D02*
D03*
D106*
X16320Y15944D02*
D03*
D107*
X21655Y14544D02*
D03*
D108*
X21945Y13009D02*
D03*
D109*
X23125Y15059D02*
D03*
D110*
X20850Y15664D02*
D03*
D111*
X7060Y3544D02*
D03*
D112*
X21390Y11039D02*
D03*
D113*
X21445Y11884D02*
D03*
D114*
X21030Y13039D02*
D03*
D115*
X20550Y14529D02*
D03*
D116*
X20025Y15024D02*
D03*
D117*
X15225Y14974D02*
D03*
D118*
X15660Y15484D02*
D03*
D119*
X12980Y5559D02*
D03*
D120*
X15365Y14559D02*
D03*
D121*
X18575Y14484D02*
D03*
D122*
X17695Y15404D02*
D03*
D123*
X19345Y14809D02*
D03*
D124*
X16930D02*
D03*
D125*
X13180D02*
D03*
D126*
X9880Y13724D02*
D03*
D127*
X10175Y12824D02*
D03*
D128*
X8915Y14914D02*
D03*
D129*
X6070Y16414D02*
D03*
D130*
X9125Y15929D02*
D03*
D131*
X13295Y14289D02*
D03*
D132*
X11960Y15514D02*
D03*
D133*
X17970Y16854D02*
D03*
D134*
X7940Y16654D02*
D03*
D135*
X4755Y16414D02*
D03*
D136*
X5860Y13529D02*
D03*
D137*
X10155Y10839D02*
D03*
D138*
X6135Y12039D02*
D03*
D139*
X8850Y10304D02*
D03*
D140*
X11300Y9824D02*
D03*
D141*
X10050Y8489D02*
D03*
D142*
X6965Y9674D02*
D03*
D143*
X10965Y7429D02*
D03*
D144*
X7615Y9064D02*
D03*
D145*
X8500Y6774D02*
D03*
D146*
X9235Y5354D02*
D03*
D147*
X11160Y6279D02*
D03*
D148*
X12020Y5564D02*
D03*
D149*
X10075Y4934D02*
D03*
D150*
X4515Y9549D02*
D03*
D151*
X4880Y4849D02*
D03*
D152*
X6095Y4404D02*
D03*
D153*
X4885Y11694D02*
D03*
D154*
X16440Y9659D02*
D03*
D155*
X16010Y4889D02*
D03*
D156*
X16005Y3939D02*
D03*
D157*
X17735Y4109D02*
D03*
D158*
X18075Y4639D02*
D03*
D159*
X17430Y3614D02*
D03*
D160*
X16040Y3134D02*
D03*
D161*
X18035Y3074D02*
D03*
D162*
X18580Y3544D02*
D03*
D163*
X19885Y4314D02*
D03*
D164*
X13995Y4679D02*
D03*
D165*
X13905Y4159D02*
D03*
D166*
X9455Y3349D02*
D03*
D167*
X13080Y3624D02*
D03*
D168*
X15390Y3674D02*
D03*
D169*
X14005Y3119D02*
D03*
D170*
X21010Y6514D02*
D03*
D171*
X15030Y2404D02*
D03*
D172*
X5215Y2549D02*
D03*
D173*
X10575Y1944D02*
D03*
X19555D02*
D03*
D174*
X25580Y1604D02*
D03*
D175*
X25215Y1999D02*
D03*
D176*
X10571Y17179D02*
D03*
D177*
X19540Y17389D02*
D03*
M02*
