%FSLAX24Y24*%
%MOIN*%
G70*
G01*
G75*
G04 Layer_Color=32896*
%ADD10C,0.0100*%
%ADD11R,0.1693X0.1693*%
%ADD12O,0.0827X0.0118*%
%ADD13O,0.0118X0.0827*%
%ADD14R,0.0512X0.0394*%
%ADD15O,0.0984X0.0276*%
%ADD16R,0.0394X0.0512*%
%ADD17R,0.0551X0.0433*%
%ADD18R,0.0433X0.0551*%
%ADD19R,0.0512X0.0591*%
%ADD20R,0.1299X0.1063*%
%ADD21R,0.0394X0.1063*%
%ADD22R,0.0472X0.0551*%
%ADD23R,0.0551X0.0630*%
%ADD24R,0.0500X0.0300*%
%ADD25C,0.0200*%
%ADD26C,0.0300*%
%ADD27C,0.0250*%
%ADD28C,0.0600*%
%ADD29C,0.0400*%
%ADD30C,0.0150*%
%ADD31C,0.0079*%
%ADD32R,0.7165X0.7146*%
%ADD33R,0.0719X0.1122*%
%ADD34R,0.1516X0.1821*%
%ADD35R,0.1349X0.0305*%
%ADD36R,0.0709X0.0778*%
%ADD37R,0.1830X0.1120*%
%ADD38R,0.2080X0.2124*%
%ADD39R,0.0790X0.5280*%
%ADD40R,0.0810X0.1960*%
%ADD41R,0.1310X0.3313*%
%ADD42R,0.1010X0.0210*%
%ADD43R,0.1490X0.1470*%
%ADD44R,0.0370X0.4820*%
%ADD45R,0.0770X0.0910*%
%ADD46R,0.0920X0.5210*%
%ADD47R,0.1260X0.1830*%
%ADD48R,0.1490X0.6150*%
%ADD49R,0.3870X0.4260*%
%ADD50R,0.1270X0.5300*%
%ADD51R,0.1950X0.1110*%
%ADD52R,0.2270X0.0510*%
%ADD53R,0.0780X0.2500*%
%ADD54R,0.1520X0.0820*%
%ADD55R,0.1890X0.1040*%
%ADD56R,0.3710X0.3070*%
%ADD57R,0.1740X0.1110*%
%ADD58R,0.1460X0.3920*%
%ADD59R,0.2270X0.2971*%
%ADD60R,0.0820X0.6210*%
%ADD61R,0.0810X0.5750*%
%ADD62R,0.1610X0.3230*%
%ADD63R,0.0810X0.1040*%
%ADD64R,0.0470X0.5180*%
%ADD65R,0.1430X0.1840*%
%ADD66R,0.1550X0.2090*%
%ADD67R,0.1370X0.4960*%
%ADD68R,0.1512X0.4310*%
%ADD69R,0.4902X0.1473*%
%ADD70R,0.0710X0.2250*%
%ADD71R,0.4912X0.1971*%
%ADD72R,0.1112X1.9075*%
%ADD73R,0.1452X0.7011*%
%ADD74R,0.0640X0.1540*%
%ADD75R,0.1130X0.1610*%
%ADD76R,0.3340X0.1210*%
%ADD77R,0.1110X0.1820*%
%ADD78R,0.1390X0.1590*%
%ADD79R,0.3241X0.0974*%
%ADD80R,0.1470X0.0847*%
%ADD81R,0.1260X0.9560*%
%ADD82R,0.1100X0.3420*%
%ADD83R,0.1180X0.0590*%
%ADD84R,0.0830X0.3230*%
%ADD85R,0.1820X0.0900*%
%ADD86R,0.0850X0.1900*%
%ADD87R,0.1770X0.0950*%
%ADD88C,0.0320*%
%ADD89R,0.0591X0.0591*%
%ADD90C,0.0591*%
%ADD91R,0.0591X0.0591*%
%ADD92C,0.0500*%
%ADD93R,0.0413X0.0551*%
%ADD94R,0.0669X0.0433*%
%ADD95R,0.0433X0.0669*%
%ADD96R,0.5810X0.0400*%
%ADD97R,0.1370X0.1190*%
%ADD98R,0.0260X0.2940*%
%ADD99R,0.0610X0.3620*%
%ADD100R,0.1330X0.0650*%
%ADD101R,0.0400X0.4480*%
%ADD102R,0.2410X0.0450*%
%ADD103R,0.0890X0.3400*%
%ADD104R,0.6880X0.0610*%
%ADD105R,0.1880X0.3480*%
%ADD106R,0.7920X0.0350*%
%ADD107R,0.0310X0.3890*%
%ADD108R,0.0890X0.0960*%
%ADD109R,0.2450X0.2860*%
%ADD110R,0.0960X0.0910*%
%ADD111R,0.2300X0.1250*%
%ADD112R,0.1320X0.0920*%
%ADD113R,0.1430X0.0570*%
%ADD114R,0.0600X0.2880*%
%ADD115R,0.1560X0.1200*%
%ADD116R,0.0510X0.2190*%
%ADD117R,0.0810X0.0450*%
%ADD118R,0.8040X0.0410*%
%ADD119R,0.1080X0.2300*%
%ADD120R,0.0530X0.1260*%
%ADD121R,0.0690X0.1090*%
%ADD122R,0.3970X0.0570*%
%ADD123R,0.0670X0.1760*%
%ADD124R,0.2440X0.1760*%
%ADD125R,0.3080X0.1760*%
%ADD126R,0.3360X0.3810*%
%ADD127R,0.3950X0.2010*%
%ADD128R,0.5290X0.1430*%
%ADD129R,0.1080X0.1370*%
%ADD130R,0.4870X0.0400*%
%ADD131R,0.3310X0.0720*%
%ADD132R,0.0640X0.3170*%
%ADD133R,1.4780X0.0490*%
%ADD134R,0.8680X0.0890*%
%ADD135R,0.2310X0.1210*%
%ADD136R,0.0660X0.7140*%
%ADD137R,0.3910X0.1760*%
%ADD138R,0.1190X0.4160*%
%ADD139R,0.6620X0.0690*%
%ADD140R,0.1720X0.3830*%
%ADD141R,0.0560X0.2760*%
%ADD142R,0.6730X0.0390*%
%ADD143R,0.2390X0.0640*%
%ADD144R,0.4150X0.0630*%
%ADD145R,0.5920X0.0470*%
%ADD146R,0.3050X0.2190*%
%ADD147R,0.0600X0.1180*%
%ADD148R,0.0840X0.2610*%
%ADD149R,0.4730X0.1350*%
%ADD150R,0.1830X1.0120*%
%ADD151R,0.2560X0.0720*%
%ADD152R,0.2990X0.2490*%
%ADD153R,0.1090X0.5830*%
%ADD154R,0.8340X0.8340*%
%ADD155R,0.3240X0.0960*%
%ADD156R,0.2210X0.1000*%
%ADD157R,0.1070X0.0400*%
%ADD158R,0.0610X0.1460*%
%ADD159R,0.0460X0.1390*%
%ADD160R,0.3240X0.0430*%
%ADD161R,0.0570X0.1510*%
%ADD162R,0.1660X0.0570*%
%ADD163R,0.2810X0.2110*%
%ADD164R,0.0630X0.1380*%
%ADD165R,0.1810X0.0340*%
%ADD166R,0.7090X0.0860*%
%ADD167R,0.1020X0.1410*%
%ADD168R,0.3440X0.0470*%
%ADD169R,0.0670X0.1580*%
%ADD170R,0.0560X0.6510*%
%ADD171R,2.0860X0.0750*%
%ADD172R,0.1230X0.1040*%
%ADD173R,0.1030X0.1670*%
%ADD174R,0.1220X0.0770*%
%ADD175R,0.0490X0.1560*%
%ADD176R,0.1062X0.1940*%
%ADD177R,0.0940X0.1560*%
%ADD178C,0.0098*%
%ADD179C,0.0236*%
%ADD180C,0.0080*%
%ADD181R,0.1773X0.1773*%
%ADD182O,0.0907X0.0198*%
%ADD183O,0.0198X0.0907*%
%ADD184R,0.0592X0.0474*%
%ADD185O,0.1064X0.0356*%
%ADD186R,0.0474X0.0592*%
%ADD187R,0.0631X0.0513*%
%ADD188R,0.0513X0.0631*%
%ADD189R,0.0592X0.0671*%
%ADD190R,0.1379X0.1143*%
%ADD191R,0.0474X0.1143*%
%ADD192R,0.0552X0.0631*%
%ADD193R,0.0631X0.0710*%
%ADD194R,0.0580X0.0380*%
%ADD195C,0.0400*%
%ADD196R,0.0671X0.0671*%
%ADD197C,0.0671*%
%ADD198R,0.0671X0.0671*%
%ADD199C,0.0580*%
%ADD200R,0.0493X0.0631*%
%ADD201R,0.0749X0.0513*%
%ADD202R,0.0513X0.0749*%
%ADD203C,0.0050*%
D10*
X20260Y15289D02*
Y14989D01*
X20060D01*
X19960Y15239D02*
X19910Y15289D01*
X19810D01*
X19760Y15239D01*
Y15189D01*
X19810Y15139D01*
X19860D01*
X19810D01*
X19760Y15089D01*
Y15039D01*
X19810Y14989D01*
X19910D01*
X19960Y15039D01*
X28730Y999D02*
X28780Y1049D01*
X28880D01*
X28930Y999D01*
Y949D01*
X28880Y899D01*
X28780D01*
X28730Y849D01*
Y799D01*
X28780Y749D01*
X28880D01*
X28930Y799D01*
X28630Y749D02*
X28530D01*
X28580D01*
Y1049D01*
X28630Y999D01*
X27780Y1429D02*
Y1729D01*
X27630D01*
X27580Y1679D01*
Y1579D01*
X27630Y1529D01*
X27780D01*
X27680D02*
X27580Y1429D01*
X27280D02*
X27480D01*
X27280Y1629D01*
Y1679D01*
X27330Y1729D01*
X27430D01*
X27480Y1679D01*
X27180D02*
X27130Y1729D01*
X27030D01*
X26980Y1679D01*
Y1479D01*
X27030Y1429D01*
X27130D01*
X27180Y1479D01*
Y1679D01*
X13800Y4469D02*
X13850Y4519D01*
X13950D01*
X14000Y4469D01*
Y4269D01*
X13950Y4219D01*
X13850D01*
X13800Y4269D01*
X13700Y4219D02*
X13600D01*
X13650D01*
Y4519D01*
X13700Y4469D01*
X15430Y12659D02*
X15480Y12609D01*
Y12509D01*
X15430Y12459D01*
X15230D01*
X15180Y12509D01*
Y12609D01*
X15230Y12659D01*
X15180Y12759D02*
Y12859D01*
Y12809D01*
X15480D01*
X15430Y12759D01*
Y13009D02*
X15480Y13059D01*
Y13159D01*
X15430Y13209D01*
X15230D01*
X15180Y13159D01*
Y13059D01*
X15230Y13009D01*
X15430D01*
X18720Y12699D02*
X18770Y12649D01*
Y12549D01*
X18720Y12499D01*
X18520D01*
X18470Y12549D01*
Y12649D01*
X18520Y12699D01*
X18470Y12799D02*
Y12899D01*
Y12849D01*
X18770D01*
X18720Y12799D01*
X18470Y13049D02*
Y13149D01*
Y13099D01*
X18770D01*
X18720Y13049D01*
X20760Y13149D02*
X20810Y13199D01*
X20910D01*
X20960Y13149D01*
Y12949D01*
X20910Y12899D01*
X20810D01*
X20760Y12949D01*
X20660Y12899D02*
X20560D01*
X20610D01*
Y13199D01*
X20660Y13149D01*
X20210Y12899D02*
X20410D01*
X20210Y13099D01*
Y13149D01*
X20260Y13199D01*
X20360D01*
X20410Y13149D01*
X18190Y6369D02*
X18240Y6319D01*
Y6219D01*
X18190Y6169D01*
X17990D01*
X17940Y6219D01*
Y6319D01*
X17990Y6369D01*
X17940Y6469D02*
Y6569D01*
Y6519D01*
X18240D01*
X18190Y6469D01*
X17940Y6869D02*
X18240D01*
X18090Y6719D01*
Y6919D01*
X13850Y6359D02*
X13900Y6309D01*
Y6209D01*
X13850Y6159D01*
X13650D01*
X13600Y6209D01*
Y6309D01*
X13650Y6359D01*
X13600Y6459D02*
Y6559D01*
Y6509D01*
X13900D01*
X13850Y6459D01*
X13900Y6909D02*
Y6709D01*
X13750D01*
X13800Y6809D01*
Y6859D01*
X13750Y6909D01*
X13650D01*
X13600Y6859D01*
Y6759D01*
X13650Y6709D01*
X12430Y8109D02*
X12480Y8159D01*
X12580D01*
X12630Y8109D01*
Y7909D01*
X12580Y7859D01*
X12480D01*
X12430Y7909D01*
X12330Y7859D02*
X12230D01*
X12280D01*
Y8159D01*
X12330Y8109D01*
X11880Y8159D02*
X11980Y8109D01*
X12080Y8009D01*
Y7909D01*
X12030Y7859D01*
X11930D01*
X11880Y7909D01*
Y7959D01*
X11930Y8009D01*
X12080D01*
X12410Y12879D02*
X12460Y12929D01*
X12560D01*
X12610Y12879D01*
Y12679D01*
X12560Y12629D01*
X12460D01*
X12410Y12679D01*
X12310Y12629D02*
X12210D01*
X12260D01*
Y12929D01*
X12310Y12879D01*
X12060Y12929D02*
X11860D01*
Y12879D01*
X12060Y12679D01*
Y12629D01*
X3770Y17359D02*
X3820Y17409D01*
X3920D01*
X3970Y17359D01*
Y17159D01*
X3920Y17109D01*
X3820D01*
X3770Y17159D01*
X3670Y17109D02*
X3570D01*
X3620D01*
Y17409D01*
X3670Y17359D01*
X3420D02*
X3370Y17409D01*
X3270D01*
X3220Y17359D01*
Y17309D01*
X3270Y17259D01*
X3220Y17209D01*
Y17159D01*
X3270Y17109D01*
X3370D01*
X3420Y17159D01*
Y17209D01*
X3370Y17259D01*
X3420Y17309D01*
Y17359D01*
X3370Y17259D02*
X3270D01*
X14090Y13719D02*
X14140Y13669D01*
Y13569D01*
X14090Y13519D01*
X13890D01*
X13840Y13569D01*
Y13669D01*
X13890Y13719D01*
X13840Y13819D02*
Y13919D01*
Y13869D01*
X14140D01*
X14090Y13819D01*
X13890Y14069D02*
X13840Y14119D01*
Y14219D01*
X13890Y14269D01*
X14090D01*
X14140Y14219D01*
Y14119D01*
X14090Y14069D01*
X14040D01*
X13990Y14119D01*
Y14269D01*
X16740Y13769D02*
X16790Y13719D01*
Y13619D01*
X16740Y13569D01*
X16540D01*
X16490Y13619D01*
Y13719D01*
X16540Y13769D01*
X16490Y14069D02*
Y13869D01*
X16690Y14069D01*
X16740D01*
X16790Y14019D01*
Y13919D01*
X16740Y13869D01*
Y14169D02*
X16790Y14219D01*
Y14319D01*
X16740Y14369D01*
X16540D01*
X16490Y14319D01*
Y14219D01*
X16540Y14169D01*
X16740D01*
X17430Y13779D02*
X17480Y13729D01*
Y13629D01*
X17430Y13579D01*
X17230D01*
X17180Y13629D01*
Y13729D01*
X17230Y13779D01*
X17180Y14079D02*
Y13879D01*
X17380Y14079D01*
X17430D01*
X17480Y14029D01*
Y13929D01*
X17430Y13879D01*
X17180Y14179D02*
Y14279D01*
Y14229D01*
X17480D01*
X17430Y14179D01*
X20080Y13679D02*
X20130Y13629D01*
Y13529D01*
X20080Y13479D01*
X19880D01*
X19830Y13529D01*
Y13629D01*
X19880Y13679D01*
X19830Y13979D02*
Y13779D01*
X20030Y13979D01*
X20080D01*
X20130Y13929D01*
Y13829D01*
X20080Y13779D01*
X19830Y14279D02*
Y14079D01*
X20030Y14279D01*
X20080D01*
X20130Y14229D01*
Y14129D01*
X20080Y14079D01*
X20800Y12619D02*
X20850Y12669D01*
X20950D01*
X21000Y12619D01*
Y12419D01*
X20950Y12369D01*
X20850D01*
X20800Y12419D01*
X20500Y12369D02*
X20700D01*
X20500Y12569D01*
Y12619D01*
X20550Y12669D01*
X20650D01*
X20700Y12619D01*
X20400D02*
X20350Y12669D01*
X20250D01*
X20200Y12619D01*
Y12569D01*
X20250Y12519D01*
X20300D01*
X20250D01*
X20200Y12469D01*
Y12419D01*
X20250Y12369D01*
X20350D01*
X20400Y12419D01*
X20630Y8499D02*
X20680Y8549D01*
X20780D01*
X20830Y8499D01*
Y8299D01*
X20780Y8249D01*
X20680D01*
X20630Y8299D01*
X20330Y8249D02*
X20530D01*
X20330Y8449D01*
Y8499D01*
X20380Y8549D01*
X20480D01*
X20530Y8499D01*
X20080Y8249D02*
Y8549D01*
X20230Y8399D01*
X20030D01*
X19860Y5229D02*
X19910Y5179D01*
Y5079D01*
X19860Y5029D01*
X19660D01*
X19610Y5079D01*
Y5179D01*
X19660Y5229D01*
X19610Y5529D02*
Y5329D01*
X19810Y5529D01*
X19860D01*
X19910Y5479D01*
Y5379D01*
X19860Y5329D01*
X19910Y5829D02*
Y5629D01*
X19760D01*
X19810Y5729D01*
Y5779D01*
X19760Y5829D01*
X19660D01*
X19610Y5779D01*
Y5679D01*
X19660Y5629D01*
X16980Y6309D02*
X17030Y6259D01*
Y6159D01*
X16980Y6109D01*
X16780D01*
X16730Y6159D01*
Y6259D01*
X16780Y6309D01*
X16730Y6609D02*
Y6409D01*
X16930Y6609D01*
X16980D01*
X17030Y6559D01*
Y6459D01*
X16980Y6409D01*
X17030Y6909D02*
X16980Y6809D01*
X16880Y6709D01*
X16780D01*
X16730Y6759D01*
Y6859D01*
X16780Y6909D01*
X16830D01*
X16880Y6859D01*
Y6709D01*
X15380Y6389D02*
X15430Y6339D01*
Y6239D01*
X15380Y6189D01*
X15180D01*
X15130Y6239D01*
Y6339D01*
X15180Y6389D01*
X15130Y6689D02*
Y6489D01*
X15330Y6689D01*
X15380D01*
X15430Y6639D01*
Y6539D01*
X15380Y6489D01*
X15430Y6789D02*
Y6989D01*
X15380D01*
X15180Y6789D01*
X15130D01*
X14410Y6359D02*
X14460Y6309D01*
Y6209D01*
X14410Y6159D01*
X14210D01*
X14160Y6209D01*
Y6309D01*
X14210Y6359D01*
X14160Y6659D02*
Y6459D01*
X14360Y6659D01*
X14410D01*
X14460Y6609D01*
Y6509D01*
X14410Y6459D01*
Y6759D02*
X14460Y6809D01*
Y6909D01*
X14410Y6959D01*
X14360D01*
X14310Y6909D01*
X14260Y6959D01*
X14210D01*
X14160Y6909D01*
Y6809D01*
X14210Y6759D01*
X14260D01*
X14310Y6809D01*
X14360Y6759D01*
X14410D01*
X14310Y6809D02*
Y6909D01*
X12440Y9789D02*
X12490Y9839D01*
X12590D01*
X12640Y9789D01*
Y9589D01*
X12590Y9539D01*
X12490D01*
X12440Y9589D01*
X12140Y9539D02*
X12340D01*
X12140Y9739D01*
Y9789D01*
X12190Y9839D01*
X12290D01*
X12340Y9789D01*
X12040Y9589D02*
X11990Y9539D01*
X11890D01*
X11840Y9589D01*
Y9789D01*
X11890Y9839D01*
X11990D01*
X12040Y9789D01*
Y9739D01*
X11990Y9689D01*
X11840D01*
X12430Y10939D02*
X12480Y10989D01*
X12580D01*
X12630Y10939D01*
Y10739D01*
X12580Y10689D01*
X12480D01*
X12430Y10739D01*
X12330Y10939D02*
X12280Y10989D01*
X12180D01*
X12130Y10939D01*
Y10889D01*
X12180Y10839D01*
X12230D01*
X12180D01*
X12130Y10789D01*
Y10739D01*
X12180Y10689D01*
X12280D01*
X12330Y10739D01*
X12030Y10939D02*
X11980Y10989D01*
X11880D01*
X11830Y10939D01*
Y10739D01*
X11880Y10689D01*
X11980D01*
X12030Y10739D01*
Y10939D01*
X22490Y8269D02*
X22790D01*
Y8419D01*
X22740Y8469D01*
X22640D01*
X22590Y8419D01*
Y8269D01*
Y8369D02*
X22490Y8469D01*
X22790Y8769D02*
X22740Y8669D01*
X22640Y8569D01*
X22540D01*
X22490Y8619D01*
Y8719D01*
X22540Y8769D01*
X22590D01*
X22640Y8719D01*
Y8569D01*
X20820Y8739D02*
Y9039D01*
X20670D01*
X20620Y8989D01*
Y8889D01*
X20670Y8839D01*
X20820D01*
X20720D02*
X20620Y8739D01*
X20520Y8989D02*
X20470Y9039D01*
X20370D01*
X20320Y8989D01*
Y8939D01*
X20370Y8889D01*
X20320Y8839D01*
Y8789D01*
X20370Y8739D01*
X20470D01*
X20520Y8789D01*
Y8839D01*
X20470Y8889D01*
X20520Y8939D01*
Y8989D01*
X20470Y8889D02*
X20370D01*
X27340Y11209D02*
Y11509D01*
X27190D01*
X27140Y11459D01*
Y11359D01*
X27190Y11309D01*
X27340D01*
X27240D02*
X27140Y11209D01*
X27040Y11259D02*
X26990Y11209D01*
X26890D01*
X26840Y11259D01*
Y11459D01*
X26890Y11509D01*
X26990D01*
X27040Y11459D01*
Y11409D01*
X26990Y11359D01*
X26840D01*
X27390Y8909D02*
Y9209D01*
X27240D01*
X27190Y9159D01*
Y9059D01*
X27240Y9009D01*
X27390D01*
X27290D02*
X27190Y8909D01*
X26890Y9209D02*
X27090D01*
Y9059D01*
X26990Y9109D01*
X26940D01*
X26890Y9059D01*
Y8959D01*
X26940Y8909D01*
X27040D01*
X27090Y8959D01*
X27250Y3109D02*
X27300Y3159D01*
X27400D01*
X27450Y3109D01*
Y2909D01*
X27400Y2859D01*
X27300D01*
X27250Y2909D01*
X26950Y3159D02*
X27150D01*
Y3009D01*
X27050Y3059D01*
X27000D01*
X26950Y3009D01*
Y2909D01*
X27000Y2859D01*
X27100D01*
X27150Y2909D01*
X27350Y16609D02*
X27400Y16659D01*
X27500D01*
X27550Y16609D01*
Y16409D01*
X27500Y16359D01*
X27400D01*
X27350Y16409D01*
X27050Y16659D02*
X27150Y16609D01*
X27250Y16509D01*
Y16409D01*
X27200Y16359D01*
X27100D01*
X27050Y16409D01*
Y16459D01*
X27100Y16509D01*
X27250D01*
X27740Y17749D02*
Y18049D01*
X27590D01*
X27540Y17999D01*
Y17899D01*
X27590Y17849D01*
X27740D01*
X27640D02*
X27540Y17749D01*
X27240D02*
X27440D01*
X27240Y17949D01*
Y17999D01*
X27290Y18049D01*
X27390D01*
X27440Y17999D01*
X27140Y17749D02*
X27040D01*
X27090D01*
Y18049D01*
X27140Y17999D01*
X28830Y18569D02*
X28880Y18619D01*
X28980D01*
X29030Y18569D01*
Y18519D01*
X28980Y18469D01*
X28880D01*
X28830Y18419D01*
Y18369D01*
X28880Y18319D01*
X28980D01*
X29030Y18369D01*
X28530Y18319D02*
X28730D01*
X28530Y18519D01*
Y18569D01*
X28580Y18619D01*
X28680D01*
X28730Y18569D01*
X27720Y2169D02*
Y2469D01*
X27570D01*
X27520Y2419D01*
Y2319D01*
X27570Y2269D01*
X27720D01*
X27620D02*
X27520Y2169D01*
X27220D02*
X27420D01*
X27220Y2369D01*
Y2419D01*
X27270Y2469D01*
X27370D01*
X27420Y2419D01*
X26970Y2169D02*
Y2469D01*
X27120Y2319D01*
X26920D01*
X27820Y16989D02*
Y17289D01*
X27670D01*
X27620Y17239D01*
Y17139D01*
X27670Y17089D01*
X27820D01*
X27720D02*
X27620Y16989D01*
X27320D02*
X27520D01*
X27320Y17189D01*
Y17239D01*
X27370Y17289D01*
X27470D01*
X27520Y17239D01*
X27020Y17289D02*
X27220D01*
Y17139D01*
X27120Y17189D01*
X27070D01*
X27020Y17139D01*
Y17039D01*
X27070Y16989D01*
X27170D01*
X27220Y17039D01*
X6110Y10879D02*
Y11179D01*
X5960D01*
X5910Y11129D01*
Y11029D01*
X5960Y10979D01*
X6110D01*
X6010D02*
X5910Y10879D01*
X5610D02*
X5810D01*
X5610Y11079D01*
Y11129D01*
X5660Y11179D01*
X5760D01*
X5810Y11129D01*
X5510D02*
X5460Y11179D01*
X5360D01*
X5310Y11129D01*
Y11079D01*
X5360Y11029D01*
X5310Y10979D01*
Y10929D01*
X5360Y10879D01*
X5460D01*
X5510Y10929D01*
Y10979D01*
X5460Y11029D01*
X5510Y11079D01*
Y11129D01*
X5460Y11029D02*
X5360D01*
X6120Y11539D02*
Y11839D01*
X5970D01*
X5920Y11789D01*
Y11689D01*
X5970Y11639D01*
X6120D01*
X6020D02*
X5920Y11539D01*
X5620D02*
X5820D01*
X5620Y11739D01*
Y11789D01*
X5670Y11839D01*
X5770D01*
X5820Y11789D01*
X5520Y11589D02*
X5470Y11539D01*
X5370D01*
X5320Y11589D01*
Y11789D01*
X5370Y11839D01*
X5470D01*
X5520Y11789D01*
Y11739D01*
X5470Y11689D01*
X5320D01*
X6140Y12199D02*
Y12499D01*
X5990D01*
X5940Y12449D01*
Y12349D01*
X5990Y12299D01*
X6140D01*
X6040D02*
X5940Y12199D01*
X5840Y12449D02*
X5790Y12499D01*
X5690D01*
X5640Y12449D01*
Y12399D01*
X5690Y12349D01*
X5740D01*
X5690D01*
X5640Y12299D01*
Y12249D01*
X5690Y12199D01*
X5790D01*
X5840Y12249D01*
X5540Y12449D02*
X5490Y12499D01*
X5390D01*
X5340Y12449D01*
Y12249D01*
X5390Y12199D01*
X5490D01*
X5540Y12249D01*
Y12449D01*
X6110Y12909D02*
Y13209D01*
X5960D01*
X5910Y13159D01*
Y13059D01*
X5960Y13009D01*
X6110D01*
X6010D02*
X5910Y12909D01*
X5810Y13159D02*
X5760Y13209D01*
X5660D01*
X5610Y13159D01*
Y13109D01*
X5660Y13059D01*
X5710D01*
X5660D01*
X5610Y13009D01*
Y12959D01*
X5660Y12909D01*
X5760D01*
X5810Y12959D01*
X5510Y12909D02*
X5410D01*
X5460D01*
Y13209D01*
X5510Y13159D01*
X2360Y10449D02*
Y10182D01*
X1960D01*
Y10449D01*
X2160Y10182D02*
Y10315D01*
X1960Y10582D02*
X2227D01*
Y10782D01*
X2160Y10849D01*
X1960D01*
X1827Y11115D02*
Y11182D01*
X1893Y11248D01*
X2227D01*
Y11048D01*
X2160Y10982D01*
X2027D01*
X1960Y11048D01*
Y11248D01*
Y11382D02*
Y11515D01*
Y11448D01*
X2227D01*
Y11382D01*
X1960Y11715D02*
X2227D01*
Y11915D01*
X2160Y11981D01*
X1960D01*
Y12315D02*
Y12181D01*
X2027Y12115D01*
X2160D01*
X2227Y12181D01*
Y12315D01*
X2160Y12381D01*
X2093D01*
Y12115D01*
X1960Y12715D02*
Y12581D01*
X2027Y12515D01*
X2160D01*
X2227Y12581D01*
Y12715D01*
X2160Y12781D01*
X2093D01*
Y12515D01*
X2227Y12915D02*
X1960D01*
X2093D01*
X2160Y12981D01*
X2227Y13048D01*
Y13114D01*
X1652Y10429D02*
Y10295D01*
Y10362D01*
X1319D01*
X1252Y10295D01*
Y10229D01*
X1319Y10162D01*
X1252Y10629D02*
Y10762D01*
X1319Y10829D01*
X1452D01*
X1519Y10762D01*
Y10629D01*
X1452Y10562D01*
X1319D01*
X1252Y10629D01*
Y10962D02*
Y11162D01*
X1319Y11228D01*
X1385Y11162D01*
Y11028D01*
X1452Y10962D01*
X1519Y11028D01*
Y11228D01*
X1252Y11562D02*
Y11428D01*
X1319Y11362D01*
X1452D01*
X1519Y11428D01*
Y11562D01*
X1452Y11628D01*
X1385D01*
Y11362D01*
X1252Y12161D02*
X1652D01*
Y12361D01*
X1585Y12428D01*
X1452D01*
X1385Y12361D01*
Y12161D01*
X1252Y12561D02*
Y12695D01*
Y12628D01*
X1519D01*
Y12561D01*
X1252Y12895D02*
X1519D01*
Y13094D01*
X1452Y13161D01*
X1252D01*
Y13294D02*
Y13428D01*
Y13361D01*
X1519D01*
Y13294D01*
X1252Y13628D02*
Y13761D01*
Y13694D01*
X1652D01*
Y13628D01*
X1252Y13961D02*
Y14094D01*
Y14027D01*
X1652D01*
Y13961D01*
X1519Y14361D02*
Y14494D01*
X1452Y14561D01*
X1252D01*
Y14361D01*
X1319Y14294D01*
X1385Y14361D01*
Y14561D01*
D31*
X20650Y9963D02*
Y10396D01*
X6850Y10793D02*
Y11226D01*
X6840Y11463D02*
Y11896D01*
X6820Y12143D02*
Y12576D01*
Y12833D02*
Y13266D01*
X26360Y17653D02*
Y18086D01*
X26270Y1363D02*
Y1796D01*
X27150Y10513D02*
Y10946D01*
X27150Y9433D02*
Y9866D01*
X26280Y2113D02*
Y2546D01*
X26355Y16976D02*
Y17409D01*
X29484Y17423D02*
X29764D01*
Y16762D02*
Y17423D01*
X29484Y16762D02*
X29764D01*
X28039Y16384D02*
Y17832D01*
X29484Y16384D02*
Y17832D01*
X28039Y16384D02*
X28193D01*
X29346D02*
X29484D01*
X29339Y17832D02*
X29484D01*
X28039D02*
X28201D01*
X28039Y2977D02*
X28201D01*
X29339D02*
X29484D01*
X29346Y1528D02*
X29484D01*
X28039D02*
X28193D01*
X29484D02*
Y2977D01*
X28039Y1528D02*
Y2977D01*
X29484Y1906D02*
X29764D01*
Y2567D01*
X29484D02*
X29764D01*
X21763Y8489D02*
X22197D01*
X12705Y4212D02*
Y4527D01*
X13295Y4212D02*
Y4527D01*
X3423Y16354D02*
X3737D01*
X3423Y16944D02*
X3737D01*
D203*
X2343Y8129D02*
G03*
X1673Y8836I-688J19D01*
G01*
X1627Y8553D02*
G03*
X1249Y8156I9J-387D01*
G01*
X2019Y8176D02*
G03*
X1627Y8553I-384J-7D01*
G01*
X1673Y8836D02*
G03*
X963Y8367I-39J-712D01*
G01*
X2346Y7751D02*
X2455D01*
X2346Y7991D02*
X2455D01*
Y8388D01*
X2343Y7642D02*
Y7707D01*
X922Y7121D02*
X1140Y7426D01*
X922Y7121D02*
Y7617D01*
Y7711D01*
Y8163D01*
X928Y6118D02*
X1205Y6371D01*
X928Y6118D02*
Y6602D01*
X1402Y6846D01*
X1598Y7398D02*
X2037Y7174D01*
X1598Y6946D02*
Y7398D01*
X1212Y7991D02*
X2022D01*
X1218Y7751D02*
X2022D01*
X922Y7308D02*
X1218Y7751D01*
X922Y7308D02*
Y7789D01*
Y7991D01*
Y8422D01*
X1212Y7991D01*
X2019Y7754D02*
Y8176D01*
X1619Y7750D02*
X2770Y7174D01*
X1140Y7426D02*
X1398D01*
X1598Y6946D02*
X2037Y7174D01*
X1402Y6846D02*
Y7498D01*
X1149Y7648D02*
X1402Y7498D01*
X2343Y8129D02*
X2343Y7387D01*
X2692Y7213D02*
Y8685D01*
X2455Y7332D02*
Y7751D01*
X1249Y7991D02*
Y8156D01*
X1205Y6371D02*
X2770Y7174D01*
X2186Y8685D02*
X2692D01*
X2186D02*
X2455Y8416D01*
Y8388D02*
Y8416D01*
M02*
