%FSLAX24Y24*%
%MOIN*%
G70*
G01*
G75*
G04 Layer_Color=8388736*
%ADD10C,0.0100*%
%ADD11R,0.0512X0.0394*%
%ADD12O,0.0984X0.0276*%
%ADD13R,0.0394X0.0512*%
%ADD14R,0.0551X0.0433*%
%ADD15R,0.0433X0.0551*%
%ADD16R,0.0512X0.0591*%
%ADD17R,0.1299X0.1063*%
%ADD18R,0.0394X0.1063*%
%ADD19R,0.0472X0.0551*%
%ADD20R,0.0551X0.0630*%
%ADD21R,0.0500X0.0300*%
%ADD22O,0.0118X0.0827*%
%ADD23O,0.0827X0.0118*%
%ADD24R,0.1693X0.1693*%
%ADD25C,0.0200*%
%ADD26C,0.0300*%
%ADD27C,0.0250*%
%ADD28C,0.0600*%
%ADD29C,0.0400*%
%ADD30C,0.0150*%
%ADD31C,0.0079*%
%ADD32R,0.1830X0.1120*%
%ADD33R,0.2080X0.2124*%
%ADD34R,0.0790X0.5280*%
%ADD35R,0.0810X0.1960*%
%ADD36R,0.1310X0.3350*%
%ADD37R,0.1010X0.0210*%
%ADD38R,0.1490X0.1470*%
%ADD39R,0.0370X0.4820*%
%ADD40R,0.0770X0.0910*%
%ADD41R,0.0920X0.5210*%
%ADD42R,0.1260X0.1830*%
%ADD43R,0.1490X0.6150*%
%ADD44R,0.3870X0.4260*%
%ADD45R,0.1270X0.5300*%
%ADD46R,0.1950X0.1110*%
%ADD47R,0.2270X0.0510*%
%ADD48R,0.0780X0.2500*%
%ADD49R,0.1520X0.0820*%
%ADD50R,0.1890X0.1040*%
%ADD51R,0.3710X0.3070*%
%ADD52R,0.1740X0.1110*%
%ADD53R,0.1460X0.3920*%
%ADD54R,0.2270X0.3010*%
%ADD55R,0.0820X0.6210*%
%ADD56R,0.0810X0.5750*%
%ADD57R,0.1610X0.3230*%
%ADD58R,0.0810X0.1040*%
%ADD59R,0.0470X0.5180*%
%ADD60R,0.1430X0.1840*%
%ADD61R,0.1550X0.2090*%
%ADD62R,0.1370X0.4960*%
%ADD63R,0.0720X0.4310*%
%ADD64R,0.4940X0.1510*%
%ADD65R,0.0710X0.2250*%
%ADD66R,0.4950X0.2010*%
%ADD67R,0.1150X1.2100*%
%ADD68R,0.1490X0.7050*%
%ADD69R,0.0640X0.1540*%
%ADD70R,0.1130X0.1610*%
%ADD71R,0.3340X0.1210*%
%ADD72R,0.1110X0.1490*%
%ADD73R,0.1390X0.1590*%
%ADD74R,0.3241X0.0974*%
%ADD75R,0.1470X0.0847*%
%ADD76R,0.1260X0.9560*%
%ADD77R,0.1100X0.3420*%
%ADD78R,0.1180X0.0590*%
%ADD79R,0.0830X0.3230*%
%ADD80R,0.1820X0.0900*%
%ADD81R,0.0850X0.1900*%
%ADD82R,0.1770X0.0950*%
%ADD83R,0.0591X0.0591*%
%ADD84C,0.0591*%
%ADD85R,0.0591X0.0591*%
%ADD86C,0.0320*%
%ADD87C,0.0500*%
%ADD88R,0.0413X0.0551*%
%ADD89R,0.0669X0.0433*%
%ADD90R,0.0433X0.0669*%
%ADD91R,0.5810X0.0400*%
%ADD92R,0.1370X0.1190*%
%ADD93R,0.0260X0.2940*%
%ADD94R,0.0610X0.3620*%
%ADD95R,0.1330X0.0650*%
%ADD96R,0.0400X0.4480*%
%ADD97R,0.2410X0.0450*%
%ADD98R,0.0890X0.3400*%
%ADD99R,0.6880X0.0610*%
%ADD100R,0.1880X0.3480*%
%ADD101R,0.7920X0.0350*%
%ADD102R,0.0310X0.3890*%
%ADD103R,0.0890X0.0960*%
%ADD104R,0.2450X0.2860*%
%ADD105R,0.0960X0.0910*%
%ADD106R,0.2300X0.1250*%
%ADD107R,0.1320X0.0920*%
%ADD108R,0.1430X0.0570*%
%ADD109R,0.0600X0.2880*%
%ADD110R,0.1560X0.1200*%
%ADD111R,0.0510X0.2190*%
%ADD112R,0.0810X0.0450*%
%ADD113R,0.8040X0.0410*%
%ADD114R,0.1080X0.2300*%
%ADD115R,0.0530X0.1260*%
%ADD116R,0.0690X0.1090*%
%ADD117R,0.3970X0.0570*%
%ADD118R,0.0670X0.1760*%
%ADD119R,0.2440X0.1760*%
%ADD120R,0.3080X0.1760*%
%ADD121R,0.3360X0.3810*%
%ADD122R,0.3950X0.2010*%
%ADD123R,0.5290X0.1430*%
%ADD124R,0.1080X0.1370*%
%ADD125R,0.4870X0.0400*%
%ADD126R,0.3310X0.0720*%
%ADD127R,0.0640X0.3170*%
%ADD128R,1.4780X0.0490*%
%ADD129R,0.8680X0.0890*%
%ADD130R,0.2310X0.1210*%
%ADD131R,0.0660X0.7140*%
%ADD132R,0.3910X0.1760*%
%ADD133R,0.1190X0.4160*%
%ADD134R,0.6620X0.0690*%
%ADD135R,0.1720X0.3830*%
%ADD136R,0.0560X0.2760*%
%ADD137R,0.6730X0.0390*%
%ADD138R,0.2390X0.0640*%
%ADD139R,0.4150X0.0630*%
%ADD140R,0.5920X0.0470*%
%ADD141R,0.3050X0.2190*%
%ADD142R,0.0600X0.1180*%
%ADD143R,0.0840X0.2610*%
%ADD144R,0.4730X0.1350*%
%ADD145R,0.1830X1.0120*%
%ADD146R,0.2560X0.0720*%
%ADD147R,0.2990X0.2490*%
%ADD148R,0.1090X0.5830*%
%ADD149R,0.8340X0.8340*%
%ADD150R,0.3240X0.0960*%
%ADD151R,0.2210X0.1000*%
%ADD152R,0.1070X0.0400*%
%ADD153R,0.0610X0.1460*%
%ADD154R,0.0460X0.1390*%
%ADD155R,0.3240X0.0430*%
%ADD156R,0.0570X0.1510*%
%ADD157R,0.1660X0.0570*%
%ADD158R,0.2810X0.2110*%
%ADD159R,0.0630X0.1380*%
%ADD160R,0.1810X0.0340*%
%ADD161R,0.7090X0.0860*%
%ADD162R,0.1020X0.1410*%
%ADD163R,0.3440X0.0470*%
%ADD164R,0.0670X0.1580*%
%ADD165R,0.0560X0.6510*%
%ADD166R,2.0860X0.0750*%
%ADD167R,0.1230X0.1040*%
%ADD168R,0.1030X0.1670*%
%ADD169R,0.1220X0.0770*%
%ADD170R,0.0490X0.1560*%
%ADD171R,0.1030X0.1940*%
%ADD172R,0.0940X0.1560*%
%ADD173C,0.0098*%
%ADD174C,0.0236*%
%ADD175C,0.0080*%
%ADD176R,0.0592X0.0474*%
%ADD177O,0.1064X0.0356*%
%ADD178R,0.0474X0.0592*%
%ADD179R,0.0631X0.0513*%
%ADD180R,0.0513X0.0631*%
%ADD181R,0.0592X0.0671*%
%ADD182R,0.1379X0.1143*%
%ADD183R,0.0474X0.1143*%
%ADD184R,0.0552X0.0631*%
%ADD185R,0.0631X0.0710*%
%ADD186R,0.0580X0.0380*%
%ADD187O,0.0198X0.0907*%
%ADD188O,0.0907X0.0198*%
%ADD189R,0.1773X0.1773*%
%ADD190R,0.0671X0.0671*%
%ADD191C,0.0671*%
%ADD192R,0.0671X0.0671*%
%ADD193C,0.0400*%
%ADD194C,0.0580*%
D176*
X27630Y9335D02*
D03*
Y9965D02*
D03*
D177*
X24455Y7280D02*
D03*
Y6780D02*
D03*
Y6280D02*
D03*
Y5780D02*
D03*
X26385Y7280D02*
D03*
Y6780D02*
D03*
Y6280D02*
D03*
Y5780D02*
D03*
D178*
X24225Y8470D02*
D03*
X24855D02*
D03*
X24235Y14350D02*
D03*
X24865D02*
D03*
X24235Y15093D02*
D03*
X24865D02*
D03*
Y15837D02*
D03*
X24235D02*
D03*
X24865Y16580D02*
D03*
X24235D02*
D03*
X10005Y9350D02*
D03*
X9375D02*
D03*
X1645Y15650D02*
D03*
X1015D02*
D03*
X24845Y2650D02*
D03*
X24215D02*
D03*
X24845Y3367D02*
D03*
X24215D02*
D03*
Y4083D02*
D03*
X24845D02*
D03*
X24215Y4800D02*
D03*
X24845D02*
D03*
D179*
X21820Y5075D02*
D03*
Y5665D02*
D03*
X11180Y5925D02*
D03*
Y5335D02*
D03*
X21650Y13285D02*
D03*
Y13875D02*
D03*
X25660Y12194D02*
D03*
Y12785D02*
D03*
X25660Y10309D02*
D03*
Y9718D02*
D03*
X7880Y15205D02*
D03*
Y14615D02*
D03*
X7850Y4095D02*
D03*
Y4685D02*
D03*
D180*
X21226Y14860D02*
D03*
X20635D02*
D03*
X11675Y4530D02*
D03*
X12265D02*
D03*
X4563Y11307D02*
D03*
X3972D02*
D03*
X4565Y12000D02*
D03*
X3975D02*
D03*
X4595Y5510D02*
D03*
X4005D02*
D03*
X4595Y6200D02*
D03*
X4005D02*
D03*
D181*
X28174Y14829D02*
D03*
X27426D02*
D03*
X28174Y15875D02*
D03*
X27426D02*
D03*
X28174Y16921D02*
D03*
X27426D02*
D03*
X28174Y17968D02*
D03*
X27426D02*
D03*
X27974Y4471D02*
D03*
X27226D02*
D03*
X27974Y3423D02*
D03*
X27226D02*
D03*
X27974Y2375D02*
D03*
X27226D02*
D03*
X27974Y1327D02*
D03*
X27226D02*
D03*
X2554Y17160D02*
D03*
X1806D02*
D03*
D182*
X2100Y7918D02*
D03*
Y13705D02*
D03*
D183*
X3006Y5595D02*
D03*
X2100D02*
D03*
X1194D02*
D03*
X3006Y11382D02*
D03*
X2100D02*
D03*
X1194D02*
D03*
D184*
X6965Y4020D02*
D03*
X6335D02*
D03*
X6965Y15273D02*
D03*
X6335D02*
D03*
D185*
X23957Y9523D02*
D03*
X24835Y9512D02*
D03*
X23969Y10536D02*
D03*
X24835D02*
D03*
X23969Y11988D02*
D03*
X24835D02*
D03*
X23969Y13012D02*
D03*
X24846Y13001D02*
D03*
D186*
X5458Y12770D02*
D03*
Y12266D02*
D03*
Y11762D02*
D03*
Y11258D02*
D03*
X8458Y11258D02*
D03*
Y11762D02*
D03*
Y12266D02*
D03*
Y12770D02*
D03*
D187*
X19885Y5477D02*
D03*
X19688D02*
D03*
X19491D02*
D03*
X19294D02*
D03*
X19097D02*
D03*
X18901D02*
D03*
X18704D02*
D03*
X18507D02*
D03*
X18310D02*
D03*
X18113D02*
D03*
X17916D02*
D03*
X17720D02*
D03*
X17523D02*
D03*
X17326D02*
D03*
X17129D02*
D03*
X16932D02*
D03*
X16735D02*
D03*
X16538D02*
D03*
X16342D02*
D03*
X16145D02*
D03*
X15948D02*
D03*
X15751D02*
D03*
X15554D02*
D03*
X15357D02*
D03*
X15160D02*
D03*
X14964D02*
D03*
X14767D02*
D03*
X14570D02*
D03*
X14373D02*
D03*
X14176D02*
D03*
X13979D02*
D03*
X13783D02*
D03*
X13586D02*
D03*
X13389D02*
D03*
X13192D02*
D03*
X12995D02*
D03*
Y13823D02*
D03*
X13192D02*
D03*
X13389D02*
D03*
X13586D02*
D03*
X13783D02*
D03*
X13979D02*
D03*
X14176D02*
D03*
X14373D02*
D03*
X14570D02*
D03*
X14767D02*
D03*
X14964D02*
D03*
X15160D02*
D03*
X15357D02*
D03*
X15554D02*
D03*
X15751D02*
D03*
X15948D02*
D03*
X16145D02*
D03*
X16342D02*
D03*
X16538D02*
D03*
X16735D02*
D03*
X16932D02*
D03*
X17129D02*
D03*
X17326D02*
D03*
X17523D02*
D03*
X17720D02*
D03*
X17916D02*
D03*
X18113D02*
D03*
X18310D02*
D03*
X18507D02*
D03*
X18704D02*
D03*
X18901D02*
D03*
X19097D02*
D03*
X19294D02*
D03*
X19491D02*
D03*
X19688D02*
D03*
X19885D02*
D03*
D188*
X12267Y6205D02*
D03*
Y6402D02*
D03*
Y6599D02*
D03*
Y6796D02*
D03*
Y6993D02*
D03*
Y7189D02*
D03*
Y7386D02*
D03*
Y7583D02*
D03*
Y7780D02*
D03*
Y7977D02*
D03*
Y8174D02*
D03*
Y8370D02*
D03*
Y8567D02*
D03*
Y8764D02*
D03*
Y8961D02*
D03*
Y9158D02*
D03*
Y9355D02*
D03*
Y9552D02*
D03*
Y9748D02*
D03*
Y9945D02*
D03*
Y10142D02*
D03*
Y10339D02*
D03*
Y10536D02*
D03*
Y10733D02*
D03*
Y10930D02*
D03*
Y11126D02*
D03*
Y11323D02*
D03*
Y11520D02*
D03*
Y11717D02*
D03*
Y11914D02*
D03*
Y12111D02*
D03*
Y12307D02*
D03*
Y12504D02*
D03*
Y12701D02*
D03*
Y12898D02*
D03*
Y13095D02*
D03*
X20613D02*
D03*
Y12898D02*
D03*
Y12701D02*
D03*
Y12504D02*
D03*
Y12307D02*
D03*
Y12111D02*
D03*
Y11914D02*
D03*
Y11717D02*
D03*
Y11520D02*
D03*
Y11323D02*
D03*
Y11126D02*
D03*
Y10930D02*
D03*
Y10733D02*
D03*
Y10536D02*
D03*
Y10339D02*
D03*
Y10142D02*
D03*
Y9945D02*
D03*
Y9748D02*
D03*
Y9552D02*
D03*
Y9355D02*
D03*
Y9158D02*
D03*
Y8961D02*
D03*
Y8764D02*
D03*
Y8567D02*
D03*
Y8370D02*
D03*
Y8174D02*
D03*
Y7977D02*
D03*
Y7780D02*
D03*
Y7583D02*
D03*
Y7386D02*
D03*
Y7189D02*
D03*
Y6993D02*
D03*
Y6796D02*
D03*
Y6599D02*
D03*
Y6402D02*
D03*
Y6205D02*
D03*
D189*
X16440Y9650D02*
D03*
D190*
X24550Y1600D02*
D03*
X2160Y2740D02*
D03*
X5095Y4024D02*
D03*
X5095Y15273D02*
D03*
X5550Y17750D02*
D03*
D191*
X24550Y600D02*
D03*
X23550Y1600D02*
D03*
Y600D02*
D03*
X22550Y1600D02*
D03*
Y600D02*
D03*
X21550Y1600D02*
D03*
Y600D02*
D03*
X20550Y1600D02*
D03*
Y600D02*
D03*
X19550Y1600D02*
D03*
Y600D02*
D03*
X18550Y1600D02*
D03*
Y600D02*
D03*
X17550Y1600D02*
D03*
Y600D02*
D03*
X16550Y1600D02*
D03*
Y600D02*
D03*
X15550Y1600D02*
D03*
Y600D02*
D03*
X14550Y1600D02*
D03*
Y600D02*
D03*
X13550Y1600D02*
D03*
Y600D02*
D03*
X12550Y1600D02*
D03*
Y600D02*
D03*
X11550Y1600D02*
D03*
Y600D02*
D03*
X10550Y1600D02*
D03*
Y600D02*
D03*
X9550Y1600D02*
D03*
Y600D02*
D03*
X8550Y1600D02*
D03*
Y600D02*
D03*
X7550Y1600D02*
D03*
Y600D02*
D03*
X6550Y1600D02*
D03*
Y600D02*
D03*
X5550Y1600D02*
D03*
Y600D02*
D03*
X1160Y2740D02*
D03*
X4095Y4024D02*
D03*
X28580Y8150D02*
D03*
Y9150D02*
D03*
Y10150D02*
D03*
Y11150D02*
D03*
Y12150D02*
D03*
X4095Y15273D02*
D03*
X5550Y18750D02*
D03*
X6550Y17750D02*
D03*
Y18750D02*
D03*
X7550Y17750D02*
D03*
Y18750D02*
D03*
X8550Y17750D02*
D03*
Y18750D02*
D03*
X9550Y17750D02*
D03*
Y18750D02*
D03*
X10550Y17750D02*
D03*
Y18750D02*
D03*
X11550Y17750D02*
D03*
Y18750D02*
D03*
X12550Y17750D02*
D03*
Y18750D02*
D03*
X13550Y17750D02*
D03*
Y18750D02*
D03*
X14550Y17750D02*
D03*
Y18750D02*
D03*
X15550Y17750D02*
D03*
Y18750D02*
D03*
X16550Y17750D02*
D03*
Y18750D02*
D03*
X17550Y17750D02*
D03*
Y18750D02*
D03*
X18550Y17750D02*
D03*
Y18750D02*
D03*
X19550Y17750D02*
D03*
Y18750D02*
D03*
X20550Y17750D02*
D03*
Y18750D02*
D03*
X21550Y17750D02*
D03*
Y18750D02*
D03*
X22550Y17750D02*
D03*
Y18750D02*
D03*
X23550Y17750D02*
D03*
Y18750D02*
D03*
X24550Y17750D02*
D03*
Y18750D02*
D03*
D192*
X28580Y7150D02*
D03*
D193*
X8870Y8410D02*
D03*
X8840Y6840D02*
D03*
X6710Y9110D02*
D03*
X6335D02*
D03*
X5960D02*
D03*
X22420Y11230D02*
D03*
X22850D02*
D03*
X27120Y12720D02*
D03*
X21820Y6290D02*
D03*
X22375Y5075D02*
D03*
X22170Y13280D02*
D03*
X25600Y14390D02*
D03*
X22110Y14850D02*
D03*
X27420Y6780D02*
D03*
X26930Y8550D02*
D03*
X26560Y5090D02*
D03*
X20630Y15360D02*
D03*
X11110Y4480D02*
D03*
X8460Y4010D02*
D03*
X15020Y15940D02*
D03*
X14600Y15480D02*
D03*
X12530Y15940D02*
D03*
X15020Y15000D02*
D03*
X11370Y15919D02*
D03*
Y15270D02*
D03*
X6440Y14350D02*
D03*
X4930Y16800D02*
D03*
Y16480D02*
D03*
X5290Y16800D02*
D03*
X11180Y7300D02*
D03*
X12260Y4010D02*
D03*
X8840Y4870D02*
D03*
Y5230D02*
D03*
Y10230D02*
D03*
X4600Y14350D02*
D03*
X7000Y15919D02*
D03*
X23310Y10120D02*
D03*
Y9640D02*
D03*
Y9060D02*
D03*
X25660Y11320D02*
D03*
X25920Y13910D02*
D03*
X26320D02*
D03*
X26710D02*
D03*
X23960Y11320D02*
D03*
X19190Y4400D02*
D03*
X18570Y3010D02*
D03*
X19490Y14850D02*
D03*
X18430Y15940D02*
D03*
X12530Y16350D02*
D03*
X14630Y4150D02*
D03*
X21840Y11860D02*
D03*
X5124Y14350D02*
D03*
X16050Y14720D02*
D03*
X17820Y14850D02*
D03*
X18430D02*
D03*
X11180Y5920D02*
D03*
X5290Y16480D02*
D03*
X23520Y4800D02*
D03*
X23530Y5270D02*
D03*
X21600Y7180D02*
D03*
X23140D02*
D03*
X22700Y4090D02*
D03*
X23500D02*
D03*
X23100D02*
D03*
X22380Y7660D02*
D03*
X21980D02*
D03*
X21660Y10240D02*
D03*
Y11230D02*
D03*
X22780Y7660D02*
D03*
X23530Y6280D02*
D03*
Y7760D02*
D03*
X17230Y4620D02*
D03*
X15660D02*
D03*
X14670D02*
D03*
X11207Y9037D02*
D03*
X21660Y9440D02*
D03*
X22860Y10050D02*
D03*
X11430Y12020D02*
D03*
X11420Y11420D02*
D03*
X18070Y4090D02*
D03*
X14630Y3120D02*
D03*
X5340Y2750D02*
D03*
Y2430D02*
D03*
X4980D02*
D03*
Y2750D02*
D03*
X8510Y5230D02*
D03*
Y4870D02*
D03*
X28174Y18714D02*
D03*
X27974Y534D02*
D03*
X17149Y8941D02*
D03*
X16676D02*
D03*
X16204D02*
D03*
X15731D02*
D03*
X17149Y9414D02*
D03*
X16676Y9414D02*
D03*
X16204D02*
D03*
X15731D02*
D03*
X17149Y9886D02*
D03*
X16676D02*
D03*
X16204D02*
D03*
X15731D02*
D03*
X17149Y10359D02*
D03*
X16676D02*
D03*
X16204D02*
D03*
X15731D02*
D03*
X14767Y6247D02*
D03*
X15751Y6251D02*
D03*
X17326Y6246D02*
D03*
X19097Y6247D02*
D03*
X19846Y6796D02*
D03*
X19838Y9748D02*
D03*
X19839Y10339D02*
D03*
X19843Y11323D02*
D03*
X19845Y13095D02*
D03*
X19097Y13053D02*
D03*
X17720Y13050D02*
D03*
X15948Y13052D02*
D03*
X14767Y13053D02*
D03*
X13036Y11914D02*
D03*
X13037Y11323D02*
D03*
X13036Y8764D02*
D03*
X13045Y6205D02*
D03*
X8150Y7630D02*
D03*
D194*
X7780Y13040D02*
D03*
Y12350D02*
D03*
Y11670D02*
D03*
Y11000D02*
D03*
M02*
