G04*
G04 #@! TF.GenerationSoftware,Altium Limited,Altium Designer,20.0.13 (296)*
G04*
G04 Layer_Physical_Order=1*
G04 Layer_Color=255*
%FSLAX25Y25*%
%MOIN*%
G70*
G01*
G75*
%ADD12C,0.00787*%
%ADD13C,0.01000*%
%ADD15O,0.09843X0.02756*%
%ADD16R,0.05118X0.05906*%
%ADD17R,0.03937X0.05118*%
%ADD18R,0.05512X0.06299*%
%ADD19R,0.05000X0.03000*%
%ADD20R,0.03937X0.10630*%
%ADD21R,0.12992X0.10630*%
%ADD22R,0.04724X0.05512*%
%ADD23R,0.05512X0.04331*%
%ADD24R,0.04331X0.05512*%
%ADD25R,0.05118X0.03937*%
%ADD26O,0.01181X0.08268*%
%ADD27O,0.08268X0.01181*%
%ADD28R,0.16929X0.16929*%
%ADD48C,0.02000*%
%ADD49C,0.02500*%
%ADD50C,0.03000*%
%ADD51C,0.06000*%
%ADD52C,0.04000*%
%ADD53C,0.01500*%
%ADD54R,0.17700X0.09500*%
%ADD55R,0.08500X0.19000*%
%ADD56R,0.18200X0.09000*%
%ADD57R,0.08300X0.32300*%
%ADD58R,0.11800X0.05900*%
%ADD59R,0.11000X0.34200*%
%ADD60R,0.12600X0.95600*%
%ADD61R,0.14700X0.08470*%
%ADD62R,0.32410X0.09740*%
%ADD63R,0.13900X0.15900*%
%ADD64R,0.11100X0.18195*%
%ADD65R,0.33400X0.12100*%
%ADD66R,0.11300X0.16100*%
%ADD67R,0.06400X0.15400*%
%ADD68R,0.14522X0.70114*%
%ADD69R,0.11122X1.90748*%
%ADD70R,0.49122X0.19714*%
%ADD71R,0.07100X0.22500*%
%ADD72R,0.49022X0.14734*%
%ADD73R,0.15122X0.43100*%
%ADD74R,0.13700X0.49600*%
%ADD75R,0.15500X0.20900*%
%ADD76R,0.14300X0.18400*%
%ADD77R,0.04700X0.51800*%
%ADD78R,0.08100X0.10400*%
%ADD79R,0.16100X0.32300*%
%ADD80R,0.08100X0.57500*%
%ADD81R,0.08200X0.62100*%
%ADD82R,0.22700X0.29714*%
%ADD83R,0.14600X0.39200*%
%ADD84R,0.17400X0.11100*%
%ADD85R,0.37100X0.30700*%
%ADD86R,0.18900X0.10400*%
%ADD87R,0.15200X0.08200*%
%ADD88R,0.07800X0.25000*%
%ADD89R,0.22700X0.05100*%
%ADD90R,0.19500X0.11100*%
%ADD91R,0.12700X0.53000*%
%ADD92R,0.38700X0.42600*%
%ADD93R,0.14900X0.61500*%
%ADD94R,0.12600X0.18300*%
%ADD95R,0.09200X0.52100*%
%ADD96R,0.07700X0.09100*%
%ADD97R,0.03700X0.48200*%
%ADD98R,0.14900X0.14700*%
%ADD99R,0.10100X0.02100*%
%ADD100R,0.13100X0.33134*%
%ADD101R,0.08100X0.19600*%
%ADD102R,0.07900X0.52800*%
%ADD103R,0.20800X0.21240*%
%ADD104R,0.07087X0.07776*%
%ADD105R,0.13489X0.03051*%
%ADD106R,0.15158X0.18209*%
%ADD107R,0.07185X0.11221*%
%ADD108R,0.71653X0.71457*%
%ADD109C,0.05906*%
%ADD110R,0.05906X0.05906*%
%ADD111R,0.05906X0.05906*%
%ADD112C,0.03200*%
%ADD113C,0.05000*%
G36*
X293987Y1476D02*
X245079D01*
Y2128D01*
X245455Y2458D01*
X245472Y2455D01*
X246449Y2584D01*
X247359Y2960D01*
X248140Y3560D01*
X248739Y4341D01*
X249116Y5251D01*
X249245Y6228D01*
X249116Y7204D01*
X248739Y8114D01*
X248140Y8895D01*
X247359Y9495D01*
X246449Y9871D01*
X245472Y10000D01*
X245455Y9998D01*
X245079Y10327D01*
Y12487D01*
X249213D01*
Y19968D01*
X245079D01*
Y50656D01*
X245694D01*
Y44770D01*
X245694Y44744D01*
Y44270D01*
X245694Y44244D01*
Y37604D01*
X245694Y37577D01*
Y37104D01*
X245694Y37077D01*
Y30437D01*
X245694Y30411D01*
Y29937D01*
X245694Y29911D01*
Y23244D01*
X249940D01*
X260749Y12434D01*
X261175Y12150D01*
X261678Y12050D01*
X271013D01*
Y9550D01*
X277706D01*
Y17031D01*
X271013D01*
Y14675D01*
X262221D01*
X251205Y25691D01*
Y29911D01*
X251205Y29937D01*
Y30411D01*
X251205Y30437D01*
Y32445D01*
X254690D01*
X264219Y22915D01*
X264645Y22631D01*
X265147Y22531D01*
X271013D01*
Y20117D01*
X277706D01*
Y27597D01*
X271013D01*
Y25156D01*
X265691D01*
X256161Y34685D01*
X255736Y34970D01*
X255233Y35070D01*
X251205D01*
Y37077D01*
X251205Y37104D01*
Y37577D01*
X251205Y37604D01*
Y39611D01*
X257823D01*
X264038Y33396D01*
X264464Y33111D01*
X264967Y33011D01*
X271013D01*
Y30684D01*
X277706D01*
Y38164D01*
X271013D01*
Y35637D01*
X265510D01*
X259295Y41852D01*
X258869Y42137D01*
X258367Y42237D01*
X251205D01*
Y44244D01*
X251205Y44270D01*
Y44744D01*
X251205Y44770D01*
Y46778D01*
X260356D01*
X263258Y43877D01*
X263683Y43592D01*
X264186Y43492D01*
X271013D01*
Y41250D01*
X277706D01*
Y48731D01*
X271013D01*
Y46117D01*
X264729D01*
X261828Y49019D01*
X261402Y49303D01*
X260900Y49403D01*
X251205D01*
Y50656D01*
X259744D01*
X260246Y50756D01*
X260672Y51040D01*
X264302Y54670D01*
X264587Y55096D01*
X264687Y55598D01*
Y55683D01*
X267389D01*
X268234Y55851D01*
X268950Y56329D01*
X269429Y57046D01*
X269597Y57890D01*
X269429Y58735D01*
X268950Y59452D01*
X268234Y59930D01*
X267389Y60098D01*
X260302D01*
X259457Y59930D01*
X258801Y59491D01*
X258301Y59624D01*
Y61089D01*
X258544Y61221D01*
X258801Y61290D01*
X259457Y60851D01*
X260302Y60683D01*
X267389D01*
X268234Y60851D01*
X268950Y61329D01*
X269429Y62046D01*
X269597Y62890D01*
X269429Y63735D01*
X268950Y64452D01*
X268234Y64930D01*
X267389Y65098D01*
X260302D01*
X259457Y64930D01*
X258741Y64452D01*
X258575Y64203D01*
X257969D01*
X257467Y64103D01*
X257041Y63819D01*
X256060Y62838D01*
X255775Y62412D01*
X255676Y61910D01*
Y56744D01*
X254279Y55348D01*
X245079D01*
Y60683D01*
X248098D01*
X248753Y60813D01*
X251572D01*
X252367Y60971D01*
X253041Y61422D01*
X257432Y65813D01*
X259647D01*
X260302Y65683D01*
X267389D01*
X268234Y65851D01*
X268950Y66329D01*
X269429Y67046D01*
X269597Y67891D01*
X269429Y68735D01*
X268950Y69452D01*
X268234Y69930D01*
X267389Y70098D01*
X265923D01*
Y70683D01*
X267389D01*
X268234Y70851D01*
X268950Y71329D01*
X269429Y72046D01*
X269597Y72891D01*
X269429Y73735D01*
X268950Y74452D01*
X268234Y74930D01*
X267389Y75098D01*
X265923D01*
Y77788D01*
X266900D01*
X267207Y77849D01*
X267468Y78023D01*
X267642Y78283D01*
X267703Y78591D01*
Y83256D01*
X268144Y83492D01*
X268369Y83342D01*
X269300Y83156D01*
X269782Y83252D01*
X270487Y82547D01*
Y75691D01*
X270587Y75188D01*
X270872Y74762D01*
X275775Y69859D01*
Y56422D01*
X271656Y52303D01*
X267594D01*
X267321Y52712D01*
X266531Y53239D01*
X265600Y53425D01*
X264668Y53239D01*
X263879Y52712D01*
X263351Y51922D01*
X263166Y50991D01*
X263351Y50059D01*
X263879Y49269D01*
X264668Y48742D01*
X265600Y48556D01*
X266531Y48742D01*
X267321Y49269D01*
X267594Y49678D01*
X272200D01*
X272702Y49778D01*
X273128Y50062D01*
X278016Y54950D01*
X278300Y55376D01*
X278400Y55878D01*
Y70403D01*
X278300Y70906D01*
X278016Y71331D01*
X273821Y75526D01*
X274012Y75988D01*
X290800D01*
X291107Y76049D01*
X291368Y76223D01*
X291542Y76483D01*
X291603Y76790D01*
Y86291D01*
X291542Y86598D01*
X291368Y86858D01*
X291107Y87032D01*
X290800Y87093D01*
X282403D01*
Y89053D01*
X282903Y89222D01*
X283133Y88923D01*
X283914Y88323D01*
X284824Y87947D01*
X285800Y87818D01*
X286776Y87947D01*
X287686Y88323D01*
X288468Y88923D01*
X289067Y89704D01*
X289444Y90614D01*
X289572Y91590D01*
X289444Y92567D01*
X289067Y93477D01*
X288468Y94258D01*
X287686Y94858D01*
X286776Y95234D01*
X285800Y95363D01*
X284824Y95234D01*
X283914Y94858D01*
X283133Y94258D01*
X282903Y93959D01*
X282403Y94129D01*
Y95790D01*
X282342Y96098D01*
X282215Y96287D01*
X281987Y96689D01*
X282118Y96947D01*
X282142Y96983D01*
X282203Y97290D01*
Y99313D01*
X282703Y99483D01*
X283133Y98923D01*
X283914Y98324D01*
X284824Y97947D01*
X285800Y97818D01*
X286776Y97947D01*
X287686Y98324D01*
X288468Y98923D01*
X289067Y99704D01*
X289444Y100614D01*
X289572Y101591D01*
X289444Y102567D01*
X289067Y103477D01*
X288468Y104258D01*
X287686Y104858D01*
X286776Y105234D01*
X285800Y105363D01*
X284824Y105234D01*
X283914Y104858D01*
X283133Y104258D01*
X282703Y103698D01*
X282203Y103868D01*
Y106188D01*
X290900D01*
X291207Y106249D01*
X291468Y106423D01*
X291642Y106683D01*
X291703Y106991D01*
Y115991D01*
X291642Y116298D01*
X291468Y116558D01*
X291207Y116732D01*
X290900Y116793D01*
X282203D01*
Y119313D01*
X282703Y119483D01*
X283133Y118923D01*
X283914Y118324D01*
X284824Y117947D01*
X285800Y117818D01*
X286776Y117947D01*
X287686Y118324D01*
X288468Y118923D01*
X289067Y119704D01*
X289444Y120614D01*
X289572Y121591D01*
X289444Y122567D01*
X289067Y123477D01*
X288468Y124258D01*
X287686Y124858D01*
X286776Y125234D01*
X285800Y125363D01*
X284824Y125234D01*
X283914Y124858D01*
X283133Y124258D01*
X282703Y123698D01*
X282203Y123868D01*
Y129591D01*
X282142Y129898D01*
X281968Y130158D01*
X281707Y130332D01*
X281400Y130393D01*
X269603D01*
Y141491D01*
X269542Y141798D01*
X269368Y142058D01*
X269107Y142232D01*
X268800Y142293D01*
X258268D01*
X258032Y142734D01*
X258249Y143059D01*
X258434Y143991D01*
X258249Y144922D01*
X257721Y145712D01*
X256931Y146239D01*
X256797Y146266D01*
X256619Y146787D01*
X256841Y147064D01*
X271013D01*
Y144750D01*
X277706D01*
Y152231D01*
X271013D01*
Y149689D01*
X256086D01*
X255583Y149589D01*
X255157Y149304D01*
X251868Y146014D01*
X251406Y146206D01*
Y146937D01*
X245894D01*
Y140603D01*
X245106D01*
Y146937D01*
X245079D01*
Y147677D01*
X245106D01*
Y154370D01*
X245079D01*
Y155111D01*
X245106D01*
Y161804D01*
X245079D01*
Y162544D01*
X245106D01*
Y169237D01*
X245079D01*
Y173354D01*
X245455Y173683D01*
X245512Y173676D01*
X246488Y173804D01*
X247398Y174181D01*
X248179Y174780D01*
X248779Y175562D01*
X249156Y176472D01*
X249284Y177448D01*
X249156Y178424D01*
X248779Y179334D01*
X248179Y180115D01*
X247398Y180715D01*
X246488Y181092D01*
X245512Y181220D01*
X245455Y181213D01*
X245079Y181543D01*
Y183353D01*
X245455Y183683D01*
X245512Y183676D01*
X246488Y183804D01*
X247398Y184181D01*
X248179Y184781D01*
X248779Y185562D01*
X249156Y186472D01*
X249284Y187448D01*
X249156Y188424D01*
X248779Y189334D01*
X248179Y190115D01*
X247398Y190715D01*
X246488Y191092D01*
X245512Y191220D01*
X245455Y191213D01*
X245079Y191543D01*
Y192224D01*
X293987D01*
Y1476D01*
D02*
G37*
G36*
X66098Y163493D02*
X66097Y163491D01*
Y159091D01*
X37300D01*
Y172391D01*
X57200D01*
X66098Y163493D01*
D02*
G37*
G36*
X126969Y164266D02*
Y161925D01*
X119783D01*
X119476Y161864D01*
X119216Y161690D01*
X119042Y161429D01*
X118981Y161122D01*
Y157283D01*
X111813D01*
Y171850D01*
X119384D01*
X126969Y164266D01*
D02*
G37*
G36*
X82100Y158978D02*
X90600Y150491D01*
Y149493D01*
X75700D01*
X75686Y149491D01*
X66903D01*
Y157691D01*
X66900Y157705D01*
Y163491D01*
D01*
X77600D01*
X82100Y158978D01*
D02*
G37*
G36*
X260097Y122891D02*
Y100633D01*
X245079D01*
Y109065D01*
X246387D01*
X246890Y109165D01*
X247316Y109450D01*
X249275Y111409D01*
X249559Y111835D01*
X249659Y112337D01*
Y116037D01*
X251890D01*
Y123911D01*
X245079D01*
Y124588D01*
X260097D01*
Y122891D01*
D02*
G37*
G36*
X96200Y103134D02*
Y90290D01*
X86500D01*
Y105791D01*
X93544D01*
X96200Y103134D01*
D02*
G37*
G36*
X130545Y58555D02*
X130515Y58402D01*
Y51315D01*
X130607Y50851D01*
Y39554D01*
X128848Y37795D01*
X120203D01*
Y55990D01*
X120177Y56120D01*
Y59055D01*
X130171D01*
X130545Y58555D01*
D02*
G37*
G36*
X90900Y39891D02*
X83400Y32391D01*
X66900D01*
Y43488D01*
X90900D01*
Y39891D01*
D02*
G37*
G36*
X68282Y30729D02*
X59929Y22376D01*
X58400Y21191D01*
X27800D01*
Y31191D01*
X68090D01*
X68282Y30729D01*
D02*
G37*
%LPC*%
G36*
X277706Y183831D02*
X271013D01*
Y181081D01*
X268578D01*
X268076Y180981D01*
X267650Y180697D01*
X254156Y167203D01*
X251406D01*
Y169237D01*
X245894D01*
Y162544D01*
X251406D01*
Y164578D01*
X254700D01*
X255202Y164678D01*
X255628Y164962D01*
X269122Y178456D01*
X271013D01*
Y176350D01*
X277706D01*
Y183831D01*
D02*
G37*
G36*
Y173297D02*
X271013D01*
Y170617D01*
X266514D01*
X266012Y170517D01*
X265586Y170233D01*
X255123Y159770D01*
X251406D01*
Y161804D01*
X245894D01*
Y155111D01*
X251406D01*
Y157145D01*
X255667D01*
X256169Y157245D01*
X256595Y157529D01*
X267058Y167992D01*
X271013D01*
Y165817D01*
X277706D01*
Y173297D01*
D02*
G37*
G36*
Y162764D02*
X271013D01*
Y160153D01*
X261750D01*
X261247Y160053D01*
X260822Y159768D01*
X253390Y152337D01*
X251406D01*
Y154370D01*
X245894D01*
Y147677D01*
X251406D01*
Y149711D01*
X253933D01*
X254436Y149811D01*
X254861Y150096D01*
X262294Y157528D01*
X271013D01*
Y155284D01*
X277706D01*
Y162764D01*
D02*
G37*
%LPD*%
D12*
X122668Y62142D02*
X130449D01*
X122668Y87732D02*
X130358D01*
X122668Y113323D02*
X130368D01*
X122668Y119228D02*
X130362D01*
D13*
X234239Y105449D02*
X235301Y105553D01*
X236323Y105863D01*
X237265Y106367D01*
X238090Y107044D01*
X236653Y105449D02*
X237813Y105680D01*
X238797Y106337D01*
X238090Y103854D02*
X237265Y104531D01*
X236323Y105034D01*
X235301Y105344D01*
X234239Y105449D01*
X238797Y104561D02*
X237813Y105218D01*
X236653Y105449D01*
X238287Y73476D02*
Y77067D01*
X234941Y70079D02*
Y80217D01*
X228016Y83795D02*
X233154Y78658D01*
Y58961D02*
Y78658D01*
X238287Y73476D02*
X238873Y72891D01*
X206132Y83795D02*
X228016D01*
X233154Y58961D02*
X238079Y54035D01*
X229392Y85765D02*
X234941Y80217D01*
X206134Y85765D02*
X229392D01*
X234941Y70079D02*
X237129Y67891D01*
X244554D01*
X238873Y72891D02*
X244554D01*
X220495Y67891D02*
X236417Y51968D01*
X259744D02*
X263374Y55598D01*
X236417Y51968D02*
X259744D01*
X254823Y54035D02*
X256988Y56201D01*
X238079Y54035D02*
X254823D01*
X218441Y73622D02*
X229626D01*
X216142Y75921D02*
X218441Y73622D01*
X256988Y56201D02*
Y61910D01*
X257969Y62890D01*
X224866Y81827D02*
X226772Y79921D01*
X206132Y81827D02*
X224866D01*
X252247Y57890D02*
X252323Y57815D01*
X257969Y62890D02*
X263846D01*
X263374Y57419D02*
X263846Y57890D01*
X263374Y55598D02*
Y57419D01*
X206132Y87732D02*
X233626D01*
X236568Y84790D02*
X242250D01*
X233626Y87732D02*
X236568Y84790D01*
X215500Y67891D02*
X220495D01*
X271800Y75691D02*
X277087Y70403D01*
X271800Y75691D02*
Y83091D01*
X269300Y85590D02*
X271800Y83091D01*
X277087Y55878D02*
Y70403D01*
X146600Y46291D02*
Y48491D01*
X146000Y154391D02*
X146500Y154891D01*
X146900D02*
Y155291D01*
X272200Y50991D02*
X277087Y55878D01*
X146500Y154891D02*
X146900Y155291D01*
X146500Y154891D02*
X146900D01*
X146000D02*
X146500D01*
X81500Y76390D02*
X88400D01*
X100700Y22891D02*
X110800Y32991D01*
X100700Y11291D02*
Y22891D01*
X95500Y20591D02*
X109687Y34778D01*
X95500Y16091D02*
Y20591D01*
X264186Y44805D02*
X272260D01*
X260900Y48090D02*
X264186Y44805D01*
X248450Y48090D02*
X260900D01*
X147668Y130623D02*
Y138323D01*
X159479Y130612D02*
Y138323D01*
X177195Y130595D02*
Y138323D01*
X190975Y130616D02*
Y138323D01*
X198449Y131039D02*
X206132D01*
X198432Y113323D02*
X206132D01*
X198390Y103480D02*
X206132D01*
X198384Y97575D02*
X206132D01*
X198457Y68047D02*
X206132D01*
X190975Y54858D02*
Y62565D01*
X173258Y54858D02*
Y62549D01*
X157510Y54858D02*
Y62601D01*
X147668Y54858D02*
Y62558D01*
X92800Y108391D02*
Y111391D01*
X91517Y112674D02*
X92800Y111391D01*
X81579Y112674D02*
X91517D01*
X94900Y109191D02*
Y115891D01*
X93077Y117713D02*
X94900Y115891D01*
X81579Y117713D02*
X93077D01*
X94900Y109191D02*
X106516Y97575D01*
X96700Y109918D02*
Y119191D01*
X93138Y122753D02*
X96700Y119191D01*
X81579Y122753D02*
X93138D01*
X98800Y111391D02*
Y119891D01*
X90898Y127792D02*
X98800Y119891D01*
X81579Y127792D02*
X90898D01*
X92800Y108391D02*
X105584Y95606D01*
X122668D01*
X107075Y99543D02*
X122668D01*
X96700Y109918D02*
X107075Y99543D01*
X106516Y97575D02*
X122668D01*
X98800Y111391D02*
X108679Y101512D01*
X100587Y112503D02*
Y120726D01*
Y112503D02*
X109610Y103480D01*
X102375Y113243D02*
Y121466D01*
Y113243D02*
X110169Y105449D01*
X104162Y113984D02*
Y122206D01*
Y113984D02*
X110729Y107417D01*
X105950Y114724D02*
Y122947D01*
Y114724D02*
X111288Y109386D01*
X107737Y115465D02*
Y123687D01*
Y115465D02*
X111847Y111354D01*
X109524Y119866D02*
X112131Y117260D01*
X109524Y119866D02*
Y124427D01*
X108679Y101512D02*
X122668D01*
X109610Y103480D02*
X122668D01*
X110169Y105449D02*
X122668D01*
X110729Y107417D02*
X122668D01*
X111288Y109386D02*
X122668D01*
X111847Y111354D02*
X122668D01*
X113302Y123178D02*
X122655D01*
X113873Y125134D02*
X122668D01*
X114342Y127193D02*
X122577D01*
X235500Y16091D02*
Y21035D01*
X240469Y11122D02*
Y18594D01*
X210600Y10991D02*
X215500Y6091D01*
X200600Y10991D02*
X205500Y6091D01*
X185500D02*
X190500Y11091D01*
X175500Y6091D02*
X180500Y11091D01*
X165500Y6091D02*
X170600Y11191D01*
X155500Y6091D02*
X160700Y11291D01*
X145500Y6091D02*
X150500Y11091D01*
X135500Y6091D02*
X140600Y11191D01*
X125500Y6091D02*
X130600Y11191D01*
X65500Y6091D02*
X70600Y11191D01*
X55500Y6091D02*
X60600Y11191D01*
X115500Y6091D02*
X120500Y11091D01*
X95500Y6091D02*
X100700Y11291D01*
X85500Y6091D02*
X90700Y11291D01*
X80600Y11191D02*
Y19691D01*
X75500Y6091D02*
X80600Y11191D01*
X75500Y16091D02*
Y20890D01*
X120400Y182491D02*
X125500Y187591D01*
X240700Y182791D02*
X245500Y187591D01*
X230500Y182591D02*
X235500Y187591D01*
X220600Y182691D02*
X225500Y187591D01*
X210600Y182691D02*
X215500Y187591D01*
X200600Y182691D02*
X205500Y187591D01*
X180500Y182591D02*
X185500Y187591D01*
X170500Y182591D02*
X175500Y187591D01*
X150500Y182591D02*
X155500Y187591D01*
X130500Y182591D02*
X135500Y187591D01*
X85500D02*
X90500Y182591D01*
X75500Y187591D02*
X80400Y182691D01*
X65500Y187591D02*
X70500Y182591D01*
X55500Y187591D02*
X60500Y182591D01*
X240700Y175391D02*
Y182791D01*
X75500Y177591D02*
X75811D01*
X60500Y175291D02*
Y182591D01*
X55500Y177591D02*
X66800Y166291D01*
X60500Y175291D02*
X67713Y168078D01*
X80400Y175763D02*
Y182691D01*
X95500Y187591D02*
X100400Y182691D01*
X100050Y93638D02*
X122668D01*
X117906Y121197D02*
X122668D01*
X65500Y173291D02*
Y177591D01*
Y173291D02*
X68925Y169865D01*
X70500Y173691D02*
Y182591D01*
Y173691D02*
X72538Y171653D01*
X114200Y114291D02*
X116900D01*
X117901Y115291D01*
X122668D01*
X117000Y120291D02*
X117906Y121197D01*
X114300Y120291D02*
X117000D01*
X122577Y127193D02*
X122668Y127102D01*
X122655Y123178D02*
X122668Y123165D01*
X112131Y117260D02*
X122668D01*
X130500Y172291D02*
Y182591D01*
X150500Y175118D02*
Y182591D01*
X145500Y172646D02*
Y177591D01*
X173258Y138323D02*
X173349Y138413D01*
X204345Y177591D02*
X205500D01*
X184024D02*
X185500D01*
X167263Y138413D02*
X167353Y138323D01*
X179164D02*
Y143527D01*
X192943Y138323D02*
X192944Y138324D01*
X185069Y138323D02*
Y143960D01*
X187038Y138323D02*
Y143401D01*
X189006Y138323D02*
Y142841D01*
X183101Y138323D02*
Y144791D01*
X184300Y145991D01*
Y148591D01*
X194900Y145629D02*
Y148591D01*
X192944Y143673D02*
X194900Y145629D01*
X194912Y138323D02*
Y143113D01*
X192944Y138324D02*
Y143673D01*
X169238Y138406D02*
X169321Y138323D01*
X178200Y144491D02*
X179164Y143527D01*
X178200Y144491D02*
Y148591D01*
X237500Y165891D02*
X242350D01*
X232594Y158457D02*
X242350D01*
X240469Y11122D02*
X245500Y6091D01*
X165384Y16206D02*
X165500Y16091D01*
X196880Y138323D02*
Y142553D01*
X122577Y67957D02*
X122668Y68047D01*
X235500Y173391D02*
Y177591D01*
X230500Y171291D02*
Y182591D01*
X225500Y169391D02*
Y177591D01*
X210600Y171091D02*
Y182691D01*
X110500Y182591D02*
X115500Y187591D01*
X116087Y178178D02*
X116238Y178328D01*
X116087Y177003D02*
Y178178D01*
X189006Y142841D02*
X191157Y144992D01*
X187038Y143401D02*
X189369Y145732D01*
X185069Y143960D02*
X187582Y146472D01*
X206132Y95606D02*
X211916D01*
X212475Y93638D02*
X213328Y94490D01*
X206132Y93638D02*
X212475D01*
X206132Y91669D02*
X206198Y91603D01*
X187038Y54858D02*
X187128Y54768D01*
X185069Y54858D02*
X185160Y54768D01*
X183101Y54858D02*
X183191Y54768D01*
X181132Y54858D02*
X181223Y54768D01*
X189006Y54858D02*
X189097Y54768D01*
X143713Y54840D02*
X143731Y54858D01*
X143713Y44578D02*
Y54840D01*
Y44578D02*
X146700Y41591D01*
X165384Y16206D02*
Y54858D01*
X159479D02*
X159487Y54850D01*
X196880Y50110D02*
Y54858D01*
X192943Y48175D02*
Y54858D01*
X194912Y48879D02*
Y54858D01*
X220500Y11091D02*
X225500Y6091D01*
X220500Y11091D02*
Y23291D01*
X225500Y16091D02*
Y21091D01*
X225300Y21291D02*
X225500Y21091D01*
X225300Y21291D02*
Y21690D01*
X230500Y11091D02*
X235500Y6091D01*
X230500Y11091D02*
Y19590D01*
X198849Y51242D02*
Y54858D01*
X206132Y85764D02*
X206134Y85765D01*
X206132Y71984D02*
X211406D01*
X211916Y95606D02*
X213900Y97591D01*
X214200Y112391D02*
X216600D01*
X206132Y111354D02*
X213164D01*
X214200Y112391D01*
X213328Y94490D02*
X216600D01*
X216700D01*
X206132Y64110D02*
X210680D01*
X212100Y62691D01*
X206132Y66079D02*
X212112D01*
X206132Y70016D02*
X210775D01*
X223800Y76691D02*
Y78803D01*
X222745Y79858D02*
X223800Y78803D01*
X206132Y79858D02*
X222745D01*
X206132Y50403D02*
Y62142D01*
X212100Y46963D02*
Y62691D01*
X206132Y73953D02*
X214038D01*
X215400Y72591D01*
X240750Y26591D02*
X242150Y27991D01*
X240750Y33757D02*
X242150Y35157D01*
X235000Y40924D02*
X240750D01*
X242150Y42324D01*
X234833Y33757D02*
X240750D01*
X235200Y48090D02*
X242150D01*
X248450Y40924D02*
X258367D01*
X264967Y34324D01*
X272260D01*
X248450Y33757D02*
X255233D01*
X265147Y23843D01*
X272260D01*
X248450Y26591D02*
X261678Y13363D01*
X272260D01*
X206132Y99543D02*
X219053D01*
X220100Y100591D01*
X228600D01*
X213900Y97591D02*
X229700D01*
X206198Y91603D02*
X228313D01*
X232200Y95490D01*
X114992Y129071D02*
X122668D01*
X115551Y131039D02*
X122668D01*
X206132Y129071D02*
X212058D01*
X206132Y127102D02*
X212617D01*
X206132Y117260D02*
X216869D01*
X206132Y125134D02*
X213177D01*
X206132Y119228D02*
X214854D01*
X206132Y121197D02*
X214295D01*
X206132Y123165D02*
X213736D01*
X212617Y127102D02*
X214243Y128727D01*
X214854Y119228D02*
X217204Y121578D01*
X214295Y121197D02*
X216464Y123365D01*
X213736Y123165D02*
X215723Y125153D01*
X213177Y125134D02*
X214983Y126940D01*
X92626Y128687D02*
X100587Y120726D01*
X94413Y129427D02*
X102375Y121466D01*
X96201Y130168D02*
X104162Y122206D01*
X97988Y130908D02*
X105950Y122947D01*
X99776Y131648D02*
X107737Y123687D01*
X101563Y132389D02*
X109524Y124427D01*
X103350Y133129D02*
X113302Y123178D01*
X105138Y133870D02*
X113873Y125134D01*
X106925Y134610D02*
X114342Y127193D01*
X108713Y135350D02*
X114992Y129071D01*
X110500Y136091D02*
X115551Y131039D01*
X110500Y136091D02*
Y182591D01*
X181132Y138323D02*
Y160823D01*
X175500Y172885D02*
Y177591D01*
X180500Y175357D02*
Y182591D01*
X184024Y177591D02*
X184643Y176972D01*
X191157Y144992D02*
Y158247D01*
X189369Y145732D02*
Y158988D01*
X187582Y146472D02*
Y159728D01*
X196880Y142553D02*
X199800Y145473D01*
X203932Y138323D02*
X206132Y140523D01*
X198849Y138323D02*
X203932D01*
X215500Y170291D02*
Y177591D01*
X220600Y168491D02*
Y182691D01*
X194912Y143113D02*
X198013Y146213D01*
Y155831D01*
X199800Y145473D02*
Y155091D01*
X216869Y117260D02*
X218400Y118791D01*
X210600Y10991D02*
Y19274D01*
X205500Y16091D02*
Y21846D01*
X200600Y10991D02*
Y24218D01*
X188950Y40924D02*
X210600Y19274D01*
X187162Y40184D02*
X205500Y21846D01*
X185375Y39443D02*
X200600Y24218D01*
X183587Y38603D02*
X190500Y31691D01*
Y11091D02*
Y31691D01*
X231000Y37591D02*
X234833Y33757D01*
X231000Y37591D02*
Y40991D01*
X212112Y66079D02*
X213887Y64303D01*
X211406Y71984D02*
X215500Y67891D01*
X210775Y70016D02*
X218200Y62591D01*
X212100Y46963D02*
X240469Y18594D01*
X206132Y50403D02*
X235500Y21035D01*
X192943Y48175D02*
X215500Y25618D01*
Y16091D02*
Y25618D01*
X194912Y48879D02*
X220500Y23291D01*
X196880Y50110D02*
X225300Y21690D01*
X198849Y51242D02*
X230500Y19590D01*
X218200Y58643D02*
Y62591D01*
X191900Y44091D02*
Y46691D01*
X155542Y49349D02*
Y54858D01*
Y49349D02*
X156600Y48291D01*
Y46391D02*
Y48291D01*
X171290Y49701D02*
Y54858D01*
Y49701D02*
X172300Y48691D01*
Y46291D02*
Y48691D01*
X145699Y49391D02*
Y54858D01*
Y49391D02*
X146600Y48491D01*
X189097Y49494D02*
X191900Y46691D01*
X189097Y49494D02*
Y54768D01*
X179164Y46527D02*
Y54858D01*
Y46527D02*
X180700Y44991D01*
Y42391D02*
Y44991D01*
X181223Y46995D02*
Y54768D01*
X183191Y47555D02*
Y54768D01*
X185160Y48114D02*
Y54768D01*
X187128Y48673D02*
Y54768D01*
Y48673D02*
X188950Y46852D01*
X185160Y48114D02*
X187162Y46112D01*
X183191Y47555D02*
X185375Y45371D01*
X181223Y46995D02*
X183587Y44631D01*
Y38603D02*
Y44631D01*
X185375Y39443D02*
Y45371D01*
X187162Y40184D02*
Y46112D01*
X188950Y40924D02*
Y46852D01*
X206132Y105449D02*
X239685D01*
X206132Y101512D02*
X211721D01*
X212700Y102491D01*
X216600D01*
X160500Y144191D02*
Y147291D01*
Y144191D02*
X161447Y143243D01*
Y138323D02*
Y143243D01*
X112070Y90461D02*
X115070D01*
X116279Y91669D01*
X122668D01*
X115561Y87551D02*
X117710Y89701D01*
X122668D01*
X115362Y73953D02*
X122668D01*
X115921Y71984D02*
X122668D01*
X111800Y59343D02*
X116353D01*
X117000Y59991D01*
X248346Y112337D02*
Y119974D01*
X246387Y110378D02*
X248346Y112337D01*
X229700Y97591D02*
X232100Y99990D01*
X108713Y135350D02*
Y159078D01*
X106925Y134610D02*
Y157565D01*
X100400Y167391D02*
Y182691D01*
Y167391D02*
X108713Y159078D01*
X95500Y168991D02*
Y177591D01*
Y168991D02*
X106925Y157565D01*
X105138Y133870D02*
Y156453D01*
X103350Y133129D02*
Y155340D01*
X101563Y132389D02*
Y154600D01*
X99776Y131648D02*
Y153626D01*
X97988Y130908D02*
Y152886D01*
X72538Y171653D02*
X79221D01*
X96201Y130168D02*
Y152145D01*
X68925Y169865D02*
X78481D01*
X94413Y129427D02*
Y151405D01*
X67713Y168078D02*
X77740D01*
X90500Y171091D02*
Y182591D01*
Y171091D02*
X105138Y156453D01*
X85500Y173191D02*
Y177591D01*
Y173191D02*
X103350Y155340D01*
X80400Y175763D02*
X101563Y154600D01*
X75811Y177591D02*
X99776Y153626D01*
X79221Y171653D02*
X97988Y152886D01*
X78481Y169865D02*
X96201Y152145D01*
X77740Y168078D02*
X94413Y151405D01*
X92626Y128687D02*
Y150665D01*
X66800Y166291D02*
X77000D01*
X92626Y150665D01*
X75500Y20890D02*
X78450Y23841D01*
X80600Y19691D02*
X82963Y22054D01*
X100450Y63740D02*
X105900Y69191D01*
X102237Y63000D02*
X106628Y67391D01*
X104024Y62259D02*
X107343Y65578D01*
X105812Y61519D02*
X108083Y63791D01*
X105812Y33875D02*
Y61519D01*
X104024Y34615D02*
Y62259D01*
X102237Y35389D02*
Y63000D01*
X82963Y22054D02*
X88902D01*
X100450Y36129D02*
Y63740D01*
X78450Y23841D02*
X88161D01*
X90700Y11291D02*
Y18763D01*
X105812Y33875D01*
X85500Y16091D02*
X104024Y34615D01*
X88902Y22054D02*
X102237Y35389D01*
X88161Y23841D02*
X100450Y36129D01*
X87421Y25628D02*
X98662Y36869D01*
X86681Y27416D02*
X88188Y28923D01*
Y28973D01*
X96875Y37660D01*
X85940Y29203D02*
X86401Y29664D01*
Y29713D01*
X95087Y38400D01*
X85000Y30991D02*
X93300Y39291D01*
X105900Y69191D02*
X113128D01*
X106628Y67391D02*
X113856D01*
X107343Y65578D02*
X114571D01*
X108083Y63791D02*
X115311D01*
X118220Y64110D02*
X122668D01*
X117000Y62890D02*
X118220Y64110D01*
X117000Y59991D02*
Y62890D01*
X117599Y66079D02*
X122668D01*
X115311Y63791D02*
X117599Y66079D01*
X117040Y68047D02*
X122668D01*
X114571Y65578D02*
X117040Y68047D01*
X116481Y70016D02*
X122668D01*
X113856Y67391D02*
X116481Y70016D01*
X113128Y69191D02*
X115921Y71984D01*
X122611Y75978D02*
X122668Y75921D01*
X111800Y73090D02*
X114500D01*
X115362Y73953D01*
X170500Y175080D02*
Y182591D01*
X160500D02*
X165500Y187591D01*
X175227Y138323D02*
Y157445D01*
X173349Y138413D02*
Y158095D01*
X171290Y138323D02*
Y158564D01*
X169238Y138406D02*
Y159039D01*
X167263Y159592D02*
X184643Y176972D01*
X167263Y138413D02*
Y159592D01*
X165384Y160241D02*
X180500Y175357D01*
X165384Y138323D02*
Y160241D01*
X163416Y160801D02*
X175500Y172885D01*
X163416Y138323D02*
Y160801D01*
X162287Y174378D02*
X165500Y177591D01*
X161000Y165580D02*
X170500Y175080D01*
X159213Y166321D02*
X162287Y169395D01*
Y174378D01*
X157425Y167061D02*
X160500Y170136D01*
Y182591D01*
X130500Y172291D02*
X133713Y169078D01*
X140700Y172791D02*
Y182791D01*
X145500Y187591D01*
X140900Y165518D02*
X150500Y175118D01*
X139113Y166259D02*
X145500Y172646D01*
X137300Y169391D02*
X140700Y172791D01*
X125500Y173591D02*
Y177591D01*
X120400Y175591D02*
Y182491D01*
X125500Y173591D02*
X131925Y167165D01*
X150200Y147391D02*
Y150091D01*
Y147391D02*
X151605Y145986D01*
Y138323D02*
Y145986D01*
X157425Y153716D02*
Y167061D01*
X159213Y152975D02*
Y166321D01*
X161000Y152235D02*
Y165580D01*
X157510Y138323D02*
Y148745D01*
X161000Y152235D01*
X155542Y138323D02*
Y149304D01*
X159213Y152975D01*
X153573Y138323D02*
Y149864D01*
X157425Y153716D01*
X116087Y177003D02*
X128350Y164740D01*
X120400Y175591D02*
X130138Y165853D01*
X128350Y143940D02*
Y164740D01*
Y143940D02*
X129951Y142339D01*
Y138323D02*
Y142339D01*
X137300Y147629D02*
Y169391D01*
X139113Y148345D02*
Y166259D01*
X140900Y149085D02*
Y165518D01*
X146000Y149040D02*
Y154391D01*
X130138Y144681D02*
Y165853D01*
X131925Y145421D02*
Y167165D01*
X133713Y146161D02*
Y169078D01*
X135500Y146902D02*
Y177591D01*
X146000Y149040D02*
X149636Y145404D01*
X142700Y149813D02*
X145699Y146813D01*
X140900Y149085D02*
X143731Y146254D01*
X139113Y148345D02*
X141762Y145695D01*
X137300Y147629D02*
X139794Y145136D01*
X135500Y146902D02*
X137825Y144576D01*
X133713Y146161D02*
X135857Y144017D01*
X131925Y145421D02*
X133888Y143458D01*
X130138Y144681D02*
X131920Y142899D01*
Y138323D02*
Y142899D01*
X133888Y138323D02*
Y143458D01*
X135857Y138323D02*
Y144017D01*
X137825Y138323D02*
Y144576D01*
X139794Y138323D02*
Y145136D01*
X141762Y138323D02*
Y145695D01*
X143731Y138323D02*
Y146254D01*
X145699Y138323D02*
Y146813D01*
X149636Y138323D02*
Y145404D01*
X205500Y172491D02*
Y177591D01*
X206132Y140523D02*
Y148690D01*
X265600Y50991D02*
X272200D01*
X217204Y121578D02*
X232187D01*
X234100Y123491D01*
X231800Y140491D02*
X234900Y143591D01*
X242350D01*
X216464Y123365D02*
X229775D01*
X231800Y125391D01*
Y140491D01*
X229800Y144991D02*
X235833Y151024D01*
X242350D01*
X215723Y125153D02*
X226762D01*
X229800Y128191D01*
Y144991D01*
X214983Y126940D02*
X224750D01*
X226000Y154391D02*
X237500Y165891D01*
X227787Y153650D02*
X232594Y158457D01*
X227787Y129978D02*
Y153650D01*
X224750Y126940D02*
X227787Y129978D01*
X214243Y128727D02*
X223337D01*
X226000Y131391D01*
Y154391D01*
X248650Y165891D02*
X254700D01*
X268578Y179769D01*
X274260D01*
X248650Y158457D02*
X255667D01*
X266514Y169304D01*
X274260D01*
X212058Y129071D02*
X216500Y133513D01*
X234100Y123491D02*
Y138091D01*
X235300Y139291D01*
X248650Y151024D02*
X253933D01*
X261750Y158840D01*
X274260D01*
X235300Y139291D02*
X255100D01*
X256000Y140191D01*
Y144091D01*
X248650Y143591D02*
X251300D01*
X256086Y148376D01*
X274260D01*
X206132Y77890D02*
X216701D01*
X217900Y76691D01*
X219800D01*
X206132Y75921D02*
X216142D01*
X206132Y89701D02*
X229110D01*
X230100Y90690D01*
X233100D01*
X206132Y107417D02*
X230627D01*
X233587Y110378D01*
X246387D01*
X225495Y109386D02*
X228500Y112391D01*
X206132Y109386D02*
X225495D01*
X206132Y115291D02*
X221299D01*
X224200Y112391D01*
X88400Y68490D02*
X103705Y83795D01*
X122668D01*
X93300Y39291D02*
Y70863D01*
X104264Y81827D01*
X122668D01*
X95087Y38400D02*
Y70122D01*
X104823Y79858D01*
X122668D01*
X96875Y37660D02*
Y69382D01*
X105383Y77890D01*
X122668D01*
X98662Y36869D02*
Y68642D01*
X105998Y75978D01*
X122611D01*
X88400Y76390D02*
X97773Y85764D01*
X122668D01*
X88700Y84190D02*
X92061Y87551D01*
X115561D01*
X109687Y34778D02*
X127687D01*
X131920Y39010D01*
Y54858D01*
X110800Y32991D02*
X128428D01*
X133888Y38451D01*
Y54858D01*
X115500Y16091D02*
X135857Y36447D01*
Y54858D01*
X120500Y11091D02*
Y18027D01*
X137825Y35352D01*
Y54858D01*
X130600Y11191D02*
Y18284D01*
X141762Y29447D01*
Y54858D01*
X140600Y11191D02*
Y18245D01*
X151605Y29250D01*
Y54858D01*
X135500Y16091D02*
X149636Y30227D01*
Y54858D01*
X125500Y16091D02*
X139794Y30384D01*
Y54858D01*
X145500Y16091D02*
X153573Y24164D01*
Y54858D01*
X150500Y11091D02*
Y18105D01*
X159487Y27093D01*
Y54850D01*
X155500Y16091D02*
X161447Y22038D01*
Y54858D01*
X160700Y11291D02*
Y18069D01*
X163416Y20785D01*
Y54858D01*
X167353Y21021D02*
Y54858D01*
Y21021D02*
X170600Y17773D01*
Y11191D02*
Y17773D01*
X169321Y22269D02*
Y54858D01*
Y22269D02*
X175500Y16091D01*
X175227Y23186D02*
Y54858D01*
Y23186D02*
X180500Y17913D01*
Y11091D02*
Y17913D01*
X177195Y24395D02*
Y54858D01*
Y24395D02*
X185500Y16091D01*
X227000Y37591D02*
Y40991D01*
Y37591D02*
X238000Y26591D01*
X240750D01*
X213887Y47703D02*
Y64303D01*
Y47703D02*
X245500Y16091D01*
X55500D02*
X70400Y30991D01*
X85000D01*
X60600Y11191D02*
Y18166D01*
X71637Y29203D01*
X85940D01*
X65500Y16091D02*
X76825Y27416D01*
X86681D01*
X70600Y11191D02*
Y18663D01*
X77566Y25628D01*
X87421D01*
X142700Y149813D02*
Y164791D01*
X155500Y177591D01*
X171290Y158564D02*
X183678Y170952D01*
X203961D01*
X205500Y172491D01*
X173349Y158095D02*
X184418Y169165D01*
X175227Y157445D02*
X185159Y167377D01*
X181132Y160823D02*
X185899Y165590D01*
X187582Y159728D02*
X191656Y163802D01*
X189369Y158988D02*
X192397Y162015D01*
X191157Y158247D02*
X193137Y160228D01*
X198013Y155831D02*
X200622Y158440D01*
X199800Y155091D02*
X201362Y156653D01*
X224562D01*
X200622Y158440D02*
X223750D01*
X193137Y160228D02*
X222337D01*
X192397Y162015D02*
X221224D01*
X191656Y163802D02*
X219912D01*
X185899Y165590D02*
X217699D01*
X185159Y167377D02*
X212587D01*
X184418Y169165D02*
X208674D01*
X210600Y171091D01*
X212587Y167377D02*
X215500Y170291D01*
X217699Y165590D02*
X220600Y168491D01*
X219912Y163802D02*
X225500Y169391D01*
X221224Y162015D02*
X230500Y171291D01*
X222337Y160228D02*
X235500Y173391D01*
X223750Y158440D02*
X240700Y175391D01*
X224562Y156653D02*
X245500Y177591D01*
X169238Y159039D02*
X183217Y173019D01*
X197835D01*
X200600Y175784D01*
Y182691D01*
D15*
X263846Y57890D02*
D03*
Y62890D02*
D03*
Y67891D02*
D03*
Y72891D02*
D03*
X244554Y57890D02*
D03*
Y62890D02*
D03*
Y67891D02*
D03*
Y72891D02*
D03*
D16*
X274360Y23857D02*
D03*
X281840D02*
D03*
X274360Y159024D02*
D03*
X281840D02*
D03*
X274360Y148491D02*
D03*
X281840D02*
D03*
X274360Y44991D02*
D03*
X281840D02*
D03*
X274360Y34424D02*
D03*
X281840D02*
D03*
X274360Y169557D02*
D03*
X281840D02*
D03*
X274360Y180090D02*
D03*
X281840D02*
D03*
X17560Y171691D02*
D03*
X25040D02*
D03*
X274360Y13291D02*
D03*
X281840D02*
D03*
D17*
X248450Y48090D02*
D03*
X242150D02*
D03*
X248450Y40924D02*
D03*
X242150D02*
D03*
Y33757D02*
D03*
X248450D02*
D03*
X242150Y26591D02*
D03*
X248450D02*
D03*
X10150Y156591D02*
D03*
X16450D02*
D03*
X93750Y93590D02*
D03*
X100050D02*
D03*
X242350Y165891D02*
D03*
X248650D02*
D03*
X242350Y158457D02*
D03*
X248650D02*
D03*
Y151024D02*
D03*
X242350D02*
D03*
X248650Y143591D02*
D03*
X242350D02*
D03*
X248550Y84790D02*
D03*
X242250D02*
D03*
D18*
X248461Y130104D02*
D03*
X239685Y130210D02*
D03*
X248346Y119974D02*
D03*
X239685D02*
D03*
X248346Y105449D02*
D03*
X239685D02*
D03*
X248346Y95213D02*
D03*
X239571Y95319D02*
D03*
D19*
X84579Y127792D02*
D03*
Y122753D02*
D03*
Y117713D02*
D03*
Y112674D02*
D03*
X54579Y112674D02*
D03*
Y117713D02*
D03*
Y122753D02*
D03*
Y127792D02*
D03*
D20*
X11945Y113913D02*
D03*
X21000D02*
D03*
X30055D02*
D03*
X11945Y56039D02*
D03*
X21000D02*
D03*
X30055D02*
D03*
D21*
X21000Y137142D02*
D03*
Y79268D02*
D03*
D22*
X63350Y152823D02*
D03*
X69650D02*
D03*
X63350Y40291D02*
D03*
X69650D02*
D03*
D23*
X78500Y46943D02*
D03*
Y41038D02*
D03*
X78800Y146238D02*
D03*
Y152143D02*
D03*
X256600Y97272D02*
D03*
Y103177D02*
D03*
X256600Y127939D02*
D03*
Y122033D02*
D03*
X216500Y138843D02*
D03*
Y132938D02*
D03*
X111800Y53438D02*
D03*
Y59343D02*
D03*
X218200Y56743D02*
D03*
Y50838D02*
D03*
D24*
X40047Y62090D02*
D03*
X45953D02*
D03*
X40047Y55190D02*
D03*
X45953D02*
D03*
X39747Y120090D02*
D03*
X45653D02*
D03*
X39720Y113159D02*
D03*
X45626D02*
D03*
X122653Y45391D02*
D03*
X116747D02*
D03*
X206350Y148690D02*
D03*
X212255D02*
D03*
D25*
X276300Y99740D02*
D03*
Y93441D02*
D03*
D26*
X198849Y54858D02*
D03*
X196880D02*
D03*
X194912D02*
D03*
X192943D02*
D03*
X190975D02*
D03*
X189006D02*
D03*
X187038D02*
D03*
X185069D02*
D03*
X183101D02*
D03*
X181132D02*
D03*
X179164D02*
D03*
X177195D02*
D03*
X175227D02*
D03*
X173258D02*
D03*
X171290D02*
D03*
X169321D02*
D03*
X167353D02*
D03*
X165384D02*
D03*
X163416D02*
D03*
X161447D02*
D03*
X159479D02*
D03*
X157510D02*
D03*
X155542D02*
D03*
X153573D02*
D03*
X151605D02*
D03*
X149636D02*
D03*
X147668D02*
D03*
X145699D02*
D03*
X143731D02*
D03*
X141762D02*
D03*
X139794D02*
D03*
X137825D02*
D03*
X135857D02*
D03*
X133888D02*
D03*
X131920D02*
D03*
X129951D02*
D03*
Y138323D02*
D03*
X131920D02*
D03*
X133888D02*
D03*
X135857D02*
D03*
X137825D02*
D03*
X139794D02*
D03*
X141762D02*
D03*
X143731D02*
D03*
X145699D02*
D03*
X147668D02*
D03*
X149636D02*
D03*
X151605D02*
D03*
X153573D02*
D03*
X155542D02*
D03*
X157510D02*
D03*
X159479D02*
D03*
X161447D02*
D03*
X163416D02*
D03*
X165384D02*
D03*
X167353D02*
D03*
X169321D02*
D03*
X171290D02*
D03*
X173258D02*
D03*
X175227D02*
D03*
X177195D02*
D03*
X179164D02*
D03*
X181132D02*
D03*
X183101D02*
D03*
X185069D02*
D03*
X187038D02*
D03*
X189006D02*
D03*
X190975D02*
D03*
X192943D02*
D03*
X194912D02*
D03*
X196880D02*
D03*
X198849D02*
D03*
D27*
X122668Y62142D02*
D03*
Y64110D02*
D03*
Y66079D02*
D03*
Y68047D02*
D03*
Y70016D02*
D03*
Y71984D02*
D03*
Y73953D02*
D03*
Y75921D02*
D03*
Y77890D02*
D03*
Y79858D02*
D03*
Y81827D02*
D03*
Y83795D02*
D03*
Y85764D02*
D03*
Y87732D02*
D03*
Y89701D02*
D03*
Y91669D02*
D03*
Y93638D02*
D03*
Y95606D02*
D03*
Y97575D02*
D03*
Y99543D02*
D03*
Y101512D02*
D03*
Y103480D02*
D03*
Y105449D02*
D03*
Y107417D02*
D03*
Y109386D02*
D03*
Y111354D02*
D03*
Y113323D02*
D03*
Y115291D02*
D03*
Y117260D02*
D03*
Y119228D02*
D03*
Y121197D02*
D03*
Y123165D02*
D03*
Y125134D02*
D03*
Y127102D02*
D03*
Y129071D02*
D03*
Y131039D02*
D03*
X206132D02*
D03*
Y129071D02*
D03*
Y127102D02*
D03*
Y125134D02*
D03*
Y123165D02*
D03*
Y121197D02*
D03*
Y119228D02*
D03*
Y117260D02*
D03*
Y115291D02*
D03*
Y113323D02*
D03*
Y111354D02*
D03*
Y109386D02*
D03*
Y107417D02*
D03*
Y105449D02*
D03*
Y103480D02*
D03*
Y101512D02*
D03*
Y99543D02*
D03*
Y97575D02*
D03*
Y95606D02*
D03*
Y93638D02*
D03*
Y91669D02*
D03*
Y89701D02*
D03*
Y87732D02*
D03*
Y85764D02*
D03*
Y83795D02*
D03*
Y81827D02*
D03*
Y79858D02*
D03*
Y77890D02*
D03*
Y75921D02*
D03*
Y73953D02*
D03*
Y71984D02*
D03*
Y70016D02*
D03*
Y68047D02*
D03*
Y66079D02*
D03*
Y64110D02*
D03*
Y62142D02*
D03*
D28*
X164400Y96591D02*
D03*
D48*
X244554Y62890D02*
X251572D01*
X256572Y67891D02*
X263846D01*
X251572Y62890D02*
X256572Y67891D01*
X272211Y69127D02*
X272441Y68898D01*
X272211Y69127D02*
Y69879D01*
X218200Y50838D02*
X223753D01*
D49*
X244554Y57890D02*
X252247D01*
X263846Y72891D02*
Y80052D01*
Y67891D02*
Y72891D01*
X184300Y148591D02*
Y159491D01*
X180700Y35191D02*
Y42391D01*
Y35191D02*
X185700Y30191D01*
X256600Y95213D02*
Y97272D01*
X88400Y102391D02*
X88450Y102340D01*
X206350Y148690D02*
Y153641D01*
D50*
X279740Y23843D02*
Y44805D01*
Y5431D02*
Y23843D01*
X281740Y148376D02*
Y187231D01*
X146300Y31291D02*
Y41591D01*
X69650Y152823D02*
X78780D01*
X69650Y40291D02*
X78447D01*
X69650Y152823D02*
X71187Y151285D01*
X275600Y108491D02*
X278700Y111591D01*
X239685Y113376D02*
Y119974D01*
X69650Y152823D02*
X70000Y153173D01*
Y159391D01*
X122668Y44591D02*
X123168Y44091D01*
X122600Y40191D02*
Y44523D01*
X122668Y44591D01*
X150200Y150091D02*
Y159491D01*
X216500Y132938D02*
X221653D01*
D51*
X248461Y130104D02*
X261287D01*
D52*
X45953Y62090D02*
X45953Y62090D01*
X45953Y55190D02*
Y62090D01*
X40047D02*
X40047Y62090D01*
X40047Y55190D02*
Y62090D01*
X50953Y152823D02*
X63350D01*
X50953Y40330D02*
X63310D01*
X54579Y112674D02*
Y117713D01*
Y122753D01*
Y127792D01*
X11945Y56039D02*
Y69446D01*
X5300Y76091D02*
X11945Y69446D01*
D53*
X80498Y127792D02*
X84579D01*
X80383Y112674D02*
X84579D01*
X77800Y110091D02*
X80383Y112674D01*
X77800Y130491D02*
X80498Y127792D01*
X77800Y123591D02*
X78638Y122753D01*
X84579D01*
X77800Y116790D02*
X78723Y117713D01*
X84579D01*
D54*
X281950Y81541D02*
D03*
D55*
X277350Y86291D02*
D03*
D56*
X281800Y111491D02*
D03*
D57*
X277250Y113441D02*
D03*
D58*
X275500Y126641D02*
D03*
D59*
X266400Y105791D02*
D03*
D60*
X49700Y92090D02*
D03*
D61*
X252450Y104856D02*
D03*
D62*
X252595Y94961D02*
D03*
D63*
X216650Y144141D02*
D03*
D64*
X113850Y46893D02*
D03*
D65*
X252100Y131441D02*
D03*
D66*
X263150Y133441D02*
D03*
D67*
X256600Y116791D02*
D03*
D68*
X8639Y36533D02*
D03*
D69*
X6939Y96850D02*
D03*
D70*
X25939Y11333D02*
D03*
D71*
X17450Y164841D02*
D03*
D72*
X25889Y184857D02*
D03*
D73*
X8939Y108041D02*
D03*
D74*
X29350Y151291D02*
D03*
D75*
X21650Y141741D02*
D03*
D76*
X34650Y115091D02*
D03*
D77*
X39650Y131791D02*
D03*
D78*
X41350Y152491D02*
D03*
D79*
X51450Y123741D02*
D03*
D80*
X22350Y102641D02*
D03*
D81*
X22300Y53540D02*
D03*
D82*
X39150Y16333D02*
D03*
D83*
X35000Y51990D02*
D03*
D84*
X36400Y37941D02*
D03*
D85*
X36850Y89240D02*
D03*
D86*
X56650Y152491D02*
D03*
D87*
X74500Y153591D02*
D03*
D88*
X70800Y150991D02*
D03*
D89*
X54750Y143541D02*
D03*
D90*
X56150Y37941D02*
D03*
D91*
X49650Y78091D02*
D03*
D92*
X62650Y65591D02*
D03*
D93*
X78050Y75041D02*
D03*
D94*
X63400Y96940D02*
D03*
D95*
X65000Y113841D02*
D03*
D96*
X70850Y141541D02*
D03*
D97*
X72450Y111991D02*
D03*
D98*
X83150Y141341D02*
D03*
D99*
X77150Y135041D02*
D03*
D100*
X43850Y175657D02*
D03*
D101*
X86850Y54090D02*
D03*
D102*
X264850Y115091D02*
D03*
D103*
X256500Y89211D02*
D03*
D104*
X115354Y161171D02*
D03*
D105*
X118555Y163533D02*
D03*
D106*
X119390Y147293D02*
D03*
D107*
X123376Y155512D02*
D03*
D108*
X164665Y96555D02*
D03*
D109*
X245512Y187448D02*
D03*
Y177448D02*
D03*
X235512Y187448D02*
D03*
Y177448D02*
D03*
X225512Y187448D02*
D03*
Y177448D02*
D03*
X215512Y187448D02*
D03*
Y177448D02*
D03*
X205512Y187448D02*
D03*
Y177448D02*
D03*
X195512Y187448D02*
D03*
Y177448D02*
D03*
X185512Y187448D02*
D03*
Y177448D02*
D03*
X175512Y187448D02*
D03*
Y177448D02*
D03*
X165512Y187448D02*
D03*
Y177448D02*
D03*
X155512Y187448D02*
D03*
Y177448D02*
D03*
X145512Y187448D02*
D03*
Y177448D02*
D03*
X135512Y187448D02*
D03*
Y177448D02*
D03*
X125512Y187448D02*
D03*
Y177448D02*
D03*
X115512Y187448D02*
D03*
Y177448D02*
D03*
X105512Y187448D02*
D03*
Y177448D02*
D03*
X95512Y187448D02*
D03*
Y177448D02*
D03*
X85512Y187448D02*
D03*
Y177448D02*
D03*
X75512Y187448D02*
D03*
Y177448D02*
D03*
X65512Y187448D02*
D03*
Y177448D02*
D03*
X55512Y187448D02*
D03*
X40953Y152823D02*
D03*
X285800Y121591D02*
D03*
Y111591D02*
D03*
Y101591D02*
D03*
Y91590D02*
D03*
Y81590D02*
D03*
X40953Y40330D02*
D03*
X11600Y27491D02*
D03*
X55472Y6228D02*
D03*
Y16228D02*
D03*
X65472Y6228D02*
D03*
Y16228D02*
D03*
X75472Y6228D02*
D03*
Y16228D02*
D03*
X85472Y6228D02*
D03*
Y16228D02*
D03*
X95472Y6228D02*
D03*
Y16228D02*
D03*
X105472Y6228D02*
D03*
Y16228D02*
D03*
X115472Y6228D02*
D03*
Y16228D02*
D03*
X125472Y6228D02*
D03*
Y16228D02*
D03*
X135472Y6228D02*
D03*
Y16228D02*
D03*
X145472Y6228D02*
D03*
Y16228D02*
D03*
X155472Y6228D02*
D03*
Y16228D02*
D03*
X165472Y6228D02*
D03*
Y16228D02*
D03*
X175472Y6228D02*
D03*
Y16228D02*
D03*
X185472Y6228D02*
D03*
Y16228D02*
D03*
X195472Y6228D02*
D03*
Y16228D02*
D03*
X205472Y6228D02*
D03*
Y16228D02*
D03*
X215472Y6228D02*
D03*
Y16228D02*
D03*
X225472Y6228D02*
D03*
Y16228D02*
D03*
X235472Y6228D02*
D03*
Y16228D02*
D03*
X245472Y6228D02*
D03*
D110*
X55512Y177448D02*
D03*
X50953Y152823D02*
D03*
X50953Y40330D02*
D03*
X21600Y27491D02*
D03*
X245472Y16228D02*
D03*
D111*
X285800Y71591D02*
D03*
D112*
X159695Y101083D02*
D03*
X164370D02*
D03*
X169045D02*
D03*
Y96653D02*
D03*
X164370D02*
D03*
X159695D02*
D03*
Y92224D02*
D03*
X164370D02*
D03*
X169045D02*
D03*
X238287Y77067D02*
D03*
X229626Y73622D02*
D03*
X226772Y79921D02*
D03*
X252323Y57815D02*
D03*
X81500Y76390D02*
D03*
X130449Y62142D02*
D03*
X130358Y87732D02*
D03*
X130368Y113323D02*
D03*
X130362Y119228D02*
D03*
X147668Y130623D02*
D03*
X159479Y130612D02*
D03*
X177195Y130595D02*
D03*
X190975Y130616D02*
D03*
X198449Y131039D02*
D03*
X198432Y113323D02*
D03*
X198390Y103480D02*
D03*
X198384Y97575D02*
D03*
X198457Y68047D02*
D03*
X190975Y62565D02*
D03*
X173258Y62549D02*
D03*
X157510Y62601D02*
D03*
X147668Y62558D02*
D03*
X279740Y5431D02*
D03*
X281740Y187231D02*
D03*
X85100Y48791D02*
D03*
Y52390D02*
D03*
X49800Y27591D02*
D03*
Y24390D02*
D03*
X53400D02*
D03*
Y27591D02*
D03*
X146300Y31291D02*
D03*
X180700Y40991D02*
D03*
X114200Y114291D02*
D03*
X114300Y120291D02*
D03*
X228600Y100591D02*
D03*
X216600Y94490D02*
D03*
X112070Y90461D02*
D03*
X146700Y46291D02*
D03*
X156600D02*
D03*
X172300D02*
D03*
X216600Y112391D02*
D03*
Y102491D02*
D03*
X219800Y76691D02*
D03*
X223800D02*
D03*
X231000Y40991D02*
D03*
X235000D02*
D03*
X227000D02*
D03*
X216000Y71890D02*
D03*
X235200Y48090D02*
D03*
X52900Y164891D02*
D03*
X111800Y59290D02*
D03*
X184300Y148591D02*
D03*
X178200D02*
D03*
X160500Y147291D02*
D03*
X51236Y143591D02*
D03*
X218400Y118691D02*
D03*
X146300Y41591D02*
D03*
X125300Y163591D02*
D03*
X184300Y159491D02*
D03*
X194900Y148591D02*
D03*
X185700Y30191D02*
D03*
X191900Y44091D02*
D03*
X239600Y113291D02*
D03*
X267100Y139191D02*
D03*
X263200D02*
D03*
X259200D02*
D03*
X256600Y113291D02*
D03*
X233100Y90690D02*
D03*
Y96491D02*
D03*
Y101291D02*
D03*
X70000Y159278D02*
D03*
X46000Y143591D02*
D03*
X88400Y102391D02*
D03*
Y52390D02*
D03*
Y48791D02*
D03*
X122600Y40191D02*
D03*
X111800Y73090D02*
D03*
X52900Y168091D02*
D03*
X49300Y164891D02*
D03*
Y168091D02*
D03*
X64400Y143591D02*
D03*
X113700Y152791D02*
D03*
Y159278D02*
D03*
X150200Y150091D02*
D03*
X125300Y159491D02*
D03*
X146000Y154891D02*
D03*
X150200Y159491D02*
D03*
X84600Y40191D02*
D03*
X111100Y44891D02*
D03*
X206300Y153691D02*
D03*
X265600Y50991D02*
D03*
X269300Y85590D02*
D03*
X221100Y148591D02*
D03*
X256000Y143991D02*
D03*
X221700Y132891D02*
D03*
X223753Y50838D02*
D03*
X218200Y62990D02*
D03*
X271200Y127291D02*
D03*
X228500Y112391D02*
D03*
X224200D02*
D03*
X59600Y91190D02*
D03*
X63350D02*
D03*
X67100D02*
D03*
X88400Y68490D02*
D03*
X88700Y84190D02*
D03*
D113*
X77800Y110091D02*
D03*
Y116790D02*
D03*
Y123591D02*
D03*
Y130491D02*
D03*
M02*
