G04*
G04 #@! TF.GenerationSoftware,Altium Limited,Altium Designer,20.0.13 (296)*
G04*
G04 Layer_Physical_Order=2*
G04 Layer_Color=16711680*
%FSLAX25Y25*%
%MOIN*%
G70*
G01*
G75*
%ADD13C,0.01000*%
%ADD17R,0.03937X0.05118*%
%ADD22R,0.04724X0.05512*%
%ADD23R,0.05512X0.04331*%
%ADD24R,0.04331X0.05512*%
%ADD25R,0.05118X0.03937*%
%ADD48C,0.02000*%
%ADD49C,0.02500*%
%ADD50C,0.03000*%
%ADD52C,0.04000*%
%ADD53C,0.01500*%
%ADD109C,0.05906*%
%ADD110R,0.05906X0.05906*%
%ADD111R,0.05906X0.05906*%
%ADD112C,0.03200*%
%ADD113C,0.05000*%
%ADD114R,0.04331X0.06693*%
%ADD115R,0.06693X0.04331*%
%ADD116R,0.04134X0.05512*%
%ADD117R,0.09400X0.15600*%
%ADD118R,0.10624X0.19400*%
%ADD119R,0.04900X0.15600*%
%ADD120R,0.12200X0.07700*%
%ADD121R,0.10300X0.16700*%
%ADD122R,0.12300X0.10400*%
%ADD123R,2.08600X0.07500*%
%ADD124R,0.05600X0.65100*%
%ADD125R,0.06700X0.15800*%
%ADD126R,0.34400X0.04700*%
%ADD127R,0.10200X0.14100*%
%ADD128R,0.70900X0.08600*%
%ADD129R,0.18100X0.03400*%
%ADD130R,0.06300X0.13800*%
%ADD131R,0.28100X0.21100*%
%ADD132R,0.16600X0.05700*%
%ADD133R,0.05700X0.15100*%
%ADD134R,0.32400X0.04300*%
%ADD135R,0.04600X0.13900*%
%ADD136R,0.06100X0.14600*%
%ADD137R,0.10700X0.04000*%
%ADD138R,0.22100X0.10000*%
%ADD139R,0.32400X0.09600*%
%ADD140R,0.83400X0.83400*%
%ADD141R,0.10900X0.58300*%
%ADD142R,0.29900X0.24900*%
%ADD143R,0.25600X0.07200*%
%ADD144R,0.18300X1.01200*%
%ADD145R,0.47300X0.13500*%
%ADD146R,0.08400X0.26100*%
%ADD147R,0.06000X0.11800*%
%ADD148R,0.30500X0.21900*%
%ADD149R,0.59200X0.04700*%
%ADD150R,0.41500X0.06300*%
%ADD151R,0.23900X0.06400*%
%ADD152R,0.67300X0.03900*%
%ADD153R,0.05600X0.27600*%
%ADD154R,0.17200X0.38300*%
%ADD155R,0.66200X0.06900*%
%ADD156R,0.11900X0.41600*%
%ADD157R,0.39100X0.17600*%
%ADD158R,0.06600X0.71400*%
%ADD159R,0.23100X0.12100*%
%ADD160R,0.86800X0.08900*%
%ADD161R,1.47800X0.04900*%
%ADD162R,0.06400X0.31700*%
%ADD163R,0.33100X0.07200*%
%ADD164R,0.48700X0.04000*%
%ADD165R,0.10800X0.13700*%
%ADD166R,0.52900X0.14300*%
%ADD167R,0.39500X0.20100*%
%ADD168R,0.33600X0.38100*%
%ADD169R,0.30800X0.17600*%
%ADD170R,0.24400X0.17600*%
%ADD171R,0.06700X0.17600*%
%ADD172R,0.39700X0.05700*%
%ADD173R,0.06900X0.10900*%
%ADD174R,0.05300X0.12600*%
%ADD175R,0.10800X0.23000*%
%ADD176R,0.80400X0.04100*%
%ADD177R,0.08100X0.04500*%
%ADD178R,0.05100X0.21900*%
%ADD179R,0.15600X0.12000*%
%ADD180R,0.06000X0.28800*%
%ADD181R,0.14300X0.05700*%
%ADD182R,0.13200X0.09200*%
%ADD183R,0.23000X0.12500*%
%ADD184R,0.09600X0.09100*%
%ADD185R,0.24500X0.28600*%
%ADD186R,0.08900X0.09600*%
%ADD187R,0.03100X0.38900*%
%ADD188R,0.79200X0.03500*%
%ADD189R,0.18800X0.34800*%
%ADD190R,0.68800X0.06100*%
%ADD191R,0.08900X0.34000*%
%ADD192R,0.24100X0.04500*%
%ADD193R,0.04000X0.44800*%
%ADD194R,0.13300X0.06500*%
%ADD195R,0.06100X0.36200*%
%ADD196R,0.02600X0.29400*%
%ADD197R,0.13700X0.11900*%
%ADD198R,0.58100X0.04000*%
G36*
X293987Y1476D02*
X1378D01*
Y192224D01*
X293987D01*
Y1476D01*
D02*
G37*
%LPC*%
G36*
X245512Y191220D02*
X244535Y191092D01*
X243626Y190715D01*
X242844Y190115D01*
X242245Y189334D01*
X241868Y188424D01*
X241739Y187448D01*
X241868Y186472D01*
X242245Y185562D01*
X242844Y184781D01*
X243626Y184181D01*
X244535Y183804D01*
X245512Y183676D01*
X246488Y183804D01*
X247398Y184181D01*
X248179Y184781D01*
X248779Y185562D01*
X249156Y186472D01*
X249284Y187448D01*
X249156Y188424D01*
X248779Y189334D01*
X248179Y190115D01*
X247398Y190715D01*
X246488Y191092D01*
X245512Y191220D01*
D02*
G37*
G36*
X235512D02*
X234535Y191092D01*
X233626Y190715D01*
X232844Y190115D01*
X232245Y189334D01*
X231868Y188424D01*
X231739Y187448D01*
X231868Y186472D01*
X232245Y185562D01*
X232844Y184781D01*
X233626Y184181D01*
X234535Y183804D01*
X235512Y183676D01*
X236488Y183804D01*
X237398Y184181D01*
X238179Y184781D01*
X238779Y185562D01*
X239156Y186472D01*
X239284Y187448D01*
X239156Y188424D01*
X238779Y189334D01*
X238179Y190115D01*
X237398Y190715D01*
X236488Y191092D01*
X235512Y191220D01*
D02*
G37*
G36*
X225512D02*
X224535Y191092D01*
X223626Y190715D01*
X222844Y190115D01*
X222245Y189334D01*
X221868Y188424D01*
X221739Y187448D01*
X221868Y186472D01*
X222245Y185562D01*
X222844Y184781D01*
X223626Y184181D01*
X224535Y183804D01*
X225512Y183676D01*
X226488Y183804D01*
X227398Y184181D01*
X228179Y184781D01*
X228779Y185562D01*
X229156Y186472D01*
X229284Y187448D01*
X229156Y188424D01*
X228779Y189334D01*
X228179Y190115D01*
X227398Y190715D01*
X226488Y191092D01*
X225512Y191220D01*
D02*
G37*
G36*
X215512D02*
X214535Y191092D01*
X213626Y190715D01*
X212844Y190115D01*
X212245Y189334D01*
X211868Y188424D01*
X211739Y187448D01*
X211868Y186472D01*
X212245Y185562D01*
X212844Y184781D01*
X213626Y184181D01*
X214535Y183804D01*
X215512Y183676D01*
X216488Y183804D01*
X217398Y184181D01*
X218179Y184781D01*
X218779Y185562D01*
X219156Y186472D01*
X219284Y187448D01*
X219156Y188424D01*
X218779Y189334D01*
X218179Y190115D01*
X217398Y190715D01*
X216488Y191092D01*
X215512Y191220D01*
D02*
G37*
G36*
X205512D02*
X204535Y191092D01*
X203626Y190715D01*
X202844Y190115D01*
X202245Y189334D01*
X201868Y188424D01*
X201739Y187448D01*
X201868Y186472D01*
X202245Y185562D01*
X202844Y184781D01*
X203626Y184181D01*
X204535Y183804D01*
X205512Y183676D01*
X206488Y183804D01*
X207398Y184181D01*
X208179Y184781D01*
X208779Y185562D01*
X209156Y186472D01*
X209284Y187448D01*
X209156Y188424D01*
X208779Y189334D01*
X208179Y190115D01*
X207398Y190715D01*
X206488Y191092D01*
X205512Y191220D01*
D02*
G37*
G36*
X185512D02*
X184535Y191092D01*
X183626Y190715D01*
X182844Y190115D01*
X182245Y189334D01*
X181868Y188424D01*
X181739Y187448D01*
X181868Y186472D01*
X182245Y185562D01*
X182844Y184781D01*
X183626Y184181D01*
X184535Y183804D01*
X185512Y183676D01*
X186488Y183804D01*
X187398Y184181D01*
X188179Y184781D01*
X188779Y185562D01*
X189156Y186472D01*
X189284Y187448D01*
X189156Y188424D01*
X188779Y189334D01*
X188179Y190115D01*
X187398Y190715D01*
X186488Y191092D01*
X185512Y191220D01*
D02*
G37*
G36*
X175512D02*
X174535Y191092D01*
X173626Y190715D01*
X172844Y190115D01*
X172245Y189334D01*
X171868Y188424D01*
X171739Y187448D01*
X171868Y186472D01*
X172245Y185562D01*
X172844Y184781D01*
X173626Y184181D01*
X174535Y183804D01*
X175512Y183676D01*
X176488Y183804D01*
X177398Y184181D01*
X178179Y184781D01*
X178779Y185562D01*
X179156Y186472D01*
X179284Y187448D01*
X179156Y188424D01*
X178779Y189334D01*
X178179Y190115D01*
X177398Y190715D01*
X176488Y191092D01*
X175512Y191220D01*
D02*
G37*
G36*
X165512D02*
X164535Y191092D01*
X163626Y190715D01*
X162844Y190115D01*
X162245Y189334D01*
X161868Y188424D01*
X161739Y187448D01*
X161868Y186472D01*
X162245Y185562D01*
X162844Y184781D01*
X163626Y184181D01*
X164535Y183804D01*
X165512Y183676D01*
X166488Y183804D01*
X167398Y184181D01*
X168179Y184781D01*
X168779Y185562D01*
X169156Y186472D01*
X169284Y187448D01*
X169156Y188424D01*
X168779Y189334D01*
X168179Y190115D01*
X167398Y190715D01*
X166488Y191092D01*
X165512Y191220D01*
D02*
G37*
G36*
X155512D02*
X154535Y191092D01*
X153626Y190715D01*
X152844Y190115D01*
X152245Y189334D01*
X151868Y188424D01*
X151739Y187448D01*
X151868Y186472D01*
X152245Y185562D01*
X152844Y184781D01*
X153626Y184181D01*
X154535Y183804D01*
X155512Y183676D01*
X156488Y183804D01*
X157398Y184181D01*
X158179Y184781D01*
X158779Y185562D01*
X159156Y186472D01*
X159284Y187448D01*
X159156Y188424D01*
X158779Y189334D01*
X158179Y190115D01*
X157398Y190715D01*
X156488Y191092D01*
X155512Y191220D01*
D02*
G37*
G36*
X145512D02*
X144535Y191092D01*
X143626Y190715D01*
X142844Y190115D01*
X142245Y189334D01*
X141868Y188424D01*
X141739Y187448D01*
X141868Y186472D01*
X142245Y185562D01*
X142844Y184781D01*
X143626Y184181D01*
X144535Y183804D01*
X145512Y183676D01*
X146488Y183804D01*
X147398Y184181D01*
X148179Y184781D01*
X148779Y185562D01*
X149156Y186472D01*
X149284Y187448D01*
X149156Y188424D01*
X148779Y189334D01*
X148179Y190115D01*
X147398Y190715D01*
X146488Y191092D01*
X145512Y191220D01*
D02*
G37*
G36*
X135512D02*
X134535Y191092D01*
X133626Y190715D01*
X132844Y190115D01*
X132245Y189334D01*
X131868Y188424D01*
X131739Y187448D01*
X131868Y186472D01*
X132245Y185562D01*
X132844Y184781D01*
X133626Y184181D01*
X134535Y183804D01*
X135512Y183676D01*
X136488Y183804D01*
X137398Y184181D01*
X138179Y184781D01*
X138779Y185562D01*
X139156Y186472D01*
X139284Y187448D01*
X139156Y188424D01*
X138779Y189334D01*
X138179Y190115D01*
X137398Y190715D01*
X136488Y191092D01*
X135512Y191220D01*
D02*
G37*
G36*
X125512D02*
X124535Y191092D01*
X123626Y190715D01*
X122844Y190115D01*
X122245Y189334D01*
X121868Y188424D01*
X121739Y187448D01*
X121868Y186472D01*
X122245Y185562D01*
X122844Y184781D01*
X123626Y184181D01*
X124535Y183804D01*
X125512Y183676D01*
X126488Y183804D01*
X127398Y184181D01*
X128179Y184781D01*
X128779Y185562D01*
X129156Y186472D01*
X129284Y187448D01*
X129156Y188424D01*
X128779Y189334D01*
X128179Y190115D01*
X127398Y190715D01*
X126488Y191092D01*
X125512Y191220D01*
D02*
G37*
G36*
X115512D02*
X114535Y191092D01*
X113626Y190715D01*
X112844Y190115D01*
X112245Y189334D01*
X111868Y188424D01*
X111739Y187448D01*
X111868Y186472D01*
X112245Y185562D01*
X112844Y184781D01*
X113626Y184181D01*
X114535Y183804D01*
X115512Y183676D01*
X116488Y183804D01*
X117398Y184181D01*
X118179Y184781D01*
X118779Y185562D01*
X119156Y186472D01*
X119284Y187448D01*
X119156Y188424D01*
X118779Y189334D01*
X118179Y190115D01*
X117398Y190715D01*
X116488Y191092D01*
X115512Y191220D01*
D02*
G37*
G36*
X95512D02*
X94535Y191092D01*
X93626Y190715D01*
X92844Y190115D01*
X92245Y189334D01*
X91868Y188424D01*
X91739Y187448D01*
X91868Y186472D01*
X92245Y185562D01*
X92844Y184781D01*
X93626Y184181D01*
X94535Y183804D01*
X95512Y183676D01*
X96488Y183804D01*
X97398Y184181D01*
X98179Y184781D01*
X98779Y185562D01*
X99156Y186472D01*
X99284Y187448D01*
X99156Y188424D01*
X98779Y189334D01*
X98179Y190115D01*
X97398Y190715D01*
X96488Y191092D01*
X95512Y191220D01*
D02*
G37*
G36*
X85512D02*
X84535Y191092D01*
X83626Y190715D01*
X82844Y190115D01*
X82245Y189334D01*
X81868Y188424D01*
X81739Y187448D01*
X81868Y186472D01*
X82245Y185562D01*
X82844Y184781D01*
X83626Y184181D01*
X84535Y183804D01*
X85512Y183676D01*
X86488Y183804D01*
X87398Y184181D01*
X88179Y184781D01*
X88779Y185562D01*
X89156Y186472D01*
X89284Y187448D01*
X89156Y188424D01*
X88779Y189334D01*
X88179Y190115D01*
X87398Y190715D01*
X86488Y191092D01*
X85512Y191220D01*
D02*
G37*
G36*
X75512D02*
X74535Y191092D01*
X73626Y190715D01*
X72844Y190115D01*
X72245Y189334D01*
X71868Y188424D01*
X71739Y187448D01*
X71868Y186472D01*
X72245Y185562D01*
X72844Y184781D01*
X73626Y184181D01*
X74535Y183804D01*
X75512Y183676D01*
X76488Y183804D01*
X77398Y184181D01*
X78179Y184781D01*
X78779Y185562D01*
X79156Y186472D01*
X79284Y187448D01*
X79156Y188424D01*
X78779Y189334D01*
X78179Y190115D01*
X77398Y190715D01*
X76488Y191092D01*
X75512Y191220D01*
D02*
G37*
G36*
X65512D02*
X64535Y191092D01*
X63626Y190715D01*
X62844Y190115D01*
X62245Y189334D01*
X61868Y188424D01*
X61739Y187448D01*
X61868Y186472D01*
X62245Y185562D01*
X62844Y184781D01*
X63626Y184181D01*
X64535Y183804D01*
X65512Y183676D01*
X66488Y183804D01*
X67398Y184181D01*
X68179Y184781D01*
X68779Y185562D01*
X69156Y186472D01*
X69284Y187448D01*
X69156Y188424D01*
X68779Y189334D01*
X68179Y190115D01*
X67398Y190715D01*
X66488Y191092D01*
X65512Y191220D01*
D02*
G37*
G36*
X55512D02*
X54535Y191092D01*
X53626Y190715D01*
X52844Y190115D01*
X52245Y189334D01*
X51868Y188424D01*
X51739Y187448D01*
X51868Y186472D01*
X52245Y185562D01*
X52844Y184781D01*
X53626Y184181D01*
X54535Y183804D01*
X55512Y183676D01*
X56488Y183804D01*
X57398Y184181D01*
X58179Y184781D01*
X58779Y185562D01*
X59156Y186472D01*
X59284Y187448D01*
X59156Y188424D01*
X58779Y189334D01*
X58179Y190115D01*
X57398Y190715D01*
X56488Y191092D01*
X55512Y191220D01*
D02*
G37*
G36*
X262900Y182593D02*
X249600D01*
X249293Y182532D01*
X249032Y182358D01*
X248858Y182098D01*
X248797Y181791D01*
Y180132D01*
X248297Y179962D01*
X248179Y180115D01*
X247398Y180715D01*
X246488Y181092D01*
X245512Y181220D01*
X244535Y181092D01*
X243626Y180715D01*
X242844Y180115D01*
X242245Y179334D01*
X241868Y178424D01*
X241739Y177448D01*
X241868Y176472D01*
X242245Y175562D01*
X242844Y174780D01*
X243626Y174181D01*
X244535Y173804D01*
X245512Y173676D01*
X246488Y173804D01*
X247398Y174181D01*
X248179Y174780D01*
X248297Y174934D01*
X248797Y174764D01*
Y171793D01*
X200903D01*
Y181691D01*
X200842Y181998D01*
X200668Y182258D01*
X200407Y182432D01*
X200100Y182493D01*
X190700D01*
X190393Y182432D01*
X190132Y182258D01*
X189958Y181998D01*
X189897Y181691D01*
Y171793D01*
X111826D01*
Y175327D01*
X111861Y175347D01*
X112326Y175455D01*
X112844Y174780D01*
X113626Y174181D01*
X114535Y173804D01*
X115512Y173676D01*
X116488Y173804D01*
X117398Y174181D01*
X118179Y174780D01*
X118779Y175562D01*
X119156Y176472D01*
X119284Y177448D01*
X119156Y178424D01*
X118779Y179334D01*
X118179Y180115D01*
X117398Y180715D01*
X116488Y181092D01*
X115512Y181220D01*
X114535Y181092D01*
X113626Y180715D01*
X112844Y180115D01*
X112326Y179441D01*
X111861Y179550D01*
X111826Y179569D01*
Y181491D01*
X111765Y181798D01*
X111591Y182058D01*
X111331Y182232D01*
X111024Y182293D01*
X100400D01*
X100093Y182232D01*
X99832Y182058D01*
X99658Y181798D01*
X99597Y181491D01*
Y178665D01*
X99097Y178566D01*
X98779Y179334D01*
X98179Y180115D01*
X97398Y180715D01*
X96488Y181092D01*
X95512Y181220D01*
X94535Y181092D01*
X93626Y180715D01*
X92844Y180115D01*
X92245Y179334D01*
X91868Y178424D01*
X91739Y177448D01*
X91868Y176472D01*
X92245Y175562D01*
X92844Y174780D01*
X93626Y174181D01*
X94535Y173804D01*
X95512Y173676D01*
X96488Y173804D01*
X97398Y174181D01*
X98179Y174780D01*
X98779Y175562D01*
X99097Y176330D01*
X99597Y176231D01*
Y171793D01*
X36000D01*
X35693Y171732D01*
X35432Y171558D01*
X35258Y171298D01*
X35197Y170991D01*
Y170191D01*
Y162091D01*
Y158091D01*
X35258Y157783D01*
X35432Y157523D01*
X35693Y157349D01*
X36000Y157288D01*
X54497D01*
Y156563D01*
X47213D01*
Y149083D01*
X54497D01*
Y147055D01*
X54300Y146893D01*
X36000D01*
X35693Y146832D01*
X35432Y146658D01*
X35258Y146398D01*
X35197Y146091D01*
Y98690D01*
Y94791D01*
Y52091D01*
Y44891D01*
X35258Y44583D01*
X35432Y44323D01*
X35693Y44149D01*
X36000Y44088D01*
X38943D01*
X39059Y43630D01*
X39054Y43588D01*
X38285Y42998D01*
X37686Y42217D01*
X37309Y41307D01*
X37180Y40330D01*
X37309Y39354D01*
X37686Y38444D01*
X38285Y37663D01*
X39066Y37064D01*
X39976Y36687D01*
X40953Y36558D01*
X41929Y36687D01*
X42839Y37064D01*
X43620Y37663D01*
X44220Y38444D01*
X44597Y39354D01*
X44689Y40058D01*
X44697Y40118D01*
X45196Y40085D01*
X45197Y40075D01*
Y31591D01*
X45258Y31283D01*
X45354Y31141D01*
X45258Y30998D01*
X45197Y30691D01*
Y27791D01*
Y20290D01*
X45258Y19983D01*
X45432Y19723D01*
X45693Y19549D01*
X46000Y19488D01*
X52799D01*
X52960Y19014D01*
X52805Y18895D01*
X52205Y18114D01*
X51829Y17204D01*
X51700Y16228D01*
X51829Y15251D01*
X52205Y14341D01*
X52805Y13560D01*
X53586Y12961D01*
X54496Y12584D01*
X55472Y12455D01*
X56449Y12584D01*
X57359Y12961D01*
X58140Y13560D01*
X58739Y14341D01*
X59116Y15251D01*
X59245Y16228D01*
X59116Y17204D01*
X58739Y18114D01*
X58140Y18895D01*
X57985Y19014D01*
X58145Y19488D01*
X62800D01*
X62960Y19014D01*
X62805Y18895D01*
X62205Y18114D01*
X61829Y17204D01*
X61700Y16228D01*
X61829Y15251D01*
X62205Y14341D01*
X62805Y13560D01*
X63586Y12961D01*
X64496Y12584D01*
X65472Y12455D01*
X66449Y12584D01*
X67359Y12961D01*
X68140Y13560D01*
X68739Y14341D01*
X69116Y15251D01*
X69245Y16228D01*
X69116Y17204D01*
X68739Y18114D01*
X68140Y18895D01*
X67985Y19014D01*
X68145Y19488D01*
X72799D01*
X72960Y19014D01*
X72805Y18895D01*
X72205Y18114D01*
X71829Y17204D01*
X71700Y16228D01*
X71829Y15251D01*
X72205Y14341D01*
X72805Y13560D01*
X73586Y12961D01*
X74496Y12584D01*
X75472Y12455D01*
X76449Y12584D01*
X77359Y12961D01*
X78140Y13560D01*
X78739Y14341D01*
X79116Y15251D01*
X79245Y16228D01*
X79116Y17204D01*
X78739Y18114D01*
X78140Y18895D01*
X77985Y19014D01*
X78145Y19488D01*
X82800D01*
X82960Y19014D01*
X82805Y18895D01*
X82205Y18114D01*
X81829Y17204D01*
X81700Y16228D01*
X81829Y15251D01*
X82205Y14341D01*
X82805Y13560D01*
X83586Y12961D01*
X84496Y12584D01*
X85472Y12455D01*
X86449Y12584D01*
X87359Y12961D01*
X88140Y13560D01*
X88739Y14341D01*
X89116Y15251D01*
X89245Y16228D01*
X89116Y17204D01*
X88739Y18114D01*
X88140Y18895D01*
X87985Y19014D01*
X88145Y19488D01*
X92800D01*
X92960Y19014D01*
X92805Y18895D01*
X92205Y18114D01*
X91829Y17204D01*
X91700Y16228D01*
X91829Y15251D01*
X92205Y14341D01*
X92805Y13560D01*
X93586Y12961D01*
X94496Y12584D01*
X95472Y12455D01*
X96449Y12584D01*
X97359Y12961D01*
X98140Y13560D01*
X98739Y14341D01*
X99116Y15251D01*
X99245Y16228D01*
X99116Y17204D01*
X98739Y18114D01*
X98140Y18895D01*
X97985Y19014D01*
X98145Y19488D01*
X99797D01*
Y11091D01*
X99858Y10783D01*
X100032Y10523D01*
X100293Y10349D01*
X100600Y10288D01*
X110900D01*
X111207Y10349D01*
X111468Y10523D01*
X111642Y10783D01*
X111703Y11091D01*
Y14248D01*
X112203Y14348D01*
X112205Y14341D01*
X112805Y13560D01*
X113586Y12961D01*
X114496Y12584D01*
X115472Y12455D01*
X116449Y12584D01*
X117359Y12961D01*
X118140Y13560D01*
X118739Y14341D01*
X119116Y15251D01*
X119245Y16228D01*
X119116Y17204D01*
X118739Y18114D01*
X118140Y18895D01*
X117985Y19014D01*
X118145Y19488D01*
X122800D01*
X122960Y19014D01*
X122805Y18895D01*
X122205Y18114D01*
X121829Y17204D01*
X121700Y16228D01*
X121829Y15251D01*
X122205Y14341D01*
X122805Y13560D01*
X123586Y12961D01*
X124496Y12584D01*
X125472Y12455D01*
X126449Y12584D01*
X127359Y12961D01*
X128140Y13560D01*
X128740Y14341D01*
X129116Y15251D01*
X129245Y16228D01*
X129116Y17204D01*
X128740Y18114D01*
X128140Y18895D01*
X127985Y19014D01*
X128145Y19488D01*
X132799D01*
X132960Y19014D01*
X132805Y18895D01*
X132205Y18114D01*
X131829Y17204D01*
X131700Y16228D01*
X131829Y15251D01*
X132205Y14341D01*
X132805Y13560D01*
X133586Y12961D01*
X134496Y12584D01*
X135472Y12455D01*
X136449Y12584D01*
X137359Y12961D01*
X138140Y13560D01*
X138740Y14341D01*
X139116Y15251D01*
X139245Y16228D01*
X139116Y17204D01*
X138740Y18114D01*
X138140Y18895D01*
X137985Y19014D01*
X138145Y19488D01*
X142799D01*
X142960Y19014D01*
X142805Y18895D01*
X142205Y18114D01*
X141829Y17204D01*
X141700Y16228D01*
X141829Y15251D01*
X142205Y14341D01*
X142805Y13560D01*
X143586Y12961D01*
X144496Y12584D01*
X145472Y12455D01*
X146449Y12584D01*
X147359Y12961D01*
X148140Y13560D01*
X148740Y14341D01*
X149116Y15251D01*
X149245Y16228D01*
X149116Y17204D01*
X148740Y18114D01*
X148140Y18895D01*
X147985Y19014D01*
X148145Y19488D01*
X152799D01*
X152960Y19014D01*
X152805Y18895D01*
X152205Y18114D01*
X151829Y17204D01*
X151700Y16228D01*
X151829Y15251D01*
X152205Y14341D01*
X152805Y13560D01*
X153586Y12961D01*
X154496Y12584D01*
X155472Y12455D01*
X156449Y12584D01*
X157359Y12961D01*
X158140Y13560D01*
X158739Y14341D01*
X159116Y15251D01*
X159245Y16228D01*
X159116Y17204D01*
X158739Y18114D01*
X158140Y18895D01*
X157985Y19014D01*
X158145Y19488D01*
X162800D01*
X162960Y19014D01*
X162805Y18895D01*
X162205Y18114D01*
X161829Y17204D01*
X161700Y16228D01*
X161829Y15251D01*
X162205Y14341D01*
X162805Y13560D01*
X163586Y12961D01*
X164496Y12584D01*
X165472Y12455D01*
X166449Y12584D01*
X167359Y12961D01*
X168140Y13560D01*
X168739Y14341D01*
X169116Y15251D01*
X169245Y16228D01*
X169116Y17204D01*
X168739Y18114D01*
X168140Y18895D01*
X167985Y19014D01*
X168145Y19488D01*
X172800D01*
X172960Y19014D01*
X172805Y18895D01*
X172205Y18114D01*
X171829Y17204D01*
X171700Y16228D01*
X171829Y15251D01*
X172205Y14341D01*
X172805Y13560D01*
X173586Y12961D01*
X174496Y12584D01*
X175472Y12455D01*
X176449Y12584D01*
X177359Y12961D01*
X178140Y13560D01*
X178740Y14341D01*
X179116Y15251D01*
X179245Y16228D01*
X179116Y17204D01*
X178740Y18114D01*
X178140Y18895D01*
X177985Y19014D01*
X178145Y19488D01*
X182799D01*
X182960Y19014D01*
X182805Y18895D01*
X182205Y18114D01*
X181829Y17204D01*
X181700Y16228D01*
X181829Y15251D01*
X182205Y14341D01*
X182805Y13560D01*
X183586Y12961D01*
X184496Y12584D01*
X185472Y12455D01*
X186449Y12584D01*
X187359Y12961D01*
X188140Y13560D01*
X188740Y14341D01*
X189116Y15251D01*
X189597Y15160D01*
Y11091D01*
X189658Y10783D01*
X189832Y10523D01*
X190093Y10349D01*
X190400Y10288D01*
X200700D01*
X201007Y10349D01*
X201268Y10523D01*
X201442Y10783D01*
X201503Y11091D01*
Y14731D01*
X202003Y14830D01*
X202205Y14341D01*
X202805Y13560D01*
X203586Y12961D01*
X204496Y12584D01*
X205472Y12455D01*
X206449Y12584D01*
X207359Y12961D01*
X208140Y13560D01*
X208739Y14341D01*
X209116Y15251D01*
X209245Y16228D01*
X209116Y17204D01*
X208739Y18114D01*
X208140Y18895D01*
X207985Y19014D01*
X208145Y19488D01*
X212800D01*
X212960Y19014D01*
X212805Y18895D01*
X212205Y18114D01*
X211829Y17204D01*
X211700Y16228D01*
X211829Y15251D01*
X212205Y14341D01*
X212805Y13560D01*
X213586Y12961D01*
X214496Y12584D01*
X215472Y12455D01*
X216449Y12584D01*
X217359Y12961D01*
X218140Y13560D01*
X218739Y14341D01*
X219116Y15251D01*
X219245Y16228D01*
X219116Y17204D01*
X218739Y18114D01*
X218140Y18895D01*
X217985Y19014D01*
X218145Y19488D01*
X222799D01*
X222960Y19014D01*
X222805Y18895D01*
X222205Y18114D01*
X221829Y17204D01*
X221700Y16228D01*
X221829Y15251D01*
X222205Y14341D01*
X222805Y13560D01*
X223586Y12961D01*
X224496Y12584D01*
X225472Y12455D01*
X226449Y12584D01*
X227359Y12961D01*
X228140Y13560D01*
X228739Y14341D01*
X229116Y15251D01*
X229245Y16228D01*
X229116Y17204D01*
X228739Y18114D01*
X228140Y18895D01*
X227985Y19014D01*
X228145Y19488D01*
X232800D01*
X232960Y19014D01*
X232805Y18895D01*
X232205Y18114D01*
X231829Y17204D01*
X231700Y16228D01*
X231829Y15251D01*
X232205Y14341D01*
X232805Y13560D01*
X233586Y12961D01*
X234496Y12584D01*
X235472Y12455D01*
X236449Y12584D01*
X237359Y12961D01*
X238140Y13560D01*
X238739Y14341D01*
X239116Y15251D01*
X239245Y16228D01*
X239116Y17204D01*
X238739Y18114D01*
X238140Y18895D01*
X237985Y19014D01*
X238145Y19488D01*
X241732D01*
Y12487D01*
X248897D01*
Y12191D01*
X248958Y11883D01*
X249132Y11623D01*
X249393Y11449D01*
X249700Y11388D01*
X261900D01*
X262207Y11449D01*
X262468Y11623D01*
X262642Y11883D01*
X262702Y12184D01*
X262799Y12248D01*
X263123Y12444D01*
X263203Y12444D01*
X268605D01*
Y13143D01*
X282028D01*
Y11931D01*
X287736D01*
Y19018D01*
X287214D01*
Y26105D01*
X287736D01*
Y33191D01*
X282028D01*
Y26105D01*
X282550D01*
Y19018D01*
X282028D01*
Y17807D01*
X268605D01*
Y19137D01*
X268285D01*
Y19944D01*
X268706D01*
Y26637D01*
X268605D01*
Y33634D01*
X262700D01*
Y27047D01*
X262700Y27015D01*
X262406Y26637D01*
X262137Y26637D01*
X257213D01*
Y35247D01*
X258544Y36578D01*
X264400D01*
X264902Y36678D01*
X265328Y36962D01*
X266528Y38162D01*
X266813Y38588D01*
X266913Y39091D01*
Y48996D01*
X267321Y49269D01*
X267849Y50059D01*
X268034Y50991D01*
X267849Y51922D01*
X267321Y52712D01*
X266531Y53239D01*
X265600Y53425D01*
X264668Y53239D01*
X263879Y52712D01*
X263351Y51922D01*
X263166Y50991D01*
X263351Y50059D01*
X263879Y49269D01*
X264287Y48996D01*
Y39634D01*
X263856Y39203D01*
X258000D01*
X257498Y39103D01*
X257072Y38819D01*
X254972Y36719D01*
X254687Y36293D01*
X254587Y35791D01*
Y28593D01*
X221334D01*
X220903Y28991D01*
Y65191D01*
X220842Y65498D01*
X220668Y65758D01*
X220407Y65932D01*
X220100Y65993D01*
X214000D01*
X213703Y66237D01*
Y70131D01*
X214203Y70283D01*
X214279Y70169D01*
X215069Y69642D01*
X216000Y69456D01*
X216932Y69642D01*
X217721Y70169D01*
X217994Y70578D01*
X219956D01*
X225687Y64847D01*
Y42985D01*
X225279Y42712D01*
X224751Y41922D01*
X224566Y40991D01*
X224751Y40059D01*
X225279Y39269D01*
X226068Y38742D01*
X227000Y38556D01*
X227931Y38742D01*
X228691Y39249D01*
X228835Y39312D01*
X229165D01*
X229309Y39249D01*
X230068Y38742D01*
X231000Y38556D01*
X231931Y38742D01*
X232691Y39249D01*
X232835Y39312D01*
X233165D01*
X233309Y39249D01*
X234068Y38742D01*
X235000Y38556D01*
X235931Y38742D01*
X236721Y39269D01*
X237249Y40059D01*
X237434Y40991D01*
X237249Y41922D01*
X236721Y42712D01*
X236313Y42985D01*
Y43391D01*
X236213Y43893D01*
X235928Y44319D01*
X235027Y45220D01*
X235281Y45673D01*
X236132Y45842D01*
X236921Y46369D01*
X237449Y47159D01*
X237634Y48090D01*
X237538Y48572D01*
X242759Y53793D01*
X243043Y54219D01*
X243143Y54721D01*
Y78560D01*
X243043Y79062D01*
X242759Y79488D01*
X238431Y83816D01*
X238622Y84278D01*
X267306D01*
X267579Y83869D01*
X268369Y83342D01*
X269300Y83156D01*
X270232Y83342D01*
X271021Y83869D01*
X271549Y84659D01*
X271734Y85590D01*
X271609Y86218D01*
X272070Y86464D01*
X277872Y80662D01*
X278298Y80378D01*
X278800Y80278D01*
X282295D01*
X282533Y79704D01*
X283133Y78923D01*
X283914Y78324D01*
X284824Y77947D01*
X285800Y77818D01*
X286776Y77947D01*
X287686Y78324D01*
X288468Y78923D01*
X289067Y79704D01*
X289444Y80614D01*
X289572Y81590D01*
X289444Y82567D01*
X289067Y83477D01*
X288468Y84258D01*
X287686Y84858D01*
X286776Y85234D01*
X285800Y85363D01*
X284824Y85234D01*
X283914Y84858D01*
X283133Y84258D01*
X282533Y83477D01*
X282295Y82903D01*
X279344D01*
X272469Y89778D01*
X272489Y89950D01*
X272641Y90278D01*
X282295D01*
X282533Y89704D01*
X283133Y88923D01*
X283914Y88323D01*
X284824Y87947D01*
X285800Y87818D01*
X286776Y87947D01*
X287686Y88323D01*
X288468Y88923D01*
X289067Y89704D01*
X289444Y90614D01*
X289572Y91590D01*
X289444Y92567D01*
X289067Y93477D01*
X288468Y94258D01*
X287686Y94858D01*
X286776Y95234D01*
X285800Y95363D01*
X284824Y95234D01*
X283914Y94858D01*
X283133Y94258D01*
X282533Y93477D01*
X282295Y92903D01*
X271507D01*
X271106Y93144D01*
Y99837D01*
X271106D01*
X271249Y100278D01*
X282295D01*
X282533Y99704D01*
X283133Y98923D01*
X283914Y98324D01*
X284824Y97947D01*
X285800Y97818D01*
X286776Y97947D01*
X287686Y98324D01*
X288468Y98923D01*
X289067Y99704D01*
X289444Y100614D01*
X289572Y101591D01*
X289444Y102567D01*
X289067Y103477D01*
X288468Y104258D01*
X287686Y104858D01*
X286776Y105234D01*
X285800Y105363D01*
X284824Y105234D01*
X283914Y104858D01*
X283133Y104258D01*
X282533Y103477D01*
X282295Y102903D01*
X270200D01*
X270144Y102892D01*
X270142Y102892D01*
X269663Y103306D01*
Y103944D01*
X271106D01*
Y110637D01*
X271465Y110978D01*
X271535D01*
X271894Y110637D01*
Y103944D01*
X277406D01*
Y105978D01*
X281800D01*
X282302Y106078D01*
X282728Y106362D01*
X284462Y108096D01*
X284824Y107947D01*
X285800Y107818D01*
X286776Y107947D01*
X287686Y108324D01*
X288468Y108923D01*
X289067Y109704D01*
X289444Y110614D01*
X289572Y111591D01*
X289444Y112567D01*
X289067Y113477D01*
X288468Y114258D01*
X287686Y114858D01*
X286776Y115234D01*
X285800Y115363D01*
X284824Y115234D01*
X283914Y114858D01*
X283413Y114473D01*
X282913Y114720D01*
Y116847D01*
X284250Y118184D01*
X284824Y117947D01*
X285800Y117818D01*
X286776Y117947D01*
X287686Y118324D01*
X288468Y118923D01*
X289067Y119704D01*
X289444Y120614D01*
X289572Y121591D01*
X289444Y122567D01*
X289067Y123477D01*
X288468Y124258D01*
X287686Y124858D01*
X286776Y125234D01*
X285800Y125363D01*
X284824Y125234D01*
X283914Y124858D01*
X283133Y124258D01*
X282533Y123477D01*
X282156Y122567D01*
X282028Y121591D01*
X282156Y120614D01*
X282394Y120041D01*
X280672Y118319D01*
X280387Y117893D01*
X280287Y117391D01*
Y114734D01*
X279156Y113603D01*
X270200D01*
X269698Y113503D01*
X269272Y113219D01*
X267422Y111369D01*
X267138Y110943D01*
X267077Y110637D01*
X265595D01*
Y103944D01*
X266940D01*
X266997Y103444D01*
X266156Y102603D01*
X235094D01*
X234821Y103012D01*
X234032Y103539D01*
X233100Y103725D01*
X232169Y103539D01*
X231379Y103012D01*
X230917Y102320D01*
X230380Y102223D01*
X230321Y102312D01*
X229532Y102839D01*
X228765Y102992D01*
X228552Y103486D01*
X229428Y104362D01*
X229713Y104788D01*
X229813Y105291D01*
Y110396D01*
X230221Y110669D01*
X230749Y111459D01*
X230934Y112391D01*
X230749Y113322D01*
X230221Y114112D01*
X229432Y114639D01*
X228500Y114825D01*
X227569Y114639D01*
X226779Y114112D01*
X226600Y113844D01*
X226100D01*
X225921Y114112D01*
X225132Y114639D01*
X224200Y114825D01*
X223269Y114639D01*
X222903Y114395D01*
X222403Y114662D01*
Y114991D01*
X222342Y115298D01*
X222213Y115491D01*
X222342Y115683D01*
X222403Y115991D01*
Y121691D01*
X222342Y121998D01*
X222168Y122258D01*
X221907Y122432D01*
X221600Y122493D01*
X214103D01*
Y124384D01*
X214603Y124609D01*
X214693Y124549D01*
X215000Y124488D01*
X273100D01*
X273407Y124549D01*
X273668Y124723D01*
X273842Y124983D01*
X273903Y125291D01*
Y129291D01*
X273842Y129598D01*
X273668Y129858D01*
X273407Y130032D01*
X273100Y130093D01*
X224703D01*
Y134891D01*
X224642Y135198D01*
X224468Y135458D01*
X224207Y135632D01*
X223900Y135693D01*
X218903D01*
Y164891D01*
X219334Y165288D01*
X243897D01*
Y141491D01*
Y136991D01*
X243958Y136683D01*
X244132Y136423D01*
X244393Y136249D01*
X244700Y136188D01*
X268800D01*
X269107Y136249D01*
X269368Y136423D01*
X269542Y136683D01*
X269603Y136991D01*
Y141491D01*
X269542Y141798D01*
X269368Y142058D01*
X269107Y142232D01*
X268800Y142293D01*
X258268D01*
X258032Y142734D01*
X258249Y143059D01*
X258434Y143991D01*
X258249Y144922D01*
X257721Y145712D01*
X257313Y145985D01*
Y168212D01*
X257645Y168574D01*
X262711D01*
X263100Y168574D01*
X263156Y168574D01*
X263520Y168463D01*
X263600Y168233D01*
X263600Y161547D01*
X269506D01*
Y168634D01*
X269456D01*
Y175267D01*
X269506Y175344D01*
X269506D01*
Y175874D01*
X282028D01*
Y174663D01*
X282550D01*
Y167576D01*
X282028D01*
Y160490D01*
X287736D01*
Y167576D01*
X287214D01*
Y174663D01*
X287736D01*
Y181750D01*
X282028D01*
Y180538D01*
X269506D01*
Y182037D01*
X264125D01*
X263935Y182061D01*
X263566Y182211D01*
X263468Y182358D01*
X263207Y182532D01*
X262900Y182593D01*
D02*
G37*
G36*
X59252Y181188D02*
X51772D01*
Y173708D01*
X59252D01*
Y181188D01*
D02*
G37*
G36*
X235512Y181220D02*
X234535Y181092D01*
X233626Y180715D01*
X232844Y180115D01*
X232245Y179334D01*
X231868Y178424D01*
X231739Y177448D01*
X231868Y176472D01*
X232245Y175562D01*
X232844Y174780D01*
X233626Y174181D01*
X234535Y173804D01*
X235512Y173676D01*
X236488Y173804D01*
X237398Y174181D01*
X238179Y174780D01*
X238779Y175562D01*
X239156Y176472D01*
X239284Y177448D01*
X239156Y178424D01*
X238779Y179334D01*
X238179Y180115D01*
X237398Y180715D01*
X236488Y181092D01*
X235512Y181220D01*
D02*
G37*
G36*
X225512D02*
X224535Y181092D01*
X223626Y180715D01*
X222844Y180115D01*
X222245Y179334D01*
X221868Y178424D01*
X221739Y177448D01*
X221868Y176472D01*
X222245Y175562D01*
X222844Y174780D01*
X223626Y174181D01*
X224535Y173804D01*
X225512Y173676D01*
X226488Y173804D01*
X227398Y174181D01*
X228179Y174780D01*
X228779Y175562D01*
X229156Y176472D01*
X229284Y177448D01*
X229156Y178424D01*
X228779Y179334D01*
X228179Y180115D01*
X227398Y180715D01*
X226488Y181092D01*
X225512Y181220D01*
D02*
G37*
G36*
X215512D02*
X214535Y181092D01*
X213626Y180715D01*
X212844Y180115D01*
X212245Y179334D01*
X211868Y178424D01*
X211739Y177448D01*
X211868Y176472D01*
X212245Y175562D01*
X212844Y174780D01*
X213626Y174181D01*
X214535Y173804D01*
X215512Y173676D01*
X216488Y173804D01*
X217398Y174181D01*
X218179Y174780D01*
X218779Y175562D01*
X219156Y176472D01*
X219284Y177448D01*
X219156Y178424D01*
X218779Y179334D01*
X218179Y180115D01*
X217398Y180715D01*
X216488Y181092D01*
X215512Y181220D01*
D02*
G37*
G36*
X205512D02*
X204535Y181092D01*
X203626Y180715D01*
X202844Y180115D01*
X202245Y179334D01*
X201868Y178424D01*
X201739Y177448D01*
X201868Y176472D01*
X202245Y175562D01*
X202844Y174780D01*
X203626Y174181D01*
X204535Y173804D01*
X205512Y173676D01*
X206488Y173804D01*
X207398Y174181D01*
X208179Y174780D01*
X208779Y175562D01*
X209156Y176472D01*
X209284Y177448D01*
X209156Y178424D01*
X208779Y179334D01*
X208179Y180115D01*
X207398Y180715D01*
X206488Y181092D01*
X205512Y181220D01*
D02*
G37*
G36*
X185512D02*
X184535Y181092D01*
X183626Y180715D01*
X182844Y180115D01*
X182245Y179334D01*
X181868Y178424D01*
X181739Y177448D01*
X181868Y176472D01*
X182245Y175562D01*
X182844Y174780D01*
X183626Y174181D01*
X184535Y173804D01*
X185512Y173676D01*
X186488Y173804D01*
X187398Y174181D01*
X188179Y174780D01*
X188779Y175562D01*
X189156Y176472D01*
X189284Y177448D01*
X189156Y178424D01*
X188779Y179334D01*
X188179Y180115D01*
X187398Y180715D01*
X186488Y181092D01*
X185512Y181220D01*
D02*
G37*
G36*
X175512D02*
X174535Y181092D01*
X173626Y180715D01*
X172844Y180115D01*
X172245Y179334D01*
X171868Y178424D01*
X171739Y177448D01*
X171868Y176472D01*
X172245Y175562D01*
X172844Y174780D01*
X173626Y174181D01*
X174535Y173804D01*
X175512Y173676D01*
X176488Y173804D01*
X177398Y174181D01*
X178179Y174780D01*
X178779Y175562D01*
X179156Y176472D01*
X179284Y177448D01*
X179156Y178424D01*
X178779Y179334D01*
X178179Y180115D01*
X177398Y180715D01*
X176488Y181092D01*
X175512Y181220D01*
D02*
G37*
G36*
X165512D02*
X164535Y181092D01*
X163626Y180715D01*
X162844Y180115D01*
X162245Y179334D01*
X161868Y178424D01*
X161739Y177448D01*
X161868Y176472D01*
X162245Y175562D01*
X162844Y174780D01*
X163626Y174181D01*
X164535Y173804D01*
X165512Y173676D01*
X166488Y173804D01*
X167398Y174181D01*
X168179Y174780D01*
X168779Y175562D01*
X169156Y176472D01*
X169284Y177448D01*
X169156Y178424D01*
X168779Y179334D01*
X168179Y180115D01*
X167398Y180715D01*
X166488Y181092D01*
X165512Y181220D01*
D02*
G37*
G36*
X155512D02*
X154535Y181092D01*
X153626Y180715D01*
X152844Y180115D01*
X152245Y179334D01*
X151868Y178424D01*
X151739Y177448D01*
X151868Y176472D01*
X152245Y175562D01*
X152844Y174780D01*
X153626Y174181D01*
X154535Y173804D01*
X155512Y173676D01*
X156488Y173804D01*
X157398Y174181D01*
X158179Y174780D01*
X158779Y175562D01*
X159156Y176472D01*
X159284Y177448D01*
X159156Y178424D01*
X158779Y179334D01*
X158179Y180115D01*
X157398Y180715D01*
X156488Y181092D01*
X155512Y181220D01*
D02*
G37*
G36*
X145512D02*
X144535Y181092D01*
X143626Y180715D01*
X142844Y180115D01*
X142245Y179334D01*
X141868Y178424D01*
X141739Y177448D01*
X141868Y176472D01*
X142245Y175562D01*
X142844Y174780D01*
X143626Y174181D01*
X144535Y173804D01*
X145512Y173676D01*
X146488Y173804D01*
X147398Y174181D01*
X148179Y174780D01*
X148779Y175562D01*
X149156Y176472D01*
X149284Y177448D01*
X149156Y178424D01*
X148779Y179334D01*
X148179Y180115D01*
X147398Y180715D01*
X146488Y181092D01*
X145512Y181220D01*
D02*
G37*
G36*
X135512D02*
X134535Y181092D01*
X133626Y180715D01*
X132844Y180115D01*
X132245Y179334D01*
X131868Y178424D01*
X131739Y177448D01*
X131868Y176472D01*
X132245Y175562D01*
X132844Y174780D01*
X133626Y174181D01*
X134535Y173804D01*
X135512Y173676D01*
X136488Y173804D01*
X137398Y174181D01*
X138179Y174780D01*
X138779Y175562D01*
X139156Y176472D01*
X139284Y177448D01*
X139156Y178424D01*
X138779Y179334D01*
X138179Y180115D01*
X137398Y180715D01*
X136488Y181092D01*
X135512Y181220D01*
D02*
G37*
G36*
X125512D02*
X124535Y181092D01*
X123626Y180715D01*
X122844Y180115D01*
X122245Y179334D01*
X121868Y178424D01*
X121739Y177448D01*
X121868Y176472D01*
X122245Y175562D01*
X122844Y174780D01*
X123626Y174181D01*
X124535Y173804D01*
X125512Y173676D01*
X126488Y173804D01*
X127398Y174181D01*
X128179Y174780D01*
X128779Y175562D01*
X129156Y176472D01*
X129284Y177448D01*
X129156Y178424D01*
X128779Y179334D01*
X128179Y180115D01*
X127398Y180715D01*
X126488Y181092D01*
X125512Y181220D01*
D02*
G37*
G36*
X85512D02*
X84535Y181092D01*
X83626Y180715D01*
X82844Y180115D01*
X82245Y179334D01*
X81868Y178424D01*
X81739Y177448D01*
X81868Y176472D01*
X82245Y175562D01*
X82844Y174780D01*
X83626Y174181D01*
X84535Y173804D01*
X85512Y173676D01*
X86488Y173804D01*
X87398Y174181D01*
X88179Y174780D01*
X88779Y175562D01*
X89156Y176472D01*
X89284Y177448D01*
X89156Y178424D01*
X88779Y179334D01*
X88179Y180115D01*
X87398Y180715D01*
X86488Y181092D01*
X85512Y181220D01*
D02*
G37*
G36*
X75512D02*
X74535Y181092D01*
X73626Y180715D01*
X72844Y180115D01*
X72245Y179334D01*
X71868Y178424D01*
X71739Y177448D01*
X71868Y176472D01*
X72245Y175562D01*
X72844Y174780D01*
X73626Y174181D01*
X74535Y173804D01*
X75512Y173676D01*
X76488Y173804D01*
X77398Y174181D01*
X78179Y174780D01*
X78779Y175562D01*
X79156Y176472D01*
X79284Y177448D01*
X79156Y178424D01*
X78779Y179334D01*
X78179Y180115D01*
X77398Y180715D01*
X76488Y181092D01*
X75512Y181220D01*
D02*
G37*
G36*
X65512D02*
X64535Y181092D01*
X63626Y180715D01*
X62844Y180115D01*
X62245Y179334D01*
X61868Y178424D01*
X61739Y177448D01*
X61868Y176472D01*
X62245Y175562D01*
X62844Y174780D01*
X63626Y174181D01*
X64535Y173804D01*
X65512Y173676D01*
X66488Y173804D01*
X67398Y174181D01*
X68179Y174780D01*
X68779Y175562D01*
X69156Y176472D01*
X69284Y177448D01*
X69156Y178424D01*
X68779Y179334D01*
X68179Y180115D01*
X67398Y180715D01*
X66488Y181092D01*
X65512Y181220D01*
D02*
G37*
G36*
X40953Y156595D02*
X39976Y156467D01*
X39067Y156090D01*
X38285Y155490D01*
X37686Y154709D01*
X37309Y153799D01*
X37180Y152823D01*
X37309Y151847D01*
X37686Y150937D01*
X38285Y150155D01*
X39067Y149556D01*
X39976Y149179D01*
X40953Y149050D01*
X41929Y149179D01*
X42839Y149556D01*
X43620Y150155D01*
X44220Y150937D01*
X44597Y151847D01*
X44725Y152823D01*
X44597Y153799D01*
X44220Y154709D01*
X43620Y155490D01*
X42839Y156090D01*
X41929Y156467D01*
X40953Y156595D01*
D02*
G37*
G36*
X11600Y31263D02*
X10624Y31134D01*
X9714Y30758D01*
X8933Y30158D01*
X8333Y29377D01*
X7956Y28467D01*
X7828Y27491D01*
X7956Y26514D01*
X8333Y25604D01*
X8933Y24823D01*
X9714Y24224D01*
X10624Y23847D01*
X11600Y23718D01*
X12576Y23847D01*
X13486Y24224D01*
X14267Y24823D01*
X14867Y25604D01*
X15244Y26514D01*
X15372Y27491D01*
X15244Y28467D01*
X14867Y29377D01*
X14267Y30158D01*
X13486Y30758D01*
X12576Y31134D01*
X11600Y31263D01*
D02*
G37*
G36*
X245472Y10000D02*
X244496Y9871D01*
X243586Y9495D01*
X242805Y8895D01*
X242205Y8114D01*
X241829Y7204D01*
X241700Y6228D01*
X241829Y5251D01*
X242205Y4341D01*
X242805Y3560D01*
X243586Y2960D01*
X244496Y2584D01*
X245472Y2455D01*
X246449Y2584D01*
X247359Y2960D01*
X248140Y3560D01*
X248739Y4341D01*
X249116Y5251D01*
X249245Y6228D01*
X249116Y7204D01*
X248739Y8114D01*
X248140Y8895D01*
X247359Y9495D01*
X246449Y9871D01*
X245472Y10000D01*
D02*
G37*
G36*
X235472D02*
X234496Y9871D01*
X233586Y9495D01*
X232805Y8895D01*
X232205Y8114D01*
X231829Y7204D01*
X231700Y6228D01*
X231829Y5251D01*
X232205Y4341D01*
X232805Y3560D01*
X233586Y2960D01*
X234496Y2584D01*
X235472Y2455D01*
X236449Y2584D01*
X237359Y2960D01*
X238140Y3560D01*
X238739Y4341D01*
X239116Y5251D01*
X239245Y6228D01*
X239116Y7204D01*
X238739Y8114D01*
X238140Y8895D01*
X237359Y9495D01*
X236449Y9871D01*
X235472Y10000D01*
D02*
G37*
G36*
X225472D02*
X224496Y9871D01*
X223586Y9495D01*
X222805Y8895D01*
X222205Y8114D01*
X221829Y7204D01*
X221700Y6228D01*
X221829Y5251D01*
X222205Y4341D01*
X222805Y3560D01*
X223586Y2960D01*
X224496Y2584D01*
X225472Y2455D01*
X226449Y2584D01*
X227359Y2960D01*
X228140Y3560D01*
X228739Y4341D01*
X229116Y5251D01*
X229245Y6228D01*
X229116Y7204D01*
X228739Y8114D01*
X228140Y8895D01*
X227359Y9495D01*
X226449Y9871D01*
X225472Y10000D01*
D02*
G37*
G36*
X215472D02*
X214496Y9871D01*
X213586Y9495D01*
X212805Y8895D01*
X212205Y8114D01*
X211829Y7204D01*
X211700Y6228D01*
X211829Y5251D01*
X212205Y4341D01*
X212805Y3560D01*
X213586Y2960D01*
X214496Y2584D01*
X215472Y2455D01*
X216449Y2584D01*
X217359Y2960D01*
X218140Y3560D01*
X218739Y4341D01*
X219116Y5251D01*
X219245Y6228D01*
X219116Y7204D01*
X218739Y8114D01*
X218140Y8895D01*
X217359Y9495D01*
X216449Y9871D01*
X215472Y10000D01*
D02*
G37*
G36*
X205472D02*
X204496Y9871D01*
X203586Y9495D01*
X202805Y8895D01*
X202205Y8114D01*
X201829Y7204D01*
X201700Y6228D01*
X201829Y5251D01*
X202205Y4341D01*
X202805Y3560D01*
X203586Y2960D01*
X204496Y2584D01*
X205472Y2455D01*
X206449Y2584D01*
X207359Y2960D01*
X208140Y3560D01*
X208739Y4341D01*
X209116Y5251D01*
X209245Y6228D01*
X209116Y7204D01*
X208739Y8114D01*
X208140Y8895D01*
X207359Y9495D01*
X206449Y9871D01*
X205472Y10000D01*
D02*
G37*
G36*
X185472D02*
X184496Y9871D01*
X183586Y9495D01*
X182805Y8895D01*
X182205Y8114D01*
X181829Y7204D01*
X181700Y6228D01*
X181829Y5251D01*
X182205Y4341D01*
X182805Y3560D01*
X183586Y2960D01*
X184496Y2584D01*
X185472Y2455D01*
X186449Y2584D01*
X187359Y2960D01*
X188140Y3560D01*
X188740Y4341D01*
X189116Y5251D01*
X189245Y6228D01*
X189116Y7204D01*
X188740Y8114D01*
X188140Y8895D01*
X187359Y9495D01*
X186449Y9871D01*
X185472Y10000D01*
D02*
G37*
G36*
X175472D02*
X174496Y9871D01*
X173586Y9495D01*
X172805Y8895D01*
X172205Y8114D01*
X171829Y7204D01*
X171700Y6228D01*
X171829Y5251D01*
X172205Y4341D01*
X172805Y3560D01*
X173586Y2960D01*
X174496Y2584D01*
X175472Y2455D01*
X176449Y2584D01*
X177359Y2960D01*
X178140Y3560D01*
X178740Y4341D01*
X179116Y5251D01*
X179245Y6228D01*
X179116Y7204D01*
X178740Y8114D01*
X178140Y8895D01*
X177359Y9495D01*
X176449Y9871D01*
X175472Y10000D01*
D02*
G37*
G36*
X165472D02*
X164496Y9871D01*
X163586Y9495D01*
X162805Y8895D01*
X162205Y8114D01*
X161829Y7204D01*
X161700Y6228D01*
X161829Y5251D01*
X162205Y4341D01*
X162805Y3560D01*
X163586Y2960D01*
X164496Y2584D01*
X165472Y2455D01*
X166449Y2584D01*
X167359Y2960D01*
X168140Y3560D01*
X168739Y4341D01*
X169116Y5251D01*
X169245Y6228D01*
X169116Y7204D01*
X168739Y8114D01*
X168140Y8895D01*
X167359Y9495D01*
X166449Y9871D01*
X165472Y10000D01*
D02*
G37*
G36*
X155472D02*
X154496Y9871D01*
X153586Y9495D01*
X152805Y8895D01*
X152205Y8114D01*
X151829Y7204D01*
X151700Y6228D01*
X151829Y5251D01*
X152205Y4341D01*
X152805Y3560D01*
X153586Y2960D01*
X154496Y2584D01*
X155472Y2455D01*
X156449Y2584D01*
X157359Y2960D01*
X158140Y3560D01*
X158739Y4341D01*
X159116Y5251D01*
X159245Y6228D01*
X159116Y7204D01*
X158739Y8114D01*
X158140Y8895D01*
X157359Y9495D01*
X156449Y9871D01*
X155472Y10000D01*
D02*
G37*
G36*
X145472D02*
X144496Y9871D01*
X143586Y9495D01*
X142805Y8895D01*
X142205Y8114D01*
X141829Y7204D01*
X141700Y6228D01*
X141829Y5251D01*
X142205Y4341D01*
X142805Y3560D01*
X143586Y2960D01*
X144496Y2584D01*
X145472Y2455D01*
X146449Y2584D01*
X147359Y2960D01*
X148140Y3560D01*
X148740Y4341D01*
X149116Y5251D01*
X149245Y6228D01*
X149116Y7204D01*
X148740Y8114D01*
X148140Y8895D01*
X147359Y9495D01*
X146449Y9871D01*
X145472Y10000D01*
D02*
G37*
G36*
X135472D02*
X134496Y9871D01*
X133586Y9495D01*
X132805Y8895D01*
X132205Y8114D01*
X131829Y7204D01*
X131700Y6228D01*
X131829Y5251D01*
X132205Y4341D01*
X132805Y3560D01*
X133586Y2960D01*
X134496Y2584D01*
X135472Y2455D01*
X136449Y2584D01*
X137359Y2960D01*
X138140Y3560D01*
X138740Y4341D01*
X139116Y5251D01*
X139245Y6228D01*
X139116Y7204D01*
X138740Y8114D01*
X138140Y8895D01*
X137359Y9495D01*
X136449Y9871D01*
X135472Y10000D01*
D02*
G37*
G36*
X125472D02*
X124496Y9871D01*
X123586Y9495D01*
X122805Y8895D01*
X122205Y8114D01*
X121829Y7204D01*
X121700Y6228D01*
X121829Y5251D01*
X122205Y4341D01*
X122805Y3560D01*
X123586Y2960D01*
X124496Y2584D01*
X125472Y2455D01*
X126449Y2584D01*
X127359Y2960D01*
X128140Y3560D01*
X128740Y4341D01*
X129116Y5251D01*
X129245Y6228D01*
X129116Y7204D01*
X128740Y8114D01*
X128140Y8895D01*
X127359Y9495D01*
X126449Y9871D01*
X125472Y10000D01*
D02*
G37*
G36*
X115472D02*
X114496Y9871D01*
X113586Y9495D01*
X112805Y8895D01*
X112205Y8114D01*
X111829Y7204D01*
X111700Y6228D01*
X111829Y5251D01*
X112205Y4341D01*
X112805Y3560D01*
X113586Y2960D01*
X114496Y2584D01*
X115472Y2455D01*
X116449Y2584D01*
X117359Y2960D01*
X118140Y3560D01*
X118739Y4341D01*
X119116Y5251D01*
X119245Y6228D01*
X119116Y7204D01*
X118739Y8114D01*
X118140Y8895D01*
X117359Y9495D01*
X116449Y9871D01*
X115472Y10000D01*
D02*
G37*
G36*
X95472D02*
X94496Y9871D01*
X93586Y9495D01*
X92805Y8895D01*
X92205Y8114D01*
X91829Y7204D01*
X91700Y6228D01*
X91829Y5251D01*
X92205Y4341D01*
X92805Y3560D01*
X93586Y2960D01*
X94496Y2584D01*
X95472Y2455D01*
X96449Y2584D01*
X97359Y2960D01*
X98140Y3560D01*
X98739Y4341D01*
X99116Y5251D01*
X99245Y6228D01*
X99116Y7204D01*
X98739Y8114D01*
X98140Y8895D01*
X97359Y9495D01*
X96449Y9871D01*
X95472Y10000D01*
D02*
G37*
G36*
X85472D02*
X84496Y9871D01*
X83586Y9495D01*
X82805Y8895D01*
X82205Y8114D01*
X81829Y7204D01*
X81700Y6228D01*
X81829Y5251D01*
X82205Y4341D01*
X82805Y3560D01*
X83586Y2960D01*
X84496Y2584D01*
X85472Y2455D01*
X86449Y2584D01*
X87359Y2960D01*
X88140Y3560D01*
X88739Y4341D01*
X89116Y5251D01*
X89245Y6228D01*
X89116Y7204D01*
X88739Y8114D01*
X88140Y8895D01*
X87359Y9495D01*
X86449Y9871D01*
X85472Y10000D01*
D02*
G37*
G36*
X75472D02*
X74496Y9871D01*
X73586Y9495D01*
X72805Y8895D01*
X72205Y8114D01*
X71829Y7204D01*
X71700Y6228D01*
X71829Y5251D01*
X72205Y4341D01*
X72805Y3560D01*
X73586Y2960D01*
X74496Y2584D01*
X75472Y2455D01*
X76449Y2584D01*
X77359Y2960D01*
X78140Y3560D01*
X78739Y4341D01*
X79116Y5251D01*
X79245Y6228D01*
X79116Y7204D01*
X78739Y8114D01*
X78140Y8895D01*
X77359Y9495D01*
X76449Y9871D01*
X75472Y10000D01*
D02*
G37*
G36*
X65472D02*
X64496Y9871D01*
X63586Y9495D01*
X62805Y8895D01*
X62205Y8114D01*
X61829Y7204D01*
X61700Y6228D01*
X61829Y5251D01*
X62205Y4341D01*
X62805Y3560D01*
X63586Y2960D01*
X64496Y2584D01*
X65472Y2455D01*
X66449Y2584D01*
X67359Y2960D01*
X68140Y3560D01*
X68739Y4341D01*
X69116Y5251D01*
X69245Y6228D01*
X69116Y7204D01*
X68739Y8114D01*
X68140Y8895D01*
X67359Y9495D01*
X66449Y9871D01*
X65472Y10000D01*
D02*
G37*
G36*
X55472D02*
X54496Y9871D01*
X53586Y9495D01*
X52805Y8895D01*
X52205Y8114D01*
X51829Y7204D01*
X51700Y6228D01*
X51829Y5251D01*
X52205Y4341D01*
X52805Y3560D01*
X53586Y2960D01*
X54496Y2584D01*
X55472Y2455D01*
X56449Y2584D01*
X57359Y2960D01*
X58140Y3560D01*
X58739Y4341D01*
X59116Y5251D01*
X59245Y6228D01*
X59116Y7204D01*
X58739Y8114D01*
X58140Y8895D01*
X57359Y9495D01*
X56449Y9871D01*
X55472Y10000D01*
D02*
G37*
%LPD*%
G36*
X189793Y138549D02*
X190100Y138488D01*
X196800D01*
X197107Y138549D01*
X197250Y138644D01*
X197393Y138549D01*
X197700Y138488D01*
X206497D01*
Y121691D01*
Y116023D01*
X206497Y115991D01*
X206500Y115534D01*
X206500Y115534D01*
Y115005D01*
X206497Y114991D01*
Y105791D01*
X206558Y105483D01*
X206732Y105223D01*
X206894Y105115D01*
Y98444D01*
X206732Y98258D01*
X206582Y98034D01*
X206500D01*
Y97705D01*
X206497Y97690D01*
Y54493D01*
X184800D01*
X184743Y54482D01*
X184243Y54491D01*
X183800Y54493D01*
X183757Y54493D01*
X177700D01*
X177686Y54491D01*
X177157D01*
X177157Y54491D01*
X176657Y54399D01*
X176607Y54432D01*
X176300Y54493D01*
X143900D01*
X143886Y54491D01*
X143114D01*
X143100Y54493D01*
X136800D01*
X136786Y54491D01*
X136457D01*
Y54408D01*
X136232Y54258D01*
X136058Y53998D01*
X135997Y53690D01*
Y44093D01*
X125700D01*
X125393Y44032D01*
X125132Y43858D01*
X124958Y43598D01*
X124897Y43291D01*
Y41950D01*
X124397Y41798D01*
X124321Y41912D01*
X123531Y42439D01*
X122600Y42625D01*
X122590Y42623D01*
X84610D01*
X84600Y42625D01*
X83669Y42439D01*
X83277Y42178D01*
X83277Y42178D01*
X82668Y42258D01*
X82407Y42432D01*
X82100Y42493D01*
X76703D01*
Y56490D01*
X76642Y56798D01*
X76468Y57058D01*
X76207Y57232D01*
X75900Y57293D01*
X55103D01*
Y64344D01*
X55400Y64588D01*
X107797D01*
Y56890D01*
X107858Y56583D01*
X108032Y56323D01*
X108293Y56149D01*
X108600Y56088D01*
X114600D01*
X114907Y56149D01*
X115168Y56323D01*
X115342Y56583D01*
X115403Y56890D01*
Y68691D01*
Y70091D01*
X115565Y70288D01*
X121600D01*
X121907Y70349D01*
X121998Y70410D01*
X122300D01*
Y70721D01*
X122342Y70783D01*
X122403Y71091D01*
Y77491D01*
X122342Y77798D01*
X122168Y78058D01*
Y78523D01*
X122342Y78783D01*
X122403Y79090D01*
Y117295D01*
X122403Y117391D01*
X122360Y117777D01*
X122360Y117777D01*
Y124864D01*
X122303D01*
Y138291D01*
X122465Y138488D01*
X149500D01*
X149807Y138549D01*
X150019Y138691D01*
X150481D01*
X150693Y138549D01*
X151000Y138488D01*
X156300D01*
X156607Y138549D01*
X156700Y138611D01*
X156793Y138549D01*
X157100Y138488D01*
X181500D01*
X181807Y138549D01*
X181975Y138661D01*
X181993Y138649D01*
X182300Y138588D01*
X189200D01*
X189507Y138649D01*
X189570Y138691D01*
X189581D01*
X189793Y138549D01*
D02*
G37*
G36*
X96897Y77491D02*
Y71091D01*
X96900Y71076D01*
Y65390D01*
X55400D01*
Y93791D01*
X96897D01*
Y77491D01*
D02*
G37*
%LPC*%
G36*
X81500Y78825D02*
X80568Y78639D01*
X79779Y78112D01*
X79251Y77322D01*
X79066Y76390D01*
X79251Y75459D01*
X79779Y74669D01*
X80568Y74142D01*
X81500Y73956D01*
X82432Y74142D01*
X83221Y74669D01*
X83749Y75459D01*
X83934Y76390D01*
X83749Y77322D01*
X83221Y78112D01*
X82432Y78639D01*
X81500Y78825D01*
D02*
G37*
%LPD*%
D13*
X268350Y102941D02*
Y110441D01*
X233071Y77067D02*
X238287D01*
X229626Y73622D02*
X233071Y77067D01*
X226739Y70707D02*
Y79888D01*
Y70707D02*
X230575Y66871D01*
X226739Y79888D02*
X226772Y79921D01*
X235200Y48090D02*
X241831Y54721D01*
X236800Y83591D02*
X241831Y78560D01*
Y54721D02*
Y78560D01*
X279700Y112291D02*
X281600Y114191D01*
X270200Y112291D02*
X279700D01*
X268350Y110441D02*
X270200Y112291D01*
X266700Y101291D02*
X268350Y102941D01*
X281600Y117391D02*
X285800Y121591D01*
X281600Y114191D02*
Y117391D01*
X274650Y107291D02*
X281800D01*
X286100Y111591D01*
X255900Y24291D02*
X256900Y23291D01*
X259650D01*
X112070Y90461D02*
X112070Y90461D01*
X114231Y114321D02*
X119375D01*
X114200Y114291D02*
X114231Y114321D01*
X115330Y121321D02*
X119407D01*
X114300Y120291D02*
X115330Y121321D01*
X178200Y141943D02*
Y148591D01*
X184300D02*
X186300Y146590D01*
Y141643D02*
Y146590D01*
X194900Y142443D02*
Y148591D01*
X190900Y51538D02*
X190900Y51538D01*
X191900Y51538D02*
X191900Y51538D01*
X216600Y94490D02*
X216700D01*
X219800Y76691D02*
Y81741D01*
X219800Y81741D01*
X233100Y95390D02*
X234100Y96390D01*
X222900Y91491D02*
X230800Y83591D01*
X224700Y92891D02*
Y101490D01*
Y92891D02*
X232000Y85590D01*
X228600Y95191D02*
Y100591D01*
X285800Y111591D02*
X286100D01*
X180700Y51538D02*
X180700Y51538D01*
X256687Y172278D02*
X260400D01*
X146400Y141643D02*
Y144991D01*
X160500Y141643D02*
Y147291D01*
X223800Y71118D02*
Y76691D01*
X235000Y40991D02*
Y43391D01*
X230575Y47816D02*
X235000Y43391D01*
X209453Y94491D02*
X209550Y94393D01*
X209650Y101790D02*
X212700D01*
X213400Y102491D01*
X216600D01*
X209853Y112391D02*
X216600D01*
X230800Y83591D02*
X236800D01*
X228600Y95191D02*
X230213Y93578D01*
X247840D01*
X234100Y96390D02*
X268250D01*
X270200Y101591D02*
X285800D01*
X268250Y99641D02*
X270200Y101591D01*
X268250Y96390D02*
Y99641D01*
X247840Y93578D02*
X249828Y91590D01*
X285800D01*
X233100Y90690D02*
X246000D01*
X247800Y88890D01*
X271500D01*
X278800Y81590D01*
X285800D01*
X117865Y73953D02*
X119327Y72491D01*
X255900Y24291D02*
Y35791D01*
X258000Y37891D01*
X264400D01*
X265600Y39091D01*
Y50991D01*
X232000Y85590D02*
X269300D01*
X223800Y71118D02*
X228787Y66131D01*
X230575Y47816D02*
Y66871D01*
X227000Y40991D02*
Y65390D01*
X216000Y71890D02*
X220500D01*
X227000Y65390D01*
X256000Y171591D02*
X256687Y172278D01*
X256000Y143991D02*
Y171591D01*
X233100Y101291D02*
X266700D01*
X222900Y91491D02*
Y102791D01*
X224700Y101490D02*
X228500Y105291D01*
Y112391D01*
X222900Y102791D02*
X224200Y104091D01*
Y112391D01*
X228787Y46409D02*
Y66131D01*
Y46409D02*
X231000Y44197D01*
Y40991D02*
Y44197D01*
D17*
X266700Y171921D02*
D03*
X260400D02*
D03*
X265950Y23291D02*
D03*
X259650D02*
D03*
X268350Y96491D02*
D03*
X274650D02*
D03*
X274650Y107291D02*
D03*
X268350D02*
D03*
X259550Y15790D02*
D03*
X265850D02*
D03*
X266750Y178691D02*
D03*
X260450D02*
D03*
X71350Y130491D02*
D03*
X65050D02*
D03*
X71350Y123591D02*
D03*
X65050D02*
D03*
X71550Y116791D02*
D03*
X65250D02*
D03*
X71650Y110090D02*
D03*
X65350D02*
D03*
X203350Y101790D02*
D03*
X209650D02*
D03*
D22*
X206350Y158291D02*
D03*
X200050D02*
D03*
D23*
X140000Y51538D02*
D03*
Y57443D02*
D03*
X146700Y51538D02*
D03*
Y57443D02*
D03*
X156600Y51538D02*
D03*
Y57443D02*
D03*
X172300Y51538D02*
D03*
Y57443D02*
D03*
X180700Y51538D02*
D03*
Y57443D02*
D03*
X191900Y51538D02*
D03*
Y57443D02*
D03*
X146400Y141643D02*
D03*
Y135738D02*
D03*
X153450Y141643D02*
D03*
Y135738D02*
D03*
X160500Y141643D02*
D03*
Y135738D02*
D03*
X178500Y141643D02*
D03*
Y135738D02*
D03*
X186300Y141643D02*
D03*
Y135738D02*
D03*
X194100Y141643D02*
D03*
Y135738D02*
D03*
D24*
X265653Y30090D02*
D03*
X259747D02*
D03*
X266553Y165091D02*
D03*
X260647D02*
D03*
X209453Y94491D02*
D03*
X203547D02*
D03*
X209453Y111990D02*
D03*
X203547D02*
D03*
X209453Y118691D02*
D03*
X203547D02*
D03*
X119407Y121321D02*
D03*
X125313D02*
D03*
X119375Y114321D02*
D03*
X125280D02*
D03*
X119317Y90461D02*
D03*
X125223D02*
D03*
X119347Y73953D02*
D03*
X125253D02*
D03*
D25*
X219800Y88040D02*
D03*
Y81741D02*
D03*
D48*
X216600Y109691D02*
Y112391D01*
Y109691D02*
X220400Y105891D01*
D49*
X185700Y30191D02*
X218200D01*
Y62990D01*
D50*
X180700Y40991D02*
Y51538D01*
X266553Y178591D02*
X266750D01*
Y178206D02*
Y178591D01*
X284882Y164033D02*
Y178206D01*
X266750D02*
X284882D01*
X266553Y164990D02*
Y178591D01*
X284882Y15475D02*
Y29648D01*
X266868Y15475D02*
X284882D01*
X265953Y16390D02*
Y29794D01*
X146700Y46291D02*
Y51538D01*
X146700Y51538D01*
X156600Y46291D02*
Y51538D01*
X156600Y51538D01*
X172300Y46291D02*
Y51538D01*
X172300Y51538D01*
X156600Y41691D02*
Y46291D01*
X152613Y37703D02*
X156600Y41691D01*
X138400Y141643D02*
X146400D01*
X51236Y87691D02*
Y143591D01*
X152613Y37703D02*
X167213D01*
X146700Y46291D02*
X149200D01*
X152613Y42878D01*
X200050Y144440D02*
X202213Y142278D01*
X206100Y158041D02*
X206350Y158291D01*
X101600Y143591D02*
X105500Y147491D01*
X46000Y143591D02*
X51236D01*
X84600Y40291D02*
X122600D01*
X51500Y91378D02*
Y96390D01*
X52600Y97491D01*
X64400Y143591D02*
X101600D01*
X160500Y147291D02*
Y147547D01*
X125800Y159491D02*
X150200D01*
X184300D01*
X200050D01*
X206350Y153691D02*
Y158291D01*
X125300Y163591D02*
X216500D01*
Y132891D02*
Y163591D01*
Y132891D02*
X221700D01*
Y127591D02*
Y132891D01*
D52*
X191900Y43091D02*
Y44091D01*
X112070Y90461D02*
X119317D01*
X114200Y105650D02*
Y114291D01*
X65050Y130491D02*
X65487Y130928D01*
X191900Y51538D02*
Y51538D01*
Y44091D02*
Y51538D01*
Y44091D02*
X205200D01*
X210900Y49791D01*
X102800Y25190D02*
X105500Y22490D01*
X59900Y130491D02*
X65050D01*
D53*
X71550Y116790D02*
X77800D01*
X71550Y116791D02*
X71550Y116790D01*
X71350Y123591D02*
X77800D01*
X71350Y123591D02*
X71350Y123591D01*
Y130491D02*
X77800D01*
X71350Y130491D02*
X71350Y130491D01*
X71650Y110091D02*
X77800D01*
X71650Y110090D02*
X71650Y110091D01*
D109*
X245512Y187448D02*
D03*
Y177448D02*
D03*
X235512Y187448D02*
D03*
Y177448D02*
D03*
X225512Y187448D02*
D03*
Y177448D02*
D03*
X215512Y187448D02*
D03*
Y177448D02*
D03*
X205512Y187448D02*
D03*
Y177448D02*
D03*
X195512Y187448D02*
D03*
Y177448D02*
D03*
X185512Y187448D02*
D03*
Y177448D02*
D03*
X175512Y187448D02*
D03*
Y177448D02*
D03*
X165512Y187448D02*
D03*
Y177448D02*
D03*
X155512Y187448D02*
D03*
Y177448D02*
D03*
X145512Y187448D02*
D03*
Y177448D02*
D03*
X135512Y187448D02*
D03*
Y177448D02*
D03*
X125512Y187448D02*
D03*
Y177448D02*
D03*
X115512Y187448D02*
D03*
Y177448D02*
D03*
X105512Y187448D02*
D03*
Y177448D02*
D03*
X95512Y187448D02*
D03*
Y177448D02*
D03*
X85512Y187448D02*
D03*
Y177448D02*
D03*
X75512Y187448D02*
D03*
Y177448D02*
D03*
X65512Y187448D02*
D03*
Y177448D02*
D03*
X55512Y187448D02*
D03*
X40953Y152823D02*
D03*
X285800Y121591D02*
D03*
Y111591D02*
D03*
Y101591D02*
D03*
Y91590D02*
D03*
Y81590D02*
D03*
X40953Y40330D02*
D03*
X11600Y27491D02*
D03*
X55472Y6228D02*
D03*
Y16228D02*
D03*
X65472Y6228D02*
D03*
Y16228D02*
D03*
X75472Y6228D02*
D03*
Y16228D02*
D03*
X85472Y6228D02*
D03*
Y16228D02*
D03*
X95472Y6228D02*
D03*
Y16228D02*
D03*
X105472Y6228D02*
D03*
Y16228D02*
D03*
X115472Y6228D02*
D03*
Y16228D02*
D03*
X125472Y6228D02*
D03*
Y16228D02*
D03*
X135472Y6228D02*
D03*
Y16228D02*
D03*
X145472Y6228D02*
D03*
Y16228D02*
D03*
X155472Y6228D02*
D03*
Y16228D02*
D03*
X165472Y6228D02*
D03*
Y16228D02*
D03*
X175472Y6228D02*
D03*
Y16228D02*
D03*
X185472Y6228D02*
D03*
Y16228D02*
D03*
X195472Y6228D02*
D03*
Y16228D02*
D03*
X205472Y6228D02*
D03*
Y16228D02*
D03*
X215472Y6228D02*
D03*
Y16228D02*
D03*
X225472Y6228D02*
D03*
Y16228D02*
D03*
X235472Y6228D02*
D03*
Y16228D02*
D03*
X245472Y6228D02*
D03*
D110*
X55512Y177448D02*
D03*
X50953Y152823D02*
D03*
X50953Y40330D02*
D03*
X21600Y27491D02*
D03*
X245472Y16228D02*
D03*
D111*
X285800Y71591D02*
D03*
D112*
X159695Y101083D02*
D03*
X164370D02*
D03*
X169045D02*
D03*
Y96653D02*
D03*
X164370D02*
D03*
X159695D02*
D03*
Y92224D02*
D03*
X164370D02*
D03*
X169045D02*
D03*
X238287Y77067D02*
D03*
X229626Y73622D02*
D03*
X226772Y79921D02*
D03*
X252323Y57815D02*
D03*
X81500Y76390D02*
D03*
X130449Y62142D02*
D03*
X130358Y87732D02*
D03*
X130368Y113323D02*
D03*
X130362Y119228D02*
D03*
X147668Y130623D02*
D03*
X159479Y130612D02*
D03*
X177195Y130595D02*
D03*
X190975Y130616D02*
D03*
X198449Y131039D02*
D03*
X198432Y113323D02*
D03*
X198390Y103480D02*
D03*
X198384Y97575D02*
D03*
X198457Y68047D02*
D03*
X190975Y62565D02*
D03*
X173258Y62549D02*
D03*
X157510Y62601D02*
D03*
X147668Y62558D02*
D03*
X279740Y5431D02*
D03*
X281740Y187231D02*
D03*
X85100Y48791D02*
D03*
Y52390D02*
D03*
X49800Y27591D02*
D03*
Y24390D02*
D03*
X53400D02*
D03*
Y27591D02*
D03*
X146300Y31291D02*
D03*
X180700Y40991D02*
D03*
X114200Y114291D02*
D03*
X114300Y120291D02*
D03*
X228600Y100591D02*
D03*
X216600Y94490D02*
D03*
X112070Y90461D02*
D03*
X146700Y46291D02*
D03*
X156600D02*
D03*
X172300D02*
D03*
X216600Y112391D02*
D03*
Y102491D02*
D03*
X219800Y76691D02*
D03*
X223800D02*
D03*
X231000Y40991D02*
D03*
X235000D02*
D03*
X227000D02*
D03*
X216000Y71890D02*
D03*
X235200Y48090D02*
D03*
X52900Y164891D02*
D03*
X111800Y59290D02*
D03*
X184300Y148591D02*
D03*
X178200D02*
D03*
X160500Y147291D02*
D03*
X51236Y143591D02*
D03*
X218400Y118691D02*
D03*
X146300Y41591D02*
D03*
X125300Y163591D02*
D03*
X184300Y159491D02*
D03*
X194900Y148591D02*
D03*
X185700Y30191D02*
D03*
X191900Y44091D02*
D03*
X239600Y113291D02*
D03*
X267100Y139191D02*
D03*
X263200D02*
D03*
X259200D02*
D03*
X256600Y113291D02*
D03*
X233100Y90690D02*
D03*
Y96491D02*
D03*
Y101291D02*
D03*
X70000Y159278D02*
D03*
X46000Y143591D02*
D03*
X88400Y102391D02*
D03*
Y52390D02*
D03*
Y48791D02*
D03*
X122600Y40191D02*
D03*
X111800Y73090D02*
D03*
X52900Y168091D02*
D03*
X49300Y164891D02*
D03*
Y168091D02*
D03*
X64400Y143591D02*
D03*
X113700Y152791D02*
D03*
Y159278D02*
D03*
X150200Y150091D02*
D03*
X125300Y159491D02*
D03*
X146000Y154891D02*
D03*
X150200Y159491D02*
D03*
X84600Y40191D02*
D03*
X111100Y44891D02*
D03*
X206300Y153691D02*
D03*
X265600Y50991D02*
D03*
X269300Y85590D02*
D03*
X221100Y148591D02*
D03*
X256000Y143991D02*
D03*
X221700Y132891D02*
D03*
X223753Y50838D02*
D03*
X218200Y62990D02*
D03*
X271200Y127291D02*
D03*
X228500Y112391D02*
D03*
X224200D02*
D03*
X59600Y91190D02*
D03*
X63350D02*
D03*
X67100D02*
D03*
X88400Y68490D02*
D03*
X88700Y84190D02*
D03*
D113*
X77800Y110091D02*
D03*
Y116790D02*
D03*
Y123591D02*
D03*
Y130491D02*
D03*
D114*
X41115Y166491D02*
D03*
X30485D02*
D03*
D115*
X130000Y38376D02*
D03*
Y49005D02*
D03*
D116*
X284882Y29648D02*
D03*
X290591D02*
D03*
X284882Y15475D02*
D03*
X290591D02*
D03*
Y164033D02*
D03*
X284882D02*
D03*
X290591Y178206D02*
D03*
X284882D02*
D03*
D117*
X195400Y173891D02*
D03*
D118*
X105712Y171791D02*
D03*
D119*
X252150Y19990D02*
D03*
D120*
X255800Y16040D02*
D03*
D121*
X195550Y19441D02*
D03*
X105750D02*
D03*
D122*
X52150Y25490D02*
D03*
D123*
X150300Y24040D02*
D03*
D124*
X210100Y65140D02*
D03*
D125*
X140050Y31191D02*
D03*
D126*
X153900Y36741D02*
D03*
D127*
X130800Y36241D02*
D03*
D128*
X94550Y33491D02*
D03*
D129*
X139050Y41591D02*
D03*
D130*
X139950Y46791D02*
D03*
D131*
X198850Y43141D02*
D03*
D132*
X185800Y35441D02*
D03*
D133*
X180350Y30741D02*
D03*
D134*
X160400Y31341D02*
D03*
D135*
X174300Y36141D02*
D03*
D136*
X180750Y46391D02*
D03*
D137*
X177350Y41091D02*
D03*
D138*
X160050Y39391D02*
D03*
D139*
X160100Y48891D02*
D03*
D140*
X164400Y96591D02*
D03*
D141*
X48850Y116941D02*
D03*
D142*
X60950Y44041D02*
D03*
D143*
X48800Y48491D02*
D03*
D144*
X45150Y95490D02*
D03*
D145*
X100750Y49341D02*
D03*
D146*
X120200Y55641D02*
D03*
D147*
X111600Y62791D02*
D03*
D148*
X92350Y53540D02*
D03*
D149*
X85000Y67740D02*
D03*
D150*
X76150Y90640D02*
D03*
D151*
X109650Y74291D02*
D03*
D152*
X69650Y96741D02*
D03*
D153*
X100500Y84891D02*
D03*
D154*
X113000Y98241D02*
D03*
D155*
X88500Y103041D02*
D03*
D156*
X61350Y120391D02*
D03*
D157*
X101550Y108391D02*
D03*
D158*
X58600Y135291D02*
D03*
D159*
X47550Y164141D02*
D03*
D160*
X79400Y166541D02*
D03*
D161*
X179700Y168541D02*
D03*
D162*
X119600Y155141D02*
D03*
D163*
X132950Y142891D02*
D03*
D164*
X91250Y159291D02*
D03*
D165*
X60700Y164141D02*
D03*
D166*
X89150Y149141D02*
D03*
D167*
X101750Y128241D02*
D03*
D168*
X98800Y137241D02*
D03*
D169*
X131800Y148091D02*
D03*
D170*
X169300D02*
D03*
D171*
X193450D02*
D03*
D172*
X176950Y154041D02*
D03*
D173*
X185750Y144841D02*
D03*
D174*
X153650Y145591D02*
D03*
D175*
X129800Y55590D02*
D03*
D176*
X156600Y154841D02*
D03*
D177*
X152250Y149741D02*
D03*
D178*
X200250Y150241D02*
D03*
D179*
X205500Y145291D02*
D03*
D180*
X210300Y130391D02*
D03*
D181*
X214450Y118841D02*
D03*
D182*
X213900Y110391D02*
D03*
D183*
X70600Y35441D02*
D03*
D184*
X208500Y156641D02*
D03*
D185*
X231250Y150591D02*
D03*
D186*
X219450Y130091D02*
D03*
D187*
X216550Y145441D02*
D03*
D188*
X163200Y159441D02*
D03*
D189*
X234100Y147491D02*
D03*
D190*
X259100Y133141D02*
D03*
D191*
X249150Y153991D02*
D03*
D192*
X256750Y139241D02*
D03*
D193*
X251600Y159391D02*
D03*
D194*
X256250Y178541D02*
D03*
D195*
X217050Y47091D02*
D03*
D196*
X220300Y100291D02*
D03*
D197*
X214750Y91540D02*
D03*
D198*
X244050Y127291D02*
D03*
M02*
