G04*
G04 #@! TF.GenerationSoftware,Altium Limited,Altium Designer,20.0.13 (296)*
G04*
G04 Layer_Color=128*
%FSLAX25Y25*%
%MOIN*%
G70*
G01*
G75*
%ADD17R,0.03937X0.05118*%
%ADD22R,0.04724X0.05512*%
%ADD23R,0.05512X0.04331*%
%ADD24R,0.04331X0.05512*%
%ADD25R,0.05118X0.03937*%
%ADD114R,0.04331X0.06693*%
%ADD115R,0.06693X0.04331*%
%ADD116R,0.04134X0.05512*%
D17*
X266700Y171921D02*
D03*
X260400D02*
D03*
X265950Y23291D02*
D03*
X259650D02*
D03*
X268350Y96491D02*
D03*
X274650D02*
D03*
X274650Y107291D02*
D03*
X268350D02*
D03*
X259550Y15790D02*
D03*
X265850D02*
D03*
X266750Y178691D02*
D03*
X260450D02*
D03*
X71350Y130491D02*
D03*
X65050D02*
D03*
X71350Y123591D02*
D03*
X65050D02*
D03*
X71550Y116791D02*
D03*
X65250D02*
D03*
X71650Y110090D02*
D03*
X65350D02*
D03*
X203350Y101790D02*
D03*
X209650D02*
D03*
D22*
X206350Y158291D02*
D03*
X200050D02*
D03*
D23*
X140000Y51538D02*
D03*
Y57443D02*
D03*
X146700Y51538D02*
D03*
Y57443D02*
D03*
X156600Y51538D02*
D03*
Y57443D02*
D03*
X172300Y51538D02*
D03*
Y57443D02*
D03*
X180700Y51538D02*
D03*
Y57443D02*
D03*
X191900Y51538D02*
D03*
Y57443D02*
D03*
X146400Y141643D02*
D03*
Y135738D02*
D03*
X153450Y141643D02*
D03*
Y135738D02*
D03*
X160500Y141643D02*
D03*
Y135738D02*
D03*
X178500Y141643D02*
D03*
Y135738D02*
D03*
X186300Y141643D02*
D03*
Y135738D02*
D03*
X194100Y141643D02*
D03*
Y135738D02*
D03*
D24*
X265653Y30090D02*
D03*
X259747D02*
D03*
X266553Y165091D02*
D03*
X260647D02*
D03*
X209453Y94491D02*
D03*
X203547D02*
D03*
X209453Y111990D02*
D03*
X203547D02*
D03*
X209453Y118691D02*
D03*
X203547D02*
D03*
X119407Y121321D02*
D03*
X125313D02*
D03*
X119375Y114321D02*
D03*
X125280D02*
D03*
X119317Y90461D02*
D03*
X125223D02*
D03*
X119347Y73953D02*
D03*
X125253D02*
D03*
D25*
X219800Y88040D02*
D03*
Y81741D02*
D03*
D114*
X41115Y166491D02*
D03*
X30485D02*
D03*
D115*
X130000Y38376D02*
D03*
Y49005D02*
D03*
D116*
X284882Y29648D02*
D03*
X290591D02*
D03*
X284882Y15475D02*
D03*
X290591D02*
D03*
Y164033D02*
D03*
X284882D02*
D03*
X290591Y178206D02*
D03*
X284882D02*
D03*
M02*
