G04*
G04 #@! TF.GenerationSoftware,Altium Limited,Altium Designer,20.0.13 (296)*
G04*
G04 Layer_Color=16711935*
%FSLAX25Y25*%
%MOIN*%
G70*
G01*
G75*
%ADD31R,0.04737X0.05918*%
%ADD36R,0.05524X0.06312*%
%ADD37R,0.06312X0.05131*%
%ADD38R,0.05131X0.06312*%
%ADD39R,0.05918X0.04737*%
%ADD43C,0.06706*%
%ADD44R,0.06706X0.06706*%
%ADD45R,0.06706X0.06706*%
%ADD46C,0.04000*%
%ADD47C,0.05800*%
%ADD199R,0.05131X0.07493*%
%ADD200R,0.07493X0.05131*%
%ADD201R,0.04934X0.06312*%
D31*
X266700Y171921D02*
D03*
X260400D02*
D03*
X265950Y23291D02*
D03*
X259650D02*
D03*
X268350Y96491D02*
D03*
X274650D02*
D03*
X274650Y107291D02*
D03*
X268350D02*
D03*
X259550Y15790D02*
D03*
X265850D02*
D03*
X266750Y178691D02*
D03*
X260450D02*
D03*
X71350Y130491D02*
D03*
X65050D02*
D03*
X71350Y123591D02*
D03*
X65050D02*
D03*
X71550Y116791D02*
D03*
X65250D02*
D03*
X71650Y110090D02*
D03*
X65350D02*
D03*
X203350Y101790D02*
D03*
X209650D02*
D03*
D36*
X206350Y158291D02*
D03*
X200050D02*
D03*
D37*
X140000Y51538D02*
D03*
Y57443D02*
D03*
X146700Y51538D02*
D03*
Y57443D02*
D03*
X156600Y51538D02*
D03*
Y57443D02*
D03*
X172300Y51538D02*
D03*
Y57443D02*
D03*
X180700Y51538D02*
D03*
Y57443D02*
D03*
X191900Y51538D02*
D03*
Y57443D02*
D03*
X146400Y141643D02*
D03*
Y135738D02*
D03*
X153450Y141643D02*
D03*
Y135738D02*
D03*
X160500Y141643D02*
D03*
Y135738D02*
D03*
X178500Y141643D02*
D03*
Y135738D02*
D03*
X186300Y141643D02*
D03*
Y135738D02*
D03*
X194100Y141643D02*
D03*
Y135738D02*
D03*
D38*
X265653Y30090D02*
D03*
X259747D02*
D03*
X266553Y165091D02*
D03*
X260647D02*
D03*
X209453Y94491D02*
D03*
X203547D02*
D03*
X209453Y111990D02*
D03*
X203547D02*
D03*
X209453Y118691D02*
D03*
X203547D02*
D03*
X119407Y121321D02*
D03*
X125313D02*
D03*
X119375Y114321D02*
D03*
X125280D02*
D03*
X119317Y90461D02*
D03*
X125223D02*
D03*
X119347Y73953D02*
D03*
X125253D02*
D03*
D39*
X219800Y88040D02*
D03*
Y81741D02*
D03*
D43*
X245512Y187448D02*
D03*
Y177448D02*
D03*
X235512Y187448D02*
D03*
Y177448D02*
D03*
X225512Y187448D02*
D03*
Y177448D02*
D03*
X215512Y187448D02*
D03*
Y177448D02*
D03*
X205512Y187448D02*
D03*
Y177448D02*
D03*
X195512Y187448D02*
D03*
Y177448D02*
D03*
X185512Y187448D02*
D03*
Y177448D02*
D03*
X175512Y187448D02*
D03*
Y177448D02*
D03*
X165512Y187448D02*
D03*
Y177448D02*
D03*
X155512Y187448D02*
D03*
Y177448D02*
D03*
X145512Y187448D02*
D03*
Y177448D02*
D03*
X135512Y187448D02*
D03*
Y177448D02*
D03*
X125512Y187448D02*
D03*
Y177448D02*
D03*
X115512Y187448D02*
D03*
Y177448D02*
D03*
X105512Y187448D02*
D03*
Y177448D02*
D03*
X95512Y187448D02*
D03*
Y177448D02*
D03*
X85512Y187448D02*
D03*
Y177448D02*
D03*
X75512Y187448D02*
D03*
Y177448D02*
D03*
X65512Y187448D02*
D03*
Y177448D02*
D03*
X55512Y187448D02*
D03*
X40953Y152823D02*
D03*
X285800Y121591D02*
D03*
Y111591D02*
D03*
Y101591D02*
D03*
Y91590D02*
D03*
Y81590D02*
D03*
X40953Y40330D02*
D03*
X11600Y27491D02*
D03*
X55472Y6228D02*
D03*
Y16228D02*
D03*
X65472Y6228D02*
D03*
Y16228D02*
D03*
X75472Y6228D02*
D03*
Y16228D02*
D03*
X85472Y6228D02*
D03*
Y16228D02*
D03*
X95472Y6228D02*
D03*
Y16228D02*
D03*
X105472Y6228D02*
D03*
Y16228D02*
D03*
X115472Y6228D02*
D03*
Y16228D02*
D03*
X125472Y6228D02*
D03*
Y16228D02*
D03*
X135472Y6228D02*
D03*
Y16228D02*
D03*
X145472Y6228D02*
D03*
Y16228D02*
D03*
X155472Y6228D02*
D03*
Y16228D02*
D03*
X165472Y6228D02*
D03*
Y16228D02*
D03*
X175472Y6228D02*
D03*
Y16228D02*
D03*
X185472Y6228D02*
D03*
Y16228D02*
D03*
X195472Y6228D02*
D03*
Y16228D02*
D03*
X205472Y6228D02*
D03*
Y16228D02*
D03*
X215472Y6228D02*
D03*
Y16228D02*
D03*
X225472Y6228D02*
D03*
Y16228D02*
D03*
X235472Y6228D02*
D03*
Y16228D02*
D03*
X245472Y6228D02*
D03*
D44*
X55512Y177448D02*
D03*
X50953Y152823D02*
D03*
X50953Y40330D02*
D03*
X21600Y27491D02*
D03*
X245472Y16228D02*
D03*
D45*
X285800Y71591D02*
D03*
D46*
X159695Y101083D02*
D03*
X164370D02*
D03*
X169045D02*
D03*
Y96653D02*
D03*
X164370D02*
D03*
X159695D02*
D03*
Y92224D02*
D03*
X164370D02*
D03*
X169045D02*
D03*
X238287Y77067D02*
D03*
X229626Y73622D02*
D03*
X226772Y79921D02*
D03*
X252323Y57815D02*
D03*
X81500Y76390D02*
D03*
X130449Y62142D02*
D03*
X130358Y87732D02*
D03*
X130368Y113323D02*
D03*
X130362Y119228D02*
D03*
X147668Y130623D02*
D03*
X159479Y130612D02*
D03*
X177195Y130595D02*
D03*
X190975Y130616D02*
D03*
X198449Y131039D02*
D03*
X198432Y113323D02*
D03*
X198390Y103480D02*
D03*
X198384Y97575D02*
D03*
X198457Y68047D02*
D03*
X190975Y62565D02*
D03*
X173258Y62549D02*
D03*
X157510Y62601D02*
D03*
X147668Y62558D02*
D03*
X279740Y5431D02*
D03*
X281740Y187231D02*
D03*
X85100Y48791D02*
D03*
Y52390D02*
D03*
X49800Y27591D02*
D03*
Y24390D02*
D03*
X53400D02*
D03*
Y27591D02*
D03*
X146300Y31291D02*
D03*
X180700Y40991D02*
D03*
X114200Y114291D02*
D03*
X114300Y120291D02*
D03*
X228600Y100591D02*
D03*
X216600Y94490D02*
D03*
X112070Y90461D02*
D03*
X146700Y46291D02*
D03*
X156600D02*
D03*
X172300D02*
D03*
X216600Y112391D02*
D03*
Y102491D02*
D03*
X219800Y76691D02*
D03*
X223800D02*
D03*
X231000Y40991D02*
D03*
X235000D02*
D03*
X227000D02*
D03*
X216000Y71890D02*
D03*
X235200Y48090D02*
D03*
X52900Y164891D02*
D03*
X111800Y59290D02*
D03*
X184300Y148591D02*
D03*
X178200D02*
D03*
X160500Y147291D02*
D03*
X51236Y143591D02*
D03*
X218400Y118691D02*
D03*
X146300Y41591D02*
D03*
X125300Y163591D02*
D03*
X184300Y159491D02*
D03*
X194900Y148591D02*
D03*
X185700Y30191D02*
D03*
X191900Y44091D02*
D03*
X239600Y113291D02*
D03*
X267100Y139191D02*
D03*
X263200D02*
D03*
X259200D02*
D03*
X256600Y113291D02*
D03*
X233100Y90690D02*
D03*
Y96491D02*
D03*
Y101291D02*
D03*
X70000Y159278D02*
D03*
X46000Y143591D02*
D03*
X88400Y102391D02*
D03*
Y52390D02*
D03*
Y48791D02*
D03*
X122600Y40191D02*
D03*
X111800Y73090D02*
D03*
X52900Y168091D02*
D03*
X49300Y164891D02*
D03*
Y168091D02*
D03*
X64400Y143591D02*
D03*
X113700Y152791D02*
D03*
Y159278D02*
D03*
X150200Y150091D02*
D03*
X125300Y159491D02*
D03*
X146000Y154891D02*
D03*
X150200Y159491D02*
D03*
X84600Y40191D02*
D03*
X111100Y44891D02*
D03*
X206300Y153691D02*
D03*
X265600Y50991D02*
D03*
X269300Y85590D02*
D03*
X221100Y148591D02*
D03*
X256000Y143991D02*
D03*
X221700Y132891D02*
D03*
X223753Y50838D02*
D03*
X218200Y62990D02*
D03*
X271200Y127291D02*
D03*
X228500Y112391D02*
D03*
X224200D02*
D03*
X59600Y91190D02*
D03*
X63350D02*
D03*
X67100D02*
D03*
X88400Y68490D02*
D03*
X88700Y84190D02*
D03*
D47*
X77800Y110091D02*
D03*
Y116790D02*
D03*
Y123591D02*
D03*
Y130491D02*
D03*
D199*
X41115Y166491D02*
D03*
X30485D02*
D03*
D200*
X130000Y38376D02*
D03*
Y49005D02*
D03*
D201*
X284882Y29648D02*
D03*
X290591D02*
D03*
X284882Y15475D02*
D03*
X290591D02*
D03*
Y164033D02*
D03*
X284882D02*
D03*
X290591Y178206D02*
D03*
X284882D02*
D03*
M02*
