M48
;Layer_Color=9474304
;FILE_FORMAT=2:4
INCH,TZ
;TYPE=PLATED
T1F00S00C0.0160
T2F00S00C0.0280
T3F00S00C0.0354
%
T01
X4980Y2439
Y2759
X5340
Y2439
X8460Y4019
X8510Y4879
X8840
Y5239
X8510
X8840Y6849
X8150Y7639
X8870Y8419
X8840Y10239
X6710Y9119
X6335
X5960
X11207Y9046
X11180Y7309
Y5929
X11110Y4489
X12260Y4019
X14630Y4159
X14670Y4629
X14630Y3129
X14767Y6256
X13045Y6214
X13036Y8773
X13037Y11332
X13036Y11923
X11420Y11429
X15969Y10108
Y9665
Y9222
X16437
Y9665
Y10108
X16905
Y9665
Y9222
X17326Y6255
X15751Y6260
X15660Y4629
X17230
X18070Y4099
X19190Y4409
X19097Y6257
X19846Y6805
X21600Y7189
X21980Y7669
X22380
X22677Y7992
X22963Y7362
X23829Y7707
X23310Y9069
Y9649
Y10129
X22860Y10059
X22850Y11239
X22420
X21660
X21840Y11869
X21660Y10249
Y9449
X19838Y9757
X19839Y10348
X19843Y11332
X23960Y11329
X25660
X26930Y8559
X26560Y5099
X25232Y5781
X23520Y4809
X23500Y4099
X23100
X22700
X22375Y5084
X21820Y6299
X18570Y3019
X27974Y543
X27120Y12729
X26710Y13919
X26320
X25920
X25600Y14399
X22110Y14859
X22170Y13289
X19845Y13104
X19097Y13062
X17720Y13060
X15948Y13061
X16050Y14729
X15020Y15009
Y15949
X18430
Y14859
X17820
X19490
X20630Y15369
X28174Y18723
X14600Y15489
X12530Y15949
Y16359
X11370Y15928
Y15279
X11430Y12029
X14767Y13062
X6440Y14359
X5124
X4600
X4930Y16489
Y16809
X5290
Y16489
X7000Y15928
T02
X7780Y11009
Y11679
Y12359
Y13049
T03
X1160Y2749
X2160
X4095Y4033
X5095
X5547Y1623
Y623
X6547
Y1623
X7547
Y623
X8547
Y1623
X9547
Y623
X10547
Y1623
X11547
Y623
X12547
Y1623
X13547
Y623
X14547
Y1623
X15547
Y623
X16547
Y1623
X17547
Y623
X18547
Y1623
X19547
Y623
X20547
Y1623
X21547
Y623
X22547
Y1623
X23547
Y623
X24547
Y1623
X28580Y7159
Y8159
Y9159
Y10159
Y11159
Y12159
X24551Y17745
Y18745
X23551
Y17745
X22551
Y18745
X21551
Y17745
X20551
Y18745
X19551
Y17745
X18551
Y18745
X17551
Y17745
X16551
Y18745
X15551
Y17745
X14551
Y18745
X13551
Y17745
X12551
Y18745
X11551
Y17745
X10551
Y18745
X9551
Y17745
X8551
Y18745
X7551
Y17745
X6551
Y18745
X5551
Y17745
X5095Y15282
X4095
M30
