G04*
G04 #@! TF.GenerationSoftware,Altium Limited,Altium Designer,20.0.13 (296)*
G04*
G04 Layer_Color=65535*
%FSLAX25Y25*%
%MOIN*%
G70*
G01*
G75*
%ADD10C,0.00984*%
%ADD11C,0.02362*%
%ADD12C,0.00787*%
%ADD13C,0.01000*%
%ADD14C,0.00800*%
D10*
X245046Y76434D02*
X244308Y76860D01*
Y76008D01*
X245046Y76434D01*
X8303Y113913D02*
X7565Y114340D01*
Y113487D01*
X8303Y113913D01*
Y56039D02*
X7565Y56466D01*
Y55613D01*
X8303Y56039D01*
X206624Y59386D02*
X205886Y59812D01*
Y58960D01*
X206624Y59386D01*
D11*
X197668Y64504D02*
X197223Y65427D01*
X196224Y65655D01*
X195422Y65016D01*
Y63991D01*
X196224Y63352D01*
X197223Y63581D01*
X197668Y64504D01*
D12*
X251050Y55548D02*
X257350D01*
X251050Y75233D02*
X257350D01*
Y55548D02*
Y75233D01*
X251050Y55548D02*
Y75233D01*
X270550Y19707D02*
Y28057D01*
X284400D02*
X286100Y26357D01*
X270550Y28057D02*
X284400D01*
X270550Y19707D02*
X284450D01*
X286100Y21357D01*
Y26357D01*
X285100Y20707D02*
Y27357D01*
X245300Y45925D02*
Y50256D01*
Y38759D02*
Y43089D01*
Y31592D02*
Y35923D01*
Y24425D02*
Y28756D01*
X50512Y172448D02*
X250512D01*
X50512Y192448D02*
X250512D01*
X50512Y172448D02*
Y192448D01*
X250512Y172448D02*
Y192448D01*
X270550Y154874D02*
Y163224D01*
X284400D02*
X286100Y161524D01*
X270550Y163224D02*
X284400D01*
X270550Y154874D02*
X284450D01*
X286100Y156524D01*
Y161524D01*
X285100Y155874D02*
Y162524D01*
X270550Y144341D02*
Y152691D01*
X284400D02*
X286100Y150991D01*
X270550Y152691D02*
X284400D01*
X270550Y144341D02*
X284450D01*
X286100Y145991D01*
Y150991D01*
X285100Y145341D02*
Y151991D01*
X270550Y40841D02*
Y49191D01*
X284400D02*
X286100Y47491D01*
X270550Y49191D02*
X284400D01*
X270550Y40841D02*
X284450D01*
X286100Y42491D01*
Y47491D01*
X285100Y41840D02*
Y48491D01*
X270550Y30274D02*
Y38624D01*
X284400D02*
X286100Y36924D01*
X270550Y38624D02*
X284400D01*
X270550Y30274D02*
X284450D01*
X286100Y31924D01*
Y36924D01*
X285100Y31274D02*
Y37924D01*
X235748Y134935D02*
X252284D01*
X235748Y115250D02*
Y134935D01*
Y115250D02*
X252284D01*
Y134935D01*
X54461Y105784D02*
Y109800D01*
X84776Y105784D02*
Y109958D01*
X54461Y105784D02*
X84776D01*
X54461Y133776D02*
X84382D01*
X54461Y129918D02*
Y133776D01*
X84382Y130194D02*
Y133776D01*
X235748Y90488D02*
Y110173D01*
X252284D01*
Y90488D02*
Y110173D01*
X235748Y90488D02*
X252284D01*
X7811Y120409D02*
X34189D01*
X7811Y130646D02*
X34189D01*
X7811Y120409D02*
Y130646D01*
X34189Y120409D02*
Y130646D01*
X35953Y147823D02*
Y157823D01*
X55953D01*
Y147823D02*
Y157823D01*
X35953Y147823D02*
X55953D01*
X290800Y66590D02*
Y126591D01*
X280800Y66590D02*
Y126591D01*
Y66590D02*
X290800D01*
X280800Y126591D02*
X290800D01*
X13300Y154425D02*
Y158756D01*
X35953Y35331D02*
Y45331D01*
X55953D01*
Y35331D02*
Y45331D01*
X35953Y35331D02*
X55953D01*
X6600Y22490D02*
Y32491D01*
X26600D01*
Y22490D02*
Y32491D01*
X6600Y22490D02*
X26600D01*
X7811Y62535D02*
X34189D01*
X7811Y72772D02*
X34189D01*
X7811Y62535D02*
Y72772D01*
X34189Y62535D02*
Y72772D01*
X270550Y165407D02*
Y173757D01*
X284400D02*
X286100Y172057D01*
X270550Y173757D02*
X284400D01*
X270550Y165407D02*
X284450D01*
X286100Y167057D01*
Y172057D01*
X285100Y166407D02*
Y173057D01*
X270550Y175941D02*
Y184291D01*
X284400D02*
X286100Y182590D01*
X270550Y184291D02*
X284400D01*
X270550Y175941D02*
X284450D01*
X286100Y177591D01*
Y182590D01*
X285100Y176941D02*
Y183590D01*
X13750Y167541D02*
Y175891D01*
X27600D02*
X29300Y174191D01*
X13750Y175891D02*
X27600D01*
X13750Y167541D02*
X27650D01*
X29300Y169191D01*
Y174191D01*
X28300Y168541D02*
Y175191D01*
X270550Y9141D02*
Y17491D01*
X284400D02*
X286100Y15790D01*
X270550Y17491D02*
X284400D01*
X270550Y9141D02*
X284450D01*
X286100Y10791D01*
Y15790D01*
X285100Y10141D02*
Y16791D01*
X50472Y21228D02*
X250472D01*
X50472Y1228D02*
X250472D01*
Y21228D01*
X50472Y1228D02*
Y21228D01*
X96900Y91425D02*
Y95756D01*
X245500Y163725D02*
Y168056D01*
Y156292D02*
Y160623D01*
Y148858D02*
Y153189D01*
Y141425D02*
Y145756D01*
X245400Y82625D02*
Y86956D01*
X274135Y96591D02*
X278465D01*
X128376Y132614D02*
X200424D01*
X128376Y60567D02*
X200424D01*
X128376D02*
Y132614D01*
X200424Y60567D02*
Y132614D01*
D13*
X8050Y37040D02*
X12049D01*
X10049Y39039D02*
Y35040D01*
X20046Y37040D02*
X24045D01*
X233386Y134541D02*
X234385D01*
Y133541D01*
X233386D01*
Y134541D01*
X254646Y90882D02*
X253646D01*
Y91882D01*
X254646D01*
Y90882D01*
X103600Y168990D02*
X107599D01*
X105599Y170989D02*
Y166990D01*
X193300Y168990D02*
X197299D01*
X195299Y170989D02*
Y166990D01*
X103800Y24390D02*
X107799D01*
X105799Y26389D02*
Y22390D01*
X193600Y24690D02*
X197599D01*
X195599Y26689D02*
Y22690D01*
X271800Y59990D02*
Y57490D01*
X272300Y56990D01*
X273300D01*
X273799Y57490D01*
Y59990D01*
X276798Y56990D02*
X274799D01*
X276798Y58990D01*
Y59490D01*
X276298Y59990D01*
X275299D01*
X274799Y59490D01*
X119200Y149490D02*
Y146990D01*
X119700Y146491D01*
X120700D01*
X121199Y146990D01*
Y149490D01*
X122199Y146491D02*
X123199D01*
X122699D01*
Y149490D01*
X122199Y148990D01*
X241100Y139390D02*
X243099Y136391D01*
Y139390D02*
X241100Y136391D01*
X246098D02*
X244099D01*
X246098Y138390D01*
Y138890D01*
X245599Y139390D01*
X244599D01*
X244099Y138890D01*
X68449Y138120D02*
X67949Y138620D01*
X66950D01*
X66450Y138120D01*
Y137620D01*
X66950Y137120D01*
X67949D01*
X68449Y136620D01*
Y136120D01*
X67949Y135621D01*
X66950D01*
X66450Y136120D01*
X69449Y138620D02*
Y135621D01*
X70449Y136620D01*
X71448Y135621D01*
Y138620D01*
X256699Y134590D02*
X256200Y135090D01*
X255200D01*
X254700Y134590D01*
Y132590D01*
X255200Y132091D01*
X256200D01*
X256699Y132590D01*
X259198Y132091D02*
Y135090D01*
X257699Y133590D01*
X259698D01*
X260698Y134590D02*
X261198Y135090D01*
X262198D01*
X262697Y134590D01*
Y132590D01*
X262198Y132091D01*
X261198D01*
X260698Y132590D01*
Y134590D01*
X230500Y142191D02*
Y145190D01*
X231999D01*
X232499Y144690D01*
Y143690D01*
X231999Y143190D01*
X230500D01*
X231500D02*
X232499Y142191D01*
X233499D02*
X234499D01*
X233999D01*
Y145190D01*
X233499Y144690D01*
X235998D02*
X236498Y145190D01*
X237498D01*
X237998Y144690D01*
Y144190D01*
X237498Y143690D01*
X237998Y143190D01*
Y142690D01*
X237498Y142191D01*
X236498D01*
X235998Y142690D01*
Y143190D01*
X236498Y143690D01*
X235998Y144190D01*
Y144690D01*
X236498Y143690D02*
X237498D01*
X231400Y149891D02*
Y152890D01*
X232899D01*
X233399Y152390D01*
Y151390D01*
X232899Y150890D01*
X231400D01*
X232400D02*
X233399Y149891D01*
X234399D02*
X235399D01*
X234899D01*
Y152890D01*
X234399Y152390D01*
X236898Y152890D02*
X238898D01*
Y152390D01*
X236898Y150390D01*
Y149891D01*
X253000Y39691D02*
Y42690D01*
X254500D01*
X254999Y42190D01*
Y41190D01*
X254500Y40690D01*
X253000D01*
X254000D02*
X254999Y39691D01*
X255999D02*
X256999D01*
X256499D01*
Y42690D01*
X255999Y42190D01*
X260498Y39691D02*
X258498D01*
X260498Y41690D01*
Y42190D01*
X259998Y42690D01*
X258998D01*
X258498Y42190D01*
X253100Y47091D02*
Y50090D01*
X254599D01*
X255099Y49590D01*
Y48590D01*
X254599Y48090D01*
X253100D01*
X254100D02*
X255099Y47091D01*
X256099D02*
X257099D01*
X256599D01*
Y50090D01*
X256099Y49590D01*
X258598Y47091D02*
X259598D01*
X259098D01*
Y50090D01*
X258598Y49590D01*
X265601Y10862D02*
X268600D01*
Y12361D01*
X268100Y12861D01*
X266101D01*
X265601Y12361D01*
Y10862D01*
X266101Y13861D02*
X265601Y14361D01*
Y15361D01*
X266101Y15860D01*
X268100D01*
X268600Y15361D01*
Y14361D01*
X268100Y13861D01*
X266101D01*
X8801Y169405D02*
X11800D01*
Y170904D01*
X11300Y171404D01*
X9301D01*
X8801Y170904D01*
Y169405D01*
X9301Y172404D02*
X8801Y172904D01*
Y173903D01*
X9301Y174403D01*
X9801D01*
X10300Y173903D01*
X10800Y174403D01*
X11300D01*
X11800Y173903D01*
Y172904D01*
X11300Y172404D01*
X10800D01*
X10300Y172904D01*
X9801Y172404D01*
X9301D01*
X10300Y172904D02*
Y173903D01*
X265601Y178233D02*
X268600D01*
Y179733D01*
X268100Y180233D01*
X266101D01*
X265601Y179733D01*
Y178233D01*
Y181233D02*
Y183232D01*
X266101D01*
X268100Y181233D01*
X268600D01*
X265601Y167557D02*
X268600D01*
Y169057D01*
X268100Y169557D01*
X266101D01*
X265601Y169057D01*
Y167557D01*
Y172556D02*
X266101Y171556D01*
X267101Y170556D01*
X268100D01*
X268600Y171056D01*
Y172056D01*
X268100Y172556D01*
X267600D01*
X267101Y172056D01*
Y170556D01*
X241916Y114190D02*
X243915Y111191D01*
Y114190D02*
X241916Y111191D01*
X244915D02*
X245915D01*
X245415D01*
Y114190D01*
X244915Y113690D01*
X18500Y88854D02*
Y91853D01*
X19999D01*
X20499Y91353D01*
Y90353D01*
X19999Y89853D01*
X18500D01*
X19500D02*
X20499Y88854D01*
X23498Y91853D02*
X21499D01*
Y88854D01*
X23498D01*
X21499Y90353D02*
X22499D01*
X26497Y91353D02*
X25998Y91853D01*
X24998D01*
X24498Y91353D01*
Y89353D01*
X24998Y88854D01*
X25998D01*
X26497Y89353D01*
Y90353D01*
X25498D01*
X27497Y88854D02*
X28497D01*
X27997D01*
Y91853D01*
X27497Y91353D01*
X29996Y91853D02*
Y89853D01*
X30996Y88854D01*
X31996Y89853D01*
Y91853D01*
X34995Y88854D02*
X32995D01*
X34995Y90853D01*
Y91353D01*
X34495Y91853D01*
X33495D01*
X32995Y91353D01*
X17700Y146128D02*
Y149127D01*
X19199D01*
X19699Y148627D01*
Y147627D01*
X19199Y147127D01*
X17700D01*
X18700D02*
X19699Y146128D01*
X22698Y149127D02*
X20699D01*
Y146128D01*
X22698D01*
X20699Y147627D02*
X21699D01*
X25697Y148627D02*
X25198Y149127D01*
X24198D01*
X23698Y148627D01*
Y146627D01*
X24198Y146128D01*
X25198D01*
X25697Y146627D01*
Y147627D01*
X24698D01*
X28696Y146128D02*
X26697D01*
X28696Y148127D01*
Y148627D01*
X28197Y149127D01*
X27197D01*
X26697Y148627D01*
X29696Y149127D02*
Y147127D01*
X30696Y146128D01*
X31696Y147127D01*
Y149127D01*
X34694D02*
X32695D01*
Y147627D01*
X33695Y148127D01*
X34195D01*
X34694Y147627D01*
Y146627D01*
X34195Y146128D01*
X33195D01*
X32695Y146627D01*
X270900Y103791D02*
Y106790D01*
X272399D01*
X272899Y106290D01*
Y105290D01*
X272399Y104790D01*
X270900D01*
X271900D02*
X272899Y103791D01*
X273899D02*
X274899D01*
X274399D01*
Y106790D01*
X273899Y106290D01*
X276398D02*
X276898Y106790D01*
X277898D01*
X278398Y106290D01*
Y104290D01*
X277898Y103791D01*
X276898D01*
X276398Y104290D01*
Y106290D01*
X233200Y82790D02*
Y85790D01*
X234700D01*
X235199Y85290D01*
Y84290D01*
X234700Y83790D01*
X233200D01*
X234200D02*
X235199Y82790D01*
X236199Y85790D02*
X238198D01*
Y85290D01*
X236199Y83290D01*
Y82790D01*
X95000Y97790D02*
Y100790D01*
X96500D01*
X96999Y100290D01*
Y99290D01*
X96500Y98790D01*
X95000D01*
X96000D02*
X96999Y97790D01*
X97999D02*
X98999D01*
X98499D01*
Y100790D01*
X97999Y100290D01*
X61000Y49022D02*
Y46023D01*
X62999D01*
X65998D02*
X63999D01*
X65998Y48022D01*
Y48522D01*
X65499Y49022D01*
X64499D01*
X63999Y48522D01*
X61000Y161090D02*
Y158091D01*
X62999D01*
X63999D02*
X64999D01*
X64499D01*
Y161090D01*
X63999Y160590D01*
X231072Y26027D02*
X230072D01*
X230572D01*
Y23527D01*
X230072Y23028D01*
X229572D01*
X229072Y23527D01*
X232071Y23028D02*
Y26027D01*
X233571D01*
X234071Y25527D01*
Y24527D01*
X233571Y24027D01*
X232071D01*
X237070Y23028D02*
X235070D01*
X237070Y25027D01*
Y25527D01*
X236570Y26027D01*
X235570D01*
X235070Y25527D01*
X28610Y28210D02*
X29110Y28710D01*
X30110D01*
X30609Y28210D01*
Y27710D01*
X30110Y27210D01*
X29610D01*
X30110D01*
X30609Y26710D01*
Y26210D01*
X30110Y25711D01*
X29110D01*
X28610Y26210D01*
X31609Y28710D02*
Y26710D01*
X32609Y25711D01*
X33608Y26710D01*
Y28710D01*
X34608Y28210D02*
X35108Y28710D01*
X36108D01*
X36607Y28210D01*
Y27710D01*
X36108Y27210D01*
X35608D01*
X36108D01*
X36607Y26710D01*
Y26210D01*
X36108Y25711D01*
X35108D01*
X34608Y26210D01*
X41953Y47563D02*
X42952D01*
X42453D01*
Y50562D01*
X41953Y50062D01*
X44452Y50562D02*
Y48562D01*
X45452Y47563D01*
X46451Y48562D01*
Y50562D01*
X49450Y47563D02*
X47451D01*
X49450Y49562D01*
Y50062D01*
X48950Y50562D01*
X47951D01*
X47451Y50062D01*
X65411Y170747D02*
X64411D01*
X64911D01*
Y168248D01*
X64411Y167748D01*
X63912D01*
X63412Y168248D01*
X66411Y167748D02*
Y170747D01*
X67910D01*
X68410Y170247D01*
Y169248D01*
X67910Y168748D01*
X66411D01*
X69410Y167748D02*
X70410D01*
X69910D01*
Y170747D01*
X69410Y170247D01*
X43299Y158991D02*
X41300D01*
X43299Y160990D01*
Y161490D01*
X42799Y161990D01*
X41800D01*
X41300Y161490D01*
X44299Y161990D02*
Y159990D01*
X45299Y158991D01*
X46298Y159990D01*
Y161990D01*
X49297D02*
X47298D01*
Y160490D01*
X48298Y160990D01*
X48798D01*
X49297Y160490D01*
Y159490D01*
X48798Y158991D01*
X47798D01*
X47298Y159490D01*
X275801Y73690D02*
Y72690D01*
Y73190D01*
X278300D01*
X278800Y72690D01*
Y72190D01*
X278300Y71690D01*
X275801Y74690D02*
Y76689D01*
Y75689D01*
X278800D01*
Y77689D02*
X276801D01*
X275801Y78688D01*
X276801Y79688D01*
X278800D01*
X277301D01*
Y77689D01*
X276301Y82687D02*
X275801Y82187D01*
Y81187D01*
X276301Y80688D01*
X278300D01*
X278800Y81187D01*
Y82187D01*
X278300Y82687D01*
X277301D01*
Y81687D01*
X256299Y109390D02*
X255800Y109890D01*
X254800D01*
X254300Y109390D01*
Y107390D01*
X254800Y106891D01*
X255800D01*
X256299Y107390D01*
X257299Y109390D02*
X257799Y109890D01*
X258799D01*
X259298Y109390D01*
Y108890D01*
X258799Y108390D01*
X258299D01*
X258799D01*
X259298Y107890D01*
Y107390D01*
X258799Y106891D01*
X257799D01*
X257299Y107390D01*
X260298Y109890D02*
X262297D01*
Y109390D01*
X260298Y107390D01*
Y106891D01*
X40399Y127090D02*
X39900Y127590D01*
X38900D01*
X38400Y127090D01*
Y125090D01*
X38900Y124591D01*
X39900D01*
X40399Y125090D01*
X41399Y127090D02*
X41899Y127590D01*
X42899D01*
X43398Y127090D01*
Y126590D01*
X42899Y126090D01*
X42399D01*
X42899D01*
X43398Y125590D01*
Y125090D01*
X42899Y124591D01*
X41899D01*
X41399Y125090D01*
X46397Y127590D02*
X45398Y127090D01*
X44398Y126090D01*
Y125090D01*
X44898Y124591D01*
X45898D01*
X46397Y125090D01*
Y125590D01*
X45898Y126090D01*
X44398D01*
X40599Y132190D02*
X40099Y132690D01*
X39100D01*
X38600Y132190D01*
Y130190D01*
X39100Y129691D01*
X40099D01*
X40599Y130190D01*
X41599Y132190D02*
X42099Y132690D01*
X43099D01*
X43598Y132190D01*
Y131690D01*
X43099Y131190D01*
X42599D01*
X43099D01*
X43598Y130690D01*
Y130190D01*
X43099Y129691D01*
X42099D01*
X41599Y130190D01*
X46597Y132690D02*
X44598D01*
Y131190D01*
X45598Y131690D01*
X46098D01*
X46597Y131190D01*
Y130190D01*
X46098Y129691D01*
X45098D01*
X44598Y130190D01*
X113899Y39690D02*
X113400Y40190D01*
X112400D01*
X111900Y39690D01*
Y37690D01*
X112400Y37191D01*
X113400D01*
X113899Y37690D01*
X114899Y39690D02*
X115399Y40190D01*
X116399D01*
X116898Y39690D01*
Y39190D01*
X116399Y38690D01*
X115899D01*
X116399D01*
X116898Y38190D01*
Y37690D01*
X116399Y37191D01*
X115399D01*
X114899Y37690D01*
X119398Y37191D02*
Y40190D01*
X117898Y38690D01*
X119897D01*
X211299Y155790D02*
X210800Y156290D01*
X209800D01*
X209300Y155790D01*
Y153790D01*
X209800Y153291D01*
X210800D01*
X211299Y153790D01*
X212299Y155790D02*
X212799Y156290D01*
X213798D01*
X214298Y155790D01*
Y155290D01*
X213798Y154790D01*
X213299D01*
X213798D01*
X214298Y154290D01*
Y153790D01*
X213798Y153291D01*
X212799D01*
X212299Y153790D01*
X215298Y155790D02*
X215798Y156290D01*
X216798D01*
X217297Y155790D01*
Y155290D01*
X216798Y154790D01*
X216298D01*
X216798D01*
X217297Y154290D01*
Y153790D01*
X216798Y153291D01*
X215798D01*
X215298Y153790D01*
X224599Y57890D02*
X224099Y58390D01*
X223100D01*
X222600Y57890D01*
Y55890D01*
X223100Y55391D01*
X224099D01*
X224599Y55890D01*
X225599Y55391D02*
X226599D01*
X226099D01*
Y58390D01*
X225599Y57890D01*
X228098D02*
X228598Y58390D01*
X229598D01*
X230098Y57890D01*
Y57390D01*
X229598Y56890D01*
X229098D01*
X229598D01*
X230098Y56390D01*
Y55890D01*
X229598Y55391D01*
X228598D01*
X228098Y55890D01*
X42699Y68790D02*
X42200Y69290D01*
X41200D01*
X40700Y68790D01*
Y66790D01*
X41200Y66290D01*
X42200D01*
X42699Y66790D01*
X43699Y68790D02*
X44199Y69290D01*
X45199D01*
X45698Y68790D01*
Y68290D01*
X45199Y67790D01*
X44699D01*
X45199D01*
X45698Y67290D01*
Y66790D01*
X45199Y66290D01*
X44199D01*
X43699Y66790D01*
X42799Y73090D02*
X42300Y73590D01*
X41300D01*
X40800Y73090D01*
Y71090D01*
X41300Y70591D01*
X42300D01*
X42799Y71090D01*
X45798Y70591D02*
X43799D01*
X45798Y72590D01*
Y73090D01*
X45299Y73590D01*
X44299D01*
X43799Y73090D01*
X76999Y159090D02*
X76499Y159590D01*
X75500D01*
X75000Y159090D01*
Y157090D01*
X75500Y156591D01*
X76499D01*
X76999Y157090D01*
X77999Y159090D02*
X78499Y159590D01*
X79499D01*
X79998Y159090D01*
Y158590D01*
X79499Y158090D01*
X78999D01*
X79499D01*
X79998Y157590D01*
Y157090D01*
X79499Y156591D01*
X78499D01*
X77999Y157090D01*
X80998Y159090D02*
X81498Y159590D01*
X82498D01*
X82997Y159090D01*
Y158590D01*
X82498Y158090D01*
X82997Y157590D01*
Y157090D01*
X82498Y156591D01*
X81498D01*
X80998Y157090D01*
Y157590D01*
X81498Y158090D01*
X80998Y158590D01*
Y159090D01*
X81498Y158090D02*
X82498D01*
X76499Y53490D02*
X75999Y53990D01*
X75000D01*
X74500Y53490D01*
Y51490D01*
X75000Y50991D01*
X75999D01*
X76499Y51490D01*
X77499Y53490D02*
X77999Y53990D01*
X78999D01*
X79498Y53490D01*
Y52990D01*
X78999Y52490D01*
X78499D01*
X78999D01*
X79498Y51990D01*
Y51490D01*
X78999Y50991D01*
X77999D01*
X77499Y51490D01*
X80498D02*
X80998Y50991D01*
X81998D01*
X82497Y51490D01*
Y53490D01*
X81998Y53990D01*
X80998D01*
X80498Y53490D01*
Y52990D01*
X80998Y52490D01*
X82497D01*
X265201Y21657D02*
X268200D01*
Y23157D01*
X267700Y23657D01*
X265701D01*
X265201Y23157D01*
Y21657D01*
X268200Y24656D02*
Y25656D01*
Y25156D01*
X265201D01*
X265701Y24656D01*
X8300Y149435D02*
Y152435D01*
X9799D01*
X10299Y151935D01*
Y150935D01*
X9799Y150435D01*
X8300D01*
X9300D02*
X10299Y149435D01*
X13298D02*
X11299D01*
X13298Y151435D01*
Y151935D01*
X12799Y152435D01*
X11799D01*
X11299Y151935D01*
X265601Y31710D02*
X268600D01*
Y33209D01*
X268100Y33709D01*
X266101D01*
X265601Y33209D01*
Y31710D01*
X268600Y36708D02*
Y34709D01*
X266601Y36708D01*
X266101D01*
X265601Y36208D01*
Y35208D01*
X266101Y34709D01*
X265601Y42848D02*
X268600D01*
Y44347D01*
X268100Y44847D01*
X266101D01*
X265601Y44347D01*
Y42848D01*
X266101Y45847D02*
X265601Y46347D01*
Y47346D01*
X266101Y47846D01*
X266601D01*
X267101Y47346D01*
Y46846D01*
Y47346D01*
X267600Y47846D01*
X268100D01*
X268600Y47346D01*
Y46347D01*
X268100Y45847D01*
X265601Y146419D02*
X268600D01*
Y147919D01*
X268100Y148418D01*
X266101D01*
X265601Y147919D01*
Y146419D01*
X268600Y150918D02*
X265601D01*
X267101Y149418D01*
Y151418D01*
X265601Y157024D02*
X268600D01*
Y158523D01*
X268100Y159023D01*
X266101D01*
X265601Y158523D01*
Y157024D01*
Y162022D02*
Y160023D01*
X267101D01*
X266601Y161023D01*
Y161522D01*
X267101Y162022D01*
X268100D01*
X268600Y161522D01*
Y160523D01*
X268100Y160023D01*
X252400Y32491D02*
Y35490D01*
X253900D01*
X254399Y34990D01*
Y33990D01*
X253900Y33490D01*
X252400D01*
X253400D02*
X254399Y32491D01*
X255399D02*
X256399D01*
X255899D01*
Y35490D01*
X255399Y34990D01*
X257898D02*
X258398Y35490D01*
X259398D01*
X259898Y34990D01*
Y34490D01*
X259398Y33990D01*
X258898D01*
X259398D01*
X259898Y33490D01*
Y32990D01*
X259398Y32491D01*
X258398D01*
X257898Y32990D01*
X252500Y25390D02*
Y28390D01*
X253999D01*
X254499Y27890D01*
Y26890D01*
X253999Y26390D01*
X252500D01*
X253500D02*
X254499Y25390D01*
X255499D02*
X256499D01*
X255999D01*
Y28390D01*
X255499Y27890D01*
X259498Y25390D02*
Y28390D01*
X257998Y26890D01*
X259998D01*
X231400Y164291D02*
Y167290D01*
X232899D01*
X233399Y166790D01*
Y165790D01*
X232899Y165290D01*
X231400D01*
X232400D02*
X233399Y164291D01*
X234399D02*
X235399D01*
X234899D01*
Y167290D01*
X234399Y166790D01*
X238898Y167290D02*
X236898D01*
Y165790D01*
X237898Y166290D01*
X238398D01*
X238898Y165790D01*
Y164790D01*
X238398Y164291D01*
X237398D01*
X236898Y164790D01*
X231300Y157163D02*
Y160162D01*
X232800D01*
X233299Y159662D01*
Y158662D01*
X232800Y158162D01*
X231300D01*
X232300D02*
X233299Y157163D01*
X234299D02*
X235299D01*
X234799D01*
Y160162D01*
X234299Y159662D01*
X238798Y160162D02*
X237798Y159662D01*
X236798Y158662D01*
Y157663D01*
X237298Y157163D01*
X238298D01*
X238798Y157663D01*
Y158162D01*
X238298Y158662D01*
X236798D01*
X218499Y144990D02*
X218000Y145490D01*
X217000D01*
X216500Y144990D01*
Y142990D01*
X217000Y142491D01*
X218000D01*
X218499Y142990D01*
X219499Y144990D02*
X219999Y145490D01*
X220999D01*
X221498Y144990D01*
Y144490D01*
X220999Y143990D01*
X220499D01*
X220999D01*
X221498Y143490D01*
Y142990D01*
X220999Y142491D01*
X219999D01*
X219499Y142990D01*
X222498Y142491D02*
X223498D01*
X222998D01*
Y145490D01*
X222498Y144990D01*
X110083Y66290D02*
X109583Y66790D01*
X108583D01*
X108083Y66290D01*
Y64290D01*
X108583Y63791D01*
X109583D01*
X110083Y64290D01*
X111082Y66290D02*
X111582Y66790D01*
X112582D01*
X113082Y66290D01*
Y65790D01*
X112582Y65290D01*
X112082D01*
X112582D01*
X113082Y64790D01*
Y64290D01*
X112582Y63791D01*
X111582D01*
X111082Y64290D01*
X116081Y63791D02*
X114081D01*
X116081Y65790D01*
Y66290D01*
X115581Y66790D01*
X114581D01*
X114081Y66290D01*
D14*
X47512Y172448D02*
X48511D01*
X48012D01*
Y175447D01*
X47512Y174947D01*
X49011Y189448D02*
X47012D01*
X49011Y191447D01*
Y191947D01*
X48511Y192447D01*
X47512D01*
X47012Y191947D01*
X253011Y188948D02*
Y191947D01*
X251512Y190448D01*
X253511D01*
X254511Y191447D02*
X255011Y191947D01*
X256010D01*
X256510Y191447D01*
Y189448D01*
X256010Y188948D01*
X255011D01*
X254511Y189448D01*
Y191447D01*
X251512Y174947D02*
X252012Y175447D01*
X253011D01*
X253511Y174947D01*
Y174447D01*
X253011Y173948D01*
X252512D01*
X253011D01*
X253511Y173448D01*
Y172948D01*
X253011Y172448D01*
X252012D01*
X251512Y172948D01*
X254511D02*
X255011Y172448D01*
X256010D01*
X256510Y172948D01*
Y174947D01*
X256010Y175447D01*
X255011D01*
X254511Y174947D01*
Y174447D01*
X255011Y173948D01*
X256510D01*
X252722Y18228D02*
X253721D01*
X253222D01*
Y21227D01*
X252722Y20727D01*
X254221Y1728D02*
X252222D01*
X254221Y3727D01*
Y4227D01*
X253721Y4727D01*
X252722D01*
X252222Y4227D01*
X45221Y1728D02*
Y4727D01*
X43722Y3227D01*
X45721D01*
X46721Y4227D02*
X47221Y4727D01*
X48220D01*
X48720Y4227D01*
Y2227D01*
X48220Y1728D01*
X47221D01*
X46721Y2227D01*
Y4227D01*
X44222Y20727D02*
X44721Y21227D01*
X45721D01*
X46221Y20727D01*
Y20227D01*
X45721Y19727D01*
X45221D01*
X45721D01*
X46221Y19227D01*
Y18727D01*
X45721Y18228D01*
X44721D01*
X44222Y18727D01*
X47221D02*
X47721Y18228D01*
X48720D01*
X49220Y18727D01*
Y20727D01*
X48720Y21227D01*
X47721D01*
X47221Y20727D01*
Y20227D01*
X47721Y19727D01*
X49220D01*
M02*
