G04*
G04 #@! TF.GenerationSoftware,Altium Limited,Altium Designer,20.0.13 (296)*
G04*
G04 Layer_Color=32896*
%FSLAX25Y25*%
%MOIN*%
G70*
G01*
G75*
%ADD12C,0.00787*%
%ADD13C,0.01000*%
%ADD202C,0.00500*%
D12*
X34225Y169443D02*
X37375D01*
X34225Y163538D02*
X37375D01*
X132953Y42116D02*
Y45265D01*
X127047Y42116D02*
Y45265D01*
X217635Y84891D02*
X221965D01*
X294843Y25672D02*
X297638D01*
Y19058D02*
Y25672D01*
X294843Y19058D02*
X297638D01*
X280394Y15278D02*
Y29766D01*
X294843Y15278D02*
Y29766D01*
X280394Y15278D02*
X281929D01*
X293465D02*
X294843D01*
X293386Y29766D02*
X294843D01*
X280394D02*
X282008D01*
X280394Y178324D02*
X282008D01*
X293386D02*
X294843D01*
X293465Y163836D02*
X294843D01*
X280394D02*
X281929D01*
X294843D02*
Y178324D01*
X280394Y163836D02*
Y178324D01*
X294843Y167616D02*
X297638D01*
Y174230D01*
X294843D02*
X297638D01*
X263550Y169755D02*
Y174086D01*
X262800Y21125D02*
Y25456D01*
X271500Y94325D02*
Y98656D01*
X271500Y105125D02*
Y109456D01*
X262700Y13625D02*
Y17956D01*
X263600Y176525D02*
Y180856D01*
X68200Y128325D02*
Y132656D01*
Y121425D02*
Y125756D01*
X68400Y114625D02*
Y118956D01*
X68500Y107925D02*
Y112256D01*
X206500Y99625D02*
Y103956D01*
D13*
X16519Y104286D02*
Y102953D01*
Y103620D01*
X13186D01*
X12520Y102953D01*
Y102287D01*
X13186Y101621D01*
X12520Y106286D02*
Y107619D01*
X13186Y108285D01*
X14519D01*
X15186Y107619D01*
Y106286D01*
X14519Y105619D01*
X13186D01*
X12520Y106286D01*
Y109618D02*
Y111617D01*
X13186Y112284D01*
X13853Y111617D01*
Y110284D01*
X14519Y109618D01*
X15186Y110284D01*
Y112284D01*
X12520Y115616D02*
Y114283D01*
X13186Y113617D01*
X14519D01*
X15186Y114283D01*
Y115616D01*
X14519Y116282D01*
X13853D01*
Y113617D01*
X12520Y121614D02*
X16519D01*
Y123613D01*
X15852Y124280D01*
X14519D01*
X13853Y123613D01*
Y121614D01*
X12520Y125613D02*
Y126946D01*
Y126279D01*
X15186D01*
Y125613D01*
X12520Y128945D02*
X15186D01*
Y130944D01*
X14519Y131611D01*
X12520D01*
Y132944D02*
Y134277D01*
Y133610D01*
X15186D01*
Y132944D01*
X12520Y136276D02*
Y137609D01*
Y136943D01*
X16519D01*
Y136276D01*
X12520Y139608D02*
Y140941D01*
Y140275D01*
X16519D01*
Y139608D01*
X15186Y143607D02*
Y144940D01*
X14519Y145606D01*
X12520D01*
Y143607D01*
X13186Y142941D01*
X13853Y143607D01*
Y145606D01*
X19600Y102487D02*
X22932D01*
X21599D01*
Y101821D01*
Y103153D01*
Y102487D01*
X22932D01*
X23599Y103153D01*
X19600Y105153D02*
Y106486D01*
Y105819D01*
X22266D01*
Y105153D01*
Y108485D02*
X19600Y111151D01*
X20933Y109818D01*
X22266Y111151D01*
X19600Y108485D01*
Y114483D02*
Y113150D01*
X20267Y112484D01*
X21599D01*
X22266Y113150D01*
Y114483D01*
X21599Y115150D01*
X20933D01*
Y112484D01*
X23599Y119148D02*
X19600D01*
Y117149D01*
X20267Y116482D01*
X21599D01*
X22266Y117149D01*
Y119148D01*
Y124480D02*
X19600Y125813D01*
X22266Y127146D01*
X19600Y130478D02*
Y129145D01*
X20267Y128479D01*
X21599D01*
X22266Y129145D01*
Y130478D01*
X21599Y131144D01*
X20933D01*
Y128479D01*
X22266Y132477D02*
X19600D01*
X20933D01*
X21599Y133144D01*
X22266Y133810D01*
Y134477D01*
X19600Y136476D02*
Y138475D01*
X20267Y139142D01*
X20933Y138475D01*
Y137143D01*
X21599Y136476D01*
X22266Y137143D01*
Y139142D01*
X19600Y140475D02*
Y141808D01*
Y141141D01*
X22266D01*
Y140475D01*
X19600Y144474D02*
Y145806D01*
X20267Y146473D01*
X21599D01*
X22266Y145806D01*
Y144474D01*
X21599Y143807D01*
X20267D01*
X19600Y144474D01*
Y147806D02*
X22266D01*
Y149805D01*
X21599Y150471D01*
X19600D01*
X61100Y129091D02*
Y132090D01*
X59601D01*
X59101Y131590D01*
Y130590D01*
X59601Y130090D01*
X61100D01*
X60100D02*
X59101Y129091D01*
X58101Y131590D02*
X57601Y132090D01*
X56601D01*
X56102Y131590D01*
Y131090D01*
X56601Y130590D01*
X57101D01*
X56601D01*
X56102Y130090D01*
Y129590D01*
X56601Y129091D01*
X57601D01*
X58101Y129590D01*
X55102Y129091D02*
X54102D01*
X54602D01*
Y132090D01*
X55102Y131590D01*
X61400Y121991D02*
Y124990D01*
X59900D01*
X59401Y124490D01*
Y123490D01*
X59900Y122990D01*
X61400D01*
X60400D02*
X59401Y121991D01*
X58401Y124490D02*
X57901Y124990D01*
X56901D01*
X56402Y124490D01*
Y123990D01*
X56901Y123490D01*
X57401D01*
X56901D01*
X56402Y122990D01*
Y122490D01*
X56901Y121991D01*
X57901D01*
X58401Y122490D01*
X55402Y124490D02*
X54902Y124990D01*
X53902D01*
X53403Y124490D01*
Y122490D01*
X53902Y121991D01*
X54902D01*
X55402Y122490D01*
Y124490D01*
X61200Y115391D02*
Y118390D01*
X59701D01*
X59201Y117890D01*
Y116890D01*
X59701Y116390D01*
X61200D01*
X60200D02*
X59201Y115391D01*
X56202D02*
X58201D01*
X56202Y117390D01*
Y117890D01*
X56701Y118390D01*
X57701D01*
X58201Y117890D01*
X55202Y115890D02*
X54702Y115391D01*
X53702D01*
X53203Y115890D01*
Y117890D01*
X53702Y118390D01*
X54702D01*
X55202Y117890D01*
Y117390D01*
X54702Y116890D01*
X53203D01*
X61100Y108791D02*
Y111790D01*
X59601D01*
X59101Y111290D01*
Y110290D01*
X59601Y109790D01*
X61100D01*
X60100D02*
X59101Y108791D01*
X56102D02*
X58101D01*
X56102Y110790D01*
Y111290D01*
X56601Y111790D01*
X57601D01*
X58101Y111290D01*
X55102D02*
X54602Y111790D01*
X53602D01*
X53103Y111290D01*
Y110790D01*
X53602Y110290D01*
X53103Y109790D01*
Y109290D01*
X53602Y108791D01*
X54602D01*
X55102Y109290D01*
Y109790D01*
X54602Y110290D01*
X55102Y110790D01*
Y111290D01*
X54602Y110290D02*
X53602D01*
X278200Y169891D02*
Y172890D01*
X276700D01*
X276201Y172390D01*
Y171390D01*
X276700Y170890D01*
X278200D01*
X277200D02*
X276201Y169891D01*
X273202D02*
X275201D01*
X273202Y171890D01*
Y172390D01*
X273702Y172890D01*
X274701D01*
X275201Y172390D01*
X270203Y172890D02*
X272202D01*
Y171390D01*
X271202Y171890D01*
X270702D01*
X270203Y171390D01*
Y170390D01*
X270702Y169891D01*
X271702D01*
X272202Y170390D01*
X277200Y21690D02*
Y24690D01*
X275700D01*
X275201Y24190D01*
Y23190D01*
X275700Y22690D01*
X277200D01*
X276200D02*
X275201Y21690D01*
X272202D02*
X274201D01*
X272202Y23690D01*
Y24190D01*
X272702Y24690D01*
X273701D01*
X274201Y24190D01*
X269702Y21690D02*
Y24690D01*
X271202Y23190D01*
X269203D01*
X288301Y185690D02*
X288801Y186190D01*
X289800D01*
X290300Y185690D01*
Y185190D01*
X289800Y184690D01*
X288801D01*
X288301Y184190D01*
Y183690D01*
X288801Y183191D01*
X289800D01*
X290300Y183690D01*
X285302Y183191D02*
X287301D01*
X285302Y185190D01*
Y185690D01*
X285802Y186190D01*
X286801D01*
X287301Y185690D01*
X277400Y177491D02*
Y180490D01*
X275901D01*
X275401Y179990D01*
Y178990D01*
X275901Y178490D01*
X277400D01*
X276400D02*
X275401Y177491D01*
X272402D02*
X274401D01*
X272402Y179490D01*
Y179990D01*
X272902Y180490D01*
X273901D01*
X274401Y179990D01*
X271402Y177491D02*
X270402D01*
X270902D01*
Y180490D01*
X271402Y179990D01*
X273501Y166090D02*
X274001Y166590D01*
X275000D01*
X275500Y166090D01*
Y164090D01*
X275000Y163591D01*
X274001D01*
X273501Y164090D01*
X270502Y166590D02*
X271501Y166090D01*
X272501Y165090D01*
Y164090D01*
X272001Y163591D01*
X271002D01*
X270502Y164090D01*
Y164590D01*
X271002Y165090D01*
X272501D01*
X272501Y31090D02*
X273001Y31590D01*
X274000D01*
X274500Y31090D01*
Y29090D01*
X274000Y28591D01*
X273001D01*
X272501Y29090D01*
X269502Y31590D02*
X271501D01*
Y30090D01*
X270501Y30590D01*
X270002D01*
X269502Y30090D01*
Y29090D01*
X270002Y28591D01*
X271001D01*
X271501Y29090D01*
X273900Y89091D02*
Y92090D01*
X272400D01*
X271901Y91590D01*
Y90590D01*
X272400Y90090D01*
X273900D01*
X272900D02*
X271901Y89091D01*
X268902Y92090D02*
X270901D01*
Y90590D01*
X269901Y91090D01*
X269402D01*
X268902Y90590D01*
Y89590D01*
X269402Y89091D01*
X270401D01*
X270901Y89590D01*
X273400Y112091D02*
Y115090D01*
X271901D01*
X271401Y114590D01*
Y113590D01*
X271901Y113090D01*
X273400D01*
X272400D02*
X271401Y112091D01*
X270401Y112590D02*
X269901Y112091D01*
X268901D01*
X268402Y112590D01*
Y114590D01*
X268901Y115090D01*
X269901D01*
X270401Y114590D01*
Y114090D01*
X269901Y113590D01*
X268402D01*
X208200Y87391D02*
Y90390D01*
X206700D01*
X206201Y89890D01*
Y88890D01*
X206700Y88390D01*
X208200D01*
X207200D02*
X206201Y87391D01*
X205201Y89890D02*
X204701Y90390D01*
X203701D01*
X203202Y89890D01*
Y89390D01*
X203701Y88890D01*
X203202Y88390D01*
Y87890D01*
X203701Y87391D01*
X204701D01*
X205201Y87890D01*
Y88390D01*
X204701Y88890D01*
X205201Y89390D01*
Y89890D01*
X204701Y88890D02*
X203701D01*
X224900Y82691D02*
X227899D01*
Y84190D01*
X227399Y84690D01*
X226399D01*
X225900Y84190D01*
Y82691D01*
Y83690D02*
X224900Y84690D01*
X227899Y87689D02*
X227399Y86689D01*
X226399Y85690D01*
X225400D01*
X224900Y86189D01*
Y87189D01*
X225400Y87689D01*
X225900D01*
X226399Y87189D01*
Y85690D01*
X124301Y109390D02*
X124801Y109890D01*
X125800D01*
X126300Y109390D01*
Y107390D01*
X125800Y106891D01*
X124801D01*
X124301Y107390D01*
X123301Y109390D02*
X122801Y109890D01*
X121801D01*
X121302Y109390D01*
Y108890D01*
X121801Y108390D01*
X122301D01*
X121801D01*
X121302Y107890D01*
Y107390D01*
X121801Y106891D01*
X122801D01*
X123301Y107390D01*
X120302Y109390D02*
X119802Y109890D01*
X118802D01*
X118303Y109390D01*
Y107390D01*
X118802Y106891D01*
X119802D01*
X120302Y107390D01*
Y109390D01*
X124401Y97890D02*
X124900Y98390D01*
X125900D01*
X126400Y97890D01*
Y95890D01*
X125900Y95390D01*
X124900D01*
X124401Y95890D01*
X121402Y95390D02*
X123401D01*
X121402Y97390D01*
Y97890D01*
X121901Y98390D01*
X122901D01*
X123401Y97890D01*
X120402Y95890D02*
X119902Y95390D01*
X118902D01*
X118403Y95890D01*
Y97890D01*
X118902Y98390D01*
X119902D01*
X120402Y97890D01*
Y97390D01*
X119902Y96890D01*
X118403D01*
X144099Y63590D02*
X144599Y63090D01*
Y62090D01*
X144099Y61590D01*
X142100D01*
X141600Y62090D01*
Y63090D01*
X142100Y63590D01*
X141600Y66589D02*
Y64590D01*
X143599Y66589D01*
X144099D01*
X144599Y66089D01*
Y65089D01*
X144099Y64590D01*
Y67589D02*
X144599Y68089D01*
Y69088D01*
X144099Y69588D01*
X143599D01*
X143099Y69088D01*
X142600Y69588D01*
X142100D01*
X141600Y69088D01*
Y68089D01*
X142100Y67589D01*
X142600D01*
X143099Y68089D01*
X143599Y67589D01*
X144099D01*
X143099Y68089D02*
Y69088D01*
X153799Y63890D02*
X154299Y63390D01*
Y62390D01*
X153799Y61891D01*
X151800D01*
X151300Y62390D01*
Y63390D01*
X151800Y63890D01*
X151300Y66889D02*
Y64890D01*
X153299Y66889D01*
X153799D01*
X154299Y66389D01*
Y65389D01*
X153799Y64890D01*
X154299Y67889D02*
Y69888D01*
X153799D01*
X151800Y67889D01*
X151300D01*
X169799Y63090D02*
X170299Y62590D01*
Y61590D01*
X169799Y61090D01*
X167800D01*
X167300Y61590D01*
Y62590D01*
X167800Y63090D01*
X167300Y66089D02*
Y64090D01*
X169299Y66089D01*
X169799D01*
X170299Y65589D01*
Y64589D01*
X169799Y64090D01*
X170299Y69088D02*
X169799Y68088D01*
X168799Y67089D01*
X167800D01*
X167300Y67589D01*
Y68588D01*
X167800Y69088D01*
X168300D01*
X168799Y68588D01*
Y67089D01*
X198599Y52290D02*
X199099Y51790D01*
Y50790D01*
X198599Y50291D01*
X196600D01*
X196100Y50790D01*
Y51790D01*
X196600Y52290D01*
X196100Y55289D02*
Y53290D01*
X198099Y55289D01*
X198599D01*
X199099Y54789D01*
Y53789D01*
X198599Y53290D01*
X199099Y58288D02*
Y56289D01*
X197599D01*
X198099Y57288D01*
Y57788D01*
X197599Y58288D01*
X196600D01*
X196100Y57788D01*
Y56788D01*
X196600Y56289D01*
X206301Y84990D02*
X206801Y85490D01*
X207800D01*
X208300Y84990D01*
Y82990D01*
X207800Y82490D01*
X206801D01*
X206301Y82990D01*
X203302Y82490D02*
X205301D01*
X203302Y84490D01*
Y84990D01*
X203801Y85490D01*
X204801D01*
X205301Y84990D01*
X200802Y82490D02*
Y85490D01*
X202302Y83990D01*
X200303D01*
X208001Y126190D02*
X208501Y126690D01*
X209500D01*
X210000Y126190D01*
Y124190D01*
X209500Y123691D01*
X208501D01*
X208001Y124190D01*
X205002Y123691D02*
X207001D01*
X205002Y125690D01*
Y126190D01*
X205502Y126690D01*
X206501D01*
X207001Y126190D01*
X204002D02*
X203502Y126690D01*
X202502D01*
X202003Y126190D01*
Y125690D01*
X202502Y125190D01*
X203002D01*
X202502D01*
X202003Y124690D01*
Y124190D01*
X202502Y123691D01*
X203502D01*
X204002Y124190D01*
X200799Y136790D02*
X201299Y136290D01*
Y135290D01*
X200799Y134791D01*
X198800D01*
X198300Y135290D01*
Y136290D01*
X198800Y136790D01*
X198300Y139789D02*
Y137790D01*
X200299Y139789D01*
X200799D01*
X201299Y139289D01*
Y138289D01*
X200799Y137790D01*
X198300Y142788D02*
Y140789D01*
X200299Y142788D01*
X200799D01*
X201299Y142288D01*
Y141288D01*
X200799Y140789D01*
X174299Y137790D02*
X174799Y137290D01*
Y136290D01*
X174299Y135791D01*
X172300D01*
X171800Y136290D01*
Y137290D01*
X172300Y137790D01*
X171800Y140789D02*
Y138790D01*
X173799Y140789D01*
X174299D01*
X174799Y140289D01*
Y139289D01*
X174299Y138790D01*
X171800Y141789D02*
Y142788D01*
Y142288D01*
X174799D01*
X174299Y141789D01*
X167399Y137690D02*
X167899Y137190D01*
Y136190D01*
X167399Y135691D01*
X165400D01*
X164900Y136190D01*
Y137190D01*
X165400Y137690D01*
X164900Y140689D02*
Y138690D01*
X166899Y140689D01*
X167399D01*
X167899Y140189D01*
Y139189D01*
X167399Y138690D01*
Y141689D02*
X167899Y142188D01*
Y143188D01*
X167399Y143688D01*
X165400D01*
X164900Y143188D01*
Y142188D01*
X165400Y141689D01*
X167399D01*
X140899Y137190D02*
X141399Y136690D01*
Y135690D01*
X140899Y135191D01*
X138900D01*
X138400Y135690D01*
Y136690D01*
X138900Y137190D01*
X138400Y138190D02*
Y139189D01*
Y138689D01*
X141399D01*
X140899Y138190D01*
X138900Y140689D02*
X138400Y141189D01*
Y142188D01*
X138900Y142688D01*
X140899D01*
X141399Y142188D01*
Y141189D01*
X140899Y140689D01*
X140399D01*
X139900Y141189D01*
Y142688D01*
X37701Y173590D02*
X38201Y174090D01*
X39200D01*
X39700Y173590D01*
Y171590D01*
X39200Y171091D01*
X38201D01*
X37701Y171590D01*
X36701Y171091D02*
X35701D01*
X36201D01*
Y174090D01*
X36701Y173590D01*
X34202D02*
X33702Y174090D01*
X32702D01*
X32202Y173590D01*
Y173090D01*
X32702Y172590D01*
X32202Y172090D01*
Y171590D01*
X32702Y171091D01*
X33702D01*
X34202Y171590D01*
Y172090D01*
X33702Y172590D01*
X34202Y173090D01*
Y173590D01*
X33702Y172590D02*
X32702D01*
X124101Y128790D02*
X124601Y129290D01*
X125600D01*
X126100Y128790D01*
Y126790D01*
X125600Y126291D01*
X124601D01*
X124101Y126790D01*
X123101Y126291D02*
X122101D01*
X122601D01*
Y129290D01*
X123101Y128790D01*
X120602Y129290D02*
X118602D01*
Y128790D01*
X120602Y126790D01*
Y126291D01*
X124301Y81090D02*
X124801Y81590D01*
X125800D01*
X126300Y81090D01*
Y79090D01*
X125800Y78591D01*
X124801D01*
X124301Y79090D01*
X123301Y78591D02*
X122301D01*
X122801D01*
Y81590D01*
X123301Y81090D01*
X118802Y81590D02*
X119802Y81090D01*
X120802Y80090D01*
Y79090D01*
X120302Y78591D01*
X119302D01*
X118802Y79090D01*
Y79590D01*
X119302Y80090D01*
X120802D01*
X138499Y63590D02*
X138999Y63090D01*
Y62090D01*
X138499Y61590D01*
X136500D01*
X136000Y62090D01*
Y63090D01*
X136500Y63590D01*
X136000Y64590D02*
Y65589D01*
Y65089D01*
X138999D01*
X138499Y64590D01*
X138999Y69088D02*
Y67089D01*
X137499D01*
X137999Y68089D01*
Y68588D01*
X137499Y69088D01*
X136500D01*
X136000Y68588D01*
Y67589D01*
X136500Y67089D01*
X181899Y63690D02*
X182399Y63190D01*
Y62190D01*
X181899Y61690D01*
X179900D01*
X179400Y62190D01*
Y63190D01*
X179900Y63690D01*
X179400Y64690D02*
Y65689D01*
Y65189D01*
X182399D01*
X181899Y64690D01*
X179400Y68688D02*
X182399D01*
X180900Y67189D01*
Y69188D01*
X207601Y131490D02*
X208101Y131990D01*
X209100D01*
X209600Y131490D01*
Y129490D01*
X209100Y128991D01*
X208101D01*
X207601Y129490D01*
X206601Y128991D02*
X205601D01*
X206101D01*
Y131990D01*
X206601Y131490D01*
X202102Y128991D02*
X204102D01*
X202102Y130990D01*
Y131490D01*
X202602Y131990D01*
X203602D01*
X204102Y131490D01*
X187199Y126990D02*
X187699Y126490D01*
Y125490D01*
X187199Y124991D01*
X185200D01*
X184700Y125490D01*
Y126490D01*
X185200Y126990D01*
X184700Y127990D02*
Y128989D01*
Y128489D01*
X187699D01*
X187199Y127990D01*
X184700Y130489D02*
Y131488D01*
Y130989D01*
X187699D01*
X187199Y130489D01*
X154299Y126590D02*
X154799Y126090D01*
Y125090D01*
X154299Y124591D01*
X152300D01*
X151800Y125090D01*
Y126090D01*
X152300Y126590D01*
X151800Y127590D02*
Y128589D01*
Y128089D01*
X154799D01*
X154299Y127590D01*
Y130089D02*
X154799Y130589D01*
Y131588D01*
X154299Y132088D01*
X152300D01*
X151800Y131588D01*
Y130589D01*
X152300Y130089D01*
X154299D01*
X138001Y44690D02*
X138500Y45190D01*
X139500D01*
X140000Y44690D01*
Y42690D01*
X139500Y42191D01*
X138500D01*
X138001Y42690D01*
X137001Y42191D02*
X136001D01*
X136501D01*
Y45190D01*
X137001Y44690D01*
X277800Y14290D02*
Y17290D01*
X276301D01*
X275801Y16790D01*
Y15790D01*
X276301Y15290D01*
X277800D01*
X276800D02*
X275801Y14290D01*
X272802D02*
X274801D01*
X272802Y16290D01*
Y16790D01*
X273302Y17290D01*
X274301D01*
X274801Y16790D01*
X271802D02*
X271302Y17290D01*
X270302D01*
X269803Y16790D01*
Y14790D01*
X270302Y14290D01*
X271302D01*
X271802Y14790D01*
Y16790D01*
X287301Y9990D02*
X287801Y10490D01*
X288800D01*
X289300Y9990D01*
Y9490D01*
X288800Y8990D01*
X287801D01*
X287301Y8490D01*
Y7990D01*
X287801Y7491D01*
X288800D01*
X289300Y7990D01*
X286301Y7491D02*
X285301D01*
X285801D01*
Y10490D01*
X286301Y9990D01*
X202600Y152890D02*
Y149891D01*
X200601D01*
X199601Y152390D02*
X199101Y152890D01*
X198101D01*
X197602Y152390D01*
Y151890D01*
X198101Y151390D01*
X198601D01*
X198101D01*
X197602Y150890D01*
Y150390D01*
X198101Y149891D01*
X199101D01*
X199601Y150390D01*
D202*
X16729Y88358D02*
X15717Y88342D01*
X14718Y88182D01*
X13751Y87883D01*
X12837Y87450D01*
X11992Y86892D01*
X11236Y86220D01*
X10582Y85448D01*
X10044Y84591D01*
X9633Y83666D01*
X20187Y81757D02*
X20037Y82749D01*
X19636Y83669D01*
X19010Y84453D01*
X18202Y85049D01*
X17267Y85415D01*
X16270Y85527D01*
X15271Y85371D01*
X14346Y84961D01*
X13559Y84327D01*
X12962Y83510D01*
X12598Y82566D01*
X12490Y81561D01*
X23428Y81288D02*
X23384Y82270D01*
X23201Y83235D01*
X22883Y84165D01*
X22435Y85040D01*
X21868Y85842D01*
X21192Y86555D01*
X20422Y87165D01*
X19572Y87659D01*
X18661Y88027D01*
X17707Y88261D01*
X16729Y88358D01*
X24550Y83880D02*
Y84160D01*
X21865Y86845D02*
X24550Y84160D01*
X21865Y86845D02*
X26918D01*
X12054Y63713D02*
X27697Y71736D01*
X12490Y79915D02*
Y81561D01*
X24550Y73322D02*
Y77511D01*
X26918Y72132D02*
Y86845D01*
X23428Y81288D02*
X23429Y73869D01*
X11490Y76480D02*
X14017Y74983D01*
Y68458D02*
Y74983D01*
X15980Y69457D02*
X20374Y71736D01*
X11400Y74265D02*
X13981D01*
X16190Y77500D02*
X27697Y71736D01*
X20187Y77542D02*
Y81757D01*
X9218Y84223D02*
X12116Y79915D01*
X9218D02*
Y84223D01*
Y77886D02*
Y79915D01*
Y73078D02*
Y77886D01*
Y73078D02*
X12179Y77511D01*
X20219D01*
X12116Y79915D02*
X20219D01*
X15980Y69457D02*
Y73984D01*
X20374Y71736D01*
X9281Y66023D02*
X14017Y68458D01*
X9281Y61184D02*
Y66023D01*
Y61184D02*
X12054Y63713D01*
X9218Y77105D02*
Y81632D01*
Y76169D02*
Y77105D01*
Y71205D02*
Y76169D01*
Y71205D02*
X11400Y74265D01*
X23428Y76419D02*
Y77074D01*
X24550Y79915D02*
Y83880D01*
X23459Y79915D02*
X24550D01*
X23459Y77511D02*
X24550D01*
M02*
